G04 MADE WITH FRITZING*
G04 WWW.FRITZING.ORG*
G04 DOUBLE SIDED*
G04 HOLES PLATED*
G04 CONTOUR ON CENTER OF CONTOUR VECTOR*
%ASAXBY*%
%FSLAX23Y23*%
%MOIN*%
%OFA0B0*%
%SFA1.0B1.0*%
%ADD10C,0.049370*%
%ADD11C,0.049361*%
%ADD12C,0.088000*%
%ADD13C,0.139000*%
%ADD14R,0.098792X0.088736*%
%ADD15R,0.088750X0.108417*%
%ADD16R,0.098778X0.088736*%
%ADD17R,0.088208X0.108417*%
%ADD18R,0.088736X0.098792*%
%ADD19R,0.108417X0.088750*%
%ADD20R,0.088736X0.098778*%
%ADD21R,0.108417X0.088208*%
%ADD22C,0.018000*%
%ADD23C,0.010000*%
%LNMASK0*%
G90*
G70*
G54D10*
X1014Y414D03*
X1014Y314D03*
X964Y139D03*
X389Y364D03*
G54D11*
X468Y87D03*
X328Y87D03*
G54D10*
X464Y414D03*
X1089Y438D03*
X939Y414D03*
X539Y264D03*
G54D12*
X139Y313D03*
X139Y213D03*
X139Y313D03*
X139Y213D03*
X1764Y539D03*
X1664Y539D03*
X1764Y539D03*
X1664Y539D03*
X1364Y539D03*
X1264Y539D03*
X1364Y539D03*
X1264Y539D03*
X689Y489D03*
X689Y389D03*
X689Y489D03*
X689Y389D03*
X139Y519D03*
X139Y419D03*
X139Y519D03*
X139Y419D03*
G54D10*
X464Y214D03*
X1189Y214D03*
X1589Y354D03*
G54D11*
X1740Y296D03*
X1740Y157D03*
G54D10*
X1414Y264D03*
X1489Y264D03*
X1164Y364D03*
X1589Y439D03*
X1414Y389D03*
X239Y389D03*
X789Y389D03*
G54D13*
X1507Y514D03*
X96Y89D03*
G54D10*
X389Y139D03*
G54D11*
X1018Y87D03*
X879Y87D03*
G54D14*
X240Y138D03*
G54D15*
X397Y521D03*
G54D16*
X557Y138D03*
G54D15*
X262Y521D03*
G54D17*
X530Y521D03*
G54D18*
X1689Y68D03*
G54D19*
X1307Y225D03*
G54D20*
X1689Y385D03*
G54D19*
X1307Y90D03*
G54D21*
X1307Y358D03*
G54D14*
X790Y138D03*
G54D15*
X947Y521D03*
G54D16*
X1108Y138D03*
G54D15*
X812Y521D03*
G54D17*
X1081Y521D03*
G54D22*
X654Y189D02*
X684Y189D01*
D02*
X654Y264D02*
X684Y264D01*
G54D23*
G36*
X636Y164D02*
X636Y214D01*
X661Y214D01*
X661Y164D01*
X636Y164D01*
G37*
D02*
G36*
X676Y164D02*
X676Y214D01*
X701Y214D01*
X701Y164D01*
X676Y164D01*
G37*
D02*
G36*
X636Y239D02*
X636Y289D01*
X661Y289D01*
X661Y239D01*
X636Y239D01*
G37*
D02*
G36*
X676Y239D02*
X676Y289D01*
X701Y289D01*
X701Y239D01*
X676Y239D01*
G37*
D02*
G04 End of Mask0*
M02*