; NON-PLATED HOLES START AT T1
; THROUGH (PLATED) HOLES START AT T100
M48
INCH
T1C0.129000
T2C0.039361
T100C0.038000
T101C0.015748
%
T1
X015065Y005138
X000959Y000888
T2
X003284Y000871
X017399Y001572
X010174Y000878
X004675Y000871
X003284Y000878
X004674Y000878
X008784Y000878
X017399Y001568
X017399Y002959
X010181Y000871
X017399Y002963
X008791Y000871
T100
X006889Y004888
X001389Y003134
X006889Y003888
X016639Y005388
X001389Y002134
X012639Y005388
X017639Y005388
X001389Y004189
X001389Y005189
X013639Y005388
T101
X014139Y002638
X011889Y002138
X014142Y003890
X003889Y001388
X007887Y003891
X009639Y001388
X010139Y004138
X010889Y004384
X003889Y003638
X004639Y002138
X014889Y002638
X015889Y003539
X009389Y004138
X015889Y004388
X002389Y003888
X011639Y003638
X005389Y002638
X010139Y003138
X004639Y004138
T00
M30
