G04 MADE WITH FRITZING*
G04 WWW.FRITZING.ORG*
G04 DOUBLE SIDED*
G04 HOLES PLATED*
G04 CONTOUR ON CENTER OF CONTOUR VECTOR*
%ASAXBY*%
%FSLAX23Y23*%
%MOIN*%
%OFA0B0*%
%SFA1.0B1.0*%
%ADD10C,0.010000*%
%ADD11C,0.003528*%
%ADD12R,0.001000X0.001000*%
%LNSILK1*%
G90*
G70*
G54D10*
X639Y539D02*
X639Y339D01*
D02*
X639Y339D02*
X739Y339D01*
D02*
X739Y339D02*
X739Y539D01*
D02*
X739Y539D02*
X639Y539D01*
D02*
X89Y569D02*
X89Y369D01*
D02*
X89Y369D02*
X189Y369D01*
D02*
X189Y369D02*
X189Y569D01*
D02*
X189Y569D02*
X89Y569D01*
G54D11*
D02*
X862Y477D02*
X902Y477D01*
D02*
X995Y477D02*
X1039Y477D01*
D02*
X1640Y88D02*
X1366Y88D01*
D02*
X1351Y141D02*
X1351Y181D01*
D02*
X1351Y274D02*
X1351Y318D01*
D02*
X312Y477D02*
X352Y477D01*
D02*
X445Y477D02*
X489Y477D01*
X809Y88D02*
X809Y8D01*
X1084Y8D01*
X1084Y88D01*
D02*
X1740Y88D02*
X1820Y88D01*
X1820Y363D01*
X1740Y363D01*
D02*
X259Y88D02*
X259Y8D01*
X534Y8D01*
X534Y88D01*
D02*
G54D12*
X0Y606D02*
X1824Y606D01*
X0Y605D02*
X1824Y605D01*
X0Y604D02*
X1824Y604D01*
X0Y603D02*
X1824Y603D01*
X0Y602D02*
X1824Y602D01*
X0Y601D02*
X1824Y601D01*
X0Y600D02*
X1824Y600D01*
X0Y599D02*
X1824Y599D01*
X0Y598D02*
X7Y598D01*
X1817Y598D02*
X1824Y598D01*
X0Y597D02*
X7Y597D01*
X1817Y597D02*
X1824Y597D01*
X0Y596D02*
X7Y596D01*
X1817Y596D02*
X1824Y596D01*
X0Y595D02*
X7Y595D01*
X1817Y595D02*
X1824Y595D01*
X0Y594D02*
X7Y594D01*
X1817Y594D02*
X1824Y594D01*
X0Y593D02*
X7Y593D01*
X1817Y593D02*
X1824Y593D01*
X0Y592D02*
X7Y592D01*
X43Y592D02*
X45Y592D01*
X59Y592D02*
X69Y592D01*
X1817Y592D02*
X1824Y592D01*
X0Y591D02*
X7Y591D01*
X43Y591D02*
X45Y591D01*
X58Y591D02*
X69Y591D01*
X1817Y591D02*
X1824Y591D01*
X0Y590D02*
X7Y590D01*
X42Y590D02*
X46Y590D01*
X58Y590D02*
X69Y590D01*
X1817Y590D02*
X1824Y590D01*
X0Y589D02*
X7Y589D01*
X42Y589D02*
X46Y589D01*
X59Y589D02*
X69Y589D01*
X1817Y589D02*
X1824Y589D01*
X0Y588D02*
X7Y588D01*
X42Y588D02*
X46Y588D01*
X66Y588D02*
X69Y588D01*
X1817Y588D02*
X1824Y588D01*
X0Y587D02*
X7Y587D01*
X42Y587D02*
X46Y587D01*
X66Y587D02*
X69Y587D01*
X1817Y587D02*
X1824Y587D01*
X0Y586D02*
X7Y586D01*
X42Y586D02*
X46Y586D01*
X66Y586D02*
X69Y586D01*
X1817Y586D02*
X1824Y586D01*
X0Y585D02*
X7Y585D01*
X42Y585D02*
X46Y585D01*
X66Y585D02*
X69Y585D01*
X685Y585D02*
X686Y585D01*
X701Y585D02*
X716Y585D01*
X1817Y585D02*
X1824Y585D01*
X0Y584D02*
X7Y584D01*
X42Y584D02*
X46Y584D01*
X66Y584D02*
X69Y584D01*
X684Y584D02*
X687Y584D01*
X700Y584D02*
X718Y584D01*
X1817Y584D02*
X1824Y584D01*
X0Y583D02*
X7Y583D01*
X42Y583D02*
X46Y583D01*
X66Y583D02*
X69Y583D01*
X684Y583D02*
X687Y583D01*
X699Y583D02*
X719Y583D01*
X1817Y583D02*
X1824Y583D01*
X0Y582D02*
X7Y582D01*
X42Y582D02*
X46Y582D01*
X66Y582D02*
X69Y582D01*
X684Y582D02*
X687Y582D01*
X700Y582D02*
X719Y582D01*
X1817Y582D02*
X1824Y582D01*
X0Y581D02*
X7Y581D01*
X42Y581D02*
X46Y581D01*
X66Y581D02*
X69Y581D01*
X684Y581D02*
X687Y581D01*
X716Y581D02*
X719Y581D01*
X1817Y581D02*
X1824Y581D01*
X0Y580D02*
X7Y580D01*
X42Y580D02*
X46Y580D01*
X66Y580D02*
X69Y580D01*
X684Y580D02*
X687Y580D01*
X716Y580D02*
X719Y580D01*
X1817Y580D02*
X1824Y580D01*
X0Y579D02*
X7Y579D01*
X42Y579D02*
X46Y579D01*
X66Y579D02*
X69Y579D01*
X684Y579D02*
X687Y579D01*
X716Y579D02*
X719Y579D01*
X1817Y579D02*
X1824Y579D01*
X0Y578D02*
X7Y578D01*
X42Y578D02*
X46Y578D01*
X66Y578D02*
X69Y578D01*
X684Y578D02*
X687Y578D01*
X716Y578D02*
X719Y578D01*
X1817Y578D02*
X1824Y578D01*
X0Y577D02*
X7Y577D01*
X42Y577D02*
X46Y577D01*
X66Y577D02*
X69Y577D01*
X684Y577D02*
X687Y577D01*
X716Y577D02*
X719Y577D01*
X1817Y577D02*
X1824Y577D01*
X0Y576D02*
X7Y576D01*
X42Y576D02*
X46Y576D01*
X66Y576D02*
X69Y576D01*
X684Y576D02*
X687Y576D01*
X716Y576D02*
X719Y576D01*
X1817Y576D02*
X1824Y576D01*
X0Y575D02*
X7Y575D01*
X42Y575D02*
X46Y575D01*
X66Y575D02*
X69Y575D01*
X684Y575D02*
X687Y575D01*
X716Y575D02*
X719Y575D01*
X1817Y575D02*
X1824Y575D01*
X0Y574D02*
X7Y574D01*
X31Y574D02*
X33Y574D01*
X42Y574D02*
X46Y574D01*
X66Y574D02*
X69Y574D01*
X75Y574D02*
X77Y574D01*
X684Y574D02*
X687Y574D01*
X716Y574D02*
X719Y574D01*
X1817Y574D02*
X1824Y574D01*
X0Y573D02*
X7Y573D01*
X30Y573D02*
X33Y573D01*
X42Y573D02*
X46Y573D01*
X66Y573D02*
X69Y573D01*
X75Y573D02*
X78Y573D01*
X684Y573D02*
X687Y573D01*
X716Y573D02*
X719Y573D01*
X1817Y573D02*
X1824Y573D01*
X0Y572D02*
X7Y572D01*
X30Y572D02*
X33Y572D01*
X42Y572D02*
X46Y572D01*
X66Y572D02*
X69Y572D01*
X74Y572D02*
X78Y572D01*
X684Y572D02*
X687Y572D01*
X716Y572D02*
X719Y572D01*
X1817Y572D02*
X1824Y572D01*
X0Y571D02*
X7Y571D01*
X30Y571D02*
X33Y571D01*
X42Y571D02*
X46Y571D01*
X66Y571D02*
X69Y571D01*
X74Y571D02*
X78Y571D01*
X684Y571D02*
X687Y571D01*
X703Y571D02*
X719Y571D01*
X1817Y571D02*
X1824Y571D01*
X0Y570D02*
X7Y570D01*
X30Y570D02*
X33Y570D01*
X42Y570D02*
X46Y570D01*
X66Y570D02*
X69Y570D01*
X74Y570D02*
X78Y570D01*
X121Y570D02*
X122Y570D01*
X684Y570D02*
X687Y570D01*
X701Y570D02*
X719Y570D01*
X1817Y570D02*
X1824Y570D01*
X0Y569D02*
X7Y569D01*
X30Y569D02*
X33Y569D01*
X42Y569D02*
X46Y569D01*
X66Y569D02*
X69Y569D01*
X74Y569D02*
X78Y569D01*
X120Y569D02*
X123Y569D01*
X684Y569D02*
X687Y569D01*
X700Y569D02*
X718Y569D01*
X1817Y569D02*
X1824Y569D01*
X0Y568D02*
X7Y568D01*
X30Y568D02*
X33Y568D01*
X42Y568D02*
X46Y568D01*
X66Y568D02*
X69Y568D01*
X74Y568D02*
X78Y568D01*
X119Y568D02*
X124Y568D01*
X684Y568D02*
X687Y568D01*
X700Y568D02*
X718Y568D01*
X1817Y568D02*
X1824Y568D01*
X0Y567D02*
X7Y567D01*
X30Y567D02*
X33Y567D01*
X42Y567D02*
X46Y567D01*
X66Y567D02*
X69Y567D01*
X74Y567D02*
X78Y567D01*
X118Y567D02*
X124Y567D01*
X672Y567D02*
X674Y567D01*
X684Y567D02*
X687Y567D01*
X699Y567D02*
X715Y567D01*
X1817Y567D02*
X1824Y567D01*
X0Y566D02*
X7Y566D01*
X30Y566D02*
X33Y566D01*
X42Y566D02*
X46Y566D01*
X66Y566D02*
X69Y566D01*
X74Y566D02*
X78Y566D01*
X117Y566D02*
X123Y566D01*
X672Y566D02*
X675Y566D01*
X684Y566D02*
X687Y566D01*
X699Y566D02*
X703Y566D01*
X1817Y566D02*
X1824Y566D01*
X0Y565D02*
X7Y565D01*
X30Y565D02*
X34Y565D01*
X42Y565D02*
X45Y565D01*
X66Y565D02*
X69Y565D01*
X74Y565D02*
X78Y565D01*
X116Y565D02*
X122Y565D01*
X671Y565D02*
X675Y565D01*
X684Y565D02*
X687Y565D01*
X699Y565D02*
X703Y565D01*
X1817Y565D02*
X1824Y565D01*
X0Y564D02*
X7Y564D01*
X30Y564D02*
X45Y564D01*
X59Y564D02*
X78Y564D01*
X115Y564D02*
X121Y564D01*
X671Y564D02*
X675Y564D01*
X684Y564D02*
X687Y564D01*
X699Y564D02*
X703Y564D01*
X1817Y564D02*
X1824Y564D01*
X0Y563D02*
X7Y563D01*
X31Y563D02*
X45Y563D01*
X58Y563D02*
X78Y563D01*
X114Y563D02*
X120Y563D01*
X671Y563D02*
X675Y563D01*
X684Y563D02*
X687Y563D01*
X699Y563D02*
X703Y563D01*
X1817Y563D02*
X1824Y563D01*
X0Y562D02*
X7Y562D01*
X32Y562D02*
X44Y562D01*
X58Y562D02*
X78Y562D01*
X113Y562D02*
X119Y562D01*
X671Y562D02*
X675Y562D01*
X684Y562D02*
X687Y562D01*
X699Y562D02*
X703Y562D01*
X1817Y562D02*
X1824Y562D01*
X0Y561D02*
X7Y561D01*
X33Y561D02*
X43Y561D01*
X58Y561D02*
X77Y561D01*
X112Y561D02*
X118Y561D01*
X671Y561D02*
X675Y561D01*
X684Y561D02*
X687Y561D01*
X699Y561D02*
X703Y561D01*
X1817Y561D02*
X1824Y561D01*
X0Y560D02*
X7Y560D01*
X36Y560D02*
X40Y560D01*
X60Y560D02*
X76Y560D01*
X111Y560D02*
X117Y560D01*
X671Y560D02*
X675Y560D01*
X684Y560D02*
X687Y560D01*
X699Y560D02*
X703Y560D01*
X1817Y560D02*
X1824Y560D01*
X0Y559D02*
X7Y559D01*
X110Y559D02*
X116Y559D01*
X671Y559D02*
X675Y559D01*
X684Y559D02*
X687Y559D01*
X699Y559D02*
X703Y559D01*
X1817Y559D02*
X1824Y559D01*
X0Y558D02*
X7Y558D01*
X109Y558D02*
X115Y558D01*
X672Y558D02*
X675Y558D01*
X684Y558D02*
X687Y558D01*
X699Y558D02*
X703Y558D01*
X1817Y558D02*
X1824Y558D01*
X0Y557D02*
X7Y557D01*
X108Y557D02*
X114Y557D01*
X672Y557D02*
X687Y557D01*
X699Y557D02*
X717Y557D01*
X1817Y557D02*
X1824Y557D01*
X0Y556D02*
X7Y556D01*
X107Y556D02*
X113Y556D01*
X672Y556D02*
X686Y556D01*
X699Y556D02*
X719Y556D01*
X1817Y556D02*
X1824Y556D01*
X0Y555D02*
X7Y555D01*
X106Y555D02*
X112Y555D01*
X673Y555D02*
X685Y555D01*
X699Y555D02*
X719Y555D01*
X1817Y555D02*
X1824Y555D01*
X0Y554D02*
X7Y554D01*
X105Y554D02*
X111Y554D01*
X674Y554D02*
X684Y554D01*
X699Y554D02*
X719Y554D01*
X1817Y554D02*
X1824Y554D01*
X0Y553D02*
X7Y553D01*
X104Y553D02*
X110Y553D01*
X676Y553D02*
X682Y553D01*
X700Y553D02*
X718Y553D01*
X1817Y553D02*
X1824Y553D01*
X0Y552D02*
X7Y552D01*
X103Y552D02*
X109Y552D01*
X1817Y552D02*
X1824Y552D01*
X0Y551D02*
X7Y551D01*
X102Y551D02*
X107Y551D01*
X1817Y551D02*
X1824Y551D01*
X0Y550D02*
X7Y550D01*
X101Y550D02*
X106Y550D01*
X1817Y550D02*
X1824Y550D01*
X0Y549D02*
X7Y549D01*
X100Y549D02*
X106Y549D01*
X1817Y549D02*
X1824Y549D01*
X0Y548D02*
X7Y548D01*
X99Y548D02*
X105Y548D01*
X1817Y548D02*
X1824Y548D01*
X0Y547D02*
X7Y547D01*
X98Y547D02*
X104Y547D01*
X1817Y547D02*
X1824Y547D01*
X0Y546D02*
X7Y546D01*
X97Y546D02*
X103Y546D01*
X1817Y546D02*
X1824Y546D01*
X0Y545D02*
X7Y545D01*
X96Y545D02*
X102Y545D01*
X1817Y545D02*
X1824Y545D01*
X0Y544D02*
X7Y544D01*
X58Y544D02*
X61Y544D01*
X95Y544D02*
X101Y544D01*
X1817Y544D02*
X1824Y544D01*
X0Y543D02*
X7Y543D01*
X58Y543D02*
X61Y543D01*
X94Y543D02*
X100Y543D01*
X1817Y543D02*
X1824Y543D01*
X0Y542D02*
X7Y542D01*
X58Y542D02*
X61Y542D01*
X93Y542D02*
X99Y542D01*
X1817Y542D02*
X1824Y542D01*
X0Y541D02*
X7Y541D01*
X58Y541D02*
X61Y541D01*
X92Y541D02*
X98Y541D01*
X1817Y541D02*
X1824Y541D01*
X0Y540D02*
X7Y540D01*
X58Y540D02*
X61Y540D01*
X91Y540D02*
X97Y540D01*
X671Y540D02*
X672Y540D01*
X1817Y540D02*
X1824Y540D01*
X0Y539D02*
X7Y539D01*
X58Y539D02*
X61Y539D01*
X90Y539D02*
X96Y539D01*
X670Y539D02*
X673Y539D01*
X1817Y539D02*
X1824Y539D01*
X0Y538D02*
X7Y538D01*
X58Y538D02*
X61Y538D01*
X89Y538D02*
X95Y538D01*
X669Y538D02*
X674Y538D01*
X1817Y538D02*
X1824Y538D01*
X0Y537D02*
X7Y537D01*
X58Y537D02*
X61Y537D01*
X88Y537D02*
X94Y537D01*
X668Y537D02*
X674Y537D01*
X1817Y537D02*
X1824Y537D01*
X0Y536D02*
X7Y536D01*
X51Y536D02*
X69Y536D01*
X87Y536D02*
X93Y536D01*
X667Y536D02*
X673Y536D01*
X1817Y536D02*
X1824Y536D01*
X0Y535D02*
X7Y535D01*
X50Y535D02*
X69Y535D01*
X88Y535D02*
X92Y535D01*
X666Y535D02*
X672Y535D01*
X1817Y535D02*
X1824Y535D01*
X0Y534D02*
X7Y534D01*
X50Y534D02*
X70Y534D01*
X89Y534D02*
X91Y534D01*
X665Y534D02*
X671Y534D01*
X1817Y534D02*
X1824Y534D01*
X0Y533D02*
X7Y533D01*
X50Y533D02*
X69Y533D01*
X90Y533D02*
X90Y533D01*
X664Y533D02*
X670Y533D01*
X1817Y533D02*
X1824Y533D01*
X0Y532D02*
X7Y532D01*
X58Y532D02*
X62Y532D01*
X663Y532D02*
X669Y532D01*
X1817Y532D02*
X1824Y532D01*
X0Y531D02*
X7Y531D01*
X58Y531D02*
X61Y531D01*
X662Y531D02*
X668Y531D01*
X1817Y531D02*
X1824Y531D01*
X0Y530D02*
X7Y530D01*
X58Y530D02*
X61Y530D01*
X661Y530D02*
X667Y530D01*
X1817Y530D02*
X1824Y530D01*
X0Y529D02*
X7Y529D01*
X58Y529D02*
X61Y529D01*
X660Y529D02*
X666Y529D01*
X1817Y529D02*
X1824Y529D01*
X0Y528D02*
X7Y528D01*
X58Y528D02*
X61Y528D01*
X659Y528D02*
X665Y528D01*
X1817Y528D02*
X1824Y528D01*
X0Y527D02*
X7Y527D01*
X58Y527D02*
X61Y527D01*
X658Y527D02*
X664Y527D01*
X1817Y527D02*
X1824Y527D01*
X0Y526D02*
X7Y526D01*
X58Y526D02*
X61Y526D01*
X657Y526D02*
X663Y526D01*
X1817Y526D02*
X1824Y526D01*
X0Y525D02*
X7Y525D01*
X58Y525D02*
X61Y525D01*
X656Y525D02*
X662Y525D01*
X1817Y525D02*
X1824Y525D01*
X0Y524D02*
X7Y524D01*
X59Y524D02*
X60Y524D01*
X655Y524D02*
X661Y524D01*
X1817Y524D02*
X1824Y524D01*
X0Y523D02*
X7Y523D01*
X654Y523D02*
X660Y523D01*
X1817Y523D02*
X1824Y523D01*
X0Y522D02*
X7Y522D01*
X653Y522D02*
X658Y522D01*
X1817Y522D02*
X1824Y522D01*
X0Y521D02*
X7Y521D01*
X652Y521D02*
X657Y521D01*
X1817Y521D02*
X1824Y521D01*
X0Y520D02*
X7Y520D01*
X651Y520D02*
X656Y520D01*
X1817Y520D02*
X1824Y520D01*
X0Y519D02*
X7Y519D01*
X606Y519D02*
X608Y519D01*
X650Y519D02*
X655Y519D01*
X1817Y519D02*
X1824Y519D01*
X0Y518D02*
X7Y518D01*
X606Y518D02*
X609Y518D01*
X649Y518D02*
X654Y518D01*
X1817Y518D02*
X1824Y518D01*
X0Y517D02*
X7Y517D01*
X606Y517D02*
X609Y517D01*
X648Y517D02*
X654Y517D01*
X1817Y517D02*
X1824Y517D01*
X0Y516D02*
X7Y516D01*
X606Y516D02*
X609Y516D01*
X647Y516D02*
X653Y516D01*
X1817Y516D02*
X1824Y516D01*
X0Y515D02*
X7Y515D01*
X606Y515D02*
X609Y515D01*
X646Y515D02*
X652Y515D01*
X1817Y515D02*
X1824Y515D01*
X0Y514D02*
X7Y514D01*
X44Y514D02*
X74Y514D01*
X606Y514D02*
X609Y514D01*
X645Y514D02*
X651Y514D01*
X1817Y514D02*
X1824Y514D01*
X0Y513D02*
X7Y513D01*
X44Y513D02*
X75Y513D01*
X606Y513D02*
X609Y513D01*
X644Y513D02*
X650Y513D01*
X1817Y513D02*
X1824Y513D01*
X0Y512D02*
X7Y512D01*
X44Y512D02*
X76Y512D01*
X606Y512D02*
X609Y512D01*
X643Y512D02*
X649Y512D01*
X1817Y512D02*
X1824Y512D01*
X0Y511D02*
X7Y511D01*
X44Y511D02*
X75Y511D01*
X599Y511D02*
X616Y511D01*
X642Y511D02*
X648Y511D01*
X1817Y511D02*
X1824Y511D01*
X0Y510D02*
X7Y510D01*
X44Y510D02*
X74Y510D01*
X598Y510D02*
X617Y510D01*
X641Y510D02*
X647Y510D01*
X1817Y510D02*
X1824Y510D01*
X0Y509D02*
X7Y509D01*
X44Y509D02*
X47Y509D01*
X597Y509D02*
X617Y509D01*
X640Y509D02*
X646Y509D01*
X1817Y509D02*
X1824Y509D01*
X0Y508D02*
X7Y508D01*
X44Y508D02*
X47Y508D01*
X597Y508D02*
X617Y508D01*
X639Y508D02*
X645Y508D01*
X1817Y508D02*
X1824Y508D01*
X0Y507D02*
X7Y507D01*
X44Y507D02*
X47Y507D01*
X599Y507D02*
X616Y507D01*
X638Y507D02*
X644Y507D01*
X1817Y507D02*
X1824Y507D01*
X0Y506D02*
X7Y506D01*
X44Y506D02*
X47Y506D01*
X606Y506D02*
X609Y506D01*
X637Y506D02*
X643Y506D01*
X1817Y506D02*
X1824Y506D01*
X0Y505D02*
X7Y505D01*
X44Y505D02*
X47Y505D01*
X606Y505D02*
X609Y505D01*
X638Y505D02*
X642Y505D01*
X1817Y505D02*
X1824Y505D01*
X0Y504D02*
X7Y504D01*
X44Y504D02*
X47Y504D01*
X606Y504D02*
X609Y504D01*
X639Y504D02*
X641Y504D01*
X1817Y504D02*
X1824Y504D01*
X0Y503D02*
X7Y503D01*
X44Y503D02*
X47Y503D01*
X606Y503D02*
X609Y503D01*
X640Y503D02*
X640Y503D01*
X1817Y503D02*
X1824Y503D01*
X0Y502D02*
X7Y502D01*
X44Y502D02*
X47Y502D01*
X606Y502D02*
X609Y502D01*
X1817Y502D02*
X1824Y502D01*
X0Y501D02*
X7Y501D01*
X44Y501D02*
X47Y501D01*
X606Y501D02*
X609Y501D01*
X1817Y501D02*
X1824Y501D01*
X0Y500D02*
X7Y500D01*
X44Y500D02*
X47Y500D01*
X606Y500D02*
X609Y500D01*
X1817Y500D02*
X1824Y500D01*
X0Y499D02*
X7Y499D01*
X44Y499D02*
X47Y499D01*
X606Y499D02*
X608Y499D01*
X1817Y499D02*
X1824Y499D01*
X0Y498D02*
X7Y498D01*
X44Y498D02*
X47Y498D01*
X1817Y498D02*
X1824Y498D01*
X0Y497D02*
X7Y497D01*
X44Y497D02*
X47Y497D01*
X1817Y497D02*
X1824Y497D01*
X0Y496D02*
X7Y496D01*
X44Y496D02*
X47Y496D01*
X1817Y496D02*
X1824Y496D01*
X0Y495D02*
X7Y495D01*
X44Y495D02*
X47Y495D01*
X1817Y495D02*
X1824Y495D01*
X0Y494D02*
X7Y494D01*
X44Y494D02*
X46Y494D01*
X1817Y494D02*
X1824Y494D01*
X0Y493D02*
X7Y493D01*
X1817Y493D02*
X1824Y493D01*
X0Y492D02*
X7Y492D01*
X1817Y492D02*
X1824Y492D01*
X0Y491D02*
X7Y491D01*
X1817Y491D02*
X1824Y491D01*
X0Y490D02*
X7Y490D01*
X1817Y490D02*
X1824Y490D01*
X0Y489D02*
X7Y489D01*
X1817Y489D02*
X1824Y489D01*
X0Y488D02*
X7Y488D01*
X591Y488D02*
X623Y488D01*
X1817Y488D02*
X1824Y488D01*
X0Y487D02*
X7Y487D01*
X591Y487D02*
X623Y487D01*
X1817Y487D02*
X1824Y487D01*
X0Y486D02*
X7Y486D01*
X591Y486D02*
X623Y486D01*
X1817Y486D02*
X1824Y486D01*
X0Y485D02*
X7Y485D01*
X591Y485D02*
X622Y485D01*
X1817Y485D02*
X1824Y485D01*
X0Y484D02*
X7Y484D01*
X591Y484D02*
X595Y484D01*
X1817Y484D02*
X1824Y484D01*
X0Y483D02*
X7Y483D01*
X44Y483D02*
X76Y483D01*
X591Y483D02*
X595Y483D01*
X1728Y483D02*
X1731Y483D01*
X1817Y483D02*
X1824Y483D01*
X0Y482D02*
X7Y482D01*
X44Y482D02*
X76Y482D01*
X591Y482D02*
X595Y482D01*
X1727Y482D02*
X1732Y482D01*
X1817Y482D02*
X1824Y482D01*
X0Y481D02*
X7Y481D01*
X44Y481D02*
X76Y481D01*
X591Y481D02*
X595Y481D01*
X1659Y481D02*
X1676Y481D01*
X1690Y481D02*
X1695Y481D01*
X1705Y481D02*
X1710Y481D01*
X1727Y481D02*
X1732Y481D01*
X1817Y481D02*
X1824Y481D01*
X0Y480D02*
X7Y480D01*
X44Y480D02*
X76Y480D01*
X591Y480D02*
X595Y480D01*
X1659Y480D02*
X1677Y480D01*
X1690Y480D02*
X1695Y480D01*
X1705Y480D02*
X1710Y480D01*
X1727Y480D02*
X1732Y480D01*
X1817Y480D02*
X1824Y480D01*
X0Y479D02*
X7Y479D01*
X70Y479D02*
X76Y479D01*
X591Y479D02*
X595Y479D01*
X1659Y479D02*
X1678Y479D01*
X1690Y479D02*
X1696Y479D01*
X1704Y479D02*
X1710Y479D01*
X1727Y479D02*
X1732Y479D01*
X1817Y479D02*
X1824Y479D01*
X0Y478D02*
X7Y478D01*
X69Y478D02*
X75Y478D01*
X591Y478D02*
X595Y478D01*
X1265Y478D02*
X1282Y478D01*
X1299Y478D02*
X1313Y478D01*
X1358Y478D02*
X1359Y478D01*
X1659Y478D02*
X1679Y478D01*
X1690Y478D02*
X1697Y478D01*
X1703Y478D02*
X1710Y478D01*
X1727Y478D02*
X1732Y478D01*
X1817Y478D02*
X1824Y478D01*
X0Y477D02*
X7Y477D01*
X67Y477D02*
X74Y477D01*
X591Y477D02*
X595Y477D01*
X1265Y477D02*
X1283Y477D01*
X1297Y477D02*
X1314Y477D01*
X1357Y477D02*
X1360Y477D01*
X1659Y477D02*
X1663Y477D01*
X1675Y477D02*
X1679Y477D01*
X1690Y477D02*
X1697Y477D01*
X1703Y477D02*
X1710Y477D01*
X1817Y477D02*
X1824Y477D01*
X0Y476D02*
X7Y476D01*
X66Y476D02*
X72Y476D01*
X591Y476D02*
X595Y476D01*
X1265Y476D02*
X1284Y476D01*
X1297Y476D02*
X1315Y476D01*
X1357Y476D02*
X1360Y476D01*
X1659Y476D02*
X1663Y476D01*
X1676Y476D02*
X1679Y476D01*
X1690Y476D02*
X1698Y476D01*
X1702Y476D02*
X1710Y476D01*
X1817Y476D02*
X1824Y476D01*
X0Y475D02*
X7Y475D01*
X63Y475D02*
X71Y475D01*
X591Y475D02*
X595Y475D01*
X1265Y475D02*
X1285Y475D01*
X1296Y475D02*
X1316Y475D01*
X1357Y475D02*
X1360Y475D01*
X1659Y475D02*
X1663Y475D01*
X1676Y475D02*
X1680Y475D01*
X1690Y475D02*
X1699Y475D01*
X1701Y475D02*
X1710Y475D01*
X1791Y475D02*
X1792Y475D01*
X1817Y475D02*
X1824Y475D01*
X0Y474D02*
X7Y474D01*
X62Y474D02*
X69Y474D01*
X591Y474D02*
X595Y474D01*
X1265Y474D02*
X1269Y474D01*
X1281Y474D02*
X1285Y474D01*
X1296Y474D02*
X1299Y474D01*
X1312Y474D02*
X1316Y474D01*
X1357Y474D02*
X1360Y474D01*
X1659Y474D02*
X1663Y474D01*
X1676Y474D02*
X1680Y474D01*
X1690Y474D02*
X1693Y474D01*
X1695Y474D02*
X1705Y474D01*
X1707Y474D02*
X1710Y474D01*
X1790Y474D02*
X1793Y474D01*
X1817Y474D02*
X1824Y474D01*
X0Y473D02*
X7Y473D01*
X62Y473D02*
X69Y473D01*
X591Y473D02*
X595Y473D01*
X1265Y473D02*
X1269Y473D01*
X1282Y473D02*
X1285Y473D01*
X1296Y473D02*
X1300Y473D01*
X1313Y473D02*
X1316Y473D01*
X1357Y473D02*
X1360Y473D01*
X1659Y473D02*
X1663Y473D01*
X1676Y473D02*
X1680Y473D01*
X1690Y473D02*
X1693Y473D01*
X1696Y473D02*
X1704Y473D01*
X1707Y473D02*
X1710Y473D01*
X1790Y473D02*
X1793Y473D01*
X1817Y473D02*
X1824Y473D01*
X0Y472D02*
X7Y472D01*
X62Y472D02*
X70Y472D01*
X591Y472D02*
X595Y472D01*
X1265Y472D02*
X1269Y472D01*
X1282Y472D02*
X1285Y472D01*
X1296Y472D02*
X1300Y472D01*
X1313Y472D02*
X1316Y472D01*
X1357Y472D02*
X1360Y472D01*
X1397Y472D02*
X1398Y472D01*
X1659Y472D02*
X1663Y472D01*
X1676Y472D02*
X1679Y472D01*
X1690Y472D02*
X1693Y472D01*
X1697Y472D02*
X1703Y472D01*
X1707Y472D02*
X1710Y472D01*
X1723Y472D02*
X1731Y472D01*
X1759Y472D02*
X1770Y472D01*
X1790Y472D02*
X1793Y472D01*
X1817Y472D02*
X1824Y472D01*
X0Y471D02*
X7Y471D01*
X65Y471D02*
X71Y471D01*
X591Y471D02*
X595Y471D01*
X1265Y471D02*
X1269Y471D01*
X1282Y471D02*
X1285Y471D01*
X1297Y471D02*
X1301Y471D01*
X1314Y471D02*
X1315Y471D01*
X1357Y471D02*
X1360Y471D01*
X1396Y471D02*
X1399Y471D01*
X1659Y471D02*
X1663Y471D01*
X1675Y471D02*
X1679Y471D01*
X1690Y471D02*
X1693Y471D01*
X1697Y471D02*
X1703Y471D01*
X1707Y471D02*
X1710Y471D01*
X1723Y471D02*
X1732Y471D01*
X1757Y471D02*
X1771Y471D01*
X1790Y471D02*
X1793Y471D01*
X1817Y471D02*
X1824Y471D01*
X0Y470D02*
X7Y470D01*
X66Y470D02*
X73Y470D01*
X591Y470D02*
X594Y470D01*
X1265Y470D02*
X1269Y470D01*
X1282Y470D02*
X1285Y470D01*
X1297Y470D02*
X1302Y470D01*
X1327Y470D02*
X1329Y470D01*
X1334Y470D02*
X1339Y470D01*
X1357Y470D02*
X1360Y470D01*
X1396Y470D02*
X1399Y470D01*
X1659Y470D02*
X1679Y470D01*
X1690Y470D02*
X1693Y470D01*
X1698Y470D02*
X1702Y470D01*
X1707Y470D02*
X1710Y470D01*
X1723Y470D02*
X1732Y470D01*
X1756Y470D02*
X1771Y470D01*
X1790Y470D02*
X1793Y470D01*
X1817Y470D02*
X1824Y470D01*
X0Y469D02*
X7Y469D01*
X68Y469D02*
X74Y469D01*
X592Y469D02*
X594Y469D01*
X1265Y469D02*
X1269Y469D01*
X1282Y469D02*
X1285Y469D01*
X1298Y469D02*
X1303Y469D01*
X1327Y469D02*
X1330Y469D01*
X1333Y469D02*
X1341Y469D01*
X1357Y469D02*
X1360Y469D01*
X1372Y469D02*
X1374Y469D01*
X1396Y469D02*
X1399Y469D01*
X1659Y469D02*
X1678Y469D01*
X1690Y469D02*
X1693Y469D01*
X1698Y469D02*
X1702Y469D01*
X1707Y469D02*
X1710Y469D01*
X1723Y469D02*
X1732Y469D01*
X1754Y469D02*
X1771Y469D01*
X1790Y469D02*
X1793Y469D01*
X1817Y469D02*
X1824Y469D01*
X0Y468D02*
X7Y468D01*
X69Y468D02*
X75Y468D01*
X593Y468D02*
X593Y468D01*
X1265Y468D02*
X1269Y468D01*
X1281Y468D02*
X1285Y468D01*
X1299Y468D02*
X1303Y468D01*
X1326Y468D02*
X1342Y468D01*
X1357Y468D02*
X1360Y468D01*
X1371Y468D02*
X1375Y468D01*
X1396Y468D02*
X1399Y468D01*
X1659Y468D02*
X1677Y468D01*
X1690Y468D02*
X1693Y468D01*
X1698Y468D02*
X1701Y468D01*
X1707Y468D02*
X1710Y468D01*
X1729Y468D02*
X1732Y468D01*
X1753Y468D02*
X1759Y468D01*
X1790Y468D02*
X1793Y468D01*
X1817Y468D02*
X1824Y468D01*
X0Y467D02*
X7Y467D01*
X70Y467D02*
X76Y467D01*
X1265Y467D02*
X1285Y467D01*
X1300Y467D02*
X1304Y467D01*
X1326Y467D02*
X1343Y467D01*
X1357Y467D02*
X1360Y467D01*
X1370Y467D02*
X1375Y467D01*
X1396Y467D02*
X1399Y467D01*
X1630Y467D02*
X1647Y467D01*
X1659Y467D02*
X1676Y467D01*
X1690Y467D02*
X1693Y467D01*
X1699Y467D02*
X1701Y467D01*
X1707Y467D02*
X1710Y467D01*
X1729Y467D02*
X1732Y467D01*
X1752Y467D02*
X1758Y467D01*
X1783Y467D02*
X1800Y467D01*
X1817Y467D02*
X1824Y467D01*
X0Y466D02*
X7Y466D01*
X44Y466D02*
X76Y466D01*
X1265Y466D02*
X1284Y466D01*
X1301Y466D02*
X1305Y466D01*
X1326Y466D02*
X1335Y466D01*
X1338Y466D02*
X1344Y466D01*
X1357Y466D02*
X1360Y466D01*
X1369Y466D02*
X1374Y466D01*
X1396Y466D02*
X1399Y466D01*
X1629Y466D02*
X1649Y466D01*
X1659Y466D02*
X1663Y466D01*
X1667Y466D02*
X1671Y466D01*
X1690Y466D02*
X1693Y466D01*
X1707Y466D02*
X1710Y466D01*
X1729Y466D02*
X1732Y466D01*
X1752Y466D02*
X1757Y466D01*
X1782Y466D02*
X1801Y466D01*
X1817Y466D02*
X1824Y466D01*
X0Y465D02*
X7Y465D01*
X44Y465D02*
X76Y465D01*
X1265Y465D02*
X1283Y465D01*
X1301Y465D02*
X1306Y465D01*
X1326Y465D02*
X1334Y465D01*
X1340Y465D02*
X1345Y465D01*
X1357Y465D02*
X1360Y465D01*
X1368Y465D02*
X1373Y465D01*
X1396Y465D02*
X1399Y465D01*
X1629Y465D02*
X1649Y465D01*
X1659Y465D02*
X1663Y465D01*
X1667Y465D02*
X1671Y465D01*
X1690Y465D02*
X1693Y465D01*
X1707Y465D02*
X1710Y465D01*
X1729Y465D02*
X1732Y465D01*
X1751Y465D02*
X1755Y465D01*
X1782Y465D02*
X1802Y465D01*
X1817Y465D02*
X1824Y465D01*
X0Y464D02*
X7Y464D01*
X44Y464D02*
X76Y464D01*
X1236Y464D02*
X1254Y464D01*
X1265Y464D02*
X1282Y464D01*
X1302Y464D02*
X1307Y464D01*
X1326Y464D02*
X1333Y464D01*
X1341Y464D02*
X1346Y464D01*
X1357Y464D02*
X1360Y464D01*
X1366Y464D02*
X1372Y464D01*
X1389Y464D02*
X1406Y464D01*
X1629Y464D02*
X1649Y464D01*
X1659Y464D02*
X1663Y464D01*
X1668Y464D02*
X1672Y464D01*
X1690Y464D02*
X1693Y464D01*
X1707Y464D02*
X1710Y464D01*
X1729Y464D02*
X1732Y464D01*
X1751Y464D02*
X1755Y464D01*
X1782Y464D02*
X1801Y464D01*
X1817Y464D02*
X1824Y464D01*
X0Y463D02*
X7Y463D01*
X45Y463D02*
X76Y463D01*
X257Y463D02*
X259Y463D01*
X533Y463D02*
X535Y463D01*
X807Y463D02*
X809Y463D01*
X1083Y463D02*
X1083Y463D01*
X1235Y463D02*
X1255Y463D01*
X1265Y463D02*
X1269Y463D01*
X1273Y463D02*
X1277Y463D01*
X1303Y463D02*
X1307Y463D01*
X1326Y463D02*
X1332Y463D01*
X1342Y463D02*
X1346Y463D01*
X1357Y463D02*
X1360Y463D01*
X1365Y463D02*
X1371Y463D01*
X1388Y463D02*
X1407Y463D01*
X1629Y463D02*
X1649Y463D01*
X1659Y463D02*
X1663Y463D01*
X1669Y463D02*
X1673Y463D01*
X1690Y463D02*
X1693Y463D01*
X1707Y463D02*
X1710Y463D01*
X1729Y463D02*
X1732Y463D01*
X1751Y463D02*
X1754Y463D01*
X1783Y463D02*
X1800Y463D01*
X1817Y463D02*
X1824Y463D01*
X0Y462D02*
X7Y462D01*
X257Y462D02*
X259Y462D01*
X532Y462D02*
X535Y462D01*
X807Y462D02*
X809Y462D01*
X1235Y462D02*
X1255Y462D01*
X1265Y462D02*
X1269Y462D01*
X1273Y462D02*
X1277Y462D01*
X1304Y462D02*
X1308Y462D01*
X1326Y462D02*
X1331Y462D01*
X1343Y462D02*
X1346Y462D01*
X1357Y462D02*
X1360Y462D01*
X1364Y462D02*
X1370Y462D01*
X1387Y462D02*
X1408Y462D01*
X1629Y462D02*
X1649Y462D01*
X1659Y462D02*
X1663Y462D01*
X1669Y462D02*
X1673Y462D01*
X1690Y462D02*
X1693Y462D01*
X1707Y462D02*
X1710Y462D01*
X1729Y462D02*
X1732Y462D01*
X1751Y462D02*
X1754Y462D01*
X1790Y462D02*
X1793Y462D01*
X1817Y462D02*
X1824Y462D01*
X0Y461D02*
X7Y461D01*
X257Y461D02*
X260Y461D01*
X532Y461D02*
X535Y461D01*
X807Y461D02*
X809Y461D01*
X1235Y461D02*
X1255Y461D01*
X1265Y461D02*
X1269Y461D01*
X1274Y461D02*
X1278Y461D01*
X1304Y461D02*
X1309Y461D01*
X1326Y461D02*
X1330Y461D01*
X1343Y461D02*
X1346Y461D01*
X1357Y461D02*
X1360Y461D01*
X1363Y461D02*
X1369Y461D01*
X1388Y461D02*
X1407Y461D01*
X1659Y461D02*
X1663Y461D01*
X1670Y461D02*
X1674Y461D01*
X1690Y461D02*
X1693Y461D01*
X1707Y461D02*
X1710Y461D01*
X1729Y461D02*
X1732Y461D01*
X1751Y461D02*
X1754Y461D01*
X1790Y461D02*
X1793Y461D01*
X1817Y461D02*
X1824Y461D01*
X0Y460D02*
X7Y460D01*
X257Y460D02*
X260Y460D01*
X532Y460D02*
X535Y460D01*
X807Y460D02*
X809Y460D01*
X1235Y460D02*
X1255Y460D01*
X1265Y460D02*
X1269Y460D01*
X1275Y460D02*
X1279Y460D01*
X1305Y460D02*
X1310Y460D01*
X1326Y460D02*
X1330Y460D01*
X1343Y460D02*
X1347Y460D01*
X1357Y460D02*
X1360Y460D01*
X1362Y460D02*
X1367Y460D01*
X1389Y460D02*
X1406Y460D01*
X1659Y460D02*
X1663Y460D01*
X1670Y460D02*
X1674Y460D01*
X1690Y460D02*
X1693Y460D01*
X1707Y460D02*
X1710Y460D01*
X1729Y460D02*
X1732Y460D01*
X1751Y460D02*
X1754Y460D01*
X1790Y460D02*
X1793Y460D01*
X1817Y460D02*
X1824Y460D01*
X0Y459D02*
X7Y459D01*
X257Y459D02*
X260Y459D01*
X532Y459D02*
X535Y459D01*
X807Y459D02*
X809Y459D01*
X1235Y459D02*
X1255Y459D01*
X1265Y459D02*
X1269Y459D01*
X1275Y459D02*
X1279Y459D01*
X1306Y459D02*
X1310Y459D01*
X1326Y459D02*
X1330Y459D01*
X1343Y459D02*
X1347Y459D01*
X1357Y459D02*
X1366Y459D01*
X1396Y459D02*
X1399Y459D01*
X1659Y459D02*
X1663Y459D01*
X1671Y459D02*
X1675Y459D01*
X1690Y459D02*
X1693Y459D01*
X1707Y459D02*
X1710Y459D01*
X1729Y459D02*
X1732Y459D01*
X1751Y459D02*
X1754Y459D01*
X1790Y459D02*
X1793Y459D01*
X1817Y459D02*
X1824Y459D01*
X0Y458D02*
X7Y458D01*
X257Y458D02*
X260Y458D01*
X532Y458D02*
X535Y458D01*
X595Y458D02*
X597Y458D01*
X618Y458D02*
X620Y458D01*
X807Y458D02*
X809Y458D01*
X1265Y458D02*
X1269Y458D01*
X1276Y458D02*
X1280Y458D01*
X1307Y458D02*
X1311Y458D01*
X1326Y458D02*
X1330Y458D01*
X1343Y458D02*
X1347Y458D01*
X1357Y458D02*
X1366Y458D01*
X1396Y458D02*
X1399Y458D01*
X1659Y458D02*
X1663Y458D01*
X1672Y458D02*
X1676Y458D01*
X1690Y458D02*
X1693Y458D01*
X1707Y458D02*
X1710Y458D01*
X1729Y458D02*
X1732Y458D01*
X1751Y458D02*
X1754Y458D01*
X1790Y458D02*
X1793Y458D01*
X1817Y458D02*
X1824Y458D01*
X0Y457D02*
X7Y457D01*
X257Y457D02*
X260Y457D01*
X532Y457D02*
X535Y457D01*
X593Y457D02*
X598Y457D01*
X616Y457D02*
X622Y457D01*
X807Y457D02*
X809Y457D01*
X1265Y457D02*
X1269Y457D01*
X1276Y457D02*
X1280Y457D01*
X1308Y457D02*
X1312Y457D01*
X1326Y457D02*
X1330Y457D01*
X1343Y457D02*
X1347Y457D01*
X1357Y457D02*
X1367Y457D01*
X1396Y457D02*
X1399Y457D01*
X1659Y457D02*
X1663Y457D01*
X1672Y457D02*
X1676Y457D01*
X1690Y457D02*
X1693Y457D01*
X1707Y457D02*
X1710Y457D01*
X1729Y457D02*
X1732Y457D01*
X1751Y457D02*
X1755Y457D01*
X1790Y457D02*
X1793Y457D01*
X1817Y457D02*
X1824Y457D01*
X0Y456D02*
X7Y456D01*
X257Y456D02*
X260Y456D01*
X532Y456D02*
X535Y456D01*
X592Y456D02*
X598Y456D01*
X615Y456D02*
X623Y456D01*
X807Y456D02*
X809Y456D01*
X1265Y456D02*
X1269Y456D01*
X1277Y456D02*
X1281Y456D01*
X1308Y456D02*
X1313Y456D01*
X1326Y456D02*
X1330Y456D01*
X1343Y456D02*
X1347Y456D01*
X1357Y456D02*
X1368Y456D01*
X1396Y456D02*
X1399Y456D01*
X1659Y456D02*
X1663Y456D01*
X1673Y456D02*
X1677Y456D01*
X1690Y456D02*
X1693Y456D01*
X1707Y456D02*
X1710Y456D01*
X1729Y456D02*
X1732Y456D01*
X1751Y456D02*
X1755Y456D01*
X1790Y456D02*
X1793Y456D01*
X1817Y456D02*
X1824Y456D01*
X0Y455D02*
X7Y455D01*
X257Y455D02*
X260Y455D01*
X532Y455D02*
X535Y455D01*
X592Y455D02*
X598Y455D01*
X613Y455D02*
X623Y455D01*
X807Y455D02*
X809Y455D01*
X1265Y455D02*
X1269Y455D01*
X1278Y455D02*
X1282Y455D01*
X1309Y455D02*
X1314Y455D01*
X1326Y455D02*
X1330Y455D01*
X1343Y455D02*
X1347Y455D01*
X1357Y455D02*
X1362Y455D01*
X1364Y455D02*
X1370Y455D01*
X1396Y455D02*
X1399Y455D01*
X1659Y455D02*
X1663Y455D01*
X1673Y455D02*
X1677Y455D01*
X1690Y455D02*
X1693Y455D01*
X1707Y455D02*
X1710Y455D01*
X1729Y455D02*
X1732Y455D01*
X1752Y455D02*
X1757Y455D01*
X1791Y455D02*
X1792Y455D01*
X1817Y455D02*
X1824Y455D01*
X0Y454D02*
X7Y454D01*
X257Y454D02*
X260Y454D01*
X532Y454D02*
X535Y454D01*
X591Y454D02*
X596Y454D01*
X612Y454D02*
X618Y454D01*
X620Y454D02*
X623Y454D01*
X807Y454D02*
X809Y454D01*
X1265Y454D02*
X1269Y454D01*
X1278Y454D02*
X1282Y454D01*
X1310Y454D02*
X1314Y454D01*
X1326Y454D02*
X1330Y454D01*
X1343Y454D02*
X1347Y454D01*
X1357Y454D02*
X1360Y454D01*
X1365Y454D02*
X1371Y454D01*
X1396Y454D02*
X1399Y454D01*
X1659Y454D02*
X1663Y454D01*
X1674Y454D02*
X1678Y454D01*
X1690Y454D02*
X1693Y454D01*
X1707Y454D02*
X1710Y454D01*
X1729Y454D02*
X1732Y454D01*
X1752Y454D02*
X1758Y454D01*
X1817Y454D02*
X1824Y454D01*
X0Y453D02*
X7Y453D01*
X257Y453D02*
X260Y453D01*
X532Y453D02*
X535Y453D01*
X591Y453D02*
X595Y453D01*
X611Y453D02*
X617Y453D01*
X620Y453D02*
X623Y453D01*
X807Y453D02*
X809Y453D01*
X1265Y453D02*
X1269Y453D01*
X1279Y453D02*
X1283Y453D01*
X1297Y453D02*
X1298Y453D01*
X1311Y453D02*
X1315Y453D01*
X1326Y453D02*
X1330Y453D01*
X1343Y453D02*
X1346Y453D01*
X1357Y453D02*
X1360Y453D01*
X1366Y453D02*
X1372Y453D01*
X1396Y453D02*
X1399Y453D01*
X1659Y453D02*
X1663Y453D01*
X1674Y453D02*
X1678Y453D01*
X1690Y453D02*
X1693Y453D01*
X1707Y453D02*
X1710Y453D01*
X1729Y453D02*
X1732Y453D01*
X1753Y453D02*
X1759Y453D01*
X1817Y453D02*
X1824Y453D01*
X0Y452D02*
X7Y452D01*
X257Y452D02*
X260Y452D01*
X532Y452D02*
X535Y452D01*
X591Y452D02*
X595Y452D01*
X609Y452D02*
X616Y452D01*
X620Y452D02*
X623Y452D01*
X807Y452D02*
X809Y452D01*
X1265Y452D02*
X1269Y452D01*
X1279Y452D02*
X1283Y452D01*
X1296Y452D02*
X1299Y452D01*
X1311Y452D02*
X1316Y452D01*
X1326Y452D02*
X1332Y452D01*
X1342Y452D02*
X1346Y452D01*
X1357Y452D02*
X1360Y452D01*
X1367Y452D02*
X1373Y452D01*
X1397Y452D02*
X1398Y452D01*
X1659Y452D02*
X1663Y452D01*
X1675Y452D02*
X1679Y452D01*
X1690Y452D02*
X1693Y452D01*
X1707Y452D02*
X1710Y452D01*
X1723Y452D02*
X1738Y452D01*
X1754Y452D02*
X1770Y452D01*
X1817Y452D02*
X1824Y452D01*
X0Y451D02*
X7Y451D01*
X45Y451D02*
X45Y451D01*
X65Y451D02*
X65Y451D01*
X257Y451D02*
X260Y451D01*
X532Y451D02*
X535Y451D01*
X591Y451D02*
X595Y451D01*
X608Y451D02*
X614Y451D01*
X620Y451D02*
X623Y451D01*
X807Y451D02*
X809Y451D01*
X1265Y451D02*
X1269Y451D01*
X1280Y451D02*
X1284Y451D01*
X1296Y451D02*
X1299Y451D01*
X1312Y451D02*
X1316Y451D01*
X1326Y451D02*
X1333Y451D01*
X1341Y451D02*
X1346Y451D01*
X1357Y451D02*
X1360Y451D01*
X1369Y451D02*
X1374Y451D01*
X1659Y451D02*
X1663Y451D01*
X1676Y451D02*
X1679Y451D01*
X1690Y451D02*
X1693Y451D01*
X1707Y451D02*
X1710Y451D01*
X1723Y451D02*
X1738Y451D01*
X1756Y451D02*
X1771Y451D01*
X1817Y451D02*
X1824Y451D01*
X0Y450D02*
X7Y450D01*
X44Y450D02*
X46Y450D01*
X64Y450D02*
X66Y450D01*
X257Y450D02*
X260Y450D01*
X532Y450D02*
X535Y450D01*
X591Y450D02*
X595Y450D01*
X607Y450D02*
X613Y450D01*
X620Y450D02*
X623Y450D01*
X807Y450D02*
X809Y450D01*
X1265Y450D02*
X1269Y450D01*
X1280Y450D02*
X1284Y450D01*
X1296Y450D02*
X1300Y450D01*
X1312Y450D02*
X1316Y450D01*
X1326Y450D02*
X1334Y450D01*
X1340Y450D02*
X1345Y450D01*
X1357Y450D02*
X1360Y450D01*
X1370Y450D02*
X1375Y450D01*
X1660Y450D02*
X1663Y450D01*
X1676Y450D02*
X1679Y450D01*
X1690Y450D02*
X1693Y450D01*
X1707Y450D02*
X1710Y450D01*
X1723Y450D02*
X1738Y450D01*
X1757Y450D02*
X1771Y450D01*
X1817Y450D02*
X1824Y450D01*
X0Y449D02*
X7Y449D01*
X44Y449D02*
X47Y449D01*
X63Y449D02*
X67Y449D01*
X257Y449D02*
X260Y449D01*
X532Y449D02*
X535Y449D01*
X591Y449D02*
X595Y449D01*
X606Y449D02*
X612Y449D01*
X620Y449D02*
X623Y449D01*
X807Y449D02*
X809Y449D01*
X1265Y449D02*
X1269Y449D01*
X1281Y449D02*
X1285Y449D01*
X1296Y449D02*
X1316Y449D01*
X1326Y449D02*
X1335Y449D01*
X1338Y449D02*
X1344Y449D01*
X1357Y449D02*
X1360Y449D01*
X1371Y449D02*
X1376Y449D01*
X1660Y449D02*
X1662Y449D01*
X1677Y449D02*
X1679Y449D01*
X1691Y449D02*
X1692Y449D01*
X1708Y449D02*
X1709Y449D01*
X1723Y449D02*
X1738Y449D01*
X1758Y449D02*
X1770Y449D01*
X1817Y449D02*
X1824Y449D01*
X0Y448D02*
X7Y448D01*
X44Y448D02*
X47Y448D01*
X63Y448D02*
X67Y448D01*
X257Y448D02*
X260Y448D01*
X532Y448D02*
X535Y448D01*
X591Y448D02*
X595Y448D01*
X604Y448D02*
X610Y448D01*
X620Y448D02*
X623Y448D01*
X807Y448D02*
X809Y448D01*
X1265Y448D02*
X1269Y448D01*
X1282Y448D02*
X1285Y448D01*
X1297Y448D02*
X1315Y448D01*
X1326Y448D02*
X1343Y448D01*
X1357Y448D02*
X1360Y448D01*
X1372Y448D02*
X1377Y448D01*
X1817Y448D02*
X1824Y448D01*
X0Y447D02*
X7Y447D01*
X44Y447D02*
X47Y447D01*
X63Y447D02*
X67Y447D01*
X257Y447D02*
X260Y447D01*
X532Y447D02*
X535Y447D01*
X591Y447D02*
X595Y447D01*
X603Y447D02*
X609Y447D01*
X620Y447D02*
X623Y447D01*
X807Y447D02*
X809Y447D01*
X1266Y447D02*
X1269Y447D01*
X1282Y447D02*
X1285Y447D01*
X1298Y447D02*
X1315Y447D01*
X1326Y447D02*
X1342Y447D01*
X1357Y447D02*
X1360Y447D01*
X1373Y447D02*
X1377Y447D01*
X1817Y447D02*
X1824Y447D01*
X0Y446D02*
X7Y446D01*
X44Y446D02*
X47Y446D01*
X63Y446D02*
X67Y446D01*
X73Y446D02*
X77Y446D01*
X257Y446D02*
X260Y446D01*
X532Y446D02*
X535Y446D01*
X591Y446D02*
X595Y446D01*
X602Y446D02*
X608Y446D01*
X620Y446D02*
X623Y446D01*
X807Y446D02*
X809Y446D01*
X1266Y446D02*
X1268Y446D01*
X1283Y446D02*
X1285Y446D01*
X1299Y446D02*
X1313Y446D01*
X1326Y446D02*
X1330Y446D01*
X1333Y446D02*
X1340Y446D01*
X1358Y446D02*
X1359Y446D01*
X1375Y446D02*
X1376Y446D01*
X1817Y446D02*
X1824Y446D01*
X0Y445D02*
X7Y445D01*
X44Y445D02*
X47Y445D01*
X63Y445D02*
X67Y445D01*
X72Y445D02*
X77Y445D01*
X257Y445D02*
X260Y445D01*
X532Y445D02*
X535Y445D01*
X591Y445D02*
X595Y445D01*
X600Y445D02*
X607Y445D01*
X620Y445D02*
X623Y445D01*
X807Y445D02*
X809Y445D01*
X1326Y445D02*
X1330Y445D01*
X1334Y445D02*
X1339Y445D01*
X1817Y445D02*
X1824Y445D01*
X0Y444D02*
X7Y444D01*
X44Y444D02*
X67Y444D01*
X72Y444D02*
X77Y444D01*
X257Y444D02*
X260Y444D01*
X532Y444D02*
X535Y444D01*
X591Y444D02*
X595Y444D01*
X599Y444D02*
X605Y444D01*
X620Y444D02*
X623Y444D01*
X807Y444D02*
X809Y444D01*
X1326Y444D02*
X1330Y444D01*
X1817Y444D02*
X1824Y444D01*
X0Y443D02*
X7Y443D01*
X44Y443D02*
X67Y443D01*
X72Y443D02*
X77Y443D01*
X257Y443D02*
X260Y443D01*
X532Y443D02*
X535Y443D01*
X591Y443D02*
X595Y443D01*
X598Y443D02*
X604Y443D01*
X620Y443D02*
X623Y443D01*
X807Y443D02*
X809Y443D01*
X1326Y443D02*
X1330Y443D01*
X1817Y443D02*
X1824Y443D01*
X0Y442D02*
X7Y442D01*
X44Y442D02*
X66Y442D01*
X72Y442D02*
X77Y442D01*
X257Y442D02*
X260Y442D01*
X532Y442D02*
X535Y442D01*
X591Y442D02*
X595Y442D01*
X597Y442D02*
X603Y442D01*
X619Y442D02*
X623Y442D01*
X807Y442D02*
X809Y442D01*
X1326Y442D02*
X1330Y442D01*
X1817Y442D02*
X1824Y442D01*
X0Y441D02*
X7Y441D01*
X44Y441D02*
X66Y441D01*
X73Y441D02*
X76Y441D01*
X257Y441D02*
X260Y441D01*
X532Y441D02*
X535Y441D01*
X591Y441D02*
X601Y441D01*
X617Y441D02*
X623Y441D01*
X807Y441D02*
X809Y441D01*
X1326Y441D02*
X1330Y441D01*
X1817Y441D02*
X1824Y441D01*
X0Y440D02*
X7Y440D01*
X44Y440D02*
X47Y440D01*
X257Y440D02*
X260Y440D01*
X532Y440D02*
X535Y440D01*
X592Y440D02*
X600Y440D01*
X617Y440D02*
X622Y440D01*
X807Y440D02*
X809Y440D01*
X1326Y440D02*
X1330Y440D01*
X1817Y440D02*
X1824Y440D01*
X0Y439D02*
X7Y439D01*
X44Y439D02*
X47Y439D01*
X257Y439D02*
X260Y439D01*
X532Y439D02*
X535Y439D01*
X593Y439D02*
X599Y439D01*
X616Y439D02*
X621Y439D01*
X807Y439D02*
X809Y439D01*
X1326Y439D02*
X1330Y439D01*
X1817Y439D02*
X1824Y439D01*
X0Y438D02*
X7Y438D01*
X44Y438D02*
X47Y438D01*
X257Y438D02*
X260Y438D01*
X532Y438D02*
X535Y438D01*
X594Y438D02*
X597Y438D01*
X617Y438D02*
X620Y438D01*
X807Y438D02*
X809Y438D01*
X1327Y438D02*
X1330Y438D01*
X1817Y438D02*
X1824Y438D01*
X0Y437D02*
X7Y437D01*
X44Y437D02*
X47Y437D01*
X257Y437D02*
X260Y437D01*
X532Y437D02*
X535Y437D01*
X807Y437D02*
X809Y437D01*
X1327Y437D02*
X1329Y437D01*
X1817Y437D02*
X1824Y437D01*
X0Y436D02*
X7Y436D01*
X44Y436D02*
X47Y436D01*
X257Y436D02*
X260Y436D01*
X532Y436D02*
X535Y436D01*
X807Y436D02*
X809Y436D01*
X1817Y436D02*
X1824Y436D01*
X0Y435D02*
X7Y435D01*
X44Y435D02*
X46Y435D01*
X257Y435D02*
X260Y435D01*
X532Y435D02*
X535Y435D01*
X807Y435D02*
X809Y435D01*
X1817Y435D02*
X1824Y435D01*
X0Y434D02*
X7Y434D01*
X257Y434D02*
X260Y434D01*
X532Y434D02*
X535Y434D01*
X807Y434D02*
X809Y434D01*
X1817Y434D02*
X1824Y434D01*
X0Y433D02*
X7Y433D01*
X257Y433D02*
X260Y433D01*
X532Y433D02*
X535Y433D01*
X807Y433D02*
X809Y433D01*
X1817Y433D02*
X1824Y433D01*
X0Y432D02*
X7Y432D01*
X257Y432D02*
X260Y432D01*
X532Y432D02*
X535Y432D01*
X807Y432D02*
X809Y432D01*
X1817Y432D02*
X1824Y432D01*
X0Y431D02*
X7Y431D01*
X257Y431D02*
X260Y431D01*
X532Y431D02*
X535Y431D01*
X807Y431D02*
X809Y431D01*
X1817Y431D02*
X1824Y431D01*
X0Y430D02*
X7Y430D01*
X257Y430D02*
X260Y430D01*
X532Y430D02*
X535Y430D01*
X807Y430D02*
X809Y430D01*
X1817Y430D02*
X1824Y430D01*
X0Y429D02*
X7Y429D01*
X257Y429D02*
X260Y429D01*
X532Y429D02*
X535Y429D01*
X807Y429D02*
X809Y429D01*
X1817Y429D02*
X1824Y429D01*
X0Y428D02*
X7Y428D01*
X257Y428D02*
X260Y428D01*
X532Y428D02*
X535Y428D01*
X807Y428D02*
X809Y428D01*
X1817Y428D02*
X1824Y428D01*
X0Y427D02*
X7Y427D01*
X257Y427D02*
X260Y427D01*
X532Y427D02*
X535Y427D01*
X583Y427D02*
X615Y427D01*
X807Y427D02*
X809Y427D01*
X1817Y427D02*
X1824Y427D01*
X0Y426D02*
X7Y426D01*
X257Y426D02*
X260Y426D01*
X532Y426D02*
X535Y426D01*
X582Y426D02*
X615Y426D01*
X807Y426D02*
X809Y426D01*
X1817Y426D02*
X1824Y426D01*
X0Y425D02*
X7Y425D01*
X257Y425D02*
X260Y425D01*
X532Y425D02*
X535Y425D01*
X582Y425D02*
X615Y425D01*
X807Y425D02*
X809Y425D01*
X1817Y425D02*
X1824Y425D01*
X0Y424D02*
X7Y424D01*
X257Y424D02*
X260Y424D01*
X532Y424D02*
X535Y424D01*
X583Y424D02*
X614Y424D01*
X807Y424D02*
X809Y424D01*
X1817Y424D02*
X1824Y424D01*
X0Y423D02*
X7Y423D01*
X257Y423D02*
X260Y423D01*
X532Y423D02*
X535Y423D01*
X593Y423D02*
X598Y423D01*
X607Y423D02*
X613Y423D01*
X807Y423D02*
X809Y423D01*
X1817Y423D02*
X1824Y423D01*
X0Y422D02*
X7Y422D01*
X50Y422D02*
X60Y422D01*
X257Y422D02*
X260Y422D01*
X532Y422D02*
X535Y422D01*
X592Y422D02*
X597Y422D01*
X609Y422D02*
X614Y422D01*
X807Y422D02*
X809Y422D01*
X1817Y422D02*
X1824Y422D01*
X0Y421D02*
X7Y421D01*
X49Y421D02*
X61Y421D01*
X257Y421D02*
X260Y421D01*
X532Y421D02*
X535Y421D01*
X591Y421D02*
X596Y421D01*
X610Y421D02*
X614Y421D01*
X807Y421D02*
X809Y421D01*
X1817Y421D02*
X1824Y421D01*
X0Y420D02*
X7Y420D01*
X48Y420D02*
X62Y420D01*
X257Y420D02*
X260Y420D01*
X532Y420D02*
X535Y420D01*
X591Y420D02*
X595Y420D01*
X611Y420D02*
X615Y420D01*
X807Y420D02*
X809Y420D01*
X1817Y420D02*
X1824Y420D01*
X0Y419D02*
X7Y419D01*
X47Y419D02*
X63Y419D01*
X257Y419D02*
X260Y419D01*
X532Y419D02*
X535Y419D01*
X590Y419D02*
X594Y419D01*
X611Y419D02*
X615Y419D01*
X807Y419D02*
X809Y419D01*
X1817Y419D02*
X1824Y419D01*
X0Y418D02*
X7Y418D01*
X46Y418D02*
X51Y418D01*
X59Y418D02*
X64Y418D01*
X257Y418D02*
X260Y418D01*
X532Y418D02*
X535Y418D01*
X590Y418D02*
X594Y418D01*
X612Y418D02*
X615Y418D01*
X807Y418D02*
X809Y418D01*
X1817Y418D02*
X1824Y418D01*
X0Y417D02*
X7Y417D01*
X45Y417D02*
X50Y417D01*
X60Y417D02*
X65Y417D01*
X257Y417D02*
X260Y417D01*
X532Y417D02*
X535Y417D01*
X590Y417D02*
X594Y417D01*
X612Y417D02*
X615Y417D01*
X807Y417D02*
X809Y417D01*
X1817Y417D02*
X1824Y417D01*
X0Y416D02*
X7Y416D01*
X45Y416D02*
X49Y416D01*
X61Y416D02*
X66Y416D01*
X257Y416D02*
X260Y416D01*
X532Y416D02*
X535Y416D01*
X590Y416D02*
X594Y416D01*
X612Y416D02*
X615Y416D01*
X807Y416D02*
X809Y416D01*
X1817Y416D02*
X1824Y416D01*
X0Y415D02*
X7Y415D01*
X44Y415D02*
X48Y415D01*
X62Y415D02*
X66Y415D01*
X257Y415D02*
X260Y415D01*
X532Y415D02*
X535Y415D01*
X591Y415D02*
X595Y415D01*
X611Y415D02*
X615Y415D01*
X807Y415D02*
X809Y415D01*
X1082Y415D02*
X1082Y415D01*
X1817Y415D02*
X1824Y415D01*
X0Y414D02*
X7Y414D01*
X44Y414D02*
X47Y414D01*
X63Y414D02*
X66Y414D01*
X257Y414D02*
X260Y414D01*
X532Y414D02*
X535Y414D01*
X591Y414D02*
X595Y414D01*
X610Y414D02*
X614Y414D01*
X807Y414D02*
X809Y414D01*
X1082Y414D02*
X1085Y414D01*
X1449Y414D02*
X1469Y414D01*
X1479Y414D02*
X1495Y414D01*
X1509Y414D02*
X1525Y414D01*
X1541Y414D02*
X1556Y414D01*
X1569Y414D02*
X1587Y414D01*
X1817Y414D02*
X1824Y414D01*
X0Y413D02*
X7Y413D01*
X44Y413D02*
X47Y413D01*
X63Y413D02*
X67Y413D01*
X257Y413D02*
X260Y413D01*
X532Y413D02*
X535Y413D01*
X592Y413D02*
X596Y413D01*
X609Y413D02*
X614Y413D01*
X807Y413D02*
X809Y413D01*
X1082Y413D02*
X1085Y413D01*
X1449Y413D02*
X1469Y413D01*
X1479Y413D02*
X1497Y413D01*
X1509Y413D02*
X1527Y413D01*
X1540Y413D02*
X1557Y413D01*
X1569Y413D02*
X1588Y413D01*
X1817Y413D02*
X1824Y413D01*
X0Y412D02*
X7Y412D01*
X44Y412D02*
X47Y412D01*
X63Y412D02*
X67Y412D01*
X257Y412D02*
X260Y412D01*
X532Y412D02*
X535Y412D01*
X592Y412D02*
X597Y412D01*
X608Y412D02*
X613Y412D01*
X807Y412D02*
X809Y412D01*
X1082Y412D02*
X1085Y412D01*
X1449Y412D02*
X1469Y412D01*
X1479Y412D02*
X1498Y412D01*
X1509Y412D02*
X1528Y412D01*
X1539Y412D02*
X1558Y412D01*
X1569Y412D02*
X1588Y412D01*
X1817Y412D02*
X1824Y412D01*
X0Y411D02*
X7Y411D01*
X44Y411D02*
X47Y411D01*
X63Y411D02*
X67Y411D01*
X257Y411D02*
X260Y411D01*
X532Y411D02*
X535Y411D01*
X593Y411D02*
X612Y411D01*
X807Y411D02*
X809Y411D01*
X1082Y411D02*
X1085Y411D01*
X1449Y411D02*
X1469Y411D01*
X1479Y411D02*
X1498Y411D01*
X1509Y411D02*
X1528Y411D01*
X1539Y411D02*
X1558Y411D01*
X1570Y411D02*
X1589Y411D01*
X1817Y411D02*
X1824Y411D01*
X0Y410D02*
X7Y410D01*
X44Y410D02*
X47Y410D01*
X63Y410D02*
X67Y410D01*
X257Y410D02*
X260Y410D01*
X532Y410D02*
X535Y410D01*
X594Y410D02*
X611Y410D01*
X807Y410D02*
X809Y410D01*
X1082Y410D02*
X1085Y410D01*
X1449Y410D02*
X1452Y410D01*
X1457Y410D02*
X1460Y410D01*
X1465Y410D02*
X1469Y410D01*
X1479Y410D02*
X1482Y410D01*
X1495Y410D02*
X1499Y410D01*
X1509Y410D02*
X1512Y410D01*
X1525Y410D02*
X1529Y410D01*
X1539Y410D02*
X1542Y410D01*
X1555Y410D02*
X1559Y410D01*
X1585Y410D02*
X1589Y410D01*
X1817Y410D02*
X1824Y410D01*
X0Y409D02*
X7Y409D01*
X44Y409D02*
X47Y409D01*
X63Y409D02*
X67Y409D01*
X257Y409D02*
X260Y409D01*
X532Y409D02*
X535Y409D01*
X595Y409D02*
X610Y409D01*
X807Y409D02*
X809Y409D01*
X1082Y409D02*
X1085Y409D01*
X1449Y409D02*
X1452Y409D01*
X1457Y409D02*
X1460Y409D01*
X1466Y409D02*
X1469Y409D01*
X1479Y409D02*
X1482Y409D01*
X1495Y409D02*
X1499Y409D01*
X1509Y409D02*
X1512Y409D01*
X1525Y409D02*
X1529Y409D01*
X1539Y409D02*
X1543Y409D01*
X1556Y409D02*
X1559Y409D01*
X1585Y409D02*
X1589Y409D01*
X1817Y409D02*
X1824Y409D01*
X0Y408D02*
X7Y408D01*
X44Y408D02*
X47Y408D01*
X63Y408D02*
X67Y408D01*
X257Y408D02*
X260Y408D01*
X532Y408D02*
X535Y408D01*
X596Y408D02*
X609Y408D01*
X807Y408D02*
X809Y408D01*
X1082Y408D02*
X1085Y408D01*
X1450Y408D02*
X1452Y408D01*
X1457Y408D02*
X1460Y408D01*
X1466Y408D02*
X1468Y408D01*
X1479Y408D02*
X1482Y408D01*
X1495Y408D02*
X1499Y408D01*
X1509Y408D02*
X1512Y408D01*
X1525Y408D02*
X1529Y408D01*
X1540Y408D02*
X1544Y408D01*
X1556Y408D02*
X1558Y408D01*
X1585Y408D02*
X1589Y408D01*
X1817Y408D02*
X1824Y408D01*
X0Y407D02*
X7Y407D01*
X44Y407D02*
X47Y407D01*
X63Y407D02*
X67Y407D01*
X257Y407D02*
X260Y407D01*
X532Y407D02*
X535Y407D01*
X598Y407D02*
X607Y407D01*
X807Y407D02*
X809Y407D01*
X1082Y407D02*
X1085Y407D01*
X1457Y407D02*
X1460Y407D01*
X1479Y407D02*
X1482Y407D01*
X1495Y407D02*
X1499Y407D01*
X1509Y407D02*
X1512Y407D01*
X1525Y407D02*
X1529Y407D01*
X1540Y407D02*
X1545Y407D01*
X1585Y407D02*
X1589Y407D01*
X1817Y407D02*
X1824Y407D01*
X0Y406D02*
X7Y406D01*
X44Y406D02*
X47Y406D01*
X63Y406D02*
X67Y406D01*
X257Y406D02*
X260Y406D01*
X532Y406D02*
X535Y406D01*
X807Y406D02*
X809Y406D01*
X1082Y406D02*
X1085Y406D01*
X1457Y406D02*
X1460Y406D01*
X1479Y406D02*
X1482Y406D01*
X1495Y406D02*
X1499Y406D01*
X1509Y406D02*
X1512Y406D01*
X1525Y406D02*
X1529Y406D01*
X1541Y406D02*
X1545Y406D01*
X1585Y406D02*
X1589Y406D01*
X1817Y406D02*
X1824Y406D01*
X0Y405D02*
X7Y405D01*
X44Y405D02*
X47Y405D01*
X63Y405D02*
X67Y405D01*
X258Y405D02*
X260Y405D01*
X532Y405D02*
X535Y405D01*
X808Y405D02*
X809Y405D01*
X1082Y405D02*
X1085Y405D01*
X1457Y405D02*
X1460Y405D01*
X1479Y405D02*
X1482Y405D01*
X1495Y405D02*
X1499Y405D01*
X1509Y405D02*
X1512Y405D01*
X1525Y405D02*
X1528Y405D01*
X1542Y405D02*
X1546Y405D01*
X1585Y405D02*
X1589Y405D01*
X1817Y405D02*
X1824Y405D01*
X0Y404D02*
X7Y404D01*
X44Y404D02*
X47Y404D01*
X63Y404D02*
X67Y404D01*
X259Y404D02*
X260Y404D01*
X532Y404D02*
X535Y404D01*
X808Y404D02*
X809Y404D01*
X1082Y404D02*
X1085Y404D01*
X1457Y404D02*
X1460Y404D01*
X1479Y404D02*
X1498Y404D01*
X1509Y404D02*
X1528Y404D01*
X1542Y404D02*
X1547Y404D01*
X1585Y404D02*
X1589Y404D01*
X1817Y404D02*
X1824Y404D01*
X0Y403D02*
X7Y403D01*
X44Y403D02*
X47Y403D01*
X64Y403D02*
X66Y403D01*
X259Y403D02*
X260Y403D01*
X532Y403D02*
X535Y403D01*
X809Y403D02*
X809Y403D01*
X1082Y403D02*
X1085Y403D01*
X1457Y403D02*
X1460Y403D01*
X1479Y403D02*
X1497Y403D01*
X1509Y403D02*
X1527Y403D01*
X1543Y403D02*
X1548Y403D01*
X1585Y403D02*
X1589Y403D01*
X1817Y403D02*
X1824Y403D01*
X0Y402D02*
X7Y402D01*
X44Y402D02*
X46Y402D01*
X64Y402D02*
X66Y402D01*
X260Y402D02*
X260Y402D01*
X532Y402D02*
X535Y402D01*
X1082Y402D02*
X1085Y402D01*
X1457Y402D02*
X1460Y402D01*
X1479Y402D02*
X1497Y402D01*
X1509Y402D02*
X1527Y402D01*
X1544Y402D02*
X1548Y402D01*
X1585Y402D02*
X1589Y402D01*
X1817Y402D02*
X1824Y402D01*
X0Y401D02*
X7Y401D01*
X260Y401D02*
X260Y401D01*
X532Y401D02*
X535Y401D01*
X1082Y401D02*
X1085Y401D01*
X1457Y401D02*
X1460Y401D01*
X1479Y401D02*
X1495Y401D01*
X1509Y401D02*
X1525Y401D01*
X1545Y401D02*
X1549Y401D01*
X1584Y401D02*
X1588Y401D01*
X1817Y401D02*
X1824Y401D01*
X0Y400D02*
X7Y400D01*
X532Y400D02*
X535Y400D01*
X1082Y400D02*
X1085Y400D01*
X1457Y400D02*
X1460Y400D01*
X1479Y400D02*
X1482Y400D01*
X1486Y400D02*
X1490Y400D01*
X1509Y400D02*
X1512Y400D01*
X1516Y400D02*
X1520Y400D01*
X1546Y400D02*
X1550Y400D01*
X1574Y400D02*
X1588Y400D01*
X1817Y400D02*
X1824Y400D01*
X0Y399D02*
X7Y399D01*
X532Y399D02*
X535Y399D01*
X1082Y399D02*
X1085Y399D01*
X1457Y399D02*
X1460Y399D01*
X1479Y399D02*
X1482Y399D01*
X1487Y399D02*
X1491Y399D01*
X1509Y399D02*
X1512Y399D01*
X1517Y399D02*
X1521Y399D01*
X1546Y399D02*
X1551Y399D01*
X1573Y399D02*
X1587Y399D01*
X1817Y399D02*
X1824Y399D01*
X0Y398D02*
X7Y398D01*
X532Y398D02*
X535Y398D01*
X1082Y398D02*
X1085Y398D01*
X1457Y398D02*
X1460Y398D01*
X1479Y398D02*
X1482Y398D01*
X1487Y398D02*
X1491Y398D01*
X1509Y398D02*
X1512Y398D01*
X1517Y398D02*
X1521Y398D01*
X1547Y398D02*
X1552Y398D01*
X1573Y398D02*
X1587Y398D01*
X1817Y398D02*
X1824Y398D01*
X0Y397D02*
X7Y397D01*
X532Y397D02*
X535Y397D01*
X592Y397D02*
X622Y397D01*
X1082Y397D02*
X1085Y397D01*
X1457Y397D02*
X1460Y397D01*
X1479Y397D02*
X1482Y397D01*
X1488Y397D02*
X1492Y397D01*
X1509Y397D02*
X1512Y397D01*
X1518Y397D02*
X1522Y397D01*
X1548Y397D02*
X1552Y397D01*
X1574Y397D02*
X1588Y397D01*
X1817Y397D02*
X1824Y397D01*
X0Y396D02*
X7Y396D01*
X532Y396D02*
X535Y396D01*
X591Y396D02*
X623Y396D01*
X1082Y396D02*
X1085Y396D01*
X1457Y396D02*
X1460Y396D01*
X1479Y396D02*
X1482Y396D01*
X1488Y396D02*
X1492Y396D01*
X1509Y396D02*
X1512Y396D01*
X1518Y396D02*
X1522Y396D01*
X1549Y396D02*
X1553Y396D01*
X1585Y396D02*
X1588Y396D01*
X1817Y396D02*
X1824Y396D01*
X0Y395D02*
X7Y395D01*
X532Y395D02*
X535Y395D01*
X591Y395D02*
X623Y395D01*
X1082Y395D02*
X1085Y395D01*
X1457Y395D02*
X1460Y395D01*
X1479Y395D02*
X1482Y395D01*
X1489Y395D02*
X1493Y395D01*
X1509Y395D02*
X1512Y395D01*
X1519Y395D02*
X1523Y395D01*
X1549Y395D02*
X1554Y395D01*
X1585Y395D02*
X1589Y395D01*
X1817Y395D02*
X1824Y395D01*
X0Y394D02*
X7Y394D01*
X532Y394D02*
X535Y394D01*
X592Y394D02*
X623Y394D01*
X1082Y394D02*
X1085Y394D01*
X1457Y394D02*
X1460Y394D01*
X1479Y394D02*
X1482Y394D01*
X1490Y394D02*
X1494Y394D01*
X1509Y394D02*
X1512Y394D01*
X1520Y394D02*
X1524Y394D01*
X1550Y394D02*
X1555Y394D01*
X1585Y394D02*
X1589Y394D01*
X1817Y394D02*
X1824Y394D01*
X0Y393D02*
X7Y393D01*
X532Y393D02*
X535Y393D01*
X599Y393D02*
X605Y393D01*
X1082Y393D02*
X1085Y393D01*
X1457Y393D02*
X1460Y393D01*
X1479Y393D02*
X1482Y393D01*
X1490Y393D02*
X1494Y393D01*
X1509Y393D02*
X1512Y393D01*
X1520Y393D02*
X1524Y393D01*
X1551Y393D02*
X1555Y393D01*
X1585Y393D02*
X1589Y393D01*
X1817Y393D02*
X1824Y393D01*
X0Y392D02*
X7Y392D01*
X58Y392D02*
X60Y392D01*
X532Y392D02*
X535Y392D01*
X601Y392D02*
X605Y392D01*
X1082Y392D02*
X1085Y392D01*
X1457Y392D02*
X1460Y392D01*
X1479Y392D02*
X1482Y392D01*
X1491Y392D02*
X1495Y392D01*
X1509Y392D02*
X1512Y392D01*
X1521Y392D02*
X1525Y392D01*
X1552Y392D02*
X1556Y392D01*
X1585Y392D02*
X1589Y392D01*
X1817Y392D02*
X1824Y392D01*
X0Y391D02*
X7Y391D01*
X56Y391D02*
X61Y391D01*
X532Y391D02*
X535Y391D01*
X601Y391D02*
X606Y391D01*
X1082Y391D02*
X1085Y391D01*
X1457Y391D02*
X1460Y391D01*
X1479Y391D02*
X1482Y391D01*
X1491Y391D02*
X1495Y391D01*
X1509Y391D02*
X1512Y391D01*
X1521Y391D02*
X1525Y391D01*
X1553Y391D02*
X1557Y391D01*
X1585Y391D02*
X1589Y391D01*
X1817Y391D02*
X1824Y391D01*
X0Y390D02*
X7Y390D01*
X56Y390D02*
X61Y390D01*
X532Y390D02*
X535Y390D01*
X600Y390D02*
X607Y390D01*
X1082Y390D02*
X1085Y390D01*
X1457Y390D02*
X1460Y390D01*
X1479Y390D02*
X1482Y390D01*
X1492Y390D02*
X1496Y390D01*
X1509Y390D02*
X1512Y390D01*
X1522Y390D02*
X1526Y390D01*
X1540Y390D02*
X1541Y390D01*
X1553Y390D02*
X1558Y390D01*
X1585Y390D02*
X1589Y390D01*
X1817Y390D02*
X1824Y390D01*
X0Y389D02*
X7Y389D01*
X56Y389D02*
X61Y389D01*
X532Y389D02*
X535Y389D01*
X600Y389D02*
X608Y389D01*
X1082Y389D02*
X1085Y389D01*
X1457Y389D02*
X1460Y389D01*
X1479Y389D02*
X1482Y389D01*
X1493Y389D02*
X1496Y389D01*
X1509Y389D02*
X1512Y389D01*
X1523Y389D02*
X1526Y389D01*
X1539Y389D02*
X1542Y389D01*
X1554Y389D02*
X1558Y389D01*
X1585Y389D02*
X1589Y389D01*
X1817Y389D02*
X1824Y389D01*
X0Y388D02*
X7Y388D01*
X56Y388D02*
X61Y388D01*
X532Y388D02*
X535Y388D01*
X599Y388D02*
X609Y388D01*
X1082Y388D02*
X1085Y388D01*
X1457Y388D02*
X1460Y388D01*
X1479Y388D02*
X1482Y388D01*
X1493Y388D02*
X1497Y388D01*
X1509Y388D02*
X1512Y388D01*
X1523Y388D02*
X1527Y388D01*
X1539Y388D02*
X1542Y388D01*
X1555Y388D02*
X1559Y388D01*
X1585Y388D02*
X1589Y388D01*
X1817Y388D02*
X1824Y388D01*
X0Y387D02*
X7Y387D01*
X56Y387D02*
X61Y387D01*
X532Y387D02*
X535Y387D01*
X598Y387D02*
X602Y387D01*
X605Y387D02*
X609Y387D01*
X1082Y387D02*
X1085Y387D01*
X1457Y387D02*
X1460Y387D01*
X1479Y387D02*
X1482Y387D01*
X1494Y387D02*
X1498Y387D01*
X1509Y387D02*
X1512Y387D01*
X1524Y387D02*
X1528Y387D01*
X1539Y387D02*
X1543Y387D01*
X1555Y387D02*
X1559Y387D01*
X1585Y387D02*
X1589Y387D01*
X1817Y387D02*
X1824Y387D01*
X0Y386D02*
X7Y386D01*
X56Y386D02*
X61Y386D01*
X532Y386D02*
X535Y386D01*
X597Y386D02*
X602Y386D01*
X606Y386D02*
X610Y386D01*
X1082Y386D02*
X1085Y386D01*
X1457Y386D02*
X1460Y386D01*
X1479Y386D02*
X1482Y386D01*
X1494Y386D02*
X1498Y386D01*
X1509Y386D02*
X1512Y386D01*
X1524Y386D02*
X1528Y386D01*
X1539Y386D02*
X1558Y386D01*
X1570Y386D02*
X1589Y386D01*
X1817Y386D02*
X1824Y386D01*
X0Y385D02*
X7Y385D01*
X56Y385D02*
X61Y385D01*
X532Y385D02*
X535Y385D01*
X596Y385D02*
X601Y385D01*
X607Y385D02*
X611Y385D01*
X1082Y385D02*
X1085Y385D01*
X1457Y385D02*
X1460Y385D01*
X1479Y385D02*
X1482Y385D01*
X1495Y385D02*
X1499Y385D01*
X1509Y385D02*
X1512Y385D01*
X1525Y385D02*
X1529Y385D01*
X1540Y385D02*
X1558Y385D01*
X1569Y385D02*
X1588Y385D01*
X1817Y385D02*
X1824Y385D01*
X0Y384D02*
X7Y384D01*
X56Y384D02*
X61Y384D01*
X532Y384D02*
X535Y384D01*
X595Y384D02*
X600Y384D01*
X607Y384D02*
X612Y384D01*
X1082Y384D02*
X1085Y384D01*
X1457Y384D02*
X1460Y384D01*
X1479Y384D02*
X1482Y384D01*
X1495Y384D02*
X1499Y384D01*
X1509Y384D02*
X1512Y384D01*
X1525Y384D02*
X1529Y384D01*
X1541Y384D02*
X1557Y384D01*
X1569Y384D02*
X1588Y384D01*
X1817Y384D02*
X1824Y384D01*
X0Y383D02*
X7Y383D01*
X56Y383D02*
X61Y383D01*
X532Y383D02*
X535Y383D01*
X594Y383D02*
X599Y383D01*
X608Y383D02*
X613Y383D01*
X1082Y383D02*
X1085Y383D01*
X1458Y383D02*
X1460Y383D01*
X1480Y383D02*
X1481Y383D01*
X1496Y383D02*
X1498Y383D01*
X1510Y383D02*
X1511Y383D01*
X1526Y383D02*
X1528Y383D01*
X1542Y383D02*
X1556Y383D01*
X1570Y383D02*
X1586Y383D01*
X1817Y383D02*
X1824Y383D01*
X0Y382D02*
X7Y382D01*
X56Y382D02*
X61Y382D01*
X532Y382D02*
X535Y382D01*
X594Y382D02*
X598Y382D01*
X609Y382D02*
X614Y382D01*
X1082Y382D02*
X1085Y382D01*
X1817Y382D02*
X1824Y382D01*
X0Y381D02*
X7Y381D01*
X56Y381D02*
X61Y381D01*
X532Y381D02*
X535Y381D01*
X593Y381D02*
X597Y381D01*
X610Y381D02*
X614Y381D01*
X1082Y381D02*
X1085Y381D01*
X1817Y381D02*
X1824Y381D01*
X0Y380D02*
X7Y380D01*
X56Y380D02*
X61Y380D01*
X532Y380D02*
X535Y380D01*
X592Y380D02*
X597Y380D01*
X611Y380D02*
X614Y380D01*
X1082Y380D02*
X1085Y380D01*
X1817Y380D02*
X1824Y380D01*
X0Y379D02*
X7Y379D01*
X56Y379D02*
X61Y379D01*
X532Y379D02*
X535Y379D01*
X591Y379D02*
X596Y379D01*
X612Y379D02*
X614Y379D01*
X1082Y379D02*
X1085Y379D01*
X1817Y379D02*
X1824Y379D01*
X0Y378D02*
X7Y378D01*
X56Y378D02*
X61Y378D01*
X260Y378D02*
X260Y378D01*
X532Y378D02*
X535Y378D01*
X591Y378D02*
X595Y378D01*
X1082Y378D02*
X1085Y378D01*
X1817Y378D02*
X1824Y378D01*
X0Y377D02*
X7Y377D01*
X56Y377D02*
X61Y377D01*
X260Y377D02*
X260Y377D01*
X532Y377D02*
X535Y377D01*
X592Y377D02*
X594Y377D01*
X809Y377D02*
X809Y377D01*
X1082Y377D02*
X1085Y377D01*
X1817Y377D02*
X1824Y377D01*
X0Y376D02*
X7Y376D01*
X56Y376D02*
X61Y376D01*
X259Y376D02*
X260Y376D01*
X532Y376D02*
X535Y376D01*
X809Y376D02*
X809Y376D01*
X1082Y376D02*
X1085Y376D01*
X1817Y376D02*
X1824Y376D01*
X0Y375D02*
X7Y375D01*
X56Y375D02*
X61Y375D01*
X259Y375D02*
X260Y375D01*
X532Y375D02*
X535Y375D01*
X808Y375D02*
X809Y375D01*
X1082Y375D02*
X1085Y375D01*
X1817Y375D02*
X1824Y375D01*
X0Y374D02*
X7Y374D01*
X56Y374D02*
X61Y374D01*
X258Y374D02*
X260Y374D01*
X532Y374D02*
X535Y374D01*
X807Y374D02*
X809Y374D01*
X1082Y374D02*
X1085Y374D01*
X1817Y374D02*
X1824Y374D01*
X0Y373D02*
X7Y373D01*
X56Y373D02*
X61Y373D01*
X257Y373D02*
X260Y373D01*
X532Y373D02*
X535Y373D01*
X807Y373D02*
X809Y373D01*
X1082Y373D02*
X1085Y373D01*
X1817Y373D02*
X1824Y373D01*
X0Y372D02*
X7Y372D01*
X57Y372D02*
X61Y372D01*
X257Y372D02*
X260Y372D01*
X532Y372D02*
X535Y372D01*
X807Y372D02*
X809Y372D01*
X1082Y372D02*
X1085Y372D01*
X1817Y372D02*
X1824Y372D01*
X0Y371D02*
X7Y371D01*
X257Y371D02*
X260Y371D01*
X532Y371D02*
X535Y371D01*
X807Y371D02*
X809Y371D01*
X1082Y371D02*
X1085Y371D01*
X1817Y371D02*
X1824Y371D01*
X0Y370D02*
X7Y370D01*
X257Y370D02*
X260Y370D01*
X532Y370D02*
X535Y370D01*
X807Y370D02*
X809Y370D01*
X1082Y370D02*
X1085Y370D01*
X1817Y370D02*
X1824Y370D01*
X0Y369D02*
X7Y369D01*
X257Y369D02*
X260Y369D01*
X532Y369D02*
X535Y369D01*
X807Y369D02*
X809Y369D01*
X1082Y369D02*
X1085Y369D01*
X1817Y369D02*
X1824Y369D01*
X0Y368D02*
X7Y368D01*
X257Y368D02*
X260Y368D01*
X532Y368D02*
X535Y368D01*
X807Y368D02*
X809Y368D01*
X1082Y368D02*
X1085Y368D01*
X1817Y368D02*
X1824Y368D01*
X0Y367D02*
X7Y367D01*
X257Y367D02*
X260Y367D01*
X532Y367D02*
X535Y367D01*
X807Y367D02*
X809Y367D01*
X1082Y367D02*
X1085Y367D01*
X1817Y367D02*
X1824Y367D01*
X0Y366D02*
X7Y366D01*
X257Y366D02*
X260Y366D01*
X532Y366D02*
X535Y366D01*
X604Y366D02*
X608Y366D01*
X807Y366D02*
X809Y366D01*
X1082Y366D02*
X1085Y366D01*
X1817Y366D02*
X1824Y366D01*
X0Y365D02*
X7Y365D01*
X257Y365D02*
X260Y365D01*
X532Y365D02*
X535Y365D01*
X604Y365D02*
X609Y365D01*
X807Y365D02*
X809Y365D01*
X1082Y365D02*
X1085Y365D01*
X1365Y365D02*
X1410Y365D01*
X1417Y365D02*
X1566Y365D01*
X1610Y365D02*
X1639Y365D01*
X1817Y365D02*
X1824Y365D01*
X0Y364D02*
X7Y364D01*
X257Y364D02*
X260Y364D01*
X532Y364D02*
X535Y364D01*
X604Y364D02*
X609Y364D01*
X807Y364D02*
X809Y364D01*
X1082Y364D02*
X1085Y364D01*
X1364Y364D02*
X1565Y364D01*
X1611Y364D02*
X1640Y364D01*
X1817Y364D02*
X1824Y364D01*
X0Y363D02*
X7Y363D01*
X257Y363D02*
X260Y363D01*
X532Y363D02*
X535Y363D01*
X604Y363D02*
X609Y363D01*
X807Y363D02*
X809Y363D01*
X1082Y363D02*
X1085Y363D01*
X1364Y363D02*
X1565Y363D01*
X1611Y363D02*
X1640Y363D01*
X1817Y363D02*
X1824Y363D01*
X0Y362D02*
X7Y362D01*
X257Y362D02*
X260Y362D01*
X532Y362D02*
X535Y362D01*
X604Y362D02*
X609Y362D01*
X807Y362D02*
X809Y362D01*
X1082Y362D02*
X1085Y362D01*
X1365Y362D02*
X1564Y362D01*
X1612Y362D02*
X1639Y362D01*
X1817Y362D02*
X1824Y362D01*
X0Y361D02*
X7Y361D01*
X257Y361D02*
X260Y361D01*
X532Y361D02*
X535Y361D01*
X604Y361D02*
X609Y361D01*
X807Y361D02*
X809Y361D01*
X1082Y361D02*
X1085Y361D01*
X1817Y361D02*
X1824Y361D01*
X0Y360D02*
X7Y360D01*
X257Y360D02*
X260Y360D01*
X532Y360D02*
X535Y360D01*
X604Y360D02*
X609Y360D01*
X807Y360D02*
X809Y360D01*
X1082Y360D02*
X1085Y360D01*
X1817Y360D02*
X1824Y360D01*
X0Y359D02*
X7Y359D01*
X257Y359D02*
X260Y359D01*
X532Y359D02*
X535Y359D01*
X604Y359D02*
X609Y359D01*
X807Y359D02*
X809Y359D01*
X1082Y359D02*
X1085Y359D01*
X1817Y359D02*
X1824Y359D01*
X0Y358D02*
X7Y358D01*
X257Y358D02*
X260Y358D01*
X532Y358D02*
X535Y358D01*
X604Y358D02*
X609Y358D01*
X807Y358D02*
X809Y358D01*
X1082Y358D02*
X1085Y358D01*
X1817Y358D02*
X1824Y358D01*
X0Y357D02*
X7Y357D01*
X257Y357D02*
X260Y357D01*
X532Y357D02*
X535Y357D01*
X604Y357D02*
X609Y357D01*
X807Y357D02*
X809Y357D01*
X1082Y357D02*
X1085Y357D01*
X1817Y357D02*
X1824Y357D01*
X0Y356D02*
X7Y356D01*
X257Y356D02*
X260Y356D01*
X532Y356D02*
X535Y356D01*
X604Y356D02*
X609Y356D01*
X807Y356D02*
X809Y356D01*
X1082Y356D02*
X1085Y356D01*
X1817Y356D02*
X1824Y356D01*
X0Y355D02*
X7Y355D01*
X257Y355D02*
X260Y355D01*
X532Y355D02*
X535Y355D01*
X604Y355D02*
X609Y355D01*
X807Y355D02*
X809Y355D01*
X1082Y355D02*
X1085Y355D01*
X1817Y355D02*
X1824Y355D01*
X0Y354D02*
X7Y354D01*
X257Y354D02*
X260Y354D01*
X532Y354D02*
X535Y354D01*
X604Y354D02*
X609Y354D01*
X807Y354D02*
X809Y354D01*
X1082Y354D02*
X1085Y354D01*
X1817Y354D02*
X1824Y354D01*
X0Y353D02*
X7Y353D01*
X257Y353D02*
X260Y353D01*
X532Y353D02*
X535Y353D01*
X604Y353D02*
X609Y353D01*
X807Y353D02*
X809Y353D01*
X1082Y353D02*
X1085Y353D01*
X1817Y353D02*
X1824Y353D01*
X0Y352D02*
X7Y352D01*
X257Y352D02*
X260Y352D01*
X532Y352D02*
X535Y352D01*
X604Y352D02*
X609Y352D01*
X807Y352D02*
X809Y352D01*
X1082Y352D02*
X1085Y352D01*
X1817Y352D02*
X1824Y352D01*
X0Y351D02*
X7Y351D01*
X257Y351D02*
X260Y351D01*
X532Y351D02*
X535Y351D01*
X604Y351D02*
X609Y351D01*
X807Y351D02*
X809Y351D01*
X1082Y351D02*
X1085Y351D01*
X1817Y351D02*
X1824Y351D01*
X0Y350D02*
X7Y350D01*
X257Y350D02*
X260Y350D01*
X532Y350D02*
X535Y350D01*
X604Y350D02*
X609Y350D01*
X807Y350D02*
X809Y350D01*
X1082Y350D02*
X1085Y350D01*
X1817Y350D02*
X1824Y350D01*
X0Y349D02*
X7Y349D01*
X257Y349D02*
X260Y349D01*
X532Y349D02*
X535Y349D01*
X604Y349D02*
X609Y349D01*
X807Y349D02*
X809Y349D01*
X1082Y349D02*
X1085Y349D01*
X1817Y349D02*
X1824Y349D01*
X0Y348D02*
X7Y348D01*
X257Y348D02*
X260Y348D01*
X532Y348D02*
X535Y348D01*
X604Y348D02*
X609Y348D01*
X807Y348D02*
X809Y348D01*
X1082Y348D02*
X1085Y348D01*
X1817Y348D02*
X1824Y348D01*
X0Y347D02*
X7Y347D01*
X56Y347D02*
X58Y347D01*
X257Y347D02*
X260Y347D01*
X532Y347D02*
X535Y347D01*
X604Y347D02*
X609Y347D01*
X807Y347D02*
X809Y347D01*
X1082Y347D02*
X1085Y347D01*
X1817Y347D02*
X1824Y347D01*
X0Y346D02*
X7Y346D01*
X55Y346D02*
X58Y346D01*
X257Y346D02*
X260Y346D01*
X532Y346D02*
X535Y346D01*
X605Y346D02*
X608Y346D01*
X807Y346D02*
X809Y346D01*
X1082Y346D02*
X1085Y346D01*
X1817Y346D02*
X1824Y346D01*
X0Y345D02*
X7Y345D01*
X55Y345D02*
X58Y345D01*
X257Y345D02*
X260Y345D01*
X532Y345D02*
X535Y345D01*
X769Y345D02*
X780Y345D01*
X795Y345D02*
X796Y345D01*
X807Y345D02*
X809Y345D01*
X1082Y345D02*
X1085Y345D01*
X1817Y345D02*
X1824Y345D01*
X0Y344D02*
X7Y344D01*
X55Y344D02*
X58Y344D01*
X234Y344D02*
X244Y344D01*
X257Y344D02*
X260Y344D01*
X532Y344D02*
X535Y344D01*
X767Y344D02*
X782Y344D01*
X794Y344D02*
X797Y344D01*
X807Y344D02*
X809Y344D01*
X1082Y344D02*
X1085Y344D01*
X1817Y344D02*
X1824Y344D01*
X0Y343D02*
X7Y343D01*
X55Y343D02*
X58Y343D01*
X232Y343D02*
X246Y343D01*
X257Y343D02*
X260Y343D01*
X532Y343D02*
X535Y343D01*
X766Y343D02*
X783Y343D01*
X794Y343D02*
X797Y343D01*
X807Y343D02*
X809Y343D01*
X1082Y343D02*
X1085Y343D01*
X0Y342D02*
X7Y342D01*
X55Y342D02*
X58Y342D01*
X232Y342D02*
X246Y342D01*
X257Y342D02*
X260Y342D01*
X532Y342D02*
X535Y342D01*
X766Y342D02*
X783Y342D01*
X794Y342D02*
X797Y342D01*
X807Y342D02*
X809Y342D01*
X1082Y342D02*
X1085Y342D01*
X0Y341D02*
X7Y341D01*
X55Y341D02*
X58Y341D01*
X232Y341D02*
X246Y341D01*
X257Y341D02*
X260Y341D01*
X532Y341D02*
X535Y341D01*
X766Y341D02*
X769Y341D01*
X780Y341D02*
X783Y341D01*
X794Y341D02*
X797Y341D01*
X807Y341D02*
X809Y341D01*
X1082Y341D02*
X1085Y341D01*
X0Y340D02*
X7Y340D01*
X55Y340D02*
X58Y340D01*
X234Y340D02*
X246Y340D01*
X257Y340D02*
X260Y340D01*
X532Y340D02*
X535Y340D01*
X766Y340D02*
X769Y340D01*
X780Y340D02*
X783Y340D01*
X794Y340D02*
X797Y340D01*
X807Y340D02*
X809Y340D01*
X1082Y340D02*
X1085Y340D01*
X0Y339D02*
X7Y339D01*
X48Y339D02*
X65Y339D01*
X243Y339D02*
X246Y339D01*
X257Y339D02*
X260Y339D01*
X532Y339D02*
X535Y339D01*
X766Y339D02*
X769Y339D01*
X780Y339D02*
X783Y339D01*
X794Y339D02*
X797Y339D01*
X807Y339D02*
X809Y339D01*
X1082Y339D02*
X1085Y339D01*
X1817Y339D02*
X1824Y339D01*
X0Y338D02*
X7Y338D01*
X47Y338D02*
X66Y338D01*
X243Y338D02*
X246Y338D01*
X257Y338D02*
X260Y338D01*
X532Y338D02*
X535Y338D01*
X766Y338D02*
X769Y338D01*
X780Y338D02*
X783Y338D01*
X794Y338D02*
X797Y338D01*
X807Y338D02*
X809Y338D01*
X1082Y338D02*
X1085Y338D01*
X1817Y338D02*
X1824Y338D01*
X0Y337D02*
X7Y337D01*
X47Y337D02*
X67Y337D01*
X243Y337D02*
X246Y337D01*
X257Y337D02*
X260Y337D01*
X532Y337D02*
X535Y337D01*
X766Y337D02*
X769Y337D01*
X780Y337D02*
X783Y337D01*
X794Y337D02*
X797Y337D01*
X807Y337D02*
X809Y337D01*
X1082Y337D02*
X1085Y337D01*
X1817Y337D02*
X1824Y337D01*
X0Y336D02*
X7Y336D01*
X47Y336D02*
X66Y336D01*
X242Y336D02*
X246Y336D01*
X257Y336D02*
X260Y336D01*
X532Y336D02*
X535Y336D01*
X766Y336D02*
X769Y336D01*
X780Y336D02*
X783Y336D01*
X794Y336D02*
X797Y336D01*
X807Y336D02*
X809Y336D01*
X1082Y336D02*
X1085Y336D01*
X1817Y336D02*
X1824Y336D01*
X0Y335D02*
X7Y335D01*
X48Y335D02*
X65Y335D01*
X214Y335D02*
X246Y335D01*
X257Y335D02*
X260Y335D01*
X532Y335D02*
X535Y335D01*
X766Y335D02*
X769Y335D01*
X780Y335D02*
X783Y335D01*
X794Y335D02*
X797Y335D01*
X807Y335D02*
X809Y335D01*
X1082Y335D02*
X1085Y335D01*
X1817Y335D02*
X1824Y335D01*
X0Y334D02*
X7Y334D01*
X55Y334D02*
X58Y334D01*
X214Y334D02*
X246Y334D01*
X257Y334D02*
X260Y334D01*
X532Y334D02*
X535Y334D01*
X766Y334D02*
X769Y334D01*
X780Y334D02*
X783Y334D01*
X794Y334D02*
X797Y334D01*
X807Y334D02*
X809Y334D01*
X1082Y334D02*
X1085Y334D01*
X1817Y334D02*
X1824Y334D01*
X0Y333D02*
X7Y333D01*
X55Y333D02*
X58Y333D01*
X214Y333D02*
X246Y333D01*
X257Y333D02*
X260Y333D01*
X532Y333D02*
X535Y333D01*
X766Y333D02*
X769Y333D01*
X780Y333D02*
X783Y333D01*
X794Y333D02*
X797Y333D01*
X807Y333D02*
X809Y333D01*
X1082Y333D02*
X1085Y333D01*
X1817Y333D02*
X1824Y333D01*
X0Y332D02*
X7Y332D01*
X55Y332D02*
X58Y332D01*
X214Y332D02*
X246Y332D01*
X257Y332D02*
X260Y332D01*
X532Y332D02*
X535Y332D01*
X766Y332D02*
X769Y332D01*
X780Y332D02*
X783Y332D01*
X794Y332D02*
X797Y332D01*
X807Y332D02*
X809Y332D01*
X1082Y332D02*
X1085Y332D01*
X1817Y332D02*
X1824Y332D01*
X0Y331D02*
X7Y331D01*
X55Y331D02*
X58Y331D01*
X214Y331D02*
X218Y331D01*
X243Y331D02*
X246Y331D01*
X257Y331D02*
X260Y331D01*
X532Y331D02*
X535Y331D01*
X766Y331D02*
X769Y331D01*
X780Y331D02*
X783Y331D01*
X794Y331D02*
X797Y331D01*
X807Y331D02*
X809Y331D01*
X1082Y331D02*
X1085Y331D01*
X1817Y331D02*
X1824Y331D01*
X0Y330D02*
X7Y330D01*
X55Y330D02*
X58Y330D01*
X214Y330D02*
X218Y330D01*
X243Y330D02*
X246Y330D01*
X257Y330D02*
X260Y330D01*
X532Y330D02*
X535Y330D01*
X766Y330D02*
X769Y330D01*
X780Y330D02*
X783Y330D01*
X794Y330D02*
X797Y330D01*
X807Y330D02*
X809Y330D01*
X1082Y330D02*
X1085Y330D01*
X1817Y330D02*
X1824Y330D01*
X0Y329D02*
X7Y329D01*
X55Y329D02*
X58Y329D01*
X214Y329D02*
X218Y329D01*
X243Y329D02*
X246Y329D01*
X257Y329D02*
X260Y329D01*
X532Y329D02*
X535Y329D01*
X766Y329D02*
X769Y329D01*
X780Y329D02*
X783Y329D01*
X794Y329D02*
X797Y329D01*
X807Y329D02*
X809Y329D01*
X1082Y329D02*
X1085Y329D01*
X1817Y329D02*
X1824Y329D01*
X0Y328D02*
X7Y328D01*
X55Y328D02*
X58Y328D01*
X214Y328D02*
X218Y328D01*
X243Y328D02*
X246Y328D01*
X257Y328D02*
X260Y328D01*
X532Y328D02*
X535Y328D01*
X766Y328D02*
X769Y328D01*
X780Y328D02*
X797Y328D01*
X807Y328D02*
X809Y328D01*
X1082Y328D02*
X1085Y328D01*
X1817Y328D02*
X1824Y328D01*
X0Y327D02*
X7Y327D01*
X56Y327D02*
X58Y327D01*
X214Y327D02*
X218Y327D01*
X243Y327D02*
X246Y327D01*
X257Y327D02*
X260Y327D01*
X532Y327D02*
X535Y327D01*
X766Y327D02*
X769Y327D01*
X780Y327D02*
X797Y327D01*
X807Y327D02*
X809Y327D01*
X1082Y327D02*
X1085Y327D01*
X1817Y327D02*
X1824Y327D01*
X0Y326D02*
X7Y326D01*
X214Y326D02*
X218Y326D01*
X243Y326D02*
X246Y326D01*
X257Y326D02*
X260Y326D01*
X532Y326D02*
X535Y326D01*
X766Y326D02*
X769Y326D01*
X781Y326D02*
X797Y326D01*
X807Y326D02*
X809Y326D01*
X1082Y326D02*
X1085Y326D01*
X1817Y326D02*
X1824Y326D01*
X0Y325D02*
X7Y325D01*
X215Y325D02*
X218Y325D01*
X243Y325D02*
X246Y325D01*
X257Y325D02*
X260Y325D01*
X532Y325D02*
X535Y325D01*
X767Y325D02*
X768Y325D01*
X782Y325D02*
X797Y325D01*
X807Y325D02*
X809Y325D01*
X1082Y325D02*
X1085Y325D01*
X1817Y325D02*
X1824Y325D01*
X0Y324D02*
X7Y324D01*
X215Y324D02*
X217Y324D01*
X243Y324D02*
X245Y324D01*
X257Y324D02*
X260Y324D01*
X532Y324D02*
X535Y324D01*
X807Y324D02*
X809Y324D01*
X1082Y324D02*
X1085Y324D01*
X1817Y324D02*
X1824Y324D01*
X0Y323D02*
X7Y323D01*
X257Y323D02*
X260Y323D01*
X532Y323D02*
X535Y323D01*
X807Y323D02*
X809Y323D01*
X1082Y323D02*
X1085Y323D01*
X1817Y323D02*
X1824Y323D01*
X0Y322D02*
X7Y322D01*
X257Y322D02*
X260Y322D01*
X532Y322D02*
X535Y322D01*
X807Y322D02*
X809Y322D01*
X1082Y322D02*
X1085Y322D01*
X1817Y322D02*
X1824Y322D01*
X0Y321D02*
X7Y321D01*
X257Y321D02*
X260Y321D01*
X532Y321D02*
X535Y321D01*
X807Y321D02*
X809Y321D01*
X1082Y321D02*
X1085Y321D01*
X1817Y321D02*
X1824Y321D01*
X0Y320D02*
X7Y320D01*
X257Y320D02*
X260Y320D01*
X532Y320D02*
X535Y320D01*
X807Y320D02*
X809Y320D01*
X1082Y320D02*
X1085Y320D01*
X1817Y320D02*
X1824Y320D01*
X0Y319D02*
X7Y319D01*
X257Y319D02*
X260Y319D01*
X532Y319D02*
X535Y319D01*
X807Y319D02*
X809Y319D01*
X1082Y319D02*
X1085Y319D01*
X1817Y319D02*
X1824Y319D01*
X0Y318D02*
X7Y318D01*
X257Y318D02*
X260Y318D01*
X532Y318D02*
X535Y318D01*
X807Y318D02*
X809Y318D01*
X1082Y318D02*
X1085Y318D01*
X1817Y318D02*
X1824Y318D01*
X0Y317D02*
X7Y317D01*
X43Y317D02*
X72Y317D01*
X257Y317D02*
X260Y317D01*
X532Y317D02*
X535Y317D01*
X807Y317D02*
X809Y317D01*
X1082Y317D02*
X1085Y317D01*
X1817Y317D02*
X1824Y317D01*
X0Y316D02*
X7Y316D01*
X41Y316D02*
X73Y316D01*
X257Y316D02*
X260Y316D01*
X532Y316D02*
X535Y316D01*
X807Y316D02*
X809Y316D01*
X1082Y316D02*
X1085Y316D01*
X1817Y316D02*
X1824Y316D01*
X0Y315D02*
X7Y315D01*
X41Y315D02*
X73Y315D01*
X257Y315D02*
X260Y315D01*
X532Y315D02*
X535Y315D01*
X770Y315D02*
X771Y315D01*
X792Y315D02*
X794Y315D01*
X807Y315D02*
X809Y315D01*
X1082Y315D02*
X1085Y315D01*
X1817Y315D02*
X1824Y315D01*
X0Y314D02*
X7Y314D01*
X41Y314D02*
X73Y314D01*
X219Y314D02*
X220Y314D01*
X241Y314D02*
X242Y314D01*
X257Y314D02*
X260Y314D01*
X532Y314D02*
X535Y314D01*
X768Y314D02*
X772Y314D01*
X790Y314D02*
X796Y314D01*
X807Y314D02*
X809Y314D01*
X1082Y314D02*
X1085Y314D01*
X1817Y314D02*
X1824Y314D01*
X0Y313D02*
X7Y313D01*
X42Y313D02*
X73Y313D01*
X217Y313D02*
X221Y313D01*
X239Y313D02*
X244Y313D01*
X257Y313D02*
X260Y313D01*
X532Y313D02*
X535Y313D01*
X767Y313D02*
X772Y313D01*
X789Y313D02*
X796Y313D01*
X807Y313D02*
X809Y313D01*
X1082Y313D02*
X1085Y313D01*
X1817Y313D02*
X1824Y313D01*
X0Y312D02*
X7Y312D01*
X59Y312D02*
X62Y312D01*
X69Y312D02*
X73Y312D01*
X216Y312D02*
X221Y312D01*
X238Y312D02*
X245Y312D01*
X257Y312D02*
X260Y312D01*
X532Y312D02*
X535Y312D01*
X766Y312D02*
X772Y312D01*
X788Y312D02*
X797Y312D01*
X807Y312D02*
X809Y312D01*
X1082Y312D02*
X1085Y312D01*
X1817Y312D02*
X1824Y312D01*
X0Y311D02*
X7Y311D01*
X59Y311D02*
X62Y311D01*
X69Y311D02*
X73Y311D01*
X215Y311D02*
X221Y311D01*
X237Y311D02*
X246Y311D01*
X257Y311D02*
X260Y311D01*
X532Y311D02*
X535Y311D01*
X766Y311D02*
X770Y311D01*
X786Y311D02*
X797Y311D01*
X807Y311D02*
X809Y311D01*
X1082Y311D02*
X1085Y311D01*
X1817Y311D02*
X1824Y311D01*
X0Y310D02*
X7Y310D01*
X59Y310D02*
X62Y310D01*
X69Y310D02*
X73Y310D01*
X215Y310D02*
X219Y310D01*
X235Y310D02*
X246Y310D01*
X257Y310D02*
X260Y310D01*
X532Y310D02*
X535Y310D01*
X766Y310D02*
X769Y310D01*
X785Y310D02*
X791Y310D01*
X794Y310D02*
X797Y310D01*
X807Y310D02*
X809Y310D01*
X1082Y310D02*
X1085Y310D01*
X1817Y310D02*
X1824Y310D01*
X0Y309D02*
X7Y309D01*
X57Y309D02*
X62Y309D01*
X69Y309D02*
X73Y309D01*
X215Y309D02*
X218Y309D01*
X234Y309D02*
X240Y309D01*
X243Y309D02*
X246Y309D01*
X257Y309D02*
X260Y309D01*
X532Y309D02*
X535Y309D01*
X766Y309D02*
X769Y309D01*
X784Y309D02*
X790Y309D01*
X794Y309D02*
X797Y309D01*
X807Y309D02*
X809Y309D01*
X1082Y309D02*
X1085Y309D01*
X1817Y309D02*
X1824Y309D01*
X0Y308D02*
X7Y308D01*
X56Y308D02*
X62Y308D01*
X69Y308D02*
X73Y308D01*
X214Y308D02*
X218Y308D01*
X233Y308D02*
X239Y308D01*
X243Y308D02*
X246Y308D01*
X257Y308D02*
X260Y308D01*
X532Y308D02*
X535Y308D01*
X766Y308D02*
X769Y308D01*
X783Y308D02*
X788Y308D01*
X794Y308D02*
X797Y308D01*
X807Y308D02*
X809Y308D01*
X1082Y308D02*
X1085Y308D01*
X1817Y308D02*
X1824Y308D01*
X0Y307D02*
X7Y307D01*
X54Y307D02*
X62Y307D01*
X69Y307D02*
X73Y307D01*
X214Y307D02*
X218Y307D01*
X231Y307D02*
X237Y307D01*
X243Y307D02*
X246Y307D01*
X257Y307D02*
X260Y307D01*
X532Y307D02*
X535Y307D01*
X766Y307D02*
X769Y307D01*
X781Y307D02*
X787Y307D01*
X794Y307D02*
X797Y307D01*
X807Y307D02*
X809Y307D01*
X1082Y307D02*
X1085Y307D01*
X1817Y307D02*
X1824Y307D01*
X0Y306D02*
X7Y306D01*
X52Y306D02*
X62Y306D01*
X69Y306D02*
X73Y306D01*
X214Y306D02*
X218Y306D01*
X230Y306D02*
X236Y306D01*
X243Y306D02*
X246Y306D01*
X257Y306D02*
X260Y306D01*
X532Y306D02*
X535Y306D01*
X766Y306D02*
X769Y306D01*
X780Y306D02*
X786Y306D01*
X794Y306D02*
X797Y306D01*
X807Y306D02*
X809Y306D01*
X1082Y306D02*
X1085Y306D01*
X1817Y306D02*
X1824Y306D01*
X0Y305D02*
X7Y305D01*
X50Y305D02*
X62Y305D01*
X69Y305D02*
X73Y305D01*
X214Y305D02*
X218Y305D01*
X229Y305D02*
X235Y305D01*
X243Y305D02*
X246Y305D01*
X257Y305D02*
X260Y305D01*
X532Y305D02*
X535Y305D01*
X766Y305D02*
X769Y305D01*
X779Y305D02*
X785Y305D01*
X794Y305D02*
X797Y305D01*
X807Y305D02*
X809Y305D01*
X1082Y305D02*
X1085Y305D01*
X1817Y305D02*
X1824Y305D01*
X0Y304D02*
X7Y304D01*
X49Y304D02*
X56Y304D01*
X59Y304D02*
X62Y304D01*
X69Y304D02*
X73Y304D01*
X214Y304D02*
X218Y304D01*
X228Y304D02*
X234Y304D01*
X243Y304D02*
X246Y304D01*
X257Y304D02*
X260Y304D01*
X532Y304D02*
X535Y304D01*
X766Y304D02*
X769Y304D01*
X777Y304D02*
X783Y304D01*
X794Y304D02*
X797Y304D01*
X807Y304D02*
X809Y304D01*
X1082Y304D02*
X1085Y304D01*
X1817Y304D02*
X1824Y304D01*
X0Y303D02*
X7Y303D01*
X47Y303D02*
X55Y303D01*
X59Y303D02*
X62Y303D01*
X69Y303D02*
X73Y303D01*
X214Y303D02*
X218Y303D01*
X226Y303D02*
X232Y303D01*
X243Y303D02*
X246Y303D01*
X257Y303D02*
X260Y303D01*
X532Y303D02*
X535Y303D01*
X766Y303D02*
X769Y303D01*
X776Y303D02*
X782Y303D01*
X794Y303D02*
X797Y303D01*
X807Y303D02*
X809Y303D01*
X1082Y303D02*
X1085Y303D01*
X1817Y303D02*
X1824Y303D01*
X0Y302D02*
X7Y302D01*
X45Y302D02*
X53Y302D01*
X59Y302D02*
X62Y302D01*
X69Y302D02*
X73Y302D01*
X214Y302D02*
X218Y302D01*
X225Y302D02*
X231Y302D01*
X243Y302D02*
X246Y302D01*
X257Y302D02*
X260Y302D01*
X532Y302D02*
X535Y302D01*
X766Y302D02*
X769Y302D01*
X775Y302D02*
X781Y302D01*
X794Y302D02*
X797Y302D01*
X807Y302D02*
X809Y302D01*
X1082Y302D02*
X1085Y302D01*
X1817Y302D02*
X1824Y302D01*
X0Y301D02*
X7Y301D01*
X44Y301D02*
X51Y301D01*
X59Y301D02*
X63Y301D01*
X69Y301D02*
X73Y301D01*
X214Y301D02*
X218Y301D01*
X224Y301D02*
X230Y301D01*
X243Y301D02*
X246Y301D01*
X257Y301D02*
X260Y301D01*
X532Y301D02*
X535Y301D01*
X766Y301D02*
X769Y301D01*
X774Y301D02*
X779Y301D01*
X794Y301D02*
X797Y301D01*
X807Y301D02*
X809Y301D01*
X1082Y301D02*
X1085Y301D01*
X1817Y301D02*
X1824Y301D01*
X0Y300D02*
X7Y300D01*
X42Y300D02*
X49Y300D01*
X59Y300D02*
X72Y300D01*
X214Y300D02*
X218Y300D01*
X222Y300D02*
X228Y300D01*
X243Y300D02*
X246Y300D01*
X257Y300D02*
X260Y300D01*
X532Y300D02*
X535Y300D01*
X766Y300D02*
X769Y300D01*
X772Y300D02*
X778Y300D01*
X794Y300D02*
X797Y300D01*
X807Y300D02*
X809Y300D01*
X1082Y300D02*
X1085Y300D01*
X1817Y300D02*
X1824Y300D01*
X0Y299D02*
X7Y299D01*
X41Y299D02*
X48Y299D01*
X60Y299D02*
X72Y299D01*
X214Y299D02*
X218Y299D01*
X221Y299D02*
X227Y299D01*
X243Y299D02*
X246Y299D01*
X257Y299D02*
X260Y299D01*
X532Y299D02*
X535Y299D01*
X766Y299D02*
X769Y299D01*
X771Y299D02*
X777Y299D01*
X793Y299D02*
X797Y299D01*
X807Y299D02*
X809Y299D01*
X1082Y299D02*
X1085Y299D01*
X1817Y299D02*
X1824Y299D01*
X0Y298D02*
X7Y298D01*
X41Y298D02*
X46Y298D01*
X60Y298D02*
X71Y298D01*
X215Y298D02*
X218Y298D01*
X220Y298D02*
X226Y298D01*
X242Y298D02*
X246Y298D01*
X257Y298D02*
X260Y298D01*
X532Y298D02*
X535Y298D01*
X766Y298D02*
X776Y298D01*
X791Y298D02*
X797Y298D01*
X807Y298D02*
X809Y298D01*
X1082Y298D02*
X1085Y298D01*
X1817Y298D02*
X1824Y298D01*
X0Y297D02*
X7Y297D01*
X41Y297D02*
X44Y297D01*
X62Y297D02*
X70Y297D01*
X215Y297D02*
X225Y297D01*
X240Y297D02*
X246Y297D01*
X257Y297D02*
X260Y297D01*
X532Y297D02*
X535Y297D01*
X766Y297D02*
X774Y297D01*
X791Y297D02*
X796Y297D01*
X807Y297D02*
X809Y297D01*
X1082Y297D02*
X1085Y297D01*
X1817Y297D02*
X1824Y297D01*
X0Y296D02*
X7Y296D01*
X42Y296D02*
X42Y296D01*
X64Y296D02*
X67Y296D01*
X215Y296D02*
X223Y296D01*
X239Y296D02*
X245Y296D01*
X257Y296D02*
X260Y296D01*
X532Y296D02*
X535Y296D01*
X767Y296D02*
X773Y296D01*
X791Y296D02*
X795Y296D01*
X807Y296D02*
X809Y296D01*
X1082Y296D02*
X1085Y296D01*
X1817Y296D02*
X1824Y296D01*
X0Y295D02*
X7Y295D01*
X216Y295D02*
X222Y295D01*
X239Y295D02*
X244Y295D01*
X257Y295D02*
X260Y295D01*
X532Y295D02*
X535Y295D01*
X769Y295D02*
X771Y295D01*
X791Y295D02*
X794Y295D01*
X807Y295D02*
X809Y295D01*
X1082Y295D02*
X1085Y295D01*
X1817Y295D02*
X1824Y295D01*
X0Y294D02*
X7Y294D01*
X217Y294D02*
X220Y294D01*
X240Y294D02*
X243Y294D01*
X257Y294D02*
X260Y294D01*
X532Y294D02*
X535Y294D01*
X807Y294D02*
X809Y294D01*
X1082Y294D02*
X1085Y294D01*
X1817Y294D02*
X1824Y294D01*
X0Y293D02*
X7Y293D01*
X257Y293D02*
X260Y293D01*
X532Y293D02*
X535Y293D01*
X807Y293D02*
X809Y293D01*
X1082Y293D02*
X1085Y293D01*
X1817Y293D02*
X1824Y293D01*
X0Y292D02*
X7Y292D01*
X257Y292D02*
X260Y292D01*
X532Y292D02*
X535Y292D01*
X807Y292D02*
X809Y292D01*
X1082Y292D02*
X1085Y292D01*
X1817Y292D02*
X1824Y292D01*
X0Y291D02*
X7Y291D01*
X257Y291D02*
X260Y291D01*
X532Y291D02*
X535Y291D01*
X807Y291D02*
X809Y291D01*
X1082Y291D02*
X1085Y291D01*
X1817Y291D02*
X1824Y291D01*
X0Y290D02*
X7Y290D01*
X257Y290D02*
X260Y290D01*
X532Y290D02*
X535Y290D01*
X807Y290D02*
X809Y290D01*
X1082Y290D02*
X1085Y290D01*
X1817Y290D02*
X1824Y290D01*
X0Y289D02*
X7Y289D01*
X257Y289D02*
X260Y289D01*
X532Y289D02*
X535Y289D01*
X807Y289D02*
X809Y289D01*
X1082Y289D02*
X1085Y289D01*
X1817Y289D02*
X1824Y289D01*
X0Y288D02*
X7Y288D01*
X257Y288D02*
X260Y288D01*
X532Y288D02*
X532Y288D01*
X807Y288D02*
X809Y288D01*
X1082Y288D02*
X1085Y288D01*
X1817Y288D02*
X1824Y288D01*
X0Y287D02*
X7Y287D01*
X257Y287D02*
X260Y287D01*
X807Y287D02*
X809Y287D01*
X1082Y287D02*
X1085Y287D01*
X1817Y287D02*
X1824Y287D01*
X0Y286D02*
X7Y286D01*
X42Y286D02*
X73Y286D01*
X257Y286D02*
X260Y286D01*
X807Y286D02*
X809Y286D01*
X1082Y286D02*
X1085Y286D01*
X1817Y286D02*
X1824Y286D01*
X0Y285D02*
X7Y285D01*
X41Y285D02*
X73Y285D01*
X257Y285D02*
X260Y285D01*
X770Y285D02*
X775Y285D01*
X795Y285D02*
X796Y285D01*
X807Y285D02*
X809Y285D01*
X1082Y285D02*
X1085Y285D01*
X1817Y285D02*
X1824Y285D01*
X0Y284D02*
X7Y284D01*
X41Y284D02*
X73Y284D01*
X220Y284D02*
X223Y284D01*
X244Y284D02*
X245Y284D01*
X257Y284D02*
X260Y284D01*
X768Y284D02*
X777Y284D01*
X793Y284D02*
X797Y284D01*
X807Y284D02*
X809Y284D01*
X1082Y284D02*
X1085Y284D01*
X1817Y284D02*
X1824Y284D01*
X0Y283D02*
X7Y283D01*
X41Y283D02*
X73Y283D01*
X217Y283D02*
X225Y283D01*
X242Y283D02*
X246Y283D01*
X257Y283D02*
X260Y283D01*
X767Y283D02*
X778Y283D01*
X792Y283D02*
X797Y283D01*
X807Y283D02*
X809Y283D01*
X1082Y283D02*
X1085Y283D01*
X1817Y283D02*
X1824Y283D01*
X0Y282D02*
X7Y282D01*
X67Y282D02*
X73Y282D01*
X216Y282D02*
X227Y282D01*
X241Y282D02*
X246Y282D01*
X257Y282D02*
X260Y282D01*
X767Y282D02*
X779Y282D01*
X790Y282D02*
X797Y282D01*
X807Y282D02*
X809Y282D01*
X1082Y282D02*
X1085Y282D01*
X1817Y282D02*
X1824Y282D01*
X0Y281D02*
X7Y281D01*
X66Y281D02*
X72Y281D01*
X215Y281D02*
X227Y281D01*
X239Y281D02*
X246Y281D01*
X257Y281D02*
X260Y281D01*
X766Y281D02*
X771Y281D01*
X775Y281D02*
X779Y281D01*
X788Y281D02*
X796Y281D01*
X807Y281D02*
X809Y281D01*
X1082Y281D02*
X1085Y281D01*
X1817Y281D02*
X1824Y281D01*
X0Y280D02*
X7Y280D01*
X65Y280D02*
X71Y280D01*
X215Y280D02*
X228Y280D01*
X237Y280D02*
X245Y280D01*
X257Y280D02*
X260Y280D01*
X766Y280D02*
X769Y280D01*
X776Y280D02*
X779Y280D01*
X786Y280D02*
X794Y280D01*
X807Y280D02*
X809Y280D01*
X1082Y280D02*
X1085Y280D01*
X1817Y280D02*
X1824Y280D01*
X0Y279D02*
X7Y279D01*
X63Y279D02*
X70Y279D01*
X215Y279D02*
X218Y279D01*
X225Y279D02*
X228Y279D01*
X235Y279D02*
X243Y279D01*
X257Y279D02*
X260Y279D01*
X766Y279D02*
X769Y279D01*
X776Y279D02*
X780Y279D01*
X785Y279D02*
X792Y279D01*
X807Y279D02*
X809Y279D01*
X1082Y279D02*
X1085Y279D01*
X1817Y279D02*
X1824Y279D01*
X0Y278D02*
X7Y278D01*
X60Y278D02*
X68Y278D01*
X215Y278D02*
X218Y278D01*
X225Y278D02*
X228Y278D01*
X234Y278D02*
X241Y278D01*
X257Y278D02*
X260Y278D01*
X766Y278D02*
X769Y278D01*
X776Y278D02*
X780Y278D01*
X783Y278D02*
X790Y278D01*
X807Y278D02*
X809Y278D01*
X1082Y278D02*
X1085Y278D01*
X1817Y278D02*
X1824Y278D01*
X0Y277D02*
X7Y277D01*
X59Y277D02*
X67Y277D01*
X214Y277D02*
X218Y277D01*
X225Y277D02*
X228Y277D01*
X232Y277D02*
X239Y277D01*
X257Y277D02*
X260Y277D01*
X766Y277D02*
X769Y277D01*
X776Y277D02*
X789Y277D01*
X807Y277D02*
X809Y277D01*
X1082Y277D02*
X1085Y277D01*
X1817Y277D02*
X1824Y277D01*
X0Y276D02*
X7Y276D01*
X59Y276D02*
X66Y276D01*
X214Y276D02*
X218Y276D01*
X225Y276D02*
X228Y276D01*
X230Y276D02*
X238Y276D01*
X257Y276D02*
X260Y276D01*
X766Y276D02*
X769Y276D01*
X776Y276D02*
X787Y276D01*
X807Y276D02*
X809Y276D01*
X1082Y276D02*
X1085Y276D01*
X1817Y276D02*
X1824Y276D01*
X0Y275D02*
X7Y275D01*
X59Y275D02*
X67Y275D01*
X214Y275D02*
X218Y275D01*
X225Y275D02*
X236Y275D01*
X257Y275D02*
X260Y275D01*
X766Y275D02*
X769Y275D01*
X776Y275D02*
X785Y275D01*
X807Y275D02*
X809Y275D01*
X1082Y275D02*
X1085Y275D01*
X1817Y275D02*
X1824Y275D01*
X0Y274D02*
X7Y274D01*
X60Y274D02*
X68Y274D01*
X214Y274D02*
X218Y274D01*
X225Y274D02*
X234Y274D01*
X257Y274D02*
X260Y274D01*
X766Y274D02*
X769Y274D01*
X776Y274D02*
X784Y274D01*
X807Y274D02*
X809Y274D01*
X1082Y274D02*
X1085Y274D01*
X1817Y274D02*
X1824Y274D01*
X0Y273D02*
X7Y273D01*
X63Y273D02*
X70Y273D01*
X214Y273D02*
X218Y273D01*
X225Y273D02*
X233Y273D01*
X257Y273D02*
X260Y273D01*
X766Y273D02*
X769Y273D01*
X776Y273D02*
X782Y273D01*
X807Y273D02*
X809Y273D01*
X1082Y273D02*
X1085Y273D01*
X1817Y273D02*
X1824Y273D01*
X0Y272D02*
X7Y272D01*
X65Y272D02*
X71Y272D01*
X214Y272D02*
X218Y272D01*
X225Y272D02*
X231Y272D01*
X257Y272D02*
X260Y272D01*
X766Y272D02*
X769Y272D01*
X776Y272D02*
X780Y272D01*
X807Y272D02*
X809Y272D01*
X1082Y272D02*
X1085Y272D01*
X1817Y272D02*
X1824Y272D01*
X0Y271D02*
X7Y271D01*
X66Y271D02*
X72Y271D01*
X214Y271D02*
X218Y271D01*
X225Y271D02*
X229Y271D01*
X257Y271D02*
X260Y271D01*
X766Y271D02*
X769Y271D01*
X776Y271D02*
X780Y271D01*
X807Y271D02*
X809Y271D01*
X1082Y271D02*
X1085Y271D01*
X1817Y271D02*
X1824Y271D01*
X0Y270D02*
X7Y270D01*
X67Y270D02*
X73Y270D01*
X214Y270D02*
X218Y270D01*
X225Y270D02*
X228Y270D01*
X257Y270D02*
X260Y270D01*
X766Y270D02*
X769Y270D01*
X776Y270D02*
X780Y270D01*
X807Y270D02*
X809Y270D01*
X1082Y270D02*
X1085Y270D01*
X1817Y270D02*
X1824Y270D01*
X0Y269D02*
X7Y269D01*
X41Y269D02*
X73Y269D01*
X214Y269D02*
X218Y269D01*
X225Y269D02*
X228Y269D01*
X257Y269D02*
X260Y269D01*
X766Y269D02*
X769Y269D01*
X776Y269D02*
X780Y269D01*
X807Y269D02*
X809Y269D01*
X1082Y269D02*
X1085Y269D01*
X1817Y269D02*
X1824Y269D01*
X0Y268D02*
X7Y268D01*
X41Y268D02*
X73Y268D01*
X214Y268D02*
X218Y268D01*
X225Y268D02*
X228Y268D01*
X257Y268D02*
X260Y268D01*
X766Y268D02*
X797Y268D01*
X807Y268D02*
X809Y268D01*
X1082Y268D02*
X1085Y268D01*
X1817Y268D02*
X1824Y268D01*
X0Y267D02*
X7Y267D01*
X41Y267D02*
X73Y267D01*
X214Y267D02*
X245Y267D01*
X257Y267D02*
X260Y267D01*
X766Y267D02*
X797Y267D01*
X807Y267D02*
X809Y267D01*
X1082Y267D02*
X1085Y267D01*
X1817Y267D02*
X1824Y267D01*
X0Y266D02*
X7Y266D01*
X41Y266D02*
X73Y266D01*
X214Y266D02*
X246Y266D01*
X257Y266D02*
X260Y266D01*
X766Y266D02*
X797Y266D01*
X807Y266D02*
X809Y266D01*
X1082Y266D02*
X1085Y266D01*
X1817Y266D02*
X1824Y266D01*
X0Y265D02*
X7Y265D01*
X214Y265D02*
X246Y265D01*
X257Y265D02*
X260Y265D01*
X766Y265D02*
X796Y265D01*
X807Y265D02*
X809Y265D01*
X1082Y265D02*
X1085Y265D01*
X1817Y265D02*
X1824Y265D01*
X0Y264D02*
X7Y264D01*
X214Y264D02*
X245Y264D01*
X257Y264D02*
X260Y264D01*
X807Y264D02*
X809Y264D01*
X1082Y264D02*
X1085Y264D01*
X1817Y264D02*
X1824Y264D01*
X0Y263D02*
X7Y263D01*
X257Y263D02*
X260Y263D01*
X807Y263D02*
X809Y263D01*
X1082Y263D02*
X1085Y263D01*
X1817Y263D02*
X1824Y263D01*
X0Y262D02*
X7Y262D01*
X257Y262D02*
X260Y262D01*
X807Y262D02*
X809Y262D01*
X1082Y262D02*
X1085Y262D01*
X1817Y262D02*
X1824Y262D01*
X0Y261D02*
X7Y261D01*
X257Y261D02*
X260Y261D01*
X807Y261D02*
X809Y261D01*
X1082Y261D02*
X1085Y261D01*
X1817Y261D02*
X1824Y261D01*
X0Y260D02*
X7Y260D01*
X257Y260D02*
X260Y260D01*
X807Y260D02*
X809Y260D01*
X1082Y260D02*
X1085Y260D01*
X1817Y260D02*
X1824Y260D01*
X0Y259D02*
X7Y259D01*
X257Y259D02*
X260Y259D01*
X807Y259D02*
X809Y259D01*
X1082Y259D02*
X1085Y259D01*
X1817Y259D02*
X1824Y259D01*
X0Y258D02*
X7Y258D01*
X257Y258D02*
X260Y258D01*
X807Y258D02*
X809Y258D01*
X1082Y258D02*
X1085Y258D01*
X1817Y258D02*
X1824Y258D01*
X0Y257D02*
X7Y257D01*
X257Y257D02*
X260Y257D01*
X807Y257D02*
X809Y257D01*
X1082Y257D02*
X1085Y257D01*
X1817Y257D02*
X1824Y257D01*
X0Y256D02*
X7Y256D01*
X257Y256D02*
X260Y256D01*
X807Y256D02*
X809Y256D01*
X1082Y256D02*
X1085Y256D01*
X1817Y256D02*
X1824Y256D01*
X0Y255D02*
X7Y255D01*
X257Y255D02*
X260Y255D01*
X770Y255D02*
X775Y255D01*
X795Y255D02*
X796Y255D01*
X807Y255D02*
X809Y255D01*
X1082Y255D02*
X1085Y255D01*
X1817Y255D02*
X1824Y255D01*
X0Y254D02*
X7Y254D01*
X219Y254D02*
X223Y254D01*
X244Y254D02*
X245Y254D01*
X257Y254D02*
X260Y254D01*
X768Y254D02*
X777Y254D01*
X793Y254D02*
X797Y254D01*
X807Y254D02*
X809Y254D01*
X1082Y254D02*
X1085Y254D01*
X1817Y254D02*
X1824Y254D01*
X0Y253D02*
X7Y253D01*
X41Y253D02*
X43Y253D01*
X61Y253D02*
X63Y253D01*
X217Y253D02*
X225Y253D01*
X242Y253D02*
X246Y253D01*
X257Y253D02*
X260Y253D01*
X767Y253D02*
X778Y253D01*
X792Y253D02*
X797Y253D01*
X807Y253D02*
X809Y253D01*
X1082Y253D02*
X1085Y253D01*
X1817Y253D02*
X1824Y253D01*
X0Y252D02*
X7Y252D01*
X41Y252D02*
X44Y252D01*
X61Y252D02*
X64Y252D01*
X216Y252D02*
X227Y252D01*
X241Y252D02*
X246Y252D01*
X257Y252D02*
X260Y252D01*
X767Y252D02*
X779Y252D01*
X790Y252D02*
X797Y252D01*
X807Y252D02*
X809Y252D01*
X1082Y252D02*
X1085Y252D01*
X1817Y252D02*
X1824Y252D01*
X0Y251D02*
X7Y251D01*
X41Y251D02*
X44Y251D01*
X60Y251D02*
X64Y251D01*
X215Y251D02*
X227Y251D01*
X239Y251D02*
X246Y251D01*
X257Y251D02*
X260Y251D01*
X766Y251D02*
X771Y251D01*
X775Y251D02*
X779Y251D01*
X788Y251D02*
X796Y251D01*
X807Y251D02*
X809Y251D01*
X1082Y251D02*
X1085Y251D01*
X1817Y251D02*
X1824Y251D01*
X0Y250D02*
X7Y250D01*
X41Y250D02*
X44Y250D01*
X60Y250D02*
X64Y250D01*
X215Y250D02*
X228Y250D01*
X237Y250D02*
X245Y250D01*
X257Y250D02*
X260Y250D01*
X766Y250D02*
X769Y250D01*
X776Y250D02*
X779Y250D01*
X786Y250D02*
X794Y250D01*
X807Y250D02*
X809Y250D01*
X1082Y250D02*
X1085Y250D01*
X1817Y250D02*
X1824Y250D01*
X0Y249D02*
X7Y249D01*
X41Y249D02*
X44Y249D01*
X60Y249D02*
X64Y249D01*
X70Y249D02*
X74Y249D01*
X215Y249D02*
X218Y249D01*
X225Y249D02*
X228Y249D01*
X235Y249D02*
X243Y249D01*
X257Y249D02*
X260Y249D01*
X766Y249D02*
X769Y249D01*
X776Y249D02*
X780Y249D01*
X785Y249D02*
X792Y249D01*
X807Y249D02*
X809Y249D01*
X1082Y249D02*
X1085Y249D01*
X1817Y249D02*
X1824Y249D01*
X0Y248D02*
X7Y248D01*
X41Y248D02*
X44Y248D01*
X60Y248D02*
X64Y248D01*
X70Y248D02*
X74Y248D01*
X215Y248D02*
X218Y248D01*
X225Y248D02*
X228Y248D01*
X234Y248D02*
X241Y248D01*
X257Y248D02*
X260Y248D01*
X766Y248D02*
X769Y248D01*
X776Y248D02*
X780Y248D01*
X783Y248D02*
X790Y248D01*
X807Y248D02*
X809Y248D01*
X1082Y248D02*
X1085Y248D01*
X1817Y248D02*
X1824Y248D01*
X0Y247D02*
X7Y247D01*
X41Y247D02*
X64Y247D01*
X69Y247D02*
X75Y247D01*
X214Y247D02*
X218Y247D01*
X225Y247D02*
X228Y247D01*
X232Y247D02*
X239Y247D01*
X257Y247D02*
X260Y247D01*
X766Y247D02*
X769Y247D01*
X776Y247D02*
X789Y247D01*
X807Y247D02*
X809Y247D01*
X1082Y247D02*
X1085Y247D01*
X1817Y247D02*
X1824Y247D01*
X0Y246D02*
X7Y246D01*
X41Y246D02*
X64Y246D01*
X69Y246D02*
X75Y246D01*
X214Y246D02*
X218Y246D01*
X225Y246D02*
X228Y246D01*
X230Y246D02*
X238Y246D01*
X257Y246D02*
X260Y246D01*
X766Y246D02*
X769Y246D01*
X776Y246D02*
X787Y246D01*
X807Y246D02*
X809Y246D01*
X1082Y246D02*
X1085Y246D01*
X1817Y246D02*
X1824Y246D01*
X0Y245D02*
X7Y245D01*
X41Y245D02*
X64Y245D01*
X70Y245D02*
X74Y245D01*
X214Y245D02*
X218Y245D01*
X225Y245D02*
X236Y245D01*
X257Y245D02*
X260Y245D01*
X766Y245D02*
X769Y245D01*
X776Y245D02*
X785Y245D01*
X807Y245D02*
X809Y245D01*
X1082Y245D02*
X1085Y245D01*
X1817Y245D02*
X1824Y245D01*
X0Y244D02*
X7Y244D01*
X41Y244D02*
X63Y244D01*
X70Y244D02*
X74Y244D01*
X214Y244D02*
X218Y244D01*
X225Y244D02*
X234Y244D01*
X257Y244D02*
X260Y244D01*
X766Y244D02*
X769Y244D01*
X776Y244D02*
X784Y244D01*
X807Y244D02*
X809Y244D01*
X1082Y244D02*
X1085Y244D01*
X1817Y244D02*
X1824Y244D01*
X0Y243D02*
X7Y243D01*
X41Y243D02*
X44Y243D01*
X214Y243D02*
X218Y243D01*
X225Y243D02*
X233Y243D01*
X257Y243D02*
X260Y243D01*
X766Y243D02*
X769Y243D01*
X776Y243D02*
X782Y243D01*
X807Y243D02*
X809Y243D01*
X1082Y243D02*
X1085Y243D01*
X1817Y243D02*
X1824Y243D01*
X0Y242D02*
X7Y242D01*
X41Y242D02*
X44Y242D01*
X214Y242D02*
X218Y242D01*
X225Y242D02*
X231Y242D01*
X257Y242D02*
X260Y242D01*
X766Y242D02*
X769Y242D01*
X776Y242D02*
X780Y242D01*
X807Y242D02*
X809Y242D01*
X1082Y242D02*
X1085Y242D01*
X1817Y242D02*
X1824Y242D01*
X0Y241D02*
X7Y241D01*
X41Y241D02*
X44Y241D01*
X214Y241D02*
X218Y241D01*
X225Y241D02*
X229Y241D01*
X257Y241D02*
X260Y241D01*
X766Y241D02*
X769Y241D01*
X776Y241D02*
X780Y241D01*
X807Y241D02*
X809Y241D01*
X1082Y241D02*
X1085Y241D01*
X1817Y241D02*
X1824Y241D01*
X0Y240D02*
X7Y240D01*
X41Y240D02*
X44Y240D01*
X214Y240D02*
X218Y240D01*
X225Y240D02*
X228Y240D01*
X257Y240D02*
X260Y240D01*
X532Y240D02*
X534Y240D01*
X766Y240D02*
X769Y240D01*
X776Y240D02*
X780Y240D01*
X807Y240D02*
X809Y240D01*
X1082Y240D02*
X1085Y240D01*
X1817Y240D02*
X1824Y240D01*
X0Y239D02*
X7Y239D01*
X41Y239D02*
X44Y239D01*
X214Y239D02*
X218Y239D01*
X225Y239D02*
X228Y239D01*
X257Y239D02*
X260Y239D01*
X532Y239D02*
X535Y239D01*
X766Y239D02*
X769Y239D01*
X776Y239D02*
X780Y239D01*
X807Y239D02*
X809Y239D01*
X1082Y239D02*
X1085Y239D01*
X1817Y239D02*
X1824Y239D01*
X0Y238D02*
X7Y238D01*
X41Y238D02*
X44Y238D01*
X214Y238D02*
X218Y238D01*
X225Y238D02*
X228Y238D01*
X257Y238D02*
X260Y238D01*
X532Y238D02*
X535Y238D01*
X766Y238D02*
X797Y238D01*
X807Y238D02*
X809Y238D01*
X1082Y238D02*
X1085Y238D01*
X1817Y238D02*
X1824Y238D01*
X0Y237D02*
X7Y237D01*
X214Y237D02*
X245Y237D01*
X257Y237D02*
X260Y237D01*
X532Y237D02*
X535Y237D01*
X766Y237D02*
X797Y237D01*
X807Y237D02*
X809Y237D01*
X1082Y237D02*
X1085Y237D01*
X1817Y237D02*
X1824Y237D01*
X0Y236D02*
X7Y236D01*
X214Y236D02*
X246Y236D01*
X257Y236D02*
X260Y236D01*
X532Y236D02*
X535Y236D01*
X766Y236D02*
X797Y236D01*
X807Y236D02*
X809Y236D01*
X1082Y236D02*
X1085Y236D01*
X1817Y236D02*
X1824Y236D01*
X0Y235D02*
X7Y235D01*
X214Y235D02*
X246Y235D01*
X257Y235D02*
X260Y235D01*
X532Y235D02*
X535Y235D01*
X766Y235D02*
X796Y235D01*
X807Y235D02*
X809Y235D01*
X1082Y235D02*
X1085Y235D01*
X1817Y235D02*
X1824Y235D01*
X0Y234D02*
X7Y234D01*
X214Y234D02*
X245Y234D01*
X257Y234D02*
X260Y234D01*
X532Y234D02*
X535Y234D01*
X807Y234D02*
X809Y234D01*
X1082Y234D02*
X1085Y234D01*
X1817Y234D02*
X1824Y234D01*
X0Y233D02*
X7Y233D01*
X257Y233D02*
X260Y233D01*
X532Y233D02*
X535Y233D01*
X807Y233D02*
X809Y233D01*
X1082Y233D02*
X1085Y233D01*
X1817Y233D02*
X1824Y233D01*
X0Y232D02*
X7Y232D01*
X257Y232D02*
X260Y232D01*
X532Y232D02*
X535Y232D01*
X807Y232D02*
X809Y232D01*
X1082Y232D02*
X1085Y232D01*
X1817Y232D02*
X1824Y232D01*
X0Y231D02*
X7Y231D01*
X257Y231D02*
X260Y231D01*
X532Y231D02*
X535Y231D01*
X807Y231D02*
X809Y231D01*
X1082Y231D02*
X1085Y231D01*
X1817Y231D02*
X1824Y231D01*
X0Y230D02*
X7Y230D01*
X257Y230D02*
X260Y230D01*
X532Y230D02*
X535Y230D01*
X807Y230D02*
X809Y230D01*
X1082Y230D02*
X1085Y230D01*
X1817Y230D02*
X1824Y230D01*
X0Y229D02*
X7Y229D01*
X257Y229D02*
X260Y229D01*
X532Y229D02*
X535Y229D01*
X807Y229D02*
X809Y229D01*
X1082Y229D02*
X1085Y229D01*
X1817Y229D02*
X1824Y229D01*
X0Y228D02*
X7Y228D01*
X257Y228D02*
X260Y228D01*
X532Y228D02*
X535Y228D01*
X807Y228D02*
X809Y228D01*
X1082Y228D02*
X1085Y228D01*
X1817Y228D02*
X1824Y228D01*
X0Y227D02*
X7Y227D01*
X257Y227D02*
X260Y227D01*
X532Y227D02*
X535Y227D01*
X807Y227D02*
X809Y227D01*
X1082Y227D02*
X1085Y227D01*
X1817Y227D02*
X1824Y227D01*
X0Y226D02*
X7Y226D01*
X257Y226D02*
X260Y226D01*
X532Y226D02*
X535Y226D01*
X807Y226D02*
X809Y226D01*
X1082Y226D02*
X1085Y226D01*
X1817Y226D02*
X1824Y226D01*
X0Y225D02*
X7Y225D01*
X48Y225D02*
X57Y225D01*
X257Y225D02*
X260Y225D01*
X532Y225D02*
X535Y225D01*
X766Y225D02*
X771Y225D01*
X807Y225D02*
X809Y225D01*
X1082Y225D02*
X1085Y225D01*
X1817Y225D02*
X1824Y225D01*
X0Y224D02*
X7Y224D01*
X46Y224D02*
X58Y224D01*
X215Y224D02*
X220Y224D01*
X257Y224D02*
X260Y224D01*
X532Y224D02*
X535Y224D01*
X766Y224D02*
X772Y224D01*
X807Y224D02*
X809Y224D01*
X1082Y224D02*
X1085Y224D01*
X1817Y224D02*
X1824Y224D01*
X0Y223D02*
X7Y223D01*
X45Y223D02*
X59Y223D01*
X214Y223D02*
X221Y223D01*
X257Y223D02*
X260Y223D01*
X532Y223D02*
X535Y223D01*
X766Y223D02*
X772Y223D01*
X807Y223D02*
X809Y223D01*
X1082Y223D02*
X1085Y223D01*
X1817Y223D02*
X1824Y223D01*
X0Y222D02*
X7Y222D01*
X44Y222D02*
X60Y222D01*
X214Y222D02*
X221Y222D01*
X257Y222D02*
X260Y222D01*
X532Y222D02*
X535Y222D01*
X766Y222D02*
X772Y222D01*
X807Y222D02*
X809Y222D01*
X1082Y222D02*
X1085Y222D01*
X1817Y222D02*
X1824Y222D01*
X0Y221D02*
X7Y221D01*
X43Y221D02*
X49Y221D01*
X56Y221D02*
X61Y221D01*
X214Y221D02*
X221Y221D01*
X257Y221D02*
X260Y221D01*
X532Y221D02*
X535Y221D01*
X766Y221D02*
X769Y221D01*
X807Y221D02*
X809Y221D01*
X1082Y221D02*
X1085Y221D01*
X1817Y221D02*
X1824Y221D01*
X0Y220D02*
X7Y220D01*
X43Y220D02*
X47Y220D01*
X57Y220D02*
X62Y220D01*
X214Y220D02*
X219Y220D01*
X257Y220D02*
X260Y220D01*
X532Y220D02*
X535Y220D01*
X766Y220D02*
X769Y220D01*
X807Y220D02*
X809Y220D01*
X1082Y220D02*
X1085Y220D01*
X1817Y220D02*
X1824Y220D01*
X0Y219D02*
X7Y219D01*
X42Y219D02*
X46Y219D01*
X58Y219D02*
X63Y219D01*
X214Y219D02*
X218Y219D01*
X257Y219D02*
X260Y219D01*
X532Y219D02*
X535Y219D01*
X766Y219D02*
X769Y219D01*
X807Y219D02*
X809Y219D01*
X1082Y219D02*
X1085Y219D01*
X1817Y219D02*
X1824Y219D01*
X0Y218D02*
X7Y218D01*
X41Y218D02*
X45Y218D01*
X59Y218D02*
X63Y218D01*
X214Y218D02*
X218Y218D01*
X257Y218D02*
X260Y218D01*
X532Y218D02*
X535Y218D01*
X766Y218D02*
X769Y218D01*
X807Y218D02*
X809Y218D01*
X1082Y218D02*
X1085Y218D01*
X1817Y218D02*
X1824Y218D01*
X0Y217D02*
X7Y217D01*
X41Y217D02*
X45Y217D01*
X60Y217D02*
X64Y217D01*
X214Y217D02*
X218Y217D01*
X257Y217D02*
X260Y217D01*
X532Y217D02*
X535Y217D01*
X766Y217D02*
X795Y217D01*
X807Y217D02*
X809Y217D01*
X1082Y217D02*
X1085Y217D01*
X1817Y217D02*
X1824Y217D01*
X0Y216D02*
X7Y216D01*
X41Y216D02*
X44Y216D01*
X60Y216D02*
X64Y216D01*
X214Y216D02*
X218Y216D01*
X257Y216D02*
X260Y216D01*
X532Y216D02*
X535Y216D01*
X766Y216D02*
X797Y216D01*
X807Y216D02*
X809Y216D01*
X1082Y216D02*
X1085Y216D01*
X1817Y216D02*
X1824Y216D01*
X0Y215D02*
X7Y215D01*
X41Y215D02*
X44Y215D01*
X60Y215D02*
X64Y215D01*
X214Y215D02*
X246Y215D01*
X257Y215D02*
X260Y215D01*
X532Y215D02*
X535Y215D01*
X766Y215D02*
X797Y215D01*
X807Y215D02*
X809Y215D01*
X1082Y215D02*
X1085Y215D01*
X1817Y215D02*
X1824Y215D01*
X0Y214D02*
X7Y214D01*
X41Y214D02*
X44Y214D01*
X60Y214D02*
X64Y214D01*
X214Y214D02*
X246Y214D01*
X257Y214D02*
X260Y214D01*
X532Y214D02*
X535Y214D01*
X766Y214D02*
X797Y214D01*
X807Y214D02*
X809Y214D01*
X1082Y214D02*
X1085Y214D01*
X1817Y214D02*
X1824Y214D01*
X0Y213D02*
X7Y213D01*
X41Y213D02*
X44Y213D01*
X60Y213D02*
X64Y213D01*
X214Y213D02*
X246Y213D01*
X257Y213D02*
X260Y213D01*
X532Y213D02*
X535Y213D01*
X766Y213D02*
X796Y213D01*
X807Y213D02*
X809Y213D01*
X1082Y213D02*
X1085Y213D01*
X1817Y213D02*
X1824Y213D01*
X0Y212D02*
X7Y212D01*
X41Y212D02*
X44Y212D01*
X60Y212D02*
X64Y212D01*
X214Y212D02*
X245Y212D01*
X257Y212D02*
X260Y212D01*
X532Y212D02*
X535Y212D01*
X766Y212D02*
X769Y212D01*
X807Y212D02*
X809Y212D01*
X1082Y212D02*
X1085Y212D01*
X1817Y212D02*
X1824Y212D01*
X0Y211D02*
X7Y211D01*
X41Y211D02*
X44Y211D01*
X60Y211D02*
X64Y211D01*
X214Y211D02*
X218Y211D01*
X257Y211D02*
X260Y211D01*
X532Y211D02*
X535Y211D01*
X766Y211D02*
X769Y211D01*
X807Y211D02*
X809Y211D01*
X1082Y211D02*
X1085Y211D01*
X1817Y211D02*
X1824Y211D01*
X0Y210D02*
X7Y210D01*
X41Y210D02*
X44Y210D01*
X60Y210D02*
X64Y210D01*
X214Y210D02*
X218Y210D01*
X257Y210D02*
X260Y210D01*
X532Y210D02*
X535Y210D01*
X766Y210D02*
X769Y210D01*
X807Y210D02*
X809Y210D01*
X1082Y210D02*
X1085Y210D01*
X1817Y210D02*
X1824Y210D01*
X0Y209D02*
X7Y209D01*
X41Y209D02*
X44Y209D01*
X60Y209D02*
X64Y209D01*
X214Y209D02*
X218Y209D01*
X257Y209D02*
X260Y209D01*
X532Y209D02*
X535Y209D01*
X766Y209D02*
X769Y209D01*
X807Y209D02*
X809Y209D01*
X1082Y209D02*
X1085Y209D01*
X1817Y209D02*
X1824Y209D01*
X0Y208D02*
X7Y208D01*
X41Y208D02*
X44Y208D01*
X60Y208D02*
X64Y208D01*
X214Y208D02*
X218Y208D01*
X257Y208D02*
X260Y208D01*
X532Y208D02*
X535Y208D01*
X766Y208D02*
X772Y208D01*
X807Y208D02*
X809Y208D01*
X1082Y208D02*
X1085Y208D01*
X1817Y208D02*
X1824Y208D01*
X0Y207D02*
X7Y207D01*
X41Y207D02*
X44Y207D01*
X60Y207D02*
X64Y207D01*
X214Y207D02*
X221Y207D01*
X257Y207D02*
X260Y207D01*
X532Y207D02*
X535Y207D01*
X766Y207D02*
X772Y207D01*
X807Y207D02*
X809Y207D01*
X1082Y207D02*
X1085Y207D01*
X1817Y207D02*
X1824Y207D01*
X0Y206D02*
X7Y206D01*
X41Y206D02*
X44Y206D01*
X61Y206D02*
X64Y206D01*
X214Y206D02*
X221Y206D01*
X257Y206D02*
X260Y206D01*
X532Y206D02*
X535Y206D01*
X766Y206D02*
X772Y206D01*
X807Y206D02*
X809Y206D01*
X1082Y206D02*
X1085Y206D01*
X1817Y206D02*
X1824Y206D01*
X0Y205D02*
X7Y205D01*
X41Y205D02*
X43Y205D01*
X61Y205D02*
X63Y205D01*
X214Y205D02*
X221Y205D01*
X257Y205D02*
X260Y205D01*
X532Y205D02*
X535Y205D01*
X766Y205D02*
X772Y205D01*
X807Y205D02*
X809Y205D01*
X1082Y205D02*
X1085Y205D01*
X1817Y205D02*
X1824Y205D01*
X0Y204D02*
X7Y204D01*
X214Y204D02*
X221Y204D01*
X257Y204D02*
X260Y204D01*
X532Y204D02*
X535Y204D01*
X807Y204D02*
X809Y204D01*
X1082Y204D02*
X1085Y204D01*
X1817Y204D02*
X1824Y204D01*
X0Y203D02*
X7Y203D01*
X257Y203D02*
X260Y203D01*
X532Y203D02*
X535Y203D01*
X807Y203D02*
X809Y203D01*
X1082Y203D02*
X1085Y203D01*
X1817Y203D02*
X1824Y203D01*
X0Y202D02*
X7Y202D01*
X257Y202D02*
X260Y202D01*
X532Y202D02*
X535Y202D01*
X807Y202D02*
X809Y202D01*
X1082Y202D02*
X1085Y202D01*
X1817Y202D02*
X1824Y202D01*
X0Y201D02*
X7Y201D01*
X257Y201D02*
X260Y201D01*
X532Y201D02*
X535Y201D01*
X807Y201D02*
X809Y201D01*
X1082Y201D02*
X1085Y201D01*
X1817Y201D02*
X1824Y201D01*
X0Y200D02*
X7Y200D01*
X257Y200D02*
X260Y200D01*
X532Y200D02*
X535Y200D01*
X807Y200D02*
X809Y200D01*
X1082Y200D02*
X1085Y200D01*
X1817Y200D02*
X1824Y200D01*
X0Y199D02*
X7Y199D01*
X257Y199D02*
X260Y199D01*
X532Y199D02*
X535Y199D01*
X807Y199D02*
X809Y199D01*
X1082Y199D02*
X1085Y199D01*
X1817Y199D02*
X1824Y199D01*
X0Y198D02*
X7Y198D01*
X257Y198D02*
X260Y198D01*
X532Y198D02*
X535Y198D01*
X807Y198D02*
X809Y198D01*
X1082Y198D02*
X1085Y198D01*
X1817Y198D02*
X1824Y198D01*
X0Y197D02*
X7Y197D01*
X257Y197D02*
X260Y197D01*
X532Y197D02*
X535Y197D01*
X807Y197D02*
X809Y197D01*
X1082Y197D02*
X1085Y197D01*
X1817Y197D02*
X1824Y197D01*
X0Y196D02*
X7Y196D01*
X257Y196D02*
X260Y196D01*
X532Y196D02*
X535Y196D01*
X807Y196D02*
X809Y196D01*
X1082Y196D02*
X1085Y196D01*
X1817Y196D02*
X1824Y196D01*
X0Y195D02*
X7Y195D01*
X257Y195D02*
X260Y195D01*
X532Y195D02*
X535Y195D01*
X807Y195D02*
X809Y195D01*
X1082Y195D02*
X1085Y195D01*
X1817Y195D02*
X1824Y195D01*
X0Y194D02*
X7Y194D01*
X54Y194D02*
X58Y194D01*
X257Y194D02*
X260Y194D01*
X532Y194D02*
X535Y194D01*
X807Y194D02*
X809Y194D01*
X1082Y194D02*
X1085Y194D01*
X1817Y194D02*
X1824Y194D01*
X0Y193D02*
X7Y193D01*
X53Y193D02*
X58Y193D01*
X257Y193D02*
X260Y193D01*
X532Y193D02*
X535Y193D01*
X807Y193D02*
X809Y193D01*
X1082Y193D02*
X1085Y193D01*
X1817Y193D02*
X1824Y193D01*
X0Y192D02*
X7Y192D01*
X53Y192D02*
X58Y192D01*
X257Y192D02*
X260Y192D01*
X532Y192D02*
X535Y192D01*
X807Y192D02*
X809Y192D01*
X1082Y192D02*
X1085Y192D01*
X1817Y192D02*
X1824Y192D01*
X0Y191D02*
X7Y191D01*
X53Y191D02*
X58Y191D01*
X257Y191D02*
X260Y191D01*
X532Y191D02*
X535Y191D01*
X807Y191D02*
X809Y191D01*
X1082Y191D02*
X1085Y191D01*
X1817Y191D02*
X1824Y191D01*
X0Y190D02*
X7Y190D01*
X53Y190D02*
X58Y190D01*
X257Y190D02*
X260Y190D01*
X532Y190D02*
X535Y190D01*
X807Y190D02*
X809Y190D01*
X1082Y190D02*
X1085Y190D01*
X1817Y190D02*
X1824Y190D01*
X0Y189D02*
X7Y189D01*
X53Y189D02*
X58Y189D01*
X257Y189D02*
X260Y189D01*
X532Y189D02*
X535Y189D01*
X807Y189D02*
X809Y189D01*
X1082Y189D02*
X1085Y189D01*
X1817Y189D02*
X1824Y189D01*
X0Y188D02*
X7Y188D01*
X53Y188D02*
X58Y188D01*
X257Y188D02*
X259Y188D01*
X533Y188D02*
X535Y188D01*
X807Y188D02*
X809Y188D01*
X1082Y188D02*
X1085Y188D01*
X1817Y188D02*
X1824Y188D01*
X0Y187D02*
X7Y187D01*
X53Y187D02*
X58Y187D01*
X258Y187D02*
X258Y187D01*
X808Y187D02*
X808Y187D01*
X1817Y187D02*
X1824Y187D01*
X0Y186D02*
X7Y186D01*
X53Y186D02*
X58Y186D01*
X1817Y186D02*
X1824Y186D01*
X0Y185D02*
X7Y185D01*
X53Y185D02*
X58Y185D01*
X1817Y185D02*
X1824Y185D01*
X0Y184D02*
X7Y184D01*
X53Y184D02*
X58Y184D01*
X1817Y184D02*
X1824Y184D01*
X0Y183D02*
X7Y183D01*
X53Y183D02*
X58Y183D01*
X1817Y183D02*
X1824Y183D01*
X0Y182D02*
X7Y182D01*
X53Y182D02*
X58Y182D01*
X1817Y182D02*
X1824Y182D01*
X0Y181D02*
X7Y181D01*
X53Y181D02*
X58Y181D01*
X1817Y181D02*
X1824Y181D01*
X0Y180D02*
X7Y180D01*
X53Y180D02*
X58Y180D01*
X1817Y180D02*
X1824Y180D01*
X0Y179D02*
X7Y179D01*
X53Y179D02*
X58Y179D01*
X1817Y179D02*
X1824Y179D01*
X0Y178D02*
X7Y178D01*
X53Y178D02*
X58Y178D01*
X1817Y178D02*
X1824Y178D01*
X0Y177D02*
X7Y177D01*
X53Y177D02*
X58Y177D01*
X1817Y177D02*
X1824Y177D01*
X0Y176D02*
X7Y176D01*
X53Y176D02*
X58Y176D01*
X1817Y176D02*
X1824Y176D01*
X0Y175D02*
X7Y175D01*
X54Y175D02*
X58Y175D01*
X1817Y175D02*
X1824Y175D01*
X0Y174D02*
X7Y174D01*
X55Y174D02*
X57Y174D01*
X1817Y174D02*
X1824Y174D01*
X0Y173D02*
X7Y173D01*
X1817Y173D02*
X1824Y173D01*
X0Y172D02*
X7Y172D01*
X1817Y172D02*
X1824Y172D01*
X0Y171D02*
X7Y171D01*
X1817Y171D02*
X1824Y171D01*
X0Y170D02*
X7Y170D01*
X1817Y170D02*
X1824Y170D01*
X0Y169D02*
X7Y169D01*
X1817Y169D02*
X1824Y169D01*
X0Y168D02*
X7Y168D01*
X1817Y168D02*
X1824Y168D01*
X0Y167D02*
X7Y167D01*
X1817Y167D02*
X1824Y167D01*
X0Y166D02*
X7Y166D01*
X1817Y166D02*
X1824Y166D01*
X0Y165D02*
X7Y165D01*
X1817Y165D02*
X1824Y165D01*
X0Y164D02*
X7Y164D01*
X1817Y164D02*
X1824Y164D01*
X0Y163D02*
X7Y163D01*
X1817Y163D02*
X1824Y163D01*
X0Y162D02*
X7Y162D01*
X1817Y162D02*
X1824Y162D01*
X0Y161D02*
X7Y161D01*
X1817Y161D02*
X1824Y161D01*
X0Y160D02*
X7Y160D01*
X1817Y160D02*
X1824Y160D01*
X0Y159D02*
X7Y159D01*
X1817Y159D02*
X1824Y159D01*
X0Y158D02*
X7Y158D01*
X1817Y158D02*
X1824Y158D01*
X0Y157D02*
X7Y157D01*
X1817Y157D02*
X1824Y157D01*
X0Y156D02*
X7Y156D01*
X1817Y156D02*
X1824Y156D01*
X0Y155D02*
X7Y155D01*
X1817Y155D02*
X1824Y155D01*
X0Y154D02*
X7Y154D01*
X1817Y154D02*
X1824Y154D01*
X0Y153D02*
X7Y153D01*
X1817Y153D02*
X1824Y153D01*
X0Y152D02*
X7Y152D01*
X1817Y152D02*
X1824Y152D01*
X0Y151D02*
X7Y151D01*
X1817Y151D02*
X1824Y151D01*
X0Y150D02*
X7Y150D01*
X1817Y150D02*
X1824Y150D01*
X0Y149D02*
X7Y149D01*
X1817Y149D02*
X1824Y149D01*
X0Y148D02*
X7Y148D01*
X1817Y148D02*
X1824Y148D01*
X0Y147D02*
X7Y147D01*
X1817Y147D02*
X1824Y147D01*
X0Y146D02*
X7Y146D01*
X1817Y146D02*
X1824Y146D01*
X0Y145D02*
X7Y145D01*
X1817Y145D02*
X1824Y145D01*
X0Y144D02*
X7Y144D01*
X1817Y144D02*
X1824Y144D01*
X0Y143D02*
X7Y143D01*
X1817Y143D02*
X1824Y143D01*
X0Y142D02*
X7Y142D01*
X1817Y142D02*
X1824Y142D01*
X0Y141D02*
X7Y141D01*
X1817Y141D02*
X1824Y141D01*
X0Y140D02*
X7Y140D01*
X1817Y140D02*
X1824Y140D01*
X0Y139D02*
X7Y139D01*
X1817Y139D02*
X1824Y139D01*
X0Y138D02*
X7Y138D01*
X1817Y138D02*
X1824Y138D01*
X0Y137D02*
X7Y137D01*
X1817Y137D02*
X1824Y137D01*
X0Y136D02*
X7Y136D01*
X1817Y136D02*
X1824Y136D01*
X0Y135D02*
X7Y135D01*
X1817Y135D02*
X1824Y135D01*
X0Y134D02*
X7Y134D01*
X1817Y134D02*
X1824Y134D01*
X0Y133D02*
X7Y133D01*
X1817Y133D02*
X1824Y133D01*
X0Y132D02*
X7Y132D01*
X1817Y132D02*
X1824Y132D01*
X0Y131D02*
X7Y131D01*
X1817Y131D02*
X1824Y131D01*
X0Y130D02*
X7Y130D01*
X1817Y130D02*
X1824Y130D01*
X0Y129D02*
X7Y129D01*
X1817Y129D02*
X1824Y129D01*
X0Y128D02*
X7Y128D01*
X1817Y128D02*
X1824Y128D01*
X0Y127D02*
X7Y127D01*
X1817Y127D02*
X1824Y127D01*
X0Y126D02*
X7Y126D01*
X1817Y126D02*
X1824Y126D01*
X0Y125D02*
X7Y125D01*
X1817Y125D02*
X1824Y125D01*
X0Y124D02*
X7Y124D01*
X1817Y124D02*
X1824Y124D01*
X0Y123D02*
X7Y123D01*
X1817Y123D02*
X1824Y123D01*
X0Y122D02*
X7Y122D01*
X1817Y122D02*
X1824Y122D01*
X0Y121D02*
X7Y121D01*
X1817Y121D02*
X1824Y121D01*
X0Y120D02*
X7Y120D01*
X1817Y120D02*
X1824Y120D01*
X0Y119D02*
X7Y119D01*
X1817Y119D02*
X1824Y119D01*
X0Y118D02*
X7Y118D01*
X1817Y118D02*
X1824Y118D01*
X0Y117D02*
X7Y117D01*
X1817Y117D02*
X1824Y117D01*
X0Y116D02*
X7Y116D01*
X1817Y116D02*
X1824Y116D01*
X0Y115D02*
X7Y115D01*
X1817Y115D02*
X1824Y115D01*
X0Y114D02*
X7Y114D01*
X1817Y114D02*
X1824Y114D01*
X0Y113D02*
X7Y113D01*
X1817Y113D02*
X1824Y113D01*
X0Y112D02*
X7Y112D01*
X1817Y112D02*
X1824Y112D01*
X0Y111D02*
X7Y111D01*
X1817Y111D02*
X1824Y111D01*
X0Y110D02*
X7Y110D01*
X1817Y110D02*
X1824Y110D01*
X0Y109D02*
X7Y109D01*
X0Y108D02*
X7Y108D01*
X0Y107D02*
X7Y107D01*
X0Y106D02*
X7Y106D01*
X1817Y106D02*
X1824Y106D01*
X0Y105D02*
X7Y105D01*
X1817Y105D02*
X1824Y105D01*
X0Y104D02*
X7Y104D01*
X1817Y104D02*
X1824Y104D01*
X0Y103D02*
X7Y103D01*
X1817Y103D02*
X1824Y103D01*
X0Y102D02*
X7Y102D01*
X1817Y102D02*
X1824Y102D01*
X0Y101D02*
X7Y101D01*
X1817Y101D02*
X1824Y101D01*
X0Y100D02*
X7Y100D01*
X1817Y100D02*
X1824Y100D01*
X0Y99D02*
X7Y99D01*
X1817Y99D02*
X1824Y99D01*
X0Y98D02*
X7Y98D01*
X1817Y98D02*
X1824Y98D01*
X0Y97D02*
X7Y97D01*
X1817Y97D02*
X1824Y97D01*
X0Y96D02*
X7Y96D01*
X1817Y96D02*
X1824Y96D01*
X0Y95D02*
X7Y95D01*
X1817Y95D02*
X1824Y95D01*
X0Y94D02*
X7Y94D01*
X1817Y94D02*
X1824Y94D01*
X0Y93D02*
X7Y93D01*
X1817Y93D02*
X1824Y93D01*
X0Y92D02*
X7Y92D01*
X1817Y92D02*
X1824Y92D01*
X0Y91D02*
X7Y91D01*
X1817Y91D02*
X1824Y91D01*
X0Y90D02*
X7Y90D01*
X1817Y90D02*
X1824Y90D01*
X0Y89D02*
X7Y89D01*
X1817Y89D02*
X1824Y89D01*
X0Y88D02*
X7Y88D01*
X1817Y88D02*
X1824Y88D01*
X0Y87D02*
X7Y87D01*
X1817Y87D02*
X1824Y87D01*
X0Y86D02*
X7Y86D01*
X1817Y86D02*
X1824Y86D01*
X0Y85D02*
X7Y85D01*
X1817Y85D02*
X1824Y85D01*
X0Y84D02*
X7Y84D01*
X1817Y84D02*
X1824Y84D01*
X0Y83D02*
X7Y83D01*
X1428Y83D02*
X1450Y83D01*
X1561Y83D02*
X1576Y83D01*
X1817Y83D02*
X1824Y83D01*
X0Y82D02*
X7Y82D01*
X1428Y82D02*
X1453Y82D01*
X1560Y82D02*
X1576Y82D01*
X1817Y82D02*
X1824Y82D01*
X0Y81D02*
X7Y81D01*
X1428Y81D02*
X1454Y81D01*
X1559Y81D02*
X1576Y81D01*
X1817Y81D02*
X1824Y81D01*
X0Y80D02*
X7Y80D01*
X1428Y80D02*
X1455Y80D01*
X1559Y80D02*
X1576Y80D01*
X1817Y80D02*
X1824Y80D01*
X0Y79D02*
X7Y79D01*
X1428Y79D02*
X1456Y79D01*
X1559Y79D02*
X1576Y79D01*
X1817Y79D02*
X1824Y79D01*
X0Y78D02*
X7Y78D01*
X1428Y78D02*
X1456Y78D01*
X1560Y78D02*
X1576Y78D01*
X1817Y78D02*
X1824Y78D01*
X0Y77D02*
X7Y77D01*
X1428Y77D02*
X1434Y77D01*
X1450Y77D02*
X1457Y77D01*
X1571Y77D02*
X1576Y77D01*
X1817Y77D02*
X1824Y77D01*
X0Y76D02*
X7Y76D01*
X1428Y76D02*
X1433Y76D01*
X1451Y76D02*
X1457Y76D01*
X1571Y76D02*
X1576Y76D01*
X1817Y76D02*
X1824Y76D01*
X0Y75D02*
X7Y75D01*
X1428Y75D02*
X1433Y75D01*
X1452Y75D02*
X1457Y75D01*
X1571Y75D02*
X1576Y75D01*
X1817Y75D02*
X1824Y75D01*
X0Y74D02*
X7Y74D01*
X1428Y74D02*
X1433Y74D01*
X1452Y74D02*
X1457Y74D01*
X1571Y74D02*
X1576Y74D01*
X1817Y74D02*
X1824Y74D01*
X0Y73D02*
X7Y73D01*
X1428Y73D02*
X1433Y73D01*
X1452Y73D02*
X1457Y73D01*
X1571Y73D02*
X1576Y73D01*
X1817Y73D02*
X1824Y73D01*
X0Y72D02*
X7Y72D01*
X1428Y72D02*
X1433Y72D01*
X1452Y72D02*
X1457Y72D01*
X1571Y72D02*
X1576Y72D01*
X1817Y72D02*
X1824Y72D01*
X0Y71D02*
X7Y71D01*
X1428Y71D02*
X1433Y71D01*
X1452Y71D02*
X1457Y71D01*
X1571Y71D02*
X1576Y71D01*
X1817Y71D02*
X1824Y71D01*
X0Y70D02*
X7Y70D01*
X1428Y70D02*
X1433Y70D01*
X1452Y70D02*
X1457Y70D01*
X1480Y70D02*
X1493Y70D01*
X1517Y70D02*
X1519Y70D01*
X1541Y70D02*
X1543Y70D01*
X1571Y70D02*
X1576Y70D01*
X1817Y70D02*
X1824Y70D01*
X0Y69D02*
X7Y69D01*
X1428Y69D02*
X1433Y69D01*
X1451Y69D02*
X1457Y69D01*
X1478Y69D02*
X1495Y69D01*
X1516Y69D02*
X1520Y69D01*
X1540Y69D02*
X1544Y69D01*
X1571Y69D02*
X1576Y69D01*
X1817Y69D02*
X1824Y69D01*
X0Y68D02*
X7Y68D01*
X1428Y68D02*
X1434Y68D01*
X1450Y68D02*
X1457Y68D01*
X1477Y68D02*
X1496Y68D01*
X1515Y68D02*
X1520Y68D01*
X1540Y68D02*
X1544Y68D01*
X1571Y68D02*
X1576Y68D01*
X1817Y68D02*
X1824Y68D01*
X0Y67D02*
X7Y67D01*
X1428Y67D02*
X1456Y67D01*
X1476Y67D02*
X1497Y67D01*
X1515Y67D02*
X1521Y67D01*
X1539Y67D02*
X1545Y67D01*
X1571Y67D02*
X1576Y67D01*
X1817Y67D02*
X1824Y67D01*
X0Y66D02*
X7Y66D01*
X1428Y66D02*
X1456Y66D01*
X1475Y66D02*
X1498Y66D01*
X1515Y66D02*
X1521Y66D01*
X1539Y66D02*
X1545Y66D01*
X1571Y66D02*
X1576Y66D01*
X1817Y66D02*
X1824Y66D01*
X0Y65D02*
X7Y65D01*
X1428Y65D02*
X1455Y65D01*
X1474Y65D02*
X1499Y65D01*
X1515Y65D02*
X1521Y65D01*
X1539Y65D02*
X1545Y65D01*
X1571Y65D02*
X1576Y65D01*
X1817Y65D02*
X1824Y65D01*
X0Y64D02*
X7Y64D01*
X703Y64D02*
X716Y64D01*
X762Y64D02*
X763Y64D01*
X1428Y64D02*
X1454Y64D01*
X1473Y64D02*
X1481Y64D01*
X1492Y64D02*
X1500Y64D01*
X1515Y64D02*
X1521Y64D01*
X1539Y64D02*
X1545Y64D01*
X1571Y64D02*
X1576Y64D01*
X1817Y64D02*
X1824Y64D01*
X0Y63D02*
X7Y63D01*
X701Y63D02*
X718Y63D01*
X761Y63D02*
X764Y63D01*
X1428Y63D02*
X1453Y63D01*
X1473Y63D02*
X1479Y63D01*
X1494Y63D02*
X1500Y63D01*
X1515Y63D02*
X1521Y63D01*
X1539Y63D02*
X1545Y63D01*
X1571Y63D02*
X1576Y63D01*
X1817Y63D02*
X1824Y63D01*
X0Y62D02*
X7Y62D01*
X701Y62D02*
X719Y62D01*
X761Y62D02*
X764Y62D01*
X1428Y62D02*
X1450Y62D01*
X1472Y62D02*
X1478Y62D01*
X1495Y62D02*
X1501Y62D01*
X1515Y62D02*
X1521Y62D01*
X1539Y62D02*
X1544Y62D01*
X1571Y62D02*
X1576Y62D01*
X1817Y62D02*
X1824Y62D01*
X0Y61D02*
X7Y61D01*
X199Y61D02*
X202Y61D01*
X700Y61D02*
X719Y61D01*
X761Y61D02*
X764Y61D01*
X1428Y61D02*
X1433Y61D01*
X1439Y61D02*
X1445Y61D01*
X1472Y61D02*
X1477Y61D01*
X1495Y61D02*
X1501Y61D01*
X1516Y61D02*
X1521Y61D01*
X1539Y61D02*
X1544Y61D01*
X1571Y61D02*
X1576Y61D01*
X1817Y61D02*
X1824Y61D01*
X0Y60D02*
X7Y60D01*
X198Y60D02*
X203Y60D01*
X700Y60D02*
X704Y60D01*
X715Y60D02*
X720Y60D01*
X761Y60D02*
X764Y60D01*
X1428Y60D02*
X1433Y60D01*
X1440Y60D02*
X1446Y60D01*
X1472Y60D02*
X1477Y60D01*
X1496Y60D02*
X1501Y60D01*
X1516Y60D02*
X1522Y60D01*
X1538Y60D02*
X1544Y60D01*
X1571Y60D02*
X1576Y60D01*
X1817Y60D02*
X1824Y60D01*
X0Y59D02*
X7Y59D01*
X161Y59D02*
X166Y59D01*
X176Y59D02*
X181Y59D01*
X198Y59D02*
X203Y59D01*
X700Y59D02*
X703Y59D01*
X717Y59D02*
X720Y59D01*
X761Y59D02*
X764Y59D01*
X1428Y59D02*
X1433Y59D01*
X1440Y59D02*
X1446Y59D01*
X1472Y59D02*
X1477Y59D01*
X1496Y59D02*
X1501Y59D01*
X1517Y59D02*
X1522Y59D01*
X1538Y59D02*
X1543Y59D01*
X1571Y59D02*
X1576Y59D01*
X1817Y59D02*
X1824Y59D01*
X0Y58D02*
X7Y58D01*
X161Y58D02*
X166Y58D01*
X176Y58D02*
X181Y58D01*
X198Y58D02*
X203Y58D01*
X700Y58D02*
X704Y58D01*
X717Y58D02*
X720Y58D01*
X761Y58D02*
X764Y58D01*
X1428Y58D02*
X1433Y58D01*
X1441Y58D02*
X1447Y58D01*
X1472Y58D02*
X1477Y58D01*
X1496Y58D02*
X1501Y58D01*
X1517Y58D02*
X1523Y58D01*
X1537Y58D02*
X1543Y58D01*
X1571Y58D02*
X1576Y58D01*
X1817Y58D02*
X1824Y58D01*
X0Y57D02*
X7Y57D01*
X161Y57D02*
X167Y57D01*
X175Y57D02*
X181Y57D01*
X198Y57D02*
X203Y57D01*
X701Y57D02*
X705Y57D01*
X718Y57D02*
X719Y57D01*
X761Y57D02*
X764Y57D01*
X1428Y57D02*
X1433Y57D01*
X1441Y57D02*
X1447Y57D01*
X1472Y57D02*
X1477Y57D01*
X1496Y57D02*
X1501Y57D01*
X1517Y57D02*
X1523Y57D01*
X1537Y57D02*
X1542Y57D01*
X1571Y57D02*
X1576Y57D01*
X1584Y57D02*
X1587Y57D01*
X1817Y57D02*
X1824Y57D01*
X0Y56D02*
X7Y56D01*
X161Y56D02*
X168Y56D01*
X174Y56D02*
X181Y56D01*
X198Y56D02*
X203Y56D01*
X701Y56D02*
X706Y56D01*
X732Y56D02*
X732Y56D01*
X739Y56D02*
X742Y56D01*
X761Y56D02*
X764Y56D01*
X1428Y56D02*
X1433Y56D01*
X1442Y56D02*
X1448Y56D01*
X1472Y56D02*
X1477Y56D01*
X1496Y56D02*
X1501Y56D01*
X1518Y56D02*
X1524Y56D01*
X1536Y56D02*
X1542Y56D01*
X1571Y56D02*
X1576Y56D01*
X1583Y56D02*
X1588Y56D01*
X1817Y56D02*
X1824Y56D01*
X0Y55D02*
X7Y55D01*
X161Y55D02*
X169Y55D01*
X174Y55D02*
X181Y55D01*
X702Y55D02*
X707Y55D01*
X731Y55D02*
X733Y55D01*
X737Y55D02*
X744Y55D01*
X761Y55D02*
X764Y55D01*
X777Y55D02*
X778Y55D01*
X1428Y55D02*
X1433Y55D01*
X1442Y55D02*
X1449Y55D01*
X1472Y55D02*
X1501Y55D01*
X1518Y55D02*
X1524Y55D01*
X1536Y55D02*
X1542Y55D01*
X1571Y55D02*
X1576Y55D01*
X1583Y55D02*
X1588Y55D01*
X1817Y55D02*
X1824Y55D01*
X0Y54D02*
X7Y54D01*
X161Y54D02*
X169Y54D01*
X173Y54D02*
X181Y54D01*
X703Y54D02*
X707Y54D01*
X730Y54D02*
X734Y54D01*
X736Y54D02*
X746Y54D01*
X761Y54D02*
X764Y54D01*
X775Y54D02*
X779Y54D01*
X1428Y54D02*
X1433Y54D01*
X1443Y54D02*
X1449Y54D01*
X1472Y54D02*
X1501Y54D01*
X1519Y54D02*
X1524Y54D01*
X1536Y54D02*
X1541Y54D01*
X1571Y54D02*
X1576Y54D01*
X1583Y54D02*
X1588Y54D01*
X1817Y54D02*
X1824Y54D01*
X0Y53D02*
X7Y53D01*
X161Y53D02*
X170Y53D01*
X172Y53D02*
X181Y53D01*
X704Y53D02*
X708Y53D01*
X730Y53D02*
X747Y53D01*
X761Y53D02*
X764Y53D01*
X774Y53D02*
X779Y53D01*
X1428Y53D02*
X1433Y53D01*
X1444Y53D02*
X1450Y53D01*
X1472Y53D02*
X1501Y53D01*
X1519Y53D02*
X1525Y53D01*
X1535Y53D02*
X1541Y53D01*
X1571Y53D02*
X1576Y53D01*
X1583Y53D02*
X1588Y53D01*
X1817Y53D02*
X1824Y53D01*
X0Y52D02*
X7Y52D01*
X161Y52D02*
X164Y52D01*
X166Y52D02*
X176Y52D01*
X178Y52D02*
X181Y52D01*
X704Y52D02*
X709Y52D01*
X730Y52D02*
X748Y52D01*
X761Y52D02*
X764Y52D01*
X773Y52D02*
X778Y52D01*
X1428Y52D02*
X1433Y52D01*
X1444Y52D02*
X1450Y52D01*
X1472Y52D02*
X1501Y52D01*
X1520Y52D02*
X1525Y52D01*
X1535Y52D02*
X1540Y52D01*
X1571Y52D02*
X1576Y52D01*
X1583Y52D02*
X1588Y52D01*
X1817Y52D02*
X1824Y52D01*
X0Y51D02*
X7Y51D01*
X161Y51D02*
X164Y51D01*
X167Y51D02*
X175Y51D01*
X178Y51D02*
X181Y51D01*
X705Y51D02*
X710Y51D01*
X730Y51D02*
X738Y51D01*
X743Y51D02*
X749Y51D01*
X761Y51D02*
X764Y51D01*
X772Y51D02*
X777Y51D01*
X1428Y51D02*
X1433Y51D01*
X1445Y51D02*
X1451Y51D01*
X1472Y51D02*
X1501Y51D01*
X1520Y51D02*
X1526Y51D01*
X1534Y51D02*
X1540Y51D01*
X1571Y51D02*
X1576Y51D01*
X1583Y51D02*
X1588Y51D01*
X1817Y51D02*
X1824Y51D01*
X0Y50D02*
X7Y50D01*
X161Y50D02*
X164Y50D01*
X168Y50D02*
X174Y50D01*
X178Y50D02*
X181Y50D01*
X194Y50D02*
X202Y50D01*
X229Y50D02*
X241Y50D01*
X706Y50D02*
X710Y50D01*
X730Y50D02*
X737Y50D01*
X745Y50D02*
X750Y50D01*
X761Y50D02*
X764Y50D01*
X771Y50D02*
X776Y50D01*
X1428Y50D02*
X1433Y50D01*
X1445Y50D02*
X1452Y50D01*
X1472Y50D02*
X1500Y50D01*
X1520Y50D02*
X1526Y50D01*
X1534Y50D02*
X1539Y50D01*
X1571Y50D02*
X1576Y50D01*
X1583Y50D02*
X1588Y50D01*
X1817Y50D02*
X1824Y50D01*
X0Y49D02*
X7Y49D01*
X161Y49D02*
X164Y49D01*
X168Y49D02*
X174Y49D01*
X178Y49D02*
X181Y49D01*
X194Y49D02*
X203Y49D01*
X228Y49D02*
X242Y49D01*
X707Y49D02*
X711Y49D01*
X730Y49D02*
X736Y49D01*
X746Y49D02*
X750Y49D01*
X761Y49D02*
X764Y49D01*
X769Y49D02*
X775Y49D01*
X1428Y49D02*
X1433Y49D01*
X1446Y49D02*
X1452Y49D01*
X1472Y49D02*
X1498Y49D01*
X1521Y49D02*
X1527Y49D01*
X1533Y49D02*
X1539Y49D01*
X1571Y49D02*
X1576Y49D01*
X1583Y49D02*
X1588Y49D01*
X1817Y49D02*
X1824Y49D01*
X0Y48D02*
X7Y48D01*
X161Y48D02*
X164Y48D01*
X169Y48D02*
X173Y48D01*
X178Y48D02*
X181Y48D01*
X194Y48D02*
X203Y48D01*
X227Y48D02*
X242Y48D01*
X707Y48D02*
X712Y48D01*
X730Y48D02*
X735Y48D01*
X747Y48D02*
X750Y48D01*
X761Y48D02*
X764Y48D01*
X768Y48D02*
X774Y48D01*
X1428Y48D02*
X1433Y48D01*
X1447Y48D02*
X1453Y48D01*
X1472Y48D02*
X1477Y48D01*
X1521Y48D02*
X1527Y48D01*
X1533Y48D02*
X1539Y48D01*
X1571Y48D02*
X1576Y48D01*
X1583Y48D02*
X1588Y48D01*
X1817Y48D02*
X1824Y48D01*
X0Y47D02*
X7Y47D01*
X161Y47D02*
X164Y47D01*
X169Y47D02*
X173Y47D01*
X178Y47D02*
X181Y47D01*
X194Y47D02*
X203Y47D01*
X225Y47D02*
X242Y47D01*
X708Y47D02*
X713Y47D01*
X730Y47D02*
X734Y47D01*
X747Y47D02*
X750Y47D01*
X761Y47D02*
X764Y47D01*
X767Y47D02*
X773Y47D01*
X1428Y47D02*
X1433Y47D01*
X1447Y47D02*
X1453Y47D01*
X1472Y47D02*
X1477Y47D01*
X1522Y47D02*
X1527Y47D01*
X1532Y47D02*
X1538Y47D01*
X1571Y47D02*
X1576Y47D01*
X1583Y47D02*
X1588Y47D01*
X1817Y47D02*
X1824Y47D01*
X0Y46D02*
X7Y46D01*
X161Y46D02*
X164Y46D01*
X170Y46D02*
X173Y46D01*
X178Y46D02*
X181Y46D01*
X200Y46D02*
X203Y46D01*
X224Y46D02*
X230Y46D01*
X709Y46D02*
X714Y46D01*
X730Y46D02*
X734Y46D01*
X747Y46D02*
X751Y46D01*
X761Y46D02*
X764Y46D01*
X766Y46D02*
X772Y46D01*
X1428Y46D02*
X1433Y46D01*
X1448Y46D02*
X1454Y46D01*
X1472Y46D02*
X1477Y46D01*
X1522Y46D02*
X1528Y46D01*
X1532Y46D02*
X1538Y46D01*
X1571Y46D02*
X1576Y46D01*
X1583Y46D02*
X1588Y46D01*
X1817Y46D02*
X1824Y46D01*
X0Y45D02*
X7Y45D01*
X161Y45D02*
X164Y45D01*
X170Y45D02*
X172Y45D01*
X178Y45D02*
X181Y45D01*
X200Y45D02*
X203Y45D01*
X223Y45D02*
X229Y45D01*
X710Y45D02*
X714Y45D01*
X730Y45D02*
X734Y45D01*
X747Y45D02*
X751Y45D01*
X761Y45D02*
X770Y45D01*
X1428Y45D02*
X1433Y45D01*
X1448Y45D02*
X1454Y45D01*
X1472Y45D02*
X1478Y45D01*
X1523Y45D02*
X1528Y45D01*
X1532Y45D02*
X1537Y45D01*
X1571Y45D02*
X1576Y45D01*
X1583Y45D02*
X1588Y45D01*
X1817Y45D02*
X1824Y45D01*
X0Y44D02*
X7Y44D01*
X161Y44D02*
X164Y44D01*
X178Y44D02*
X181Y44D01*
X200Y44D02*
X203Y44D01*
X223Y44D02*
X228Y44D01*
X711Y44D02*
X715Y44D01*
X730Y44D02*
X734Y44D01*
X747Y44D02*
X751Y44D01*
X761Y44D02*
X770Y44D01*
X1428Y44D02*
X1433Y44D01*
X1449Y44D02*
X1455Y44D01*
X1472Y44D02*
X1479Y44D01*
X1523Y44D02*
X1529Y44D01*
X1531Y44D02*
X1537Y44D01*
X1571Y44D02*
X1576Y44D01*
X1583Y44D02*
X1588Y44D01*
X1817Y44D02*
X1824Y44D01*
X0Y43D02*
X7Y43D01*
X161Y43D02*
X164Y43D01*
X178Y43D02*
X181Y43D01*
X200Y43D02*
X203Y43D01*
X222Y43D02*
X226Y43D01*
X711Y43D02*
X716Y43D01*
X730Y43D02*
X734Y43D01*
X747Y43D02*
X751Y43D01*
X761Y43D02*
X771Y43D01*
X1428Y43D02*
X1433Y43D01*
X1449Y43D02*
X1456Y43D01*
X1473Y43D02*
X1480Y43D01*
X1524Y43D02*
X1529Y43D01*
X1531Y43D02*
X1536Y43D01*
X1571Y43D02*
X1576Y43D01*
X1583Y43D02*
X1588Y43D01*
X1817Y43D02*
X1824Y43D01*
X0Y42D02*
X7Y42D01*
X161Y42D02*
X164Y42D01*
X178Y42D02*
X181Y42D01*
X200Y42D02*
X203Y42D01*
X222Y42D02*
X226Y42D01*
X712Y42D02*
X717Y42D01*
X730Y42D02*
X734Y42D01*
X747Y42D02*
X751Y42D01*
X761Y42D02*
X772Y42D01*
X1428Y42D02*
X1433Y42D01*
X1450Y42D02*
X1456Y42D01*
X1473Y42D02*
X1499Y42D01*
X1524Y42D02*
X1536Y42D01*
X1561Y42D02*
X1588Y42D01*
X1817Y42D02*
X1824Y42D01*
X0Y41D02*
X7Y41D01*
X161Y41D02*
X164Y41D01*
X178Y41D02*
X181Y41D01*
X200Y41D02*
X203Y41D01*
X222Y41D02*
X225Y41D01*
X713Y41D02*
X717Y41D01*
X730Y41D02*
X734Y41D01*
X747Y41D02*
X751Y41D01*
X761Y41D02*
X766Y41D01*
X768Y41D02*
X773Y41D01*
X1428Y41D02*
X1433Y41D01*
X1451Y41D02*
X1457Y41D01*
X1474Y41D02*
X1500Y41D01*
X1524Y41D02*
X1535Y41D01*
X1560Y41D02*
X1588Y41D01*
X1817Y41D02*
X1824Y41D01*
X0Y40D02*
X7Y40D01*
X161Y40D02*
X164Y40D01*
X178Y40D02*
X181Y40D01*
X200Y40D02*
X203Y40D01*
X222Y40D02*
X225Y40D01*
X714Y40D02*
X718Y40D01*
X730Y40D02*
X734Y40D01*
X747Y40D02*
X750Y40D01*
X761Y40D02*
X765Y40D01*
X769Y40D02*
X774Y40D01*
X1428Y40D02*
X1433Y40D01*
X1451Y40D02*
X1457Y40D01*
X1475Y40D02*
X1501Y40D01*
X1525Y40D02*
X1535Y40D01*
X1559Y40D02*
X1588Y40D01*
X1817Y40D02*
X1824Y40D01*
X0Y39D02*
X7Y39D01*
X161Y39D02*
X164Y39D01*
X178Y39D02*
X181Y39D01*
X200Y39D02*
X203Y39D01*
X222Y39D02*
X225Y39D01*
X701Y39D02*
X702Y39D01*
X714Y39D02*
X719Y39D01*
X730Y39D02*
X734Y39D01*
X747Y39D02*
X750Y39D01*
X761Y39D02*
X764Y39D01*
X770Y39D02*
X776Y39D01*
X1428Y39D02*
X1433Y39D01*
X1452Y39D02*
X1457Y39D01*
X1476Y39D02*
X1501Y39D01*
X1525Y39D02*
X1535Y39D01*
X1559Y39D02*
X1588Y39D01*
X1817Y39D02*
X1824Y39D01*
X0Y38D02*
X7Y38D01*
X161Y38D02*
X164Y38D01*
X178Y38D02*
X181Y38D01*
X200Y38D02*
X203Y38D01*
X222Y38D02*
X225Y38D01*
X700Y38D02*
X703Y38D01*
X715Y38D02*
X720Y38D01*
X730Y38D02*
X735Y38D01*
X746Y38D02*
X750Y38D01*
X761Y38D02*
X764Y38D01*
X771Y38D02*
X777Y38D01*
X1428Y38D02*
X1433Y38D01*
X1452Y38D02*
X1457Y38D01*
X1477Y38D02*
X1501Y38D01*
X1526Y38D02*
X1534Y38D01*
X1559Y38D02*
X1588Y38D01*
X1817Y38D02*
X1824Y38D01*
X0Y37D02*
X7Y37D01*
X161Y37D02*
X164Y37D01*
X178Y37D02*
X181Y37D01*
X200Y37D02*
X203Y37D01*
X222Y37D02*
X225Y37D01*
X700Y37D02*
X703Y37D01*
X716Y37D02*
X720Y37D01*
X730Y37D02*
X736Y37D01*
X745Y37D02*
X750Y37D01*
X761Y37D02*
X764Y37D01*
X772Y37D02*
X778Y37D01*
X1429Y37D02*
X1432Y37D01*
X1453Y37D02*
X1456Y37D01*
X1479Y37D02*
X1500Y37D01*
X1526Y37D02*
X1533Y37D01*
X1560Y37D02*
X1587Y37D01*
X1817Y37D02*
X1824Y37D01*
X0Y36D02*
X7Y36D01*
X161Y36D02*
X164Y36D01*
X178Y36D02*
X181Y36D01*
X200Y36D02*
X203Y36D01*
X222Y36D02*
X225Y36D01*
X700Y36D02*
X704Y36D01*
X717Y36D02*
X720Y36D01*
X730Y36D02*
X737Y36D01*
X744Y36D02*
X749Y36D01*
X761Y36D02*
X764Y36D01*
X774Y36D02*
X779Y36D01*
X1817Y36D02*
X1824Y36D01*
X0Y35D02*
X7Y35D01*
X161Y35D02*
X164Y35D01*
X178Y35D02*
X181Y35D01*
X200Y35D02*
X203Y35D01*
X222Y35D02*
X226Y35D01*
X700Y35D02*
X720Y35D01*
X730Y35D02*
X739Y35D01*
X742Y35D02*
X748Y35D01*
X761Y35D02*
X764Y35D01*
X775Y35D02*
X780Y35D01*
X1817Y35D02*
X1824Y35D01*
X0Y34D02*
X7Y34D01*
X161Y34D02*
X164Y34D01*
X178Y34D02*
X181Y34D01*
X200Y34D02*
X203Y34D01*
X222Y34D02*
X226Y34D01*
X701Y34D02*
X719Y34D01*
X730Y34D02*
X747Y34D01*
X761Y34D02*
X764Y34D01*
X776Y34D02*
X781Y34D01*
X1817Y34D02*
X1824Y34D01*
X0Y33D02*
X7Y33D01*
X161Y33D02*
X164Y33D01*
X178Y33D02*
X181Y33D01*
X200Y33D02*
X203Y33D01*
X223Y33D02*
X228Y33D01*
X702Y33D02*
X719Y33D01*
X730Y33D02*
X746Y33D01*
X761Y33D02*
X764Y33D01*
X777Y33D02*
X781Y33D01*
X1817Y33D02*
X1824Y33D01*
X0Y32D02*
X7Y32D01*
X161Y32D02*
X164Y32D01*
X178Y32D02*
X181Y32D01*
X200Y32D02*
X203Y32D01*
X223Y32D02*
X229Y32D01*
X703Y32D02*
X717Y32D01*
X730Y32D02*
X734Y32D01*
X736Y32D02*
X745Y32D01*
X762Y32D02*
X764Y32D01*
X778Y32D02*
X780Y32D01*
X1817Y32D02*
X1824Y32D01*
X0Y31D02*
X7Y31D01*
X161Y31D02*
X164Y31D01*
X178Y31D02*
X181Y31D01*
X200Y31D02*
X203Y31D01*
X224Y31D02*
X230Y31D01*
X730Y31D02*
X734Y31D01*
X738Y31D02*
X743Y31D01*
X1817Y31D02*
X1824Y31D01*
X0Y30D02*
X7Y30D01*
X161Y30D02*
X164Y30D01*
X178Y30D02*
X181Y30D01*
X194Y30D02*
X209Y30D01*
X226Y30D02*
X242Y30D01*
X730Y30D02*
X734Y30D01*
X1817Y30D02*
X1824Y30D01*
X0Y29D02*
X7Y29D01*
X161Y29D02*
X164Y29D01*
X178Y29D02*
X181Y29D01*
X194Y29D02*
X209Y29D01*
X227Y29D02*
X242Y29D01*
X730Y29D02*
X734Y29D01*
X1817Y29D02*
X1824Y29D01*
X0Y28D02*
X7Y28D01*
X161Y28D02*
X164Y28D01*
X178Y28D02*
X181Y28D01*
X194Y28D02*
X209Y28D01*
X228Y28D02*
X242Y28D01*
X730Y28D02*
X734Y28D01*
X1817Y28D02*
X1824Y28D01*
X0Y27D02*
X7Y27D01*
X162Y27D02*
X163Y27D01*
X179Y27D02*
X180Y27D01*
X194Y27D02*
X209Y27D01*
X230Y27D02*
X241Y27D01*
X730Y27D02*
X734Y27D01*
X1817Y27D02*
X1824Y27D01*
X0Y26D02*
X7Y26D01*
X730Y26D02*
X734Y26D01*
X1817Y26D02*
X1824Y26D01*
X0Y25D02*
X7Y25D01*
X730Y25D02*
X734Y25D01*
X1817Y25D02*
X1824Y25D01*
X0Y24D02*
X7Y24D01*
X730Y24D02*
X734Y24D01*
X1817Y24D02*
X1824Y24D01*
X0Y23D02*
X7Y23D01*
X731Y23D02*
X733Y23D01*
X1817Y23D02*
X1824Y23D01*
X0Y22D02*
X7Y22D01*
X1817Y22D02*
X1824Y22D01*
X0Y21D02*
X7Y21D01*
X1817Y21D02*
X1824Y21D01*
X0Y20D02*
X7Y20D01*
X1817Y20D02*
X1824Y20D01*
X0Y19D02*
X7Y19D01*
X1817Y19D02*
X1824Y19D01*
X0Y18D02*
X7Y18D01*
X1817Y18D02*
X1824Y18D01*
X0Y17D02*
X7Y17D01*
X1817Y17D02*
X1824Y17D01*
X0Y16D02*
X7Y16D01*
X1817Y16D02*
X1824Y16D01*
X0Y15D02*
X7Y15D01*
X1817Y15D02*
X1824Y15D01*
X0Y14D02*
X7Y14D01*
X1817Y14D02*
X1824Y14D01*
X0Y13D02*
X7Y13D01*
X1817Y13D02*
X1824Y13D01*
X0Y12D02*
X7Y12D01*
X1817Y12D02*
X1824Y12D01*
X0Y11D02*
X7Y11D01*
X1817Y11D02*
X1824Y11D01*
X0Y10D02*
X7Y10D01*
X1817Y10D02*
X1824Y10D01*
X0Y9D02*
X7Y9D01*
X277Y9D02*
X279Y9D01*
X510Y9D02*
X512Y9D01*
X827Y9D02*
X829Y9D01*
X1060Y9D02*
X1062Y9D01*
X1817Y9D02*
X1824Y9D01*
X0Y8D02*
X1824Y8D01*
X0Y7D02*
X1824Y7D01*
X0Y6D02*
X1824Y6D01*
X0Y5D02*
X1824Y5D01*
X0Y4D02*
X1824Y4D01*
X0Y3D02*
X1824Y3D01*
X0Y2D02*
X1824Y2D01*
X0Y1D02*
X1824Y1D01*
X277Y0D02*
X279Y0D01*
X510Y0D02*
X513Y0D01*
X827Y0D02*
X829Y0D01*
X1060Y0D02*
X1062Y0D01*
X277Y-1D02*
X279Y-1D01*
X510Y-1D02*
X513Y-1D01*
X827Y-1D02*
X829Y-1D01*
X1060Y-1D02*
X1062Y-1D01*
D02*
G04 End of Silk1*
M02*