G04 MADE WITH FRITZING*
G04 WWW.FRITZING.ORG*
G04 DOUBLE SIDED*
G04 HOLES PLATED*
G04 CONTOUR ON CENTER OF CONTOUR VECTOR*
%ASAXBY*%
%FSLAX23Y23*%
%MOIN*%
%OFA0B0*%
%SFA1.0B1.0*%
%ADD10C,0.003528*%
%ADD11C,0.010000*%
%ADD12C,0.005000*%
%ADD13C,0.008000*%
%ADD14R,0.001000X0.001000*%
%LNSILK0*%
G90*
G70*
G54D10*
X1035Y477D02*
X995Y477D01*
D02*
X901Y477D02*
X858Y477D01*
D02*
X484Y477D02*
X444Y477D01*
G54D11*
D02*
X89Y163D02*
X89Y363D01*
D02*
X89Y363D02*
X189Y363D01*
D02*
X1814Y489D02*
X1614Y489D01*
D02*
X1614Y489D02*
X1614Y589D01*
D02*
X1614Y589D02*
X1814Y589D01*
D02*
X1814Y589D02*
X1814Y489D01*
G54D12*
D02*
X1779Y489D02*
X1814Y524D01*
G54D11*
D02*
X1414Y489D02*
X1214Y489D01*
D02*
X1214Y489D02*
X1214Y589D01*
D02*
X1214Y589D02*
X1414Y589D01*
D02*
X1414Y589D02*
X1414Y489D01*
G54D12*
D02*
X1379Y489D02*
X1414Y524D01*
G54D10*
D02*
X1351Y313D02*
X1351Y273D01*
D02*
X1351Y179D02*
X1351Y136D01*
D02*
X1640Y90D02*
X1366Y90D01*
G54D13*
D02*
X701Y229D02*
X636Y229D01*
D02*
X636Y149D02*
X701Y149D01*
D02*
X701Y304D02*
X636Y304D01*
D02*
X636Y224D02*
X701Y224D01*
G54D10*
X1088Y87D02*
X1088Y7D01*
X812Y7D01*
X812Y87D01*
D02*
X537Y87D02*
X537Y7D01*
X262Y7D01*
X262Y87D01*
D02*
X1740Y366D02*
X1820Y366D01*
X1820Y90D01*
X1740Y90D01*
D02*
G54D14*
X0Y606D02*
X1824Y606D01*
X0Y605D02*
X1824Y605D01*
X0Y604D02*
X1824Y604D01*
X0Y603D02*
X1824Y603D01*
X0Y602D02*
X1824Y602D01*
X0Y601D02*
X1824Y601D01*
X0Y600D02*
X1824Y600D01*
X0Y599D02*
X1824Y599D01*
X0Y598D02*
X7Y598D01*
X1817Y598D02*
X1824Y598D01*
X0Y597D02*
X7Y597D01*
X1817Y597D02*
X1824Y597D01*
X0Y596D02*
X7Y596D01*
X1817Y596D02*
X1824Y596D01*
X0Y595D02*
X7Y595D01*
X1817Y595D02*
X1824Y595D01*
X0Y594D02*
X7Y594D01*
X1817Y594D02*
X1824Y594D01*
X0Y593D02*
X7Y593D01*
X1555Y593D02*
X1569Y593D01*
X1585Y593D02*
X1585Y593D01*
X1817Y593D02*
X1824Y593D01*
X0Y592D02*
X7Y592D01*
X1553Y592D02*
X1570Y592D01*
X1583Y592D02*
X1586Y592D01*
X1817Y592D02*
X1824Y592D01*
X0Y591D02*
X7Y591D01*
X1552Y591D02*
X1571Y591D01*
X1583Y591D02*
X1586Y591D01*
X1817Y591D02*
X1824Y591D01*
X0Y590D02*
X7Y590D01*
X1551Y590D02*
X1570Y590D01*
X1583Y590D02*
X1586Y590D01*
X1817Y590D02*
X1824Y590D01*
X0Y589D02*
X7Y589D01*
X1164Y589D02*
X1166Y589D01*
X1181Y589D02*
X1183Y589D01*
X1551Y589D02*
X1569Y589D01*
X1583Y589D02*
X1586Y589D01*
X1817Y589D02*
X1824Y589D01*
X0Y588D02*
X7Y588D01*
X1164Y588D02*
X1167Y588D01*
X1180Y588D02*
X1183Y588D01*
X1551Y588D02*
X1554Y588D01*
X1583Y588D02*
X1586Y588D01*
X1817Y588D02*
X1824Y588D01*
X0Y587D02*
X7Y587D01*
X1164Y587D02*
X1167Y587D01*
X1180Y587D02*
X1183Y587D01*
X1551Y587D02*
X1554Y587D01*
X1583Y587D02*
X1586Y587D01*
X1817Y587D02*
X1824Y587D01*
X0Y586D02*
X7Y586D01*
X1152Y586D02*
X1153Y586D01*
X1164Y586D02*
X1167Y586D01*
X1180Y586D02*
X1183Y586D01*
X1551Y586D02*
X1554Y586D01*
X1583Y586D02*
X1586Y586D01*
X1817Y586D02*
X1824Y586D01*
X0Y585D02*
X7Y585D01*
X1151Y585D02*
X1154Y585D01*
X1164Y585D02*
X1167Y585D01*
X1180Y585D02*
X1183Y585D01*
X1551Y585D02*
X1554Y585D01*
X1583Y585D02*
X1586Y585D01*
X1817Y585D02*
X1824Y585D01*
X0Y584D02*
X7Y584D01*
X1151Y584D02*
X1154Y584D01*
X1164Y584D02*
X1167Y584D01*
X1180Y584D02*
X1183Y584D01*
X1551Y584D02*
X1554Y584D01*
X1583Y584D02*
X1586Y584D01*
X1817Y584D02*
X1824Y584D01*
X0Y583D02*
X7Y583D01*
X1151Y583D02*
X1154Y583D01*
X1164Y583D02*
X1167Y583D01*
X1180Y583D02*
X1183Y583D01*
X1551Y583D02*
X1554Y583D01*
X1583Y583D02*
X1586Y583D01*
X1817Y583D02*
X1824Y583D01*
X0Y582D02*
X7Y582D01*
X1151Y582D02*
X1154Y582D01*
X1164Y582D02*
X1167Y582D01*
X1180Y582D02*
X1183Y582D01*
X1551Y582D02*
X1554Y582D01*
X1583Y582D02*
X1586Y582D01*
X1817Y582D02*
X1824Y582D01*
X0Y581D02*
X7Y581D01*
X1151Y581D02*
X1154Y581D01*
X1164Y581D02*
X1167Y581D01*
X1180Y581D02*
X1183Y581D01*
X1551Y581D02*
X1554Y581D01*
X1583Y581D02*
X1586Y581D01*
X1817Y581D02*
X1824Y581D01*
X0Y580D02*
X7Y580D01*
X1151Y580D02*
X1154Y580D01*
X1164Y580D02*
X1167Y580D01*
X1180Y580D02*
X1183Y580D01*
X1551Y580D02*
X1555Y580D01*
X1583Y580D02*
X1586Y580D01*
X1817Y580D02*
X1824Y580D01*
X0Y579D02*
X7Y579D01*
X1151Y579D02*
X1154Y579D01*
X1164Y579D02*
X1167Y579D01*
X1180Y579D02*
X1183Y579D01*
X1551Y579D02*
X1564Y579D01*
X1583Y579D02*
X1586Y579D01*
X1817Y579D02*
X1824Y579D01*
X0Y578D02*
X7Y578D01*
X1151Y578D02*
X1154Y578D01*
X1164Y578D02*
X1167Y578D01*
X1180Y578D02*
X1183Y578D01*
X1552Y578D02*
X1566Y578D01*
X1583Y578D02*
X1586Y578D01*
X1817Y578D02*
X1824Y578D01*
X0Y577D02*
X7Y577D01*
X1151Y577D02*
X1154Y577D01*
X1164Y577D02*
X1167Y577D01*
X1180Y577D02*
X1183Y577D01*
X1553Y577D02*
X1567Y577D01*
X1583Y577D02*
X1586Y577D01*
X1817Y577D02*
X1824Y577D01*
X0Y576D02*
X7Y576D01*
X1151Y576D02*
X1154Y576D01*
X1164Y576D02*
X1167Y576D01*
X1180Y576D02*
X1183Y576D01*
X1552Y576D02*
X1566Y576D01*
X1583Y576D02*
X1586Y576D01*
X1817Y576D02*
X1824Y576D01*
X0Y575D02*
X7Y575D01*
X1151Y575D02*
X1154Y575D01*
X1164Y575D02*
X1167Y575D01*
X1180Y575D02*
X1183Y575D01*
X1552Y575D02*
X1565Y575D01*
X1583Y575D02*
X1586Y575D01*
X1596Y575D02*
X1598Y575D01*
X1817Y575D02*
X1824Y575D01*
X0Y574D02*
X7Y574D01*
X1151Y574D02*
X1154Y574D01*
X1164Y574D02*
X1167Y574D01*
X1180Y574D02*
X1183Y574D01*
X1551Y574D02*
X1555Y574D01*
X1583Y574D02*
X1586Y574D01*
X1596Y574D02*
X1599Y574D01*
X1817Y574D02*
X1824Y574D01*
X0Y573D02*
X7Y573D01*
X1151Y573D02*
X1154Y573D01*
X1164Y573D02*
X1167Y573D01*
X1180Y573D02*
X1183Y573D01*
X1551Y573D02*
X1554Y573D01*
X1583Y573D02*
X1586Y573D01*
X1596Y573D02*
X1599Y573D01*
X1817Y573D02*
X1824Y573D01*
X0Y572D02*
X7Y572D01*
X1150Y572D02*
X1167Y572D01*
X1180Y572D02*
X1183Y572D01*
X1194Y572D02*
X1194Y572D01*
X1551Y572D02*
X1554Y572D01*
X1583Y572D02*
X1586Y572D01*
X1595Y572D02*
X1599Y572D01*
X1817Y572D02*
X1824Y572D01*
X0Y571D02*
X7Y571D01*
X1149Y571D02*
X1167Y571D01*
X1180Y571D02*
X1183Y571D01*
X1193Y571D02*
X1195Y571D01*
X1551Y571D02*
X1554Y571D01*
X1583Y571D02*
X1586Y571D01*
X1595Y571D02*
X1599Y571D01*
X1817Y571D02*
X1824Y571D01*
X0Y570D02*
X7Y570D01*
X1149Y570D02*
X1167Y570D01*
X1180Y570D02*
X1183Y570D01*
X1192Y570D02*
X1196Y570D01*
X1551Y570D02*
X1554Y570D01*
X1583Y570D02*
X1586Y570D01*
X1595Y570D02*
X1599Y570D01*
X1817Y570D02*
X1824Y570D01*
X0Y569D02*
X7Y569D01*
X1149Y569D02*
X1167Y569D01*
X1180Y569D02*
X1183Y569D01*
X1192Y569D02*
X1196Y569D01*
X1551Y569D02*
X1554Y569D01*
X1583Y569D02*
X1586Y569D01*
X1595Y569D02*
X1599Y569D01*
X1817Y569D02*
X1824Y569D01*
X0Y568D02*
X7Y568D01*
X1151Y568D02*
X1155Y568D01*
X1180Y568D02*
X1183Y568D01*
X1192Y568D02*
X1196Y568D01*
X1551Y568D02*
X1554Y568D01*
X1583Y568D02*
X1586Y568D01*
X1595Y568D02*
X1599Y568D01*
X1817Y568D02*
X1824Y568D01*
X0Y567D02*
X7Y567D01*
X1151Y567D02*
X1154Y567D01*
X1180Y567D02*
X1183Y567D01*
X1192Y567D02*
X1196Y567D01*
X1551Y567D02*
X1554Y567D01*
X1583Y567D02*
X1586Y567D01*
X1595Y567D02*
X1599Y567D01*
X1817Y567D02*
X1824Y567D01*
X0Y566D02*
X7Y566D01*
X1151Y566D02*
X1154Y566D01*
X1180Y566D02*
X1183Y566D01*
X1192Y566D02*
X1196Y566D01*
X1552Y566D02*
X1554Y566D01*
X1583Y566D02*
X1587Y566D01*
X1595Y566D02*
X1599Y566D01*
X1817Y566D02*
X1824Y566D01*
X0Y565D02*
X7Y565D01*
X1151Y565D02*
X1154Y565D01*
X1180Y565D02*
X1183Y565D01*
X1192Y565D02*
X1196Y565D01*
X1554Y565D02*
X1554Y565D01*
X1583Y565D02*
X1588Y565D01*
X1594Y565D02*
X1598Y565D01*
X1817Y565D02*
X1824Y565D01*
X0Y564D02*
X7Y564D01*
X1151Y564D02*
X1154Y564D01*
X1180Y564D02*
X1183Y564D01*
X1192Y564D02*
X1196Y564D01*
X1555Y564D02*
X1570Y564D01*
X1584Y564D02*
X1598Y564D01*
X1817Y564D02*
X1824Y564D01*
X0Y563D02*
X7Y563D01*
X1151Y563D02*
X1154Y563D01*
X1180Y563D02*
X1183Y563D01*
X1192Y563D02*
X1196Y563D01*
X1556Y563D02*
X1571Y563D01*
X1585Y563D02*
X1597Y563D01*
X1817Y563D02*
X1824Y563D01*
X0Y562D02*
X7Y562D01*
X64Y562D02*
X66Y562D01*
X1151Y562D02*
X1154Y562D01*
X1180Y562D02*
X1184Y562D01*
X1192Y562D02*
X1195Y562D01*
X1557Y562D02*
X1571Y562D01*
X1586Y562D02*
X1596Y562D01*
X1817Y562D02*
X1824Y562D01*
X0Y561D02*
X7Y561D01*
X63Y561D02*
X66Y561D01*
X1151Y561D02*
X1154Y561D01*
X1181Y561D02*
X1195Y561D01*
X1557Y561D02*
X1570Y561D01*
X1587Y561D02*
X1594Y561D01*
X1817Y561D02*
X1824Y561D01*
X0Y560D02*
X7Y560D01*
X63Y560D02*
X66Y560D01*
X1151Y560D02*
X1154Y560D01*
X1181Y560D02*
X1194Y560D01*
X1817Y560D02*
X1824Y560D01*
X0Y559D02*
X7Y559D01*
X63Y559D02*
X66Y559D01*
X1151Y559D02*
X1154Y559D01*
X1182Y559D02*
X1193Y559D01*
X1817Y559D02*
X1824Y559D01*
X0Y558D02*
X7Y558D01*
X63Y558D02*
X66Y558D01*
X1152Y558D02*
X1154Y558D01*
X1184Y558D02*
X1192Y558D01*
X1817Y558D02*
X1824Y558D01*
X0Y557D02*
X7Y557D01*
X63Y557D02*
X66Y557D01*
X1817Y557D02*
X1824Y557D01*
X0Y556D02*
X7Y556D01*
X63Y556D02*
X66Y556D01*
X1817Y556D02*
X1824Y556D01*
X0Y555D02*
X7Y555D01*
X63Y555D02*
X67Y555D01*
X1817Y555D02*
X1824Y555D01*
X0Y554D02*
X7Y554D01*
X56Y554D02*
X74Y554D01*
X1817Y554D02*
X1824Y554D01*
X0Y553D02*
X7Y553D01*
X55Y553D02*
X75Y553D01*
X1817Y553D02*
X1824Y553D01*
X0Y552D02*
X7Y552D01*
X55Y552D02*
X75Y552D01*
X1817Y552D02*
X1824Y552D01*
X0Y551D02*
X7Y551D01*
X55Y551D02*
X74Y551D01*
X1817Y551D02*
X1824Y551D01*
X0Y550D02*
X7Y550D01*
X63Y550D02*
X67Y550D01*
X1817Y550D02*
X1824Y550D01*
X0Y549D02*
X7Y549D01*
X63Y549D02*
X66Y549D01*
X1817Y549D02*
X1824Y549D01*
X0Y548D02*
X7Y548D01*
X63Y548D02*
X66Y548D01*
X1817Y548D02*
X1824Y548D01*
X0Y547D02*
X7Y547D01*
X63Y547D02*
X66Y547D01*
X1817Y547D02*
X1824Y547D01*
X0Y546D02*
X7Y546D01*
X63Y546D02*
X66Y546D01*
X1817Y546D02*
X1824Y546D01*
X0Y545D02*
X7Y545D01*
X63Y545D02*
X66Y545D01*
X1817Y545D02*
X1824Y545D01*
X0Y544D02*
X7Y544D01*
X63Y544D02*
X66Y544D01*
X1817Y544D02*
X1824Y544D01*
X0Y543D02*
X7Y543D01*
X64Y543D02*
X66Y543D01*
X1817Y543D02*
X1824Y543D01*
X0Y542D02*
X7Y542D01*
X65Y542D02*
X65Y542D01*
X1817Y542D02*
X1824Y542D01*
X0Y541D02*
X7Y541D01*
X1817Y541D02*
X1824Y541D01*
X0Y540D02*
X7Y540D01*
X1817Y540D02*
X1824Y540D01*
X0Y539D02*
X7Y539D01*
X1817Y539D02*
X1824Y539D01*
X0Y538D02*
X7Y538D01*
X1817Y538D02*
X1824Y538D01*
X0Y537D02*
X7Y537D01*
X1817Y537D02*
X1824Y537D01*
X0Y536D02*
X7Y536D01*
X1817Y536D02*
X1824Y536D01*
X0Y535D02*
X7Y535D01*
X1817Y535D02*
X1824Y535D01*
X0Y534D02*
X7Y534D01*
X1817Y534D02*
X1824Y534D01*
X0Y533D02*
X7Y533D01*
X1817Y533D02*
X1824Y533D01*
X0Y532D02*
X7Y532D01*
X50Y532D02*
X81Y532D01*
X1817Y532D02*
X1824Y532D01*
X0Y531D02*
X7Y531D01*
X49Y531D02*
X81Y531D01*
X1817Y531D02*
X1824Y531D01*
X0Y530D02*
X7Y530D01*
X49Y530D02*
X81Y530D01*
X1817Y530D02*
X1824Y530D01*
X0Y529D02*
X7Y529D01*
X49Y529D02*
X81Y529D01*
X1817Y529D02*
X1824Y529D01*
X0Y528D02*
X7Y528D01*
X77Y528D02*
X81Y528D01*
X1817Y528D02*
X1824Y528D01*
X0Y527D02*
X7Y527D01*
X78Y527D02*
X81Y527D01*
X1817Y527D02*
X1824Y527D01*
X0Y526D02*
X7Y526D01*
X78Y526D02*
X81Y526D01*
X1817Y526D02*
X1824Y526D01*
X0Y525D02*
X7Y525D01*
X78Y525D02*
X81Y525D01*
X1817Y525D02*
X1824Y525D01*
X0Y524D02*
X7Y524D01*
X78Y524D02*
X81Y524D01*
X1817Y524D02*
X1824Y524D01*
X0Y523D02*
X7Y523D01*
X78Y523D02*
X81Y523D01*
X1817Y523D02*
X1824Y523D01*
X0Y522D02*
X7Y522D01*
X78Y522D02*
X81Y522D01*
X621Y522D02*
X623Y522D01*
X1817Y522D02*
X1824Y522D01*
X0Y521D02*
X7Y521D01*
X78Y521D02*
X81Y521D01*
X621Y521D02*
X624Y521D01*
X1817Y521D02*
X1824Y521D01*
X0Y520D02*
X7Y520D01*
X78Y520D02*
X81Y520D01*
X621Y520D02*
X624Y520D01*
X1817Y520D02*
X1824Y520D01*
X0Y519D02*
X7Y519D01*
X78Y519D02*
X81Y519D01*
X621Y519D02*
X624Y519D01*
X1817Y519D02*
X1824Y519D01*
X0Y518D02*
X7Y518D01*
X78Y518D02*
X81Y518D01*
X621Y518D02*
X624Y518D01*
X1817Y518D02*
X1824Y518D01*
X0Y517D02*
X7Y517D01*
X78Y517D02*
X81Y517D01*
X621Y517D02*
X624Y517D01*
X1817Y517D02*
X1824Y517D01*
X0Y516D02*
X7Y516D01*
X78Y516D02*
X81Y516D01*
X621Y516D02*
X624Y516D01*
X1817Y516D02*
X1824Y516D01*
X0Y515D02*
X7Y515D01*
X78Y515D02*
X81Y515D01*
X621Y515D02*
X624Y515D01*
X1817Y515D02*
X1824Y515D01*
X0Y514D02*
X7Y514D01*
X78Y514D02*
X81Y514D01*
X614Y514D02*
X631Y514D01*
X1817Y514D02*
X1824Y514D01*
X0Y513D02*
X7Y513D01*
X78Y513D02*
X81Y513D01*
X613Y513D02*
X632Y513D01*
X1817Y513D02*
X1824Y513D01*
X0Y512D02*
X7Y512D01*
X78Y512D02*
X80Y512D01*
X612Y512D02*
X632Y512D01*
X1817Y512D02*
X1824Y512D01*
X0Y511D02*
X7Y511D01*
X613Y511D02*
X632Y511D01*
X1817Y511D02*
X1824Y511D01*
X0Y510D02*
X7Y510D01*
X614Y510D02*
X631Y510D01*
X1817Y510D02*
X1824Y510D01*
X0Y509D02*
X7Y509D01*
X621Y509D02*
X624Y509D01*
X1817Y509D02*
X1824Y509D01*
X0Y508D02*
X7Y508D01*
X621Y508D02*
X624Y508D01*
X1817Y508D02*
X1824Y508D01*
X0Y507D02*
X7Y507D01*
X621Y507D02*
X624Y507D01*
X1817Y507D02*
X1824Y507D01*
X0Y506D02*
X7Y506D01*
X621Y506D02*
X624Y506D01*
X1817Y506D02*
X1824Y506D01*
X0Y505D02*
X7Y505D01*
X621Y505D02*
X624Y505D01*
X1817Y505D02*
X1824Y505D01*
X0Y504D02*
X7Y504D01*
X621Y504D02*
X624Y504D01*
X1817Y504D02*
X1824Y504D01*
X0Y503D02*
X7Y503D01*
X621Y503D02*
X624Y503D01*
X1817Y503D02*
X1824Y503D01*
X0Y502D02*
X7Y502D01*
X621Y502D02*
X623Y502D01*
X1817Y502D02*
X1824Y502D01*
X0Y501D02*
X7Y501D01*
X49Y501D02*
X80Y501D01*
X1817Y501D02*
X1824Y501D01*
X0Y500D02*
X7Y500D01*
X49Y500D02*
X81Y500D01*
X1817Y500D02*
X1824Y500D01*
X0Y499D02*
X7Y499D01*
X49Y499D02*
X81Y499D01*
X1817Y499D02*
X1824Y499D01*
X0Y498D02*
X7Y498D01*
X49Y498D02*
X80Y498D01*
X1817Y498D02*
X1824Y498D01*
X0Y497D02*
X7Y497D01*
X49Y497D02*
X55Y497D01*
X1817Y497D02*
X1824Y497D01*
X0Y496D02*
X7Y496D01*
X50Y496D02*
X56Y496D01*
X1817Y496D02*
X1824Y496D01*
X0Y495D02*
X7Y495D01*
X51Y495D02*
X58Y495D01*
X1817Y495D02*
X1824Y495D01*
X0Y494D02*
X7Y494D01*
X53Y494D02*
X59Y494D01*
X1817Y494D02*
X1824Y494D01*
X0Y493D02*
X7Y493D01*
X54Y493D02*
X62Y493D01*
X1817Y493D02*
X1824Y493D01*
X0Y492D02*
X7Y492D01*
X55Y492D02*
X63Y492D01*
X608Y492D02*
X638Y492D01*
X1817Y492D02*
X1824Y492D01*
X0Y491D02*
X7Y491D01*
X56Y491D02*
X63Y491D01*
X607Y491D02*
X638Y491D01*
X1817Y491D02*
X1824Y491D01*
X0Y490D02*
X7Y490D01*
X54Y490D02*
X62Y490D01*
X606Y490D02*
X638Y490D01*
X1817Y490D02*
X1824Y490D01*
X0Y489D02*
X7Y489D01*
X53Y489D02*
X59Y489D01*
X607Y489D02*
X638Y489D01*
X1817Y489D02*
X1824Y489D01*
X0Y488D02*
X7Y488D01*
X51Y488D02*
X58Y488D01*
X608Y488D02*
X638Y488D01*
X1817Y488D02*
X1824Y488D01*
X0Y487D02*
X7Y487D01*
X50Y487D02*
X56Y487D01*
X635Y487D02*
X638Y487D01*
X1817Y487D02*
X1824Y487D01*
X0Y486D02*
X7Y486D01*
X49Y486D02*
X55Y486D01*
X635Y486D02*
X638Y486D01*
X1817Y486D02*
X1824Y486D01*
X0Y485D02*
X7Y485D01*
X49Y485D02*
X79Y485D01*
X635Y485D02*
X638Y485D01*
X1817Y485D02*
X1824Y485D01*
X0Y484D02*
X7Y484D01*
X49Y484D02*
X81Y484D01*
X635Y484D02*
X638Y484D01*
X1817Y484D02*
X1824Y484D01*
X0Y483D02*
X7Y483D01*
X49Y483D02*
X81Y483D01*
X635Y483D02*
X638Y483D01*
X1817Y483D02*
X1824Y483D01*
X0Y482D02*
X7Y482D01*
X49Y482D02*
X81Y482D01*
X635Y482D02*
X638Y482D01*
X1817Y482D02*
X1824Y482D01*
X0Y481D02*
X7Y481D01*
X49Y481D02*
X79Y481D01*
X635Y481D02*
X638Y481D01*
X1817Y481D02*
X1824Y481D01*
X0Y480D02*
X7Y480D01*
X635Y480D02*
X638Y480D01*
X1817Y480D02*
X1824Y480D01*
X0Y479D02*
X7Y479D01*
X635Y479D02*
X638Y479D01*
X1697Y479D02*
X1700Y479D01*
X1817Y479D02*
X1824Y479D01*
X0Y478D02*
X7Y478D01*
X306Y478D02*
X351Y478D01*
X635Y478D02*
X638Y478D01*
X1696Y478D02*
X1701Y478D01*
X1817Y478D02*
X1824Y478D01*
X0Y477D02*
X7Y477D01*
X306Y477D02*
X351Y477D01*
X635Y477D02*
X638Y477D01*
X1696Y477D02*
X1701Y477D01*
X1718Y477D02*
X1723Y477D01*
X1734Y477D02*
X1738Y477D01*
X1753Y477D02*
X1769Y477D01*
X1817Y477D02*
X1824Y477D01*
X0Y476D02*
X7Y476D01*
X306Y476D02*
X351Y476D01*
X635Y476D02*
X638Y476D01*
X1274Y476D02*
X1277Y476D01*
X1321Y476D02*
X1336Y476D01*
X1352Y476D02*
X1369Y476D01*
X1696Y476D02*
X1701Y476D01*
X1718Y476D02*
X1723Y476D01*
X1733Y476D02*
X1738Y476D01*
X1751Y476D02*
X1769Y476D01*
X1817Y476D02*
X1824Y476D01*
X0Y475D02*
X7Y475D01*
X635Y475D02*
X638Y475D01*
X1274Y475D02*
X1277Y475D01*
X1320Y475D02*
X1337Y475D01*
X1351Y475D02*
X1369Y475D01*
X1696Y475D02*
X1701Y475D01*
X1718Y475D02*
X1724Y475D01*
X1732Y475D02*
X1738Y475D01*
X1750Y475D02*
X1769Y475D01*
X1817Y475D02*
X1824Y475D01*
X0Y474D02*
X7Y474D01*
X635Y474D02*
X638Y474D01*
X1274Y474D02*
X1277Y474D01*
X1319Y474D02*
X1338Y474D01*
X1350Y474D02*
X1369Y474D01*
X1697Y474D02*
X1701Y474D01*
X1718Y474D02*
X1725Y474D01*
X1731Y474D02*
X1738Y474D01*
X1749Y474D02*
X1769Y474D01*
X1817Y474D02*
X1824Y474D01*
X0Y473D02*
X7Y473D01*
X635Y473D02*
X638Y473D01*
X1274Y473D02*
X1277Y473D01*
X1318Y473D02*
X1338Y473D01*
X1349Y473D02*
X1369Y473D01*
X1718Y473D02*
X1726Y473D01*
X1731Y473D02*
X1738Y473D01*
X1749Y473D02*
X1753Y473D01*
X1765Y473D02*
X1769Y473D01*
X1817Y473D02*
X1824Y473D01*
X0Y472D02*
X7Y472D01*
X635Y472D02*
X638Y472D01*
X1274Y472D02*
X1277Y472D01*
X1318Y472D02*
X1322Y472D01*
X1335Y472D02*
X1338Y472D01*
X1349Y472D02*
X1353Y472D01*
X1365Y472D02*
X1369Y472D01*
X1718Y472D02*
X1726Y472D01*
X1730Y472D02*
X1738Y472D01*
X1749Y472D02*
X1752Y472D01*
X1765Y472D02*
X1769Y472D01*
X1817Y472D02*
X1824Y472D01*
X0Y471D02*
X7Y471D01*
X637Y471D02*
X637Y471D01*
X1274Y471D02*
X1277Y471D01*
X1318Y471D02*
X1321Y471D01*
X1334Y471D02*
X1338Y471D01*
X1349Y471D02*
X1352Y471D01*
X1365Y471D02*
X1369Y471D01*
X1718Y471D02*
X1727Y471D01*
X1729Y471D02*
X1738Y471D01*
X1749Y471D02*
X1752Y471D01*
X1765Y471D02*
X1769Y471D01*
X1788Y471D02*
X1790Y471D01*
X1817Y471D02*
X1824Y471D01*
X0Y470D02*
X7Y470D01*
X1274Y470D02*
X1277Y470D01*
X1318Y470D02*
X1321Y470D01*
X1333Y470D02*
X1338Y470D01*
X1349Y470D02*
X1352Y470D01*
X1365Y470D02*
X1369Y470D01*
X1388Y470D02*
X1390Y470D01*
X1718Y470D02*
X1721Y470D01*
X1723Y470D02*
X1733Y470D01*
X1735Y470D02*
X1738Y470D01*
X1749Y470D02*
X1752Y470D01*
X1765Y470D02*
X1769Y470D01*
X1788Y470D02*
X1791Y470D01*
X1817Y470D02*
X1824Y470D01*
X0Y469D02*
X7Y469D01*
X59Y469D02*
X60Y469D01*
X79Y469D02*
X80Y469D01*
X1274Y469D02*
X1277Y469D01*
X1333Y469D02*
X1337Y469D01*
X1349Y469D02*
X1352Y469D01*
X1365Y469D02*
X1369Y469D01*
X1388Y469D02*
X1391Y469D01*
X1718Y469D02*
X1721Y469D01*
X1724Y469D02*
X1732Y469D01*
X1735Y469D02*
X1738Y469D01*
X1749Y469D02*
X1752Y469D01*
X1765Y469D02*
X1769Y469D01*
X1788Y469D02*
X1791Y469D01*
X1817Y469D02*
X1824Y469D01*
X0Y468D02*
X7Y468D01*
X58Y468D02*
X61Y468D01*
X78Y468D02*
X81Y468D01*
X1274Y468D02*
X1277Y468D01*
X1295Y468D02*
X1300Y468D01*
X1305Y468D02*
X1307Y468D01*
X1332Y468D02*
X1336Y468D01*
X1349Y468D02*
X1352Y468D01*
X1365Y468D02*
X1369Y468D01*
X1387Y468D02*
X1391Y468D01*
X1658Y468D02*
X1669Y468D01*
X1697Y468D02*
X1705Y468D01*
X1718Y468D02*
X1721Y468D01*
X1725Y468D02*
X1731Y468D01*
X1735Y468D02*
X1738Y468D01*
X1749Y468D02*
X1752Y468D01*
X1765Y468D02*
X1769Y468D01*
X1788Y468D02*
X1791Y468D01*
X1817Y468D02*
X1824Y468D01*
X0Y467D02*
X7Y467D01*
X58Y467D02*
X61Y467D01*
X78Y467D02*
X81Y467D01*
X1260Y467D02*
X1262Y467D01*
X1274Y467D02*
X1277Y467D01*
X1293Y467D02*
X1302Y467D01*
X1304Y467D02*
X1308Y467D01*
X1331Y467D02*
X1336Y467D01*
X1349Y467D02*
X1352Y467D01*
X1365Y467D02*
X1369Y467D01*
X1387Y467D02*
X1391Y467D01*
X1657Y467D02*
X1671Y467D01*
X1696Y467D02*
X1705Y467D01*
X1718Y467D02*
X1721Y467D01*
X1726Y467D02*
X1731Y467D01*
X1735Y467D02*
X1738Y467D01*
X1749Y467D02*
X1753Y467D01*
X1765Y467D02*
X1769Y467D01*
X1788Y467D02*
X1791Y467D01*
X1817Y467D02*
X1824Y467D01*
X0Y466D02*
X7Y466D01*
X58Y466D02*
X61Y466D01*
X78Y466D02*
X81Y466D01*
X1259Y466D02*
X1263Y466D01*
X1274Y466D02*
X1277Y466D01*
X1292Y466D02*
X1308Y466D01*
X1330Y466D02*
X1335Y466D01*
X1349Y466D02*
X1369Y466D01*
X1387Y466D02*
X1391Y466D01*
X1657Y466D02*
X1673Y466D01*
X1696Y466D02*
X1705Y466D01*
X1718Y466D02*
X1721Y466D01*
X1726Y466D02*
X1730Y466D01*
X1735Y466D02*
X1738Y466D01*
X1749Y466D02*
X1769Y466D01*
X1788Y466D02*
X1791Y466D01*
X1817Y466D02*
X1824Y466D01*
X0Y465D02*
X7Y465D01*
X48Y465D02*
X51Y465D01*
X58Y465D02*
X61Y465D01*
X78Y465D02*
X81Y465D01*
X1259Y465D02*
X1264Y465D01*
X1274Y465D02*
X1277Y465D01*
X1291Y465D02*
X1308Y465D01*
X1329Y465D02*
X1334Y465D01*
X1350Y465D02*
X1369Y465D01*
X1387Y465D02*
X1391Y465D01*
X1658Y465D02*
X1674Y465D01*
X1696Y465D02*
X1705Y465D01*
X1718Y465D02*
X1721Y465D01*
X1726Y465D02*
X1730Y465D01*
X1735Y465D02*
X1738Y465D01*
X1750Y465D02*
X1769Y465D01*
X1788Y465D02*
X1791Y465D01*
X1817Y465D02*
X1824Y465D01*
X0Y464D02*
X7Y464D01*
X47Y464D02*
X52Y464D01*
X58Y464D02*
X61Y464D01*
X78Y464D02*
X81Y464D01*
X1260Y464D02*
X1266Y464D01*
X1274Y464D02*
X1277Y464D01*
X1290Y464D02*
X1295Y464D01*
X1300Y464D02*
X1308Y464D01*
X1329Y464D02*
X1333Y464D01*
X1350Y464D02*
X1369Y464D01*
X1387Y464D02*
X1391Y464D01*
X1669Y464D02*
X1675Y464D01*
X1696Y464D02*
X1699Y464D01*
X1718Y464D02*
X1721Y464D01*
X1727Y464D02*
X1730Y464D01*
X1735Y464D02*
X1738Y464D01*
X1751Y464D02*
X1769Y464D01*
X1788Y464D02*
X1791Y464D01*
X1817Y464D02*
X1824Y464D01*
X0Y463D02*
X7Y463D01*
X47Y463D02*
X52Y463D01*
X58Y463D02*
X81Y463D01*
X261Y463D02*
X261Y463D01*
X1261Y463D02*
X1267Y463D01*
X1274Y463D02*
X1277Y463D01*
X1289Y463D02*
X1294Y463D01*
X1301Y463D02*
X1308Y463D01*
X1328Y463D02*
X1332Y463D01*
X1352Y463D02*
X1369Y463D01*
X1387Y463D02*
X1391Y463D01*
X1628Y463D02*
X1645Y463D01*
X1670Y463D02*
X1676Y463D01*
X1696Y463D02*
X1699Y463D01*
X1718Y463D02*
X1721Y463D01*
X1727Y463D02*
X1729Y463D01*
X1735Y463D02*
X1738Y463D01*
X1752Y463D02*
X1769Y463D01*
X1781Y463D02*
X1797Y463D01*
X1817Y463D02*
X1824Y463D01*
X0Y462D02*
X7Y462D01*
X47Y462D02*
X52Y462D01*
X58Y462D02*
X81Y462D01*
X260Y462D02*
X262Y462D01*
X535Y462D02*
X538Y462D01*
X810Y462D02*
X813Y462D01*
X1227Y462D02*
X1246Y462D01*
X1262Y462D02*
X1268Y462D01*
X1274Y462D02*
X1277Y462D01*
X1288Y462D02*
X1293Y462D01*
X1302Y462D02*
X1308Y462D01*
X1327Y462D02*
X1332Y462D01*
X1354Y462D02*
X1369Y462D01*
X1380Y462D02*
X1398Y462D01*
X1627Y462D02*
X1646Y462D01*
X1671Y462D02*
X1676Y462D01*
X1696Y462D02*
X1699Y462D01*
X1718Y462D02*
X1721Y462D01*
X1735Y462D02*
X1738Y462D01*
X1757Y462D02*
X1761Y462D01*
X1765Y462D02*
X1769Y462D01*
X1779Y462D02*
X1799Y462D01*
X1817Y462D02*
X1824Y462D01*
X0Y461D02*
X7Y461D01*
X47Y461D02*
X52Y461D01*
X58Y461D02*
X81Y461D01*
X260Y461D02*
X262Y461D01*
X535Y461D02*
X538Y461D01*
X609Y461D02*
X612Y461D01*
X632Y461D02*
X635Y461D01*
X810Y461D02*
X813Y461D01*
X1227Y461D02*
X1246Y461D01*
X1264Y461D02*
X1269Y461D01*
X1274Y461D02*
X1277Y461D01*
X1288Y461D02*
X1292Y461D01*
X1303Y461D02*
X1308Y461D01*
X1326Y461D02*
X1331Y461D01*
X1357Y461D02*
X1361Y461D01*
X1365Y461D02*
X1369Y461D01*
X1379Y461D02*
X1399Y461D01*
X1627Y461D02*
X1647Y461D01*
X1673Y461D02*
X1677Y461D01*
X1696Y461D02*
X1699Y461D01*
X1718Y461D02*
X1721Y461D01*
X1735Y461D02*
X1738Y461D01*
X1757Y461D02*
X1761Y461D01*
X1765Y461D02*
X1769Y461D01*
X1779Y461D02*
X1799Y461D01*
X1817Y461D02*
X1824Y461D01*
X0Y460D02*
X7Y460D01*
X47Y460D02*
X52Y460D01*
X58Y460D02*
X81Y460D01*
X260Y460D02*
X262Y460D01*
X535Y460D02*
X538Y460D01*
X608Y460D02*
X614Y460D01*
X632Y460D02*
X636Y460D01*
X810Y460D02*
X813Y460D01*
X1226Y460D02*
X1247Y460D01*
X1265Y460D02*
X1270Y460D01*
X1274Y460D02*
X1277Y460D01*
X1288Y460D02*
X1291Y460D01*
X1304Y460D02*
X1308Y460D01*
X1326Y460D02*
X1330Y460D01*
X1356Y460D02*
X1360Y460D01*
X1365Y460D02*
X1369Y460D01*
X1379Y460D02*
X1399Y460D01*
X1626Y460D02*
X1647Y460D01*
X1674Y460D02*
X1677Y460D01*
X1696Y460D02*
X1699Y460D01*
X1718Y460D02*
X1721Y460D01*
X1735Y460D02*
X1738Y460D01*
X1756Y460D02*
X1760Y460D01*
X1765Y460D02*
X1769Y460D01*
X1779Y460D02*
X1799Y460D01*
X1817Y460D02*
X1824Y460D01*
X0Y459D02*
X7Y459D01*
X48Y459D02*
X51Y459D01*
X59Y459D02*
X81Y459D01*
X260Y459D02*
X262Y459D01*
X535Y459D02*
X538Y459D01*
X607Y459D02*
X615Y459D01*
X632Y459D02*
X637Y459D01*
X810Y459D02*
X813Y459D01*
X1226Y459D02*
X1247Y459D01*
X1266Y459D02*
X1271Y459D01*
X1274Y459D02*
X1277Y459D01*
X1288Y459D02*
X1291Y459D01*
X1304Y459D02*
X1308Y459D01*
X1325Y459D02*
X1329Y459D01*
X1356Y459D02*
X1360Y459D01*
X1365Y459D02*
X1369Y459D01*
X1380Y459D02*
X1399Y459D01*
X1627Y459D02*
X1647Y459D01*
X1674Y459D02*
X1677Y459D01*
X1696Y459D02*
X1699Y459D01*
X1718Y459D02*
X1721Y459D01*
X1735Y459D02*
X1738Y459D01*
X1756Y459D02*
X1760Y459D01*
X1765Y459D02*
X1769Y459D01*
X1780Y459D02*
X1798Y459D01*
X1817Y459D02*
X1824Y459D01*
X0Y458D02*
X7Y458D01*
X78Y458D02*
X81Y458D01*
X260Y458D02*
X262Y458D01*
X535Y458D02*
X538Y458D01*
X607Y458D02*
X616Y458D01*
X632Y458D02*
X638Y458D01*
X810Y458D02*
X813Y458D01*
X1227Y458D02*
X1246Y458D01*
X1267Y458D02*
X1277Y458D01*
X1288Y458D02*
X1291Y458D01*
X1304Y458D02*
X1308Y458D01*
X1324Y458D02*
X1329Y458D01*
X1355Y458D02*
X1359Y458D01*
X1365Y458D02*
X1369Y458D01*
X1387Y458D02*
X1391Y458D01*
X1627Y458D02*
X1646Y458D01*
X1674Y458D02*
X1677Y458D01*
X1696Y458D02*
X1699Y458D01*
X1718Y458D02*
X1721Y458D01*
X1735Y458D02*
X1738Y458D01*
X1755Y458D02*
X1759Y458D01*
X1765Y458D02*
X1769Y458D01*
X1788Y458D02*
X1791Y458D01*
X1817Y458D02*
X1824Y458D01*
X0Y457D02*
X7Y457D01*
X78Y457D02*
X81Y457D01*
X260Y457D02*
X262Y457D01*
X535Y457D02*
X538Y457D01*
X606Y457D02*
X610Y457D01*
X612Y457D02*
X618Y457D01*
X634Y457D02*
X638Y457D01*
X810Y457D02*
X813Y457D01*
X1227Y457D02*
X1246Y457D01*
X1268Y457D02*
X1277Y457D01*
X1288Y457D02*
X1291Y457D01*
X1304Y457D02*
X1308Y457D01*
X1323Y457D02*
X1328Y457D01*
X1355Y457D02*
X1359Y457D01*
X1365Y457D02*
X1369Y457D01*
X1387Y457D02*
X1391Y457D01*
X1629Y457D02*
X1645Y457D01*
X1674Y457D02*
X1677Y457D01*
X1696Y457D02*
X1699Y457D01*
X1718Y457D02*
X1721Y457D01*
X1735Y457D02*
X1738Y457D01*
X1754Y457D02*
X1758Y457D01*
X1765Y457D02*
X1769Y457D01*
X1788Y457D02*
X1791Y457D01*
X1817Y457D02*
X1824Y457D01*
X0Y456D02*
X7Y456D01*
X78Y456D02*
X81Y456D01*
X260Y456D02*
X262Y456D01*
X535Y456D02*
X538Y456D01*
X606Y456D02*
X610Y456D01*
X613Y456D02*
X619Y456D01*
X635Y456D02*
X638Y456D01*
X810Y456D02*
X813Y456D01*
X1268Y456D02*
X1277Y456D01*
X1288Y456D02*
X1291Y456D01*
X1304Y456D02*
X1308Y456D01*
X1322Y456D02*
X1327Y456D01*
X1354Y456D02*
X1358Y456D01*
X1365Y456D02*
X1369Y456D01*
X1387Y456D02*
X1391Y456D01*
X1674Y456D02*
X1677Y456D01*
X1696Y456D02*
X1699Y456D01*
X1718Y456D02*
X1721Y456D01*
X1735Y456D02*
X1738Y456D01*
X1754Y456D02*
X1758Y456D01*
X1765Y456D02*
X1769Y456D01*
X1788Y456D02*
X1791Y456D01*
X1817Y456D02*
X1824Y456D01*
X0Y455D02*
X7Y455D01*
X78Y455D02*
X81Y455D01*
X260Y455D02*
X262Y455D01*
X535Y455D02*
X538Y455D01*
X606Y455D02*
X610Y455D01*
X614Y455D02*
X620Y455D01*
X635Y455D02*
X638Y455D01*
X810Y455D02*
X813Y455D01*
X1266Y455D02*
X1277Y455D01*
X1288Y455D02*
X1291Y455D01*
X1304Y455D02*
X1308Y455D01*
X1322Y455D02*
X1326Y455D01*
X1353Y455D02*
X1357Y455D01*
X1365Y455D02*
X1369Y455D01*
X1387Y455D02*
X1391Y455D01*
X1674Y455D02*
X1677Y455D01*
X1696Y455D02*
X1699Y455D01*
X1718Y455D02*
X1721Y455D01*
X1735Y455D02*
X1738Y455D01*
X1753Y455D02*
X1757Y455D01*
X1765Y455D02*
X1769Y455D01*
X1788Y455D02*
X1791Y455D01*
X1817Y455D02*
X1824Y455D01*
X0Y454D02*
X7Y454D01*
X78Y454D02*
X81Y454D01*
X260Y454D02*
X262Y454D01*
X535Y454D02*
X538Y454D01*
X606Y454D02*
X610Y454D01*
X615Y454D02*
X621Y454D01*
X635Y454D02*
X638Y454D01*
X810Y454D02*
X813Y454D01*
X1265Y454D02*
X1277Y454D01*
X1288Y454D02*
X1291Y454D01*
X1304Y454D02*
X1308Y454D01*
X1321Y454D02*
X1325Y454D01*
X1353Y454D02*
X1357Y454D01*
X1365Y454D02*
X1369Y454D01*
X1387Y454D02*
X1391Y454D01*
X1674Y454D02*
X1677Y454D01*
X1696Y454D02*
X1699Y454D01*
X1718Y454D02*
X1721Y454D01*
X1735Y454D02*
X1738Y454D01*
X1753Y454D02*
X1757Y454D01*
X1765Y454D02*
X1769Y454D01*
X1788Y454D02*
X1791Y454D01*
X1817Y454D02*
X1824Y454D01*
X0Y453D02*
X7Y453D01*
X78Y453D02*
X80Y453D01*
X260Y453D02*
X262Y453D01*
X535Y453D02*
X538Y453D01*
X606Y453D02*
X610Y453D01*
X617Y453D02*
X623Y453D01*
X635Y453D02*
X638Y453D01*
X810Y453D02*
X813Y453D01*
X1264Y453D02*
X1270Y453D01*
X1273Y453D02*
X1277Y453D01*
X1288Y453D02*
X1291Y453D01*
X1304Y453D02*
X1308Y453D01*
X1320Y453D02*
X1325Y453D01*
X1352Y453D02*
X1356Y453D01*
X1365Y453D02*
X1369Y453D01*
X1387Y453D02*
X1391Y453D01*
X1674Y453D02*
X1677Y453D01*
X1696Y453D02*
X1699Y453D01*
X1718Y453D02*
X1721Y453D01*
X1735Y453D02*
X1738Y453D01*
X1752Y453D02*
X1756Y453D01*
X1765Y453D02*
X1769Y453D01*
X1788Y453D02*
X1791Y453D01*
X1817Y453D02*
X1824Y453D01*
X0Y452D02*
X7Y452D01*
X260Y452D02*
X262Y452D01*
X535Y452D02*
X538Y452D01*
X606Y452D02*
X610Y452D01*
X618Y452D02*
X624Y452D01*
X635Y452D02*
X638Y452D01*
X810Y452D02*
X813Y452D01*
X1263Y452D02*
X1268Y452D01*
X1274Y452D02*
X1277Y452D01*
X1288Y452D02*
X1291Y452D01*
X1304Y452D02*
X1308Y452D01*
X1319Y452D02*
X1324Y452D01*
X1352Y452D02*
X1356Y452D01*
X1365Y452D02*
X1369Y452D01*
X1388Y452D02*
X1391Y452D01*
X1673Y452D02*
X1677Y452D01*
X1696Y452D02*
X1699Y452D01*
X1718Y452D02*
X1721Y452D01*
X1735Y452D02*
X1738Y452D01*
X1751Y452D02*
X1755Y452D01*
X1765Y452D02*
X1769Y452D01*
X1788Y452D02*
X1791Y452D01*
X1817Y452D02*
X1824Y452D01*
X0Y451D02*
X7Y451D01*
X260Y451D02*
X262Y451D01*
X535Y451D02*
X538Y451D01*
X606Y451D02*
X610Y451D01*
X619Y451D02*
X625Y451D01*
X635Y451D02*
X638Y451D01*
X810Y451D02*
X813Y451D01*
X1262Y451D02*
X1267Y451D01*
X1274Y451D02*
X1277Y451D01*
X1288Y451D02*
X1291Y451D01*
X1303Y451D02*
X1308Y451D01*
X1319Y451D02*
X1323Y451D01*
X1336Y451D02*
X1338Y451D01*
X1351Y451D02*
X1355Y451D01*
X1365Y451D02*
X1369Y451D01*
X1388Y451D02*
X1390Y451D01*
X1672Y451D02*
X1676Y451D01*
X1696Y451D02*
X1699Y451D01*
X1718Y451D02*
X1721Y451D01*
X1735Y451D02*
X1738Y451D01*
X1751Y451D02*
X1755Y451D01*
X1765Y451D02*
X1769Y451D01*
X1788Y451D02*
X1790Y451D01*
X1817Y451D02*
X1824Y451D01*
X0Y450D02*
X7Y450D01*
X260Y450D02*
X262Y450D01*
X535Y450D02*
X538Y450D01*
X606Y450D02*
X610Y450D01*
X621Y450D02*
X627Y450D01*
X635Y450D02*
X638Y450D01*
X810Y450D02*
X813Y450D01*
X1261Y450D02*
X1266Y450D01*
X1274Y450D02*
X1277Y450D01*
X1288Y450D02*
X1293Y450D01*
X1302Y450D02*
X1308Y450D01*
X1318Y450D02*
X1322Y450D01*
X1335Y450D02*
X1338Y450D01*
X1351Y450D02*
X1355Y450D01*
X1365Y450D02*
X1369Y450D01*
X1389Y450D02*
X1389Y450D01*
X1670Y450D02*
X1676Y450D01*
X1696Y450D02*
X1699Y450D01*
X1718Y450D02*
X1721Y450D01*
X1735Y450D02*
X1738Y450D01*
X1750Y450D02*
X1754Y450D01*
X1765Y450D02*
X1769Y450D01*
X1817Y450D02*
X1824Y450D01*
X0Y449D02*
X7Y449D01*
X260Y449D02*
X262Y449D01*
X535Y449D02*
X538Y449D01*
X606Y449D02*
X610Y449D01*
X622Y449D02*
X628Y449D01*
X635Y449D02*
X638Y449D01*
X810Y449D02*
X813Y449D01*
X1259Y449D02*
X1265Y449D01*
X1274Y449D02*
X1277Y449D01*
X1289Y449D02*
X1294Y449D01*
X1301Y449D02*
X1308Y449D01*
X1318Y449D02*
X1322Y449D01*
X1335Y449D02*
X1338Y449D01*
X1350Y449D02*
X1354Y449D01*
X1365Y449D02*
X1369Y449D01*
X1669Y449D02*
X1675Y449D01*
X1696Y449D02*
X1699Y449D01*
X1718Y449D02*
X1721Y449D01*
X1735Y449D02*
X1738Y449D01*
X1750Y449D02*
X1754Y449D01*
X1765Y449D02*
X1769Y449D01*
X1817Y449D02*
X1824Y449D01*
X0Y448D02*
X7Y448D01*
X260Y448D02*
X262Y448D01*
X535Y448D02*
X538Y448D01*
X606Y448D02*
X610Y448D01*
X623Y448D02*
X629Y448D01*
X635Y448D02*
X638Y448D01*
X810Y448D02*
X813Y448D01*
X1258Y448D02*
X1264Y448D01*
X1274Y448D02*
X1277Y448D01*
X1289Y448D02*
X1295Y448D01*
X1300Y448D02*
X1308Y448D01*
X1318Y448D02*
X1338Y448D01*
X1349Y448D02*
X1353Y448D01*
X1365Y448D02*
X1369Y448D01*
X1658Y448D02*
X1674Y448D01*
X1690Y448D02*
X1705Y448D01*
X1718Y448D02*
X1721Y448D01*
X1735Y448D02*
X1738Y448D01*
X1749Y448D02*
X1753Y448D01*
X1765Y448D02*
X1769Y448D01*
X1817Y448D02*
X1824Y448D01*
X0Y447D02*
X7Y447D01*
X260Y447D02*
X262Y447D01*
X535Y447D02*
X538Y447D01*
X606Y447D02*
X610Y447D01*
X624Y447D02*
X631Y447D01*
X635Y447D02*
X638Y447D01*
X810Y447D02*
X813Y447D01*
X1257Y447D02*
X1263Y447D01*
X1274Y447D02*
X1277Y447D01*
X1290Y447D02*
X1308Y447D01*
X1318Y447D02*
X1337Y447D01*
X1349Y447D02*
X1353Y447D01*
X1365Y447D02*
X1369Y447D01*
X1657Y447D02*
X1673Y447D01*
X1690Y447D02*
X1705Y447D01*
X1718Y447D02*
X1721Y447D01*
X1735Y447D02*
X1738Y447D01*
X1749Y447D02*
X1753Y447D01*
X1765Y447D02*
X1769Y447D01*
X1817Y447D02*
X1824Y447D01*
X0Y446D02*
X7Y446D01*
X260Y446D02*
X262Y446D01*
X535Y446D02*
X538Y446D01*
X606Y446D02*
X610Y446D01*
X626Y446D02*
X632Y446D01*
X635Y446D02*
X638Y446D01*
X810Y446D02*
X813Y446D01*
X1257Y446D02*
X1261Y446D01*
X1274Y446D02*
X1277Y446D01*
X1292Y446D02*
X1308Y446D01*
X1319Y446D02*
X1337Y446D01*
X1349Y446D02*
X1352Y446D01*
X1365Y446D02*
X1369Y446D01*
X1657Y446D02*
X1671Y446D01*
X1690Y446D02*
X1705Y446D01*
X1718Y446D02*
X1721Y446D01*
X1735Y446D02*
X1738Y446D01*
X1749Y446D02*
X1752Y446D01*
X1766Y446D02*
X1769Y446D01*
X1817Y446D02*
X1824Y446D01*
X0Y445D02*
X7Y445D01*
X260Y445D02*
X262Y445D01*
X535Y445D02*
X538Y445D01*
X606Y445D02*
X610Y445D01*
X627Y445D02*
X633Y445D01*
X635Y445D02*
X638Y445D01*
X810Y445D02*
X813Y445D01*
X1257Y445D02*
X1260Y445D01*
X1274Y445D02*
X1277Y445D01*
X1293Y445D02*
X1302Y445D01*
X1304Y445D02*
X1308Y445D01*
X1320Y445D02*
X1336Y445D01*
X1349Y445D02*
X1352Y445D01*
X1366Y445D02*
X1368Y445D01*
X1658Y445D02*
X1670Y445D01*
X1690Y445D02*
X1705Y445D01*
X1719Y445D02*
X1721Y445D01*
X1736Y445D02*
X1737Y445D01*
X1749Y445D02*
X1751Y445D01*
X1766Y445D02*
X1768Y445D01*
X1817Y445D02*
X1824Y445D01*
X0Y444D02*
X7Y444D01*
X260Y444D02*
X262Y444D01*
X535Y444D02*
X538Y444D01*
X607Y444D02*
X612Y444D01*
X628Y444D02*
X638Y444D01*
X810Y444D02*
X813Y444D01*
X1258Y444D02*
X1259Y444D01*
X1275Y444D02*
X1276Y444D01*
X1294Y444D02*
X1301Y444D01*
X1304Y444D02*
X1308Y444D01*
X1322Y444D02*
X1334Y444D01*
X1350Y444D02*
X1350Y444D01*
X1367Y444D02*
X1367Y444D01*
X1817Y444D02*
X1824Y444D01*
X0Y443D02*
X7Y443D01*
X260Y443D02*
X262Y443D01*
X535Y443D02*
X538Y443D01*
X607Y443D02*
X613Y443D01*
X630Y443D02*
X638Y443D01*
X810Y443D02*
X813Y443D01*
X1297Y443D02*
X1298Y443D01*
X1304Y443D02*
X1308Y443D01*
X1817Y443D02*
X1824Y443D01*
X0Y442D02*
X7Y442D01*
X260Y442D02*
X262Y442D01*
X535Y442D02*
X538Y442D01*
X608Y442D02*
X613Y442D01*
X631Y442D02*
X637Y442D01*
X810Y442D02*
X813Y442D01*
X1304Y442D02*
X1308Y442D01*
X1817Y442D02*
X1824Y442D01*
X0Y441D02*
X7Y441D01*
X260Y441D02*
X262Y441D01*
X535Y441D02*
X538Y441D01*
X610Y441D02*
X612Y441D01*
X632Y441D02*
X636Y441D01*
X810Y441D02*
X813Y441D01*
X1304Y441D02*
X1308Y441D01*
X1817Y441D02*
X1824Y441D01*
X0Y440D02*
X7Y440D01*
X64Y440D02*
X75Y440D01*
X260Y440D02*
X262Y440D01*
X535Y440D02*
X538Y440D01*
X810Y440D02*
X813Y440D01*
X1304Y440D02*
X1308Y440D01*
X1817Y440D02*
X1824Y440D01*
X0Y439D02*
X7Y439D01*
X63Y439D02*
X76Y439D01*
X260Y439D02*
X262Y439D01*
X535Y439D02*
X538Y439D01*
X810Y439D02*
X813Y439D01*
X1304Y439D02*
X1308Y439D01*
X1817Y439D02*
X1824Y439D01*
X0Y438D02*
X7Y438D01*
X62Y438D02*
X77Y438D01*
X260Y438D02*
X262Y438D01*
X535Y438D02*
X538Y438D01*
X810Y438D02*
X813Y438D01*
X1304Y438D02*
X1308Y438D01*
X1817Y438D02*
X1824Y438D01*
X0Y437D02*
X7Y437D01*
X61Y437D02*
X78Y437D01*
X260Y437D02*
X262Y437D01*
X535Y437D02*
X538Y437D01*
X810Y437D02*
X813Y437D01*
X1304Y437D02*
X1308Y437D01*
X1817Y437D02*
X1824Y437D01*
X0Y436D02*
X7Y436D01*
X60Y436D02*
X65Y436D01*
X74Y436D02*
X79Y436D01*
X260Y436D02*
X262Y436D01*
X535Y436D02*
X538Y436D01*
X810Y436D02*
X813Y436D01*
X1305Y436D02*
X1307Y436D01*
X1817Y436D02*
X1824Y436D01*
X0Y435D02*
X7Y435D01*
X59Y435D02*
X64Y435D01*
X75Y435D02*
X79Y435D01*
X260Y435D02*
X262Y435D01*
X535Y435D02*
X538Y435D01*
X810Y435D02*
X813Y435D01*
X1306Y435D02*
X1306Y435D01*
X1817Y435D02*
X1824Y435D01*
X0Y434D02*
X7Y434D01*
X59Y434D02*
X63Y434D01*
X76Y434D02*
X80Y434D01*
X260Y434D02*
X262Y434D01*
X535Y434D02*
X538Y434D01*
X810Y434D02*
X813Y434D01*
X1817Y434D02*
X1824Y434D01*
X0Y433D02*
X7Y433D01*
X58Y433D02*
X62Y433D01*
X76Y433D02*
X81Y433D01*
X260Y433D02*
X262Y433D01*
X535Y433D02*
X538Y433D01*
X810Y433D02*
X813Y433D01*
X1817Y433D02*
X1824Y433D01*
X0Y432D02*
X7Y432D01*
X58Y432D02*
X61Y432D01*
X77Y432D02*
X81Y432D01*
X260Y432D02*
X262Y432D01*
X535Y432D02*
X538Y432D01*
X810Y432D02*
X813Y432D01*
X1817Y432D02*
X1824Y432D01*
X0Y431D02*
X7Y431D01*
X58Y431D02*
X61Y431D01*
X78Y431D02*
X81Y431D01*
X260Y431D02*
X262Y431D01*
X535Y431D02*
X538Y431D01*
X810Y431D02*
X813Y431D01*
X1817Y431D02*
X1824Y431D01*
X0Y430D02*
X7Y430D01*
X58Y430D02*
X61Y430D01*
X78Y430D02*
X81Y430D01*
X260Y430D02*
X262Y430D01*
X535Y430D02*
X538Y430D01*
X615Y430D02*
X647Y430D01*
X810Y430D02*
X813Y430D01*
X1817Y430D02*
X1824Y430D01*
X0Y429D02*
X7Y429D01*
X58Y429D02*
X61Y429D01*
X78Y429D02*
X81Y429D01*
X260Y429D02*
X262Y429D01*
X535Y429D02*
X538Y429D01*
X614Y429D02*
X647Y429D01*
X810Y429D02*
X813Y429D01*
X1817Y429D02*
X1824Y429D01*
X0Y428D02*
X7Y428D01*
X58Y428D02*
X61Y428D01*
X78Y428D02*
X81Y428D01*
X260Y428D02*
X262Y428D01*
X535Y428D02*
X538Y428D01*
X615Y428D02*
X647Y428D01*
X810Y428D02*
X813Y428D01*
X1817Y428D02*
X1824Y428D01*
X0Y427D02*
X7Y427D01*
X58Y427D02*
X61Y427D01*
X78Y427D02*
X81Y427D01*
X260Y427D02*
X262Y427D01*
X535Y427D02*
X538Y427D01*
X616Y427D02*
X646Y427D01*
X810Y427D02*
X813Y427D01*
X1817Y427D02*
X1824Y427D01*
X0Y426D02*
X7Y426D01*
X58Y426D02*
X61Y426D01*
X78Y426D02*
X81Y426D01*
X260Y426D02*
X262Y426D01*
X535Y426D02*
X538Y426D01*
X617Y426D02*
X622Y426D01*
X632Y426D02*
X637Y426D01*
X810Y426D02*
X813Y426D01*
X1817Y426D02*
X1824Y426D01*
X0Y425D02*
X7Y425D01*
X58Y425D02*
X61Y425D01*
X78Y425D02*
X81Y425D01*
X260Y425D02*
X262Y425D01*
X535Y425D02*
X538Y425D01*
X616Y425D02*
X621Y425D01*
X633Y425D02*
X638Y425D01*
X810Y425D02*
X813Y425D01*
X1817Y425D02*
X1824Y425D01*
X0Y424D02*
X7Y424D01*
X58Y424D02*
X61Y424D01*
X78Y424D02*
X81Y424D01*
X260Y424D02*
X262Y424D01*
X535Y424D02*
X538Y424D01*
X615Y424D02*
X620Y424D01*
X634Y424D02*
X638Y424D01*
X810Y424D02*
X813Y424D01*
X1817Y424D02*
X1824Y424D01*
X0Y423D02*
X7Y423D01*
X58Y423D02*
X61Y423D01*
X78Y423D02*
X81Y423D01*
X260Y423D02*
X262Y423D01*
X535Y423D02*
X538Y423D01*
X615Y423D02*
X619Y423D01*
X635Y423D02*
X639Y423D01*
X810Y423D02*
X813Y423D01*
X1817Y423D02*
X1824Y423D01*
X0Y422D02*
X7Y422D01*
X58Y422D02*
X61Y422D01*
X78Y422D02*
X81Y422D01*
X260Y422D02*
X262Y422D01*
X535Y422D02*
X538Y422D01*
X614Y422D02*
X618Y422D01*
X636Y422D02*
X639Y422D01*
X810Y422D02*
X813Y422D01*
X1817Y422D02*
X1824Y422D01*
X0Y421D02*
X7Y421D01*
X58Y421D02*
X61Y421D01*
X78Y421D02*
X81Y421D01*
X260Y421D02*
X262Y421D01*
X535Y421D02*
X538Y421D01*
X614Y421D02*
X618Y421D01*
X636Y421D02*
X639Y421D01*
X810Y421D02*
X813Y421D01*
X1817Y421D02*
X1824Y421D01*
X0Y420D02*
X7Y420D01*
X59Y420D02*
X60Y420D01*
X79Y420D02*
X79Y420D01*
X260Y420D02*
X262Y420D01*
X535Y420D02*
X538Y420D01*
X614Y420D02*
X618Y420D01*
X636Y420D02*
X639Y420D01*
X810Y420D02*
X813Y420D01*
X1817Y420D02*
X1824Y420D01*
X0Y419D02*
X7Y419D01*
X260Y419D02*
X262Y419D01*
X535Y419D02*
X538Y419D01*
X614Y419D02*
X618Y419D01*
X636Y419D02*
X639Y419D01*
X810Y419D02*
X813Y419D01*
X1817Y419D02*
X1824Y419D01*
X0Y418D02*
X7Y418D01*
X260Y418D02*
X262Y418D01*
X535Y418D02*
X538Y418D01*
X615Y418D02*
X619Y418D01*
X635Y418D02*
X639Y418D01*
X810Y418D02*
X813Y418D01*
X1817Y418D02*
X1824Y418D01*
X0Y417D02*
X7Y417D01*
X260Y417D02*
X262Y417D01*
X535Y417D02*
X538Y417D01*
X615Y417D02*
X620Y417D01*
X634Y417D02*
X638Y417D01*
X810Y417D02*
X813Y417D01*
X1817Y417D02*
X1824Y417D01*
X0Y416D02*
X7Y416D01*
X260Y416D02*
X262Y416D01*
X535Y416D02*
X538Y416D01*
X616Y416D02*
X620Y416D01*
X633Y416D02*
X638Y416D01*
X810Y416D02*
X813Y416D01*
X1817Y416D02*
X1824Y416D01*
X0Y415D02*
X7Y415D01*
X260Y415D02*
X262Y415D01*
X535Y415D02*
X538Y415D01*
X617Y415D02*
X621Y415D01*
X632Y415D02*
X637Y415D01*
X810Y415D02*
X813Y415D01*
X1817Y415D02*
X1824Y415D01*
X0Y414D02*
X7Y414D01*
X260Y414D02*
X262Y414D01*
X535Y414D02*
X538Y414D01*
X617Y414D02*
X636Y414D01*
X810Y414D02*
X813Y414D01*
X1086Y414D02*
X1088Y414D01*
X1817Y414D02*
X1824Y414D01*
X0Y413D02*
X7Y413D01*
X260Y413D02*
X262Y413D01*
X535Y413D02*
X538Y413D01*
X618Y413D02*
X635Y413D01*
X810Y413D02*
X813Y413D01*
X1086Y413D02*
X1088Y413D01*
X1463Y413D02*
X1466Y413D01*
X1482Y413D02*
X1494Y413D01*
X1512Y413D02*
X1527Y413D01*
X1542Y413D02*
X1557Y413D01*
X1568Y413D02*
X1587Y413D01*
X1817Y413D02*
X1824Y413D01*
X0Y412D02*
X7Y412D01*
X260Y412D02*
X262Y412D01*
X535Y412D02*
X538Y412D01*
X619Y412D02*
X634Y412D01*
X810Y412D02*
X813Y412D01*
X1086Y412D02*
X1088Y412D01*
X1462Y412D02*
X1467Y412D01*
X1480Y412D02*
X1496Y412D01*
X1510Y412D02*
X1527Y412D01*
X1540Y412D02*
X1557Y412D01*
X1568Y412D02*
X1587Y412D01*
X1817Y412D02*
X1824Y412D01*
X0Y411D02*
X7Y411D01*
X260Y411D02*
X262Y411D01*
X535Y411D02*
X538Y411D01*
X620Y411D02*
X633Y411D01*
X810Y411D02*
X813Y411D01*
X1086Y411D02*
X1088Y411D01*
X1462Y411D02*
X1467Y411D01*
X1479Y411D02*
X1497Y411D01*
X1509Y411D02*
X1527Y411D01*
X1539Y411D02*
X1557Y411D01*
X1568Y411D02*
X1587Y411D01*
X1817Y411D02*
X1824Y411D01*
X0Y410D02*
X7Y410D01*
X64Y410D02*
X67Y410D01*
X260Y410D02*
X262Y410D01*
X535Y410D02*
X538Y410D01*
X623Y410D02*
X631Y410D01*
X810Y410D02*
X813Y410D01*
X1086Y410D02*
X1088Y410D01*
X1463Y410D02*
X1467Y410D01*
X1478Y410D02*
X1497Y410D01*
X1509Y410D02*
X1527Y410D01*
X1539Y410D02*
X1557Y410D01*
X1568Y410D02*
X1587Y410D01*
X1817Y410D02*
X1824Y410D01*
X0Y409D02*
X7Y409D01*
X63Y409D02*
X68Y409D01*
X260Y409D02*
X262Y409D01*
X535Y409D02*
X538Y409D01*
X810Y409D02*
X813Y409D01*
X1086Y409D02*
X1088Y409D01*
X1464Y409D02*
X1467Y409D01*
X1478Y409D02*
X1482Y409D01*
X1494Y409D02*
X1497Y409D01*
X1508Y409D02*
X1512Y409D01*
X1524Y409D02*
X1527Y409D01*
X1538Y409D02*
X1542Y409D01*
X1554Y409D02*
X1557Y409D01*
X1568Y409D02*
X1571Y409D01*
X1576Y409D02*
X1579Y409D01*
X1584Y409D02*
X1587Y409D01*
X1817Y409D02*
X1824Y409D01*
X0Y408D02*
X7Y408D01*
X63Y408D02*
X68Y408D01*
X260Y408D02*
X262Y408D01*
X535Y408D02*
X538Y408D01*
X810Y408D02*
X813Y408D01*
X1086Y408D02*
X1088Y408D01*
X1464Y408D02*
X1467Y408D01*
X1478Y408D02*
X1481Y408D01*
X1494Y408D02*
X1497Y408D01*
X1508Y408D02*
X1511Y408D01*
X1524Y408D02*
X1527Y408D01*
X1538Y408D02*
X1541Y408D01*
X1554Y408D02*
X1557Y408D01*
X1568Y408D02*
X1571Y408D01*
X1576Y408D02*
X1579Y408D01*
X1584Y408D02*
X1587Y408D01*
X1817Y408D02*
X1824Y408D01*
X0Y407D02*
X7Y407D01*
X63Y407D02*
X68Y407D01*
X260Y407D02*
X262Y407D01*
X535Y407D02*
X538Y407D01*
X810Y407D02*
X813Y407D01*
X1086Y407D02*
X1088Y407D01*
X1464Y407D02*
X1467Y407D01*
X1478Y407D02*
X1481Y407D01*
X1493Y407D02*
X1497Y407D01*
X1508Y407D02*
X1511Y407D01*
X1524Y407D02*
X1527Y407D01*
X1538Y407D02*
X1541Y407D01*
X1554Y407D02*
X1557Y407D01*
X1568Y407D02*
X1571Y407D01*
X1576Y407D02*
X1579Y407D01*
X1584Y407D02*
X1587Y407D01*
X1817Y407D02*
X1824Y407D01*
X0Y406D02*
X7Y406D01*
X63Y406D02*
X68Y406D01*
X260Y406D02*
X262Y406D01*
X535Y406D02*
X538Y406D01*
X810Y406D02*
X813Y406D01*
X1086Y406D02*
X1088Y406D01*
X1464Y406D02*
X1467Y406D01*
X1479Y406D02*
X1480Y406D01*
X1492Y406D02*
X1497Y406D01*
X1508Y406D02*
X1511Y406D01*
X1524Y406D02*
X1527Y406D01*
X1538Y406D02*
X1541Y406D01*
X1554Y406D02*
X1557Y406D01*
X1569Y406D02*
X1570Y406D01*
X1576Y406D02*
X1579Y406D01*
X1585Y406D02*
X1586Y406D01*
X1817Y406D02*
X1824Y406D01*
X0Y405D02*
X7Y405D01*
X63Y405D02*
X68Y405D01*
X260Y405D02*
X262Y405D01*
X535Y405D02*
X538Y405D01*
X810Y405D02*
X813Y405D01*
X1086Y405D02*
X1088Y405D01*
X1464Y405D02*
X1467Y405D01*
X1492Y405D02*
X1496Y405D01*
X1508Y405D02*
X1511Y405D01*
X1524Y405D02*
X1527Y405D01*
X1538Y405D02*
X1541Y405D01*
X1554Y405D02*
X1557Y405D01*
X1576Y405D02*
X1579Y405D01*
X1817Y405D02*
X1824Y405D01*
X0Y404D02*
X7Y404D01*
X63Y404D02*
X68Y404D01*
X260Y404D02*
X262Y404D01*
X535Y404D02*
X538Y404D01*
X810Y404D02*
X813Y404D01*
X1086Y404D02*
X1088Y404D01*
X1464Y404D02*
X1467Y404D01*
X1491Y404D02*
X1495Y404D01*
X1508Y404D02*
X1511Y404D01*
X1524Y404D02*
X1527Y404D01*
X1538Y404D02*
X1541Y404D01*
X1554Y404D02*
X1557Y404D01*
X1576Y404D02*
X1579Y404D01*
X1817Y404D02*
X1824Y404D01*
X0Y403D02*
X7Y403D01*
X63Y403D02*
X68Y403D01*
X260Y403D02*
X262Y403D01*
X535Y403D02*
X538Y403D01*
X810Y403D02*
X813Y403D01*
X1086Y403D02*
X1088Y403D01*
X1464Y403D02*
X1467Y403D01*
X1490Y403D02*
X1494Y403D01*
X1508Y403D02*
X1512Y403D01*
X1524Y403D02*
X1527Y403D01*
X1538Y403D02*
X1542Y403D01*
X1554Y403D02*
X1557Y403D01*
X1576Y403D02*
X1579Y403D01*
X1817Y403D02*
X1824Y403D01*
X0Y402D02*
X7Y402D01*
X63Y402D02*
X68Y402D01*
X260Y402D02*
X262Y402D01*
X535Y402D02*
X538Y402D01*
X810Y402D02*
X813Y402D01*
X1086Y402D02*
X1088Y402D01*
X1464Y402D02*
X1467Y402D01*
X1489Y402D02*
X1494Y402D01*
X1508Y402D02*
X1527Y402D01*
X1538Y402D02*
X1557Y402D01*
X1576Y402D02*
X1579Y402D01*
X1817Y402D02*
X1824Y402D01*
X0Y401D02*
X7Y401D01*
X63Y401D02*
X68Y401D01*
X260Y401D02*
X262Y401D01*
X535Y401D02*
X538Y401D01*
X810Y401D02*
X813Y401D01*
X1086Y401D02*
X1088Y401D01*
X1464Y401D02*
X1467Y401D01*
X1488Y401D02*
X1493Y401D01*
X1509Y401D02*
X1527Y401D01*
X1539Y401D02*
X1557Y401D01*
X1576Y401D02*
X1579Y401D01*
X1817Y401D02*
X1824Y401D01*
X0Y400D02*
X7Y400D01*
X63Y400D02*
X68Y400D01*
X261Y400D02*
X262Y400D01*
X535Y400D02*
X538Y400D01*
X607Y400D02*
X637Y400D01*
X811Y400D02*
X813Y400D01*
X1086Y400D02*
X1088Y400D01*
X1464Y400D02*
X1467Y400D01*
X1488Y400D02*
X1492Y400D01*
X1510Y400D02*
X1527Y400D01*
X1540Y400D02*
X1557Y400D01*
X1576Y400D02*
X1579Y400D01*
X1817Y400D02*
X1824Y400D01*
X0Y399D02*
X7Y399D01*
X63Y399D02*
X68Y399D01*
X261Y399D02*
X262Y399D01*
X535Y399D02*
X538Y399D01*
X606Y399D02*
X638Y399D01*
X811Y399D02*
X813Y399D01*
X1086Y399D02*
X1088Y399D01*
X1464Y399D02*
X1467Y399D01*
X1487Y399D02*
X1491Y399D01*
X1512Y399D02*
X1527Y399D01*
X1542Y399D02*
X1557Y399D01*
X1576Y399D02*
X1579Y399D01*
X1817Y399D02*
X1824Y399D01*
X0Y398D02*
X7Y398D01*
X63Y398D02*
X68Y398D01*
X262Y398D02*
X262Y398D01*
X535Y398D02*
X538Y398D01*
X606Y398D02*
X638Y398D01*
X811Y398D02*
X813Y398D01*
X1086Y398D02*
X1088Y398D01*
X1464Y398D02*
X1467Y398D01*
X1486Y398D02*
X1490Y398D01*
X1516Y398D02*
X1520Y398D01*
X1524Y398D02*
X1527Y398D01*
X1546Y398D02*
X1550Y398D01*
X1554Y398D02*
X1557Y398D01*
X1576Y398D02*
X1579Y398D01*
X1817Y398D02*
X1824Y398D01*
X0Y397D02*
X7Y397D01*
X63Y397D02*
X68Y397D01*
X262Y397D02*
X262Y397D01*
X535Y397D02*
X538Y397D01*
X607Y397D02*
X638Y397D01*
X812Y397D02*
X813Y397D01*
X1086Y397D02*
X1088Y397D01*
X1464Y397D02*
X1467Y397D01*
X1485Y397D02*
X1490Y397D01*
X1516Y397D02*
X1519Y397D01*
X1524Y397D02*
X1527Y397D01*
X1546Y397D02*
X1549Y397D01*
X1554Y397D02*
X1557Y397D01*
X1576Y397D02*
X1579Y397D01*
X1817Y397D02*
X1824Y397D01*
X0Y396D02*
X7Y396D01*
X63Y396D02*
X68Y396D01*
X262Y396D02*
X262Y396D01*
X535Y396D02*
X538Y396D01*
X625Y396D02*
X630Y396D01*
X812Y396D02*
X813Y396D01*
X1086Y396D02*
X1088Y396D01*
X1464Y396D02*
X1467Y396D01*
X1485Y396D02*
X1489Y396D01*
X1515Y396D02*
X1519Y396D01*
X1524Y396D02*
X1527Y396D01*
X1545Y396D02*
X1549Y396D01*
X1554Y396D02*
X1557Y396D01*
X1576Y396D02*
X1579Y396D01*
X1817Y396D02*
X1824Y396D01*
X0Y395D02*
X7Y395D01*
X63Y395D02*
X68Y395D01*
X535Y395D02*
X538Y395D01*
X624Y395D02*
X629Y395D01*
X812Y395D02*
X813Y395D01*
X1086Y395D02*
X1088Y395D01*
X1448Y395D02*
X1467Y395D01*
X1484Y395D02*
X1488Y395D01*
X1514Y395D02*
X1518Y395D01*
X1524Y395D02*
X1527Y395D01*
X1544Y395D02*
X1548Y395D01*
X1554Y395D02*
X1557Y395D01*
X1576Y395D02*
X1579Y395D01*
X1817Y395D02*
X1824Y395D01*
X0Y394D02*
X7Y394D01*
X63Y394D02*
X68Y394D01*
X535Y394D02*
X538Y394D01*
X623Y394D02*
X628Y394D01*
X813Y394D02*
X813Y394D01*
X1086Y394D02*
X1088Y394D01*
X1448Y394D02*
X1467Y394D01*
X1483Y394D02*
X1487Y394D01*
X1514Y394D02*
X1518Y394D01*
X1524Y394D02*
X1527Y394D01*
X1544Y394D02*
X1548Y394D01*
X1554Y394D02*
X1557Y394D01*
X1576Y394D02*
X1579Y394D01*
X1817Y394D02*
X1824Y394D01*
X0Y393D02*
X7Y393D01*
X63Y393D02*
X68Y393D01*
X535Y393D02*
X538Y393D01*
X623Y393D02*
X629Y393D01*
X813Y393D02*
X813Y393D01*
X1086Y393D02*
X1088Y393D01*
X1448Y393D02*
X1467Y393D01*
X1482Y393D02*
X1487Y393D01*
X1513Y393D02*
X1517Y393D01*
X1524Y393D02*
X1527Y393D01*
X1543Y393D02*
X1547Y393D01*
X1554Y393D02*
X1557Y393D01*
X1576Y393D02*
X1579Y393D01*
X1817Y393D02*
X1824Y393D01*
X0Y392D02*
X7Y392D01*
X63Y392D02*
X68Y392D01*
X535Y392D02*
X538Y392D01*
X622Y392D02*
X630Y392D01*
X813Y392D02*
X813Y392D01*
X1086Y392D02*
X1088Y392D01*
X1448Y392D02*
X1467Y392D01*
X1481Y392D02*
X1486Y392D01*
X1513Y392D02*
X1517Y392D01*
X1524Y392D02*
X1527Y392D01*
X1543Y392D02*
X1547Y392D01*
X1554Y392D02*
X1557Y392D01*
X1576Y392D02*
X1579Y392D01*
X1817Y392D02*
X1824Y392D01*
X0Y391D02*
X7Y391D01*
X63Y391D02*
X68Y391D01*
X535Y391D02*
X538Y391D01*
X621Y391D02*
X631Y391D01*
X813Y391D02*
X813Y391D01*
X1086Y391D02*
X1088Y391D01*
X1448Y391D02*
X1451Y391D01*
X1464Y391D02*
X1467Y391D01*
X1481Y391D02*
X1485Y391D01*
X1512Y391D02*
X1516Y391D01*
X1524Y391D02*
X1527Y391D01*
X1542Y391D02*
X1546Y391D01*
X1554Y391D02*
X1557Y391D01*
X1576Y391D02*
X1579Y391D01*
X1817Y391D02*
X1824Y391D01*
X0Y390D02*
X7Y390D01*
X64Y390D02*
X68Y390D01*
X535Y390D02*
X538Y390D01*
X620Y390D02*
X625Y390D01*
X627Y390D02*
X632Y390D01*
X813Y390D02*
X813Y390D01*
X1086Y390D02*
X1088Y390D01*
X1448Y390D02*
X1451Y390D01*
X1464Y390D02*
X1467Y390D01*
X1480Y390D02*
X1484Y390D01*
X1511Y390D02*
X1515Y390D01*
X1524Y390D02*
X1527Y390D01*
X1541Y390D02*
X1545Y390D01*
X1554Y390D02*
X1557Y390D01*
X1576Y390D02*
X1579Y390D01*
X1817Y390D02*
X1824Y390D01*
X0Y389D02*
X7Y389D01*
X535Y389D02*
X538Y389D01*
X619Y389D02*
X624Y389D01*
X628Y389D02*
X633Y389D01*
X813Y389D02*
X813Y389D01*
X1086Y389D02*
X1088Y389D01*
X1448Y389D02*
X1451Y389D01*
X1464Y389D02*
X1467Y389D01*
X1479Y389D02*
X1484Y389D01*
X1511Y389D02*
X1515Y389D01*
X1524Y389D02*
X1527Y389D01*
X1541Y389D02*
X1545Y389D01*
X1554Y389D02*
X1557Y389D01*
X1576Y389D02*
X1579Y389D01*
X1817Y389D02*
X1824Y389D01*
X0Y388D02*
X7Y388D01*
X535Y388D02*
X538Y388D01*
X618Y388D02*
X623Y388D01*
X629Y388D02*
X633Y388D01*
X813Y388D02*
X813Y388D01*
X1086Y388D02*
X1088Y388D01*
X1448Y388D02*
X1451Y388D01*
X1464Y388D02*
X1467Y388D01*
X1478Y388D02*
X1483Y388D01*
X1495Y388D02*
X1497Y388D01*
X1510Y388D02*
X1514Y388D01*
X1524Y388D02*
X1527Y388D01*
X1540Y388D02*
X1544Y388D01*
X1554Y388D02*
X1557Y388D01*
X1576Y388D02*
X1579Y388D01*
X1817Y388D02*
X1824Y388D01*
X0Y387D02*
X7Y387D01*
X535Y387D02*
X538Y387D01*
X617Y387D02*
X622Y387D01*
X630Y387D02*
X634Y387D01*
X813Y387D02*
X813Y387D01*
X1086Y387D02*
X1088Y387D01*
X1448Y387D02*
X1451Y387D01*
X1464Y387D02*
X1467Y387D01*
X1478Y387D02*
X1482Y387D01*
X1494Y387D02*
X1497Y387D01*
X1510Y387D02*
X1514Y387D01*
X1524Y387D02*
X1527Y387D01*
X1540Y387D02*
X1544Y387D01*
X1554Y387D02*
X1557Y387D01*
X1576Y387D02*
X1579Y387D01*
X1817Y387D02*
X1824Y387D01*
X0Y386D02*
X7Y386D01*
X535Y386D02*
X538Y386D01*
X617Y386D02*
X621Y386D01*
X631Y386D02*
X635Y386D01*
X813Y386D02*
X813Y386D01*
X1086Y386D02*
X1088Y386D01*
X1448Y386D02*
X1451Y386D01*
X1464Y386D02*
X1467Y386D01*
X1478Y386D02*
X1481Y386D01*
X1494Y386D02*
X1497Y386D01*
X1509Y386D02*
X1513Y386D01*
X1524Y386D02*
X1527Y386D01*
X1539Y386D02*
X1543Y386D01*
X1554Y386D02*
X1557Y386D01*
X1576Y386D02*
X1579Y386D01*
X1817Y386D02*
X1824Y386D01*
X0Y385D02*
X7Y385D01*
X535Y385D02*
X538Y385D01*
X616Y385D02*
X620Y385D01*
X631Y385D02*
X636Y385D01*
X813Y385D02*
X813Y385D01*
X1086Y385D02*
X1088Y385D01*
X1448Y385D02*
X1467Y385D01*
X1478Y385D02*
X1497Y385D01*
X1509Y385D02*
X1512Y385D01*
X1524Y385D02*
X1527Y385D01*
X1539Y385D02*
X1542Y385D01*
X1554Y385D02*
X1557Y385D01*
X1576Y385D02*
X1579Y385D01*
X1817Y385D02*
X1824Y385D01*
X0Y384D02*
X7Y384D01*
X535Y384D02*
X538Y384D01*
X615Y384D02*
X620Y384D01*
X632Y384D02*
X637Y384D01*
X812Y384D02*
X813Y384D01*
X1086Y384D02*
X1088Y384D01*
X1448Y384D02*
X1467Y384D01*
X1478Y384D02*
X1497Y384D01*
X1508Y384D02*
X1512Y384D01*
X1524Y384D02*
X1527Y384D01*
X1538Y384D02*
X1542Y384D01*
X1554Y384D02*
X1557Y384D01*
X1576Y384D02*
X1579Y384D01*
X1817Y384D02*
X1824Y384D01*
X0Y383D02*
X7Y383D01*
X262Y383D02*
X262Y383D01*
X535Y383D02*
X538Y383D01*
X615Y383D02*
X619Y383D01*
X633Y383D02*
X638Y383D01*
X812Y383D02*
X813Y383D01*
X1086Y383D02*
X1088Y383D01*
X1448Y383D02*
X1467Y383D01*
X1479Y383D02*
X1496Y383D01*
X1508Y383D02*
X1511Y383D01*
X1524Y383D02*
X1527Y383D01*
X1538Y383D02*
X1541Y383D01*
X1554Y383D02*
X1557Y383D01*
X1576Y383D02*
X1579Y383D01*
X1817Y383D02*
X1824Y383D01*
X0Y382D02*
X7Y382D01*
X262Y382D02*
X262Y382D01*
X535Y382D02*
X538Y382D01*
X616Y382D02*
X618Y382D01*
X634Y382D02*
X638Y382D01*
X812Y382D02*
X813Y382D01*
X1086Y382D02*
X1088Y382D01*
X1448Y382D02*
X1467Y382D01*
X1479Y382D02*
X1495Y382D01*
X1508Y382D02*
X1511Y382D01*
X1524Y382D02*
X1527Y382D01*
X1538Y382D02*
X1541Y382D01*
X1554Y382D02*
X1557Y382D01*
X1576Y382D02*
X1579Y382D01*
X1817Y382D02*
X1824Y382D01*
X0Y381D02*
X7Y381D01*
X262Y381D02*
X262Y381D01*
X535Y381D02*
X538Y381D01*
X635Y381D02*
X638Y381D01*
X811Y381D02*
X813Y381D01*
X1086Y381D02*
X1088Y381D01*
X1449Y381D02*
X1466Y381D01*
X1482Y381D02*
X1493Y381D01*
X1509Y381D02*
X1509Y381D01*
X1526Y381D02*
X1526Y381D01*
X1539Y381D02*
X1539Y381D01*
X1556Y381D02*
X1556Y381D01*
X1577Y381D02*
X1578Y381D01*
X1817Y381D02*
X1824Y381D01*
X0Y380D02*
X7Y380D01*
X215Y380D02*
X215Y380D01*
X261Y380D02*
X262Y380D01*
X535Y380D02*
X538Y380D01*
X636Y380D02*
X638Y380D01*
X811Y380D02*
X813Y380D01*
X1086Y380D02*
X1088Y380D01*
X1817Y380D02*
X1824Y380D01*
X0Y379D02*
X7Y379D01*
X205Y379D02*
X216Y379D01*
X261Y379D02*
X262Y379D01*
X535Y379D02*
X538Y379D01*
X811Y379D02*
X813Y379D01*
X1086Y379D02*
X1088Y379D01*
X1817Y379D02*
X1824Y379D01*
X0Y378D02*
X7Y378D01*
X205Y378D02*
X216Y378D01*
X260Y378D02*
X262Y378D01*
X535Y378D02*
X538Y378D01*
X766Y378D02*
X766Y378D01*
X810Y378D02*
X813Y378D01*
X1086Y378D02*
X1088Y378D01*
X1817Y378D02*
X1824Y378D01*
X0Y377D02*
X7Y377D01*
X205Y377D02*
X217Y377D01*
X260Y377D02*
X262Y377D01*
X535Y377D02*
X538Y377D01*
X766Y377D02*
X767Y377D01*
X810Y377D02*
X813Y377D01*
X1086Y377D02*
X1088Y377D01*
X1817Y377D02*
X1824Y377D01*
X0Y376D02*
X7Y376D01*
X206Y376D02*
X217Y376D01*
X260Y376D02*
X262Y376D01*
X535Y376D02*
X538Y376D01*
X766Y376D02*
X767Y376D01*
X810Y376D02*
X813Y376D01*
X1086Y376D02*
X1088Y376D01*
X1817Y376D02*
X1824Y376D01*
X0Y375D02*
X7Y375D01*
X215Y375D02*
X218Y375D01*
X260Y375D02*
X262Y375D01*
X535Y375D02*
X538Y375D01*
X766Y375D02*
X768Y375D01*
X810Y375D02*
X813Y375D01*
X1086Y375D02*
X1088Y375D01*
X1817Y375D02*
X1824Y375D01*
X0Y374D02*
X7Y374D01*
X215Y374D02*
X219Y374D01*
X260Y374D02*
X262Y374D01*
X535Y374D02*
X538Y374D01*
X766Y374D02*
X769Y374D01*
X810Y374D02*
X813Y374D01*
X1086Y374D02*
X1088Y374D01*
X1817Y374D02*
X1824Y374D01*
X0Y373D02*
X7Y373D01*
X215Y373D02*
X219Y373D01*
X260Y373D02*
X262Y373D01*
X535Y373D02*
X538Y373D01*
X766Y373D02*
X769Y373D01*
X810Y373D02*
X813Y373D01*
X1086Y373D02*
X1088Y373D01*
X1817Y373D02*
X1824Y373D01*
X0Y372D02*
X7Y372D01*
X215Y372D02*
X219Y372D01*
X260Y372D02*
X262Y372D01*
X535Y372D02*
X538Y372D01*
X766Y372D02*
X769Y372D01*
X810Y372D02*
X813Y372D01*
X1086Y372D02*
X1088Y372D01*
X1817Y372D02*
X1824Y372D01*
X0Y371D02*
X7Y371D01*
X215Y371D02*
X219Y371D01*
X260Y371D02*
X262Y371D01*
X535Y371D02*
X538Y371D01*
X766Y371D02*
X769Y371D01*
X810Y371D02*
X813Y371D01*
X1086Y371D02*
X1088Y371D01*
X1817Y371D02*
X1824Y371D01*
X0Y370D02*
X7Y370D01*
X215Y370D02*
X219Y370D01*
X260Y370D02*
X262Y370D01*
X535Y370D02*
X538Y370D01*
X766Y370D02*
X769Y370D01*
X810Y370D02*
X813Y370D01*
X1086Y370D02*
X1088Y370D01*
X1817Y370D02*
X1824Y370D01*
X0Y369D02*
X7Y369D01*
X215Y369D02*
X219Y369D01*
X260Y369D02*
X262Y369D01*
X535Y369D02*
X538Y369D01*
X621Y369D02*
X625Y369D01*
X766Y369D02*
X769Y369D01*
X810Y369D02*
X813Y369D01*
X1086Y369D02*
X1088Y369D01*
X1817Y369D02*
X1824Y369D01*
X0Y368D02*
X7Y368D01*
X215Y368D02*
X219Y368D01*
X260Y368D02*
X262Y368D01*
X535Y368D02*
X538Y368D01*
X621Y368D02*
X626Y368D01*
X766Y368D02*
X769Y368D01*
X810Y368D02*
X813Y368D01*
X1086Y368D02*
X1088Y368D01*
X1817Y368D02*
X1824Y368D01*
X0Y367D02*
X7Y367D01*
X215Y367D02*
X228Y367D01*
X260Y367D02*
X262Y367D01*
X535Y367D02*
X538Y367D01*
X621Y367D02*
X626Y367D01*
X766Y367D02*
X769Y367D01*
X810Y367D02*
X813Y367D01*
X1086Y367D02*
X1088Y367D01*
X1364Y367D02*
X1403Y367D01*
X1424Y367D02*
X1567Y367D01*
X1609Y367D02*
X1640Y367D01*
X1817Y367D02*
X1824Y367D01*
X0Y366D02*
X7Y366D01*
X215Y366D02*
X231Y366D01*
X260Y366D02*
X262Y366D01*
X535Y366D02*
X538Y366D01*
X621Y366D02*
X626Y366D01*
X766Y366D02*
X770Y366D01*
X810Y366D02*
X813Y366D01*
X1086Y366D02*
X1088Y366D01*
X1364Y366D02*
X1406Y366D01*
X1421Y366D02*
X1566Y366D01*
X1610Y366D02*
X1640Y366D01*
X1817Y366D02*
X1824Y366D01*
X0Y365D02*
X7Y365D01*
X155Y365D02*
X155Y365D01*
X215Y365D02*
X234Y365D01*
X260Y365D02*
X262Y365D01*
X535Y365D02*
X538Y365D01*
X621Y365D02*
X626Y365D01*
X767Y365D02*
X770Y365D01*
X810Y365D02*
X813Y365D01*
X1086Y365D02*
X1088Y365D01*
X1364Y365D02*
X1410Y365D01*
X1417Y365D02*
X1566Y365D01*
X1610Y365D02*
X1640Y365D01*
X1817Y365D02*
X1824Y365D01*
X0Y364D02*
X7Y364D01*
X154Y364D02*
X156Y364D01*
X215Y364D02*
X236Y364D01*
X260Y364D02*
X262Y364D01*
X535Y364D02*
X538Y364D01*
X621Y364D02*
X626Y364D01*
X767Y364D02*
X770Y364D01*
X810Y364D02*
X813Y364D01*
X1086Y364D02*
X1088Y364D01*
X1817Y364D02*
X1824Y364D01*
X0Y363D02*
X7Y363D01*
X153Y363D02*
X157Y363D01*
X184Y363D02*
X193Y363D01*
X260Y363D02*
X262Y363D01*
X535Y363D02*
X538Y363D01*
X621Y363D02*
X626Y363D01*
X768Y363D02*
X770Y363D01*
X810Y363D02*
X813Y363D01*
X1086Y363D02*
X1088Y363D01*
X1817Y363D02*
X1824Y363D01*
X0Y362D02*
X7Y362D01*
X152Y362D02*
X158Y362D01*
X184Y362D02*
X193Y362D01*
X260Y362D02*
X262Y362D01*
X535Y362D02*
X538Y362D01*
X621Y362D02*
X626Y362D01*
X810Y362D02*
X813Y362D01*
X1086Y362D02*
X1088Y362D01*
X1817Y362D02*
X1824Y362D01*
X0Y361D02*
X7Y361D01*
X153Y361D02*
X159Y361D01*
X184Y361D02*
X193Y361D01*
X260Y361D02*
X262Y361D01*
X535Y361D02*
X538Y361D01*
X621Y361D02*
X626Y361D01*
X810Y361D02*
X813Y361D01*
X1086Y361D02*
X1088Y361D01*
X1817Y361D02*
X1824Y361D01*
X0Y360D02*
X7Y360D01*
X154Y360D02*
X160Y360D01*
X184Y360D02*
X193Y360D01*
X260Y360D02*
X262Y360D01*
X535Y360D02*
X538Y360D01*
X621Y360D02*
X626Y360D01*
X810Y360D02*
X813Y360D01*
X1086Y360D02*
X1088Y360D01*
X1817Y360D02*
X1824Y360D01*
X0Y359D02*
X7Y359D01*
X155Y359D02*
X161Y359D01*
X184Y359D02*
X193Y359D01*
X260Y359D02*
X262Y359D01*
X535Y359D02*
X538Y359D01*
X621Y359D02*
X626Y359D01*
X810Y359D02*
X813Y359D01*
X1086Y359D02*
X1088Y359D01*
X1817Y359D02*
X1824Y359D01*
X0Y358D02*
X7Y358D01*
X156Y358D02*
X162Y358D01*
X184Y358D02*
X193Y358D01*
X260Y358D02*
X262Y358D01*
X535Y358D02*
X538Y358D01*
X621Y358D02*
X626Y358D01*
X810Y358D02*
X813Y358D01*
X1086Y358D02*
X1088Y358D01*
X1817Y358D02*
X1824Y358D01*
X0Y357D02*
X7Y357D01*
X157Y357D02*
X163Y357D01*
X184Y357D02*
X193Y357D01*
X260Y357D02*
X262Y357D01*
X535Y357D02*
X538Y357D01*
X621Y357D02*
X626Y357D01*
X810Y357D02*
X813Y357D01*
X1086Y357D02*
X1088Y357D01*
X1817Y357D02*
X1824Y357D01*
X0Y356D02*
X7Y356D01*
X158Y356D02*
X164Y356D01*
X184Y356D02*
X193Y356D01*
X260Y356D02*
X262Y356D01*
X535Y356D02*
X538Y356D01*
X621Y356D02*
X626Y356D01*
X810Y356D02*
X813Y356D01*
X1086Y356D02*
X1088Y356D01*
X1817Y356D02*
X1824Y356D01*
X0Y355D02*
X7Y355D01*
X159Y355D02*
X165Y355D01*
X184Y355D02*
X193Y355D01*
X260Y355D02*
X262Y355D01*
X535Y355D02*
X538Y355D01*
X621Y355D02*
X626Y355D01*
X810Y355D02*
X813Y355D01*
X1086Y355D02*
X1088Y355D01*
X1817Y355D02*
X1824Y355D01*
X0Y354D02*
X7Y354D01*
X160Y354D02*
X166Y354D01*
X184Y354D02*
X193Y354D01*
X260Y354D02*
X262Y354D01*
X535Y354D02*
X538Y354D01*
X621Y354D02*
X626Y354D01*
X810Y354D02*
X813Y354D01*
X1086Y354D02*
X1088Y354D01*
X1817Y354D02*
X1824Y354D01*
X0Y353D02*
X7Y353D01*
X161Y353D02*
X167Y353D01*
X184Y353D02*
X193Y353D01*
X260Y353D02*
X262Y353D01*
X535Y353D02*
X538Y353D01*
X621Y353D02*
X626Y353D01*
X810Y353D02*
X813Y353D01*
X1086Y353D02*
X1088Y353D01*
X1817Y353D02*
X1824Y353D01*
X0Y352D02*
X7Y352D01*
X162Y352D02*
X168Y352D01*
X184Y352D02*
X193Y352D01*
X207Y352D02*
X211Y352D01*
X230Y352D02*
X233Y352D01*
X260Y352D02*
X262Y352D01*
X535Y352D02*
X538Y352D01*
X621Y352D02*
X626Y352D01*
X768Y352D02*
X772Y352D01*
X791Y352D02*
X794Y352D01*
X810Y352D02*
X813Y352D01*
X1086Y352D02*
X1088Y352D01*
X1817Y352D02*
X1824Y352D01*
X0Y351D02*
X7Y351D01*
X163Y351D02*
X169Y351D01*
X184Y351D02*
X193Y351D01*
X206Y351D02*
X213Y351D01*
X230Y351D02*
X235Y351D01*
X260Y351D02*
X262Y351D01*
X535Y351D02*
X538Y351D01*
X621Y351D02*
X626Y351D01*
X767Y351D02*
X773Y351D01*
X790Y351D02*
X795Y351D01*
X810Y351D02*
X813Y351D01*
X1086Y351D02*
X1088Y351D01*
X1817Y351D02*
X1824Y351D01*
X0Y350D02*
X7Y350D01*
X164Y350D02*
X170Y350D01*
X184Y350D02*
X193Y350D01*
X205Y350D02*
X214Y350D01*
X230Y350D02*
X235Y350D01*
X260Y350D02*
X262Y350D01*
X535Y350D02*
X538Y350D01*
X621Y350D02*
X625Y350D01*
X766Y350D02*
X774Y350D01*
X790Y350D02*
X796Y350D01*
X810Y350D02*
X813Y350D01*
X1086Y350D02*
X1088Y350D01*
X1817Y350D02*
X1824Y350D01*
X0Y349D02*
X7Y349D01*
X165Y349D02*
X171Y349D01*
X184Y349D02*
X193Y349D01*
X205Y349D02*
X215Y349D01*
X231Y349D02*
X236Y349D01*
X260Y349D02*
X262Y349D01*
X535Y349D02*
X538Y349D01*
X622Y349D02*
X624Y349D01*
X766Y349D02*
X776Y349D01*
X791Y349D02*
X797Y349D01*
X810Y349D02*
X813Y349D01*
X1086Y349D02*
X1088Y349D01*
X1817Y349D02*
X1824Y349D01*
X0Y348D02*
X7Y348D01*
X167Y348D02*
X172Y348D01*
X184Y348D02*
X193Y348D01*
X205Y348D02*
X208Y348D01*
X210Y348D02*
X216Y348D01*
X233Y348D02*
X236Y348D01*
X260Y348D02*
X262Y348D01*
X535Y348D02*
X538Y348D01*
X766Y348D02*
X769Y348D01*
X771Y348D02*
X777Y348D01*
X793Y348D02*
X797Y348D01*
X810Y348D02*
X813Y348D01*
X1086Y348D02*
X1088Y348D01*
X1817Y348D02*
X1824Y348D01*
X0Y347D02*
X7Y347D01*
X168Y347D02*
X173Y347D01*
X184Y347D02*
X193Y347D01*
X205Y347D02*
X208Y347D01*
X212Y347D02*
X218Y347D01*
X233Y347D02*
X236Y347D01*
X260Y347D02*
X262Y347D01*
X535Y347D02*
X538Y347D01*
X658Y347D02*
X668Y347D01*
X713Y347D02*
X726Y347D01*
X766Y347D02*
X769Y347D01*
X772Y347D02*
X778Y347D01*
X794Y347D02*
X797Y347D01*
X810Y347D02*
X813Y347D01*
X1086Y347D02*
X1088Y347D01*
X0Y346D02*
X7Y346D01*
X169Y346D02*
X174Y346D01*
X184Y346D02*
X193Y346D01*
X205Y346D02*
X208Y346D01*
X213Y346D02*
X219Y346D01*
X233Y346D02*
X236Y346D01*
X260Y346D02*
X262Y346D01*
X535Y346D02*
X538Y346D01*
X658Y346D02*
X669Y346D01*
X712Y346D02*
X728Y346D01*
X766Y346D02*
X769Y346D01*
X774Y346D02*
X780Y346D01*
X794Y346D02*
X797Y346D01*
X810Y346D02*
X813Y346D01*
X1086Y346D02*
X1088Y346D01*
X0Y345D02*
X7Y345D01*
X170Y345D02*
X175Y345D01*
X184Y345D02*
X193Y345D01*
X205Y345D02*
X208Y345D01*
X214Y345D02*
X220Y345D01*
X233Y345D02*
X236Y345D01*
X260Y345D02*
X262Y345D01*
X535Y345D02*
X538Y345D01*
X658Y345D02*
X669Y345D01*
X682Y345D02*
X685Y345D01*
X711Y345D02*
X729Y345D01*
X766Y345D02*
X769Y345D01*
X775Y345D02*
X781Y345D01*
X794Y345D02*
X797Y345D01*
X810Y345D02*
X813Y345D01*
X1086Y345D02*
X1088Y345D01*
X0Y344D02*
X7Y344D01*
X171Y344D02*
X176Y344D01*
X184Y344D02*
X193Y344D01*
X205Y344D02*
X208Y344D01*
X216Y344D02*
X222Y344D01*
X233Y344D02*
X236Y344D01*
X260Y344D02*
X262Y344D01*
X535Y344D02*
X538Y344D01*
X658Y344D02*
X669Y344D01*
X682Y344D02*
X685Y344D01*
X710Y344D02*
X729Y344D01*
X766Y344D02*
X769Y344D01*
X776Y344D02*
X782Y344D01*
X794Y344D02*
X797Y344D01*
X810Y344D02*
X813Y344D01*
X1086Y344D02*
X1088Y344D01*
X1817Y344D02*
X1824Y344D01*
X0Y343D02*
X7Y343D01*
X172Y343D02*
X177Y343D01*
X184Y343D02*
X193Y343D01*
X205Y343D02*
X208Y343D01*
X217Y343D02*
X223Y343D01*
X233Y343D02*
X236Y343D01*
X260Y343D02*
X262Y343D01*
X535Y343D02*
X538Y343D01*
X658Y343D02*
X661Y343D01*
X682Y343D02*
X685Y343D01*
X710Y343D02*
X714Y343D01*
X726Y343D02*
X729Y343D01*
X766Y343D02*
X769Y343D01*
X777Y343D02*
X783Y343D01*
X794Y343D02*
X797Y343D01*
X810Y343D02*
X813Y343D01*
X1086Y343D02*
X1088Y343D01*
X1817Y343D02*
X1824Y343D01*
X0Y342D02*
X7Y342D01*
X173Y342D02*
X178Y342D01*
X184Y342D02*
X193Y342D01*
X205Y342D02*
X208Y342D01*
X218Y342D02*
X224Y342D01*
X233Y342D02*
X236Y342D01*
X260Y342D02*
X262Y342D01*
X535Y342D02*
X538Y342D01*
X658Y342D02*
X661Y342D01*
X682Y342D02*
X685Y342D01*
X710Y342D02*
X713Y342D01*
X726Y342D02*
X729Y342D01*
X766Y342D02*
X769Y342D01*
X779Y342D02*
X785Y342D01*
X794Y342D02*
X797Y342D01*
X810Y342D02*
X813Y342D01*
X1086Y342D02*
X1088Y342D01*
X1817Y342D02*
X1824Y342D01*
X0Y341D02*
X7Y341D01*
X173Y341D02*
X179Y341D01*
X184Y341D02*
X193Y341D01*
X205Y341D02*
X208Y341D01*
X219Y341D02*
X225Y341D01*
X233Y341D02*
X236Y341D01*
X260Y341D02*
X262Y341D01*
X535Y341D02*
X538Y341D01*
X658Y341D02*
X661Y341D01*
X682Y341D02*
X685Y341D01*
X710Y341D02*
X713Y341D01*
X725Y341D02*
X729Y341D01*
X766Y341D02*
X769Y341D01*
X780Y341D02*
X786Y341D01*
X794Y341D02*
X797Y341D01*
X810Y341D02*
X813Y341D01*
X1086Y341D02*
X1088Y341D01*
X1817Y341D02*
X1824Y341D01*
X0Y340D02*
X7Y340D01*
X174Y340D02*
X180Y340D01*
X184Y340D02*
X193Y340D01*
X205Y340D02*
X208Y340D01*
X221Y340D02*
X227Y340D01*
X233Y340D02*
X236Y340D01*
X260Y340D02*
X262Y340D01*
X535Y340D02*
X538Y340D01*
X658Y340D02*
X661Y340D01*
X682Y340D02*
X685Y340D01*
X711Y340D02*
X712Y340D01*
X724Y340D02*
X728Y340D01*
X766Y340D02*
X769Y340D01*
X781Y340D02*
X787Y340D01*
X794Y340D02*
X797Y340D01*
X810Y340D02*
X813Y340D01*
X1086Y340D02*
X1088Y340D01*
X1817Y340D02*
X1824Y340D01*
X0Y339D02*
X7Y339D01*
X175Y339D02*
X181Y339D01*
X184Y339D02*
X193Y339D01*
X205Y339D02*
X208Y339D01*
X222Y339D02*
X228Y339D01*
X233Y339D02*
X236Y339D01*
X260Y339D02*
X262Y339D01*
X535Y339D02*
X538Y339D01*
X658Y339D02*
X661Y339D01*
X682Y339D02*
X685Y339D01*
X723Y339D02*
X728Y339D01*
X766Y339D02*
X769Y339D01*
X783Y339D02*
X789Y339D01*
X794Y339D02*
X797Y339D01*
X810Y339D02*
X813Y339D01*
X1086Y339D02*
X1088Y339D01*
X1817Y339D02*
X1824Y339D01*
X0Y338D02*
X7Y338D01*
X176Y338D02*
X182Y338D01*
X184Y338D02*
X193Y338D01*
X205Y338D02*
X208Y338D01*
X223Y338D02*
X229Y338D01*
X233Y338D02*
X236Y338D01*
X260Y338D02*
X262Y338D01*
X535Y338D02*
X538Y338D01*
X658Y338D02*
X661Y338D01*
X682Y338D02*
X685Y338D01*
X723Y338D02*
X727Y338D01*
X766Y338D02*
X769Y338D01*
X784Y338D02*
X790Y338D01*
X794Y338D02*
X797Y338D01*
X810Y338D02*
X813Y338D01*
X1086Y338D02*
X1088Y338D01*
X1817Y338D02*
X1824Y338D01*
X0Y337D02*
X7Y337D01*
X177Y337D02*
X193Y337D01*
X205Y337D02*
X208Y337D01*
X225Y337D02*
X231Y337D01*
X233Y337D02*
X236Y337D01*
X260Y337D02*
X262Y337D01*
X535Y337D02*
X538Y337D01*
X658Y337D02*
X661Y337D01*
X682Y337D02*
X685Y337D01*
X722Y337D02*
X726Y337D01*
X766Y337D02*
X769Y337D01*
X785Y337D02*
X791Y337D01*
X794Y337D02*
X797Y337D01*
X810Y337D02*
X813Y337D01*
X1086Y337D02*
X1088Y337D01*
X1817Y337D02*
X1824Y337D01*
X0Y336D02*
X7Y336D01*
X59Y336D02*
X61Y336D01*
X178Y336D02*
X193Y336D01*
X205Y336D02*
X210Y336D01*
X226Y336D02*
X236Y336D01*
X260Y336D02*
X262Y336D01*
X535Y336D02*
X538Y336D01*
X658Y336D02*
X661Y336D01*
X682Y336D02*
X685Y336D01*
X721Y336D02*
X725Y336D01*
X766Y336D02*
X771Y336D01*
X786Y336D02*
X797Y336D01*
X810Y336D02*
X813Y336D01*
X1086Y336D02*
X1088Y336D01*
X1817Y336D02*
X1824Y336D01*
X0Y335D02*
X7Y335D01*
X58Y335D02*
X61Y335D01*
X179Y335D02*
X193Y335D01*
X206Y335D02*
X211Y335D01*
X227Y335D02*
X236Y335D01*
X260Y335D02*
X262Y335D01*
X535Y335D02*
X538Y335D01*
X658Y335D02*
X661Y335D01*
X682Y335D02*
X685Y335D01*
X720Y335D02*
X725Y335D01*
X766Y335D02*
X772Y335D01*
X788Y335D02*
X797Y335D01*
X810Y335D02*
X813Y335D01*
X1086Y335D02*
X1088Y335D01*
X1817Y335D02*
X1824Y335D01*
X0Y334D02*
X7Y334D01*
X58Y334D02*
X61Y334D01*
X180Y334D02*
X193Y334D01*
X206Y334D02*
X211Y334D01*
X228Y334D02*
X235Y334D01*
X260Y334D02*
X262Y334D01*
X535Y334D02*
X538Y334D01*
X658Y334D02*
X661Y334D01*
X682Y334D02*
X685Y334D01*
X719Y334D02*
X724Y334D01*
X767Y334D02*
X772Y334D01*
X789Y334D02*
X796Y334D01*
X810Y334D02*
X813Y334D01*
X1086Y334D02*
X1088Y334D01*
X1817Y334D02*
X1824Y334D01*
X0Y333D02*
X7Y333D01*
X58Y333D02*
X61Y333D01*
X181Y333D02*
X193Y333D01*
X208Y333D02*
X211Y333D01*
X230Y333D02*
X234Y333D01*
X260Y333D02*
X262Y333D01*
X535Y333D02*
X538Y333D01*
X658Y333D02*
X661Y333D01*
X682Y333D02*
X685Y333D01*
X719Y333D02*
X723Y333D01*
X768Y333D02*
X772Y333D01*
X790Y333D02*
X795Y333D01*
X810Y333D02*
X813Y333D01*
X1086Y333D02*
X1088Y333D01*
X1817Y333D02*
X1824Y333D01*
X0Y332D02*
X7Y332D01*
X58Y332D02*
X61Y332D01*
X182Y332D02*
X193Y332D01*
X260Y332D02*
X262Y332D01*
X535Y332D02*
X538Y332D01*
X658Y332D02*
X661Y332D01*
X682Y332D02*
X685Y332D01*
X718Y332D02*
X722Y332D01*
X810Y332D02*
X813Y332D01*
X1086Y332D02*
X1088Y332D01*
X1817Y332D02*
X1824Y332D01*
X0Y331D02*
X7Y331D01*
X58Y331D02*
X61Y331D01*
X183Y331D02*
X193Y331D01*
X260Y331D02*
X262Y331D01*
X535Y331D02*
X538Y331D01*
X658Y331D02*
X661Y331D01*
X682Y331D02*
X685Y331D01*
X717Y331D02*
X722Y331D01*
X810Y331D02*
X813Y331D01*
X1086Y331D02*
X1088Y331D01*
X1817Y331D02*
X1824Y331D01*
X0Y330D02*
X7Y330D01*
X58Y330D02*
X61Y330D01*
X184Y330D02*
X193Y330D01*
X260Y330D02*
X262Y330D01*
X535Y330D02*
X538Y330D01*
X658Y330D02*
X661Y330D01*
X682Y330D02*
X685Y330D01*
X716Y330D02*
X721Y330D01*
X810Y330D02*
X813Y330D01*
X1086Y330D02*
X1088Y330D01*
X1817Y330D02*
X1824Y330D01*
X0Y329D02*
X7Y329D01*
X58Y329D02*
X61Y329D01*
X184Y329D02*
X193Y329D01*
X260Y329D02*
X262Y329D01*
X535Y329D02*
X538Y329D01*
X650Y329D02*
X652Y329D01*
X658Y329D02*
X661Y329D01*
X682Y329D02*
X685Y329D01*
X695Y329D02*
X697Y329D01*
X716Y329D02*
X720Y329D01*
X810Y329D02*
X813Y329D01*
X1086Y329D02*
X1088Y329D01*
X1817Y329D02*
X1824Y329D01*
X0Y328D02*
X7Y328D01*
X51Y328D02*
X68Y328D01*
X184Y328D02*
X193Y328D01*
X260Y328D02*
X262Y328D01*
X535Y328D02*
X538Y328D01*
X650Y328D02*
X653Y328D01*
X658Y328D02*
X661Y328D01*
X682Y328D02*
X685Y328D01*
X694Y328D02*
X697Y328D01*
X715Y328D02*
X719Y328D01*
X810Y328D02*
X813Y328D01*
X1086Y328D02*
X1088Y328D01*
X1817Y328D02*
X1824Y328D01*
X0Y327D02*
X7Y327D01*
X50Y327D02*
X70Y327D01*
X184Y327D02*
X193Y327D01*
X260Y327D02*
X262Y327D01*
X535Y327D02*
X538Y327D01*
X650Y327D02*
X653Y327D01*
X658Y327D02*
X661Y327D01*
X682Y327D02*
X685Y327D01*
X694Y327D02*
X697Y327D01*
X714Y327D02*
X718Y327D01*
X810Y327D02*
X813Y327D01*
X1086Y327D02*
X1088Y327D01*
X1817Y327D02*
X1824Y327D01*
X0Y326D02*
X7Y326D01*
X50Y326D02*
X70Y326D01*
X184Y326D02*
X193Y326D01*
X260Y326D02*
X262Y326D01*
X535Y326D02*
X538Y326D01*
X650Y326D02*
X653Y326D01*
X658Y326D02*
X661Y326D01*
X682Y326D02*
X685Y326D01*
X694Y326D02*
X697Y326D01*
X713Y326D02*
X718Y326D01*
X810Y326D02*
X813Y326D01*
X1086Y326D02*
X1088Y326D01*
X1817Y326D02*
X1824Y326D01*
X0Y325D02*
X7Y325D01*
X50Y325D02*
X69Y325D01*
X184Y325D02*
X193Y325D01*
X260Y325D02*
X262Y325D01*
X535Y325D02*
X538Y325D01*
X650Y325D02*
X653Y325D01*
X658Y325D02*
X661Y325D01*
X682Y325D02*
X685Y325D01*
X694Y325D02*
X697Y325D01*
X712Y325D02*
X717Y325D01*
X810Y325D02*
X813Y325D01*
X1086Y325D02*
X1088Y325D01*
X1817Y325D02*
X1824Y325D01*
X0Y324D02*
X7Y324D01*
X51Y324D02*
X68Y324D01*
X184Y324D02*
X193Y324D01*
X260Y324D02*
X262Y324D01*
X535Y324D02*
X538Y324D01*
X650Y324D02*
X653Y324D01*
X658Y324D02*
X661Y324D01*
X682Y324D02*
X685Y324D01*
X694Y324D02*
X697Y324D01*
X712Y324D02*
X716Y324D01*
X810Y324D02*
X813Y324D01*
X1086Y324D02*
X1088Y324D01*
X1817Y324D02*
X1824Y324D01*
X0Y323D02*
X7Y323D01*
X58Y323D02*
X61Y323D01*
X184Y323D02*
X193Y323D01*
X260Y323D02*
X262Y323D01*
X535Y323D02*
X538Y323D01*
X650Y323D02*
X653Y323D01*
X658Y323D02*
X661Y323D01*
X682Y323D02*
X685Y323D01*
X694Y323D02*
X697Y323D01*
X711Y323D02*
X715Y323D01*
X810Y323D02*
X813Y323D01*
X1086Y323D02*
X1088Y323D01*
X1817Y323D02*
X1824Y323D01*
X0Y322D02*
X7Y322D01*
X58Y322D02*
X61Y322D01*
X184Y322D02*
X193Y322D01*
X205Y322D02*
X208Y322D01*
X226Y322D02*
X233Y322D01*
X260Y322D02*
X262Y322D01*
X535Y322D02*
X538Y322D01*
X650Y322D02*
X653Y322D01*
X658Y322D02*
X661Y322D01*
X682Y322D02*
X685Y322D01*
X694Y322D02*
X697Y322D01*
X710Y322D02*
X715Y322D01*
X727Y322D02*
X729Y322D01*
X766Y322D02*
X769Y322D01*
X787Y322D02*
X794Y322D01*
X810Y322D02*
X813Y322D01*
X1086Y322D02*
X1088Y322D01*
X1817Y322D02*
X1824Y322D01*
X0Y321D02*
X7Y321D01*
X58Y321D02*
X61Y321D01*
X184Y321D02*
X193Y321D01*
X205Y321D02*
X210Y321D01*
X224Y321D02*
X234Y321D01*
X260Y321D02*
X262Y321D01*
X535Y321D02*
X538Y321D01*
X650Y321D02*
X653Y321D01*
X658Y321D02*
X661Y321D01*
X682Y321D02*
X685Y321D01*
X694Y321D02*
X697Y321D01*
X710Y321D02*
X714Y321D01*
X726Y321D02*
X729Y321D01*
X766Y321D02*
X770Y321D01*
X785Y321D02*
X795Y321D01*
X810Y321D02*
X813Y321D01*
X1086Y321D02*
X1088Y321D01*
X1817Y321D02*
X1824Y321D01*
X0Y320D02*
X7Y320D01*
X58Y320D02*
X61Y320D01*
X184Y320D02*
X193Y320D01*
X205Y320D02*
X211Y320D01*
X224Y320D02*
X235Y320D01*
X260Y320D02*
X262Y320D01*
X535Y320D02*
X538Y320D01*
X650Y320D02*
X653Y320D01*
X658Y320D02*
X661Y320D01*
X682Y320D02*
X685Y320D01*
X694Y320D02*
X697Y320D01*
X710Y320D02*
X713Y320D01*
X726Y320D02*
X729Y320D01*
X766Y320D02*
X772Y320D01*
X785Y320D02*
X796Y320D01*
X810Y320D02*
X813Y320D01*
X1086Y320D02*
X1088Y320D01*
X1817Y320D02*
X1824Y320D01*
X0Y319D02*
X7Y319D01*
X58Y319D02*
X61Y319D01*
X184Y319D02*
X193Y319D01*
X206Y319D02*
X213Y319D01*
X223Y319D02*
X236Y319D01*
X260Y319D02*
X262Y319D01*
X535Y319D02*
X538Y319D01*
X650Y319D02*
X668Y319D01*
X682Y319D02*
X697Y319D01*
X710Y319D02*
X729Y319D01*
X766Y319D02*
X774Y319D01*
X784Y319D02*
X796Y319D01*
X810Y319D02*
X813Y319D01*
X1086Y319D02*
X1088Y319D01*
X1817Y319D02*
X1824Y319D01*
X0Y318D02*
X7Y318D01*
X58Y318D02*
X61Y318D01*
X184Y318D02*
X193Y318D01*
X207Y318D02*
X215Y318D01*
X223Y318D02*
X226Y318D01*
X232Y318D02*
X236Y318D01*
X260Y318D02*
X262Y318D01*
X535Y318D02*
X538Y318D01*
X650Y318D02*
X669Y318D01*
X683Y318D02*
X696Y318D01*
X710Y318D02*
X729Y318D01*
X768Y318D02*
X775Y318D01*
X783Y318D02*
X787Y318D01*
X793Y318D02*
X797Y318D01*
X810Y318D02*
X813Y318D01*
X1086Y318D02*
X1088Y318D01*
X1817Y318D02*
X1824Y318D01*
X0Y317D02*
X7Y317D01*
X58Y317D02*
X61Y317D01*
X184Y317D02*
X193Y317D01*
X209Y317D02*
X217Y317D01*
X222Y317D02*
X226Y317D01*
X233Y317D02*
X236Y317D01*
X260Y317D02*
X262Y317D01*
X535Y317D02*
X538Y317D01*
X650Y317D02*
X669Y317D01*
X683Y317D02*
X696Y317D01*
X710Y317D02*
X728Y317D01*
X770Y317D02*
X777Y317D01*
X783Y317D02*
X787Y317D01*
X794Y317D02*
X797Y317D01*
X810Y317D02*
X813Y317D01*
X1086Y317D02*
X1088Y317D01*
X1817Y317D02*
X1824Y317D01*
X0Y316D02*
X7Y316D01*
X59Y316D02*
X61Y316D01*
X184Y316D02*
X193Y316D01*
X211Y316D02*
X218Y316D01*
X222Y316D02*
X226Y316D01*
X233Y316D02*
X236Y316D01*
X260Y316D02*
X262Y316D01*
X535Y316D02*
X538Y316D01*
X650Y316D02*
X669Y316D01*
X685Y316D02*
X694Y316D01*
X711Y316D02*
X727Y316D01*
X771Y316D02*
X779Y316D01*
X783Y316D02*
X786Y316D01*
X794Y316D02*
X797Y316D01*
X810Y316D02*
X813Y316D01*
X1086Y316D02*
X1088Y316D01*
X1817Y316D02*
X1824Y316D01*
X0Y315D02*
X7Y315D01*
X184Y315D02*
X193Y315D01*
X213Y315D02*
X220Y315D01*
X222Y315D02*
X226Y315D01*
X233Y315D02*
X236Y315D01*
X260Y315D02*
X262Y315D01*
X535Y315D02*
X538Y315D01*
X651Y315D02*
X668Y315D01*
X687Y315D02*
X692Y315D01*
X714Y315D02*
X724Y315D01*
X773Y315D02*
X781Y315D01*
X783Y315D02*
X786Y315D01*
X794Y315D02*
X797Y315D01*
X810Y315D02*
X813Y315D01*
X1086Y315D02*
X1088Y315D01*
X1817Y315D02*
X1824Y315D01*
X0Y314D02*
X7Y314D01*
X184Y314D02*
X193Y314D01*
X214Y314D02*
X226Y314D01*
X233Y314D02*
X236Y314D01*
X260Y314D02*
X262Y314D01*
X535Y314D02*
X538Y314D01*
X775Y314D02*
X786Y314D01*
X794Y314D02*
X797Y314D01*
X810Y314D02*
X813Y314D01*
X1086Y314D02*
X1088Y314D01*
X1817Y314D02*
X1824Y314D01*
X0Y313D02*
X7Y313D01*
X184Y313D02*
X193Y313D01*
X216Y313D02*
X226Y313D01*
X233Y313D02*
X236Y313D01*
X260Y313D02*
X262Y313D01*
X535Y313D02*
X538Y313D01*
X777Y313D02*
X786Y313D01*
X794Y313D02*
X797Y313D01*
X810Y313D02*
X813Y313D01*
X1086Y313D02*
X1088Y313D01*
X1817Y313D02*
X1824Y313D01*
X0Y312D02*
X7Y312D01*
X184Y312D02*
X193Y312D01*
X218Y312D02*
X226Y312D01*
X233Y312D02*
X236Y312D01*
X260Y312D02*
X262Y312D01*
X535Y312D02*
X538Y312D01*
X778Y312D02*
X786Y312D01*
X794Y312D02*
X797Y312D01*
X810Y312D02*
X813Y312D01*
X1086Y312D02*
X1088Y312D01*
X1817Y312D02*
X1824Y312D01*
X0Y311D02*
X7Y311D01*
X184Y311D02*
X193Y311D01*
X219Y311D02*
X226Y311D01*
X233Y311D02*
X236Y311D01*
X260Y311D02*
X262Y311D01*
X535Y311D02*
X538Y311D01*
X780Y311D02*
X786Y311D01*
X794Y311D02*
X797Y311D01*
X810Y311D02*
X813Y311D01*
X1086Y311D02*
X1088Y311D01*
X1817Y311D02*
X1824Y311D01*
X0Y310D02*
X7Y310D01*
X184Y310D02*
X193Y310D01*
X221Y310D02*
X226Y310D01*
X233Y310D02*
X236Y310D01*
X260Y310D02*
X262Y310D01*
X535Y310D02*
X538Y310D01*
X782Y310D02*
X786Y310D01*
X794Y310D02*
X797Y310D01*
X810Y310D02*
X813Y310D01*
X1086Y310D02*
X1088Y310D01*
X1817Y310D02*
X1824Y310D01*
X0Y309D02*
X7Y309D01*
X184Y309D02*
X193Y309D01*
X222Y309D02*
X226Y309D01*
X233Y309D02*
X236Y309D01*
X260Y309D02*
X262Y309D01*
X535Y309D02*
X538Y309D01*
X783Y309D02*
X786Y309D01*
X794Y309D02*
X797Y309D01*
X810Y309D02*
X813Y309D01*
X1086Y309D02*
X1088Y309D01*
X1817Y309D02*
X1824Y309D01*
X0Y308D02*
X7Y308D01*
X184Y308D02*
X193Y308D01*
X222Y308D02*
X226Y308D01*
X233Y308D02*
X236Y308D01*
X260Y308D02*
X262Y308D01*
X535Y308D02*
X538Y308D01*
X634Y308D02*
X635Y308D01*
X701Y308D02*
X703Y308D01*
X783Y308D02*
X786Y308D01*
X794Y308D02*
X797Y308D01*
X810Y308D02*
X813Y308D01*
X1086Y308D02*
X1088Y308D01*
X1817Y308D02*
X1824Y308D01*
X0Y307D02*
X7Y307D01*
X184Y307D02*
X193Y307D01*
X222Y307D02*
X226Y307D01*
X233Y307D02*
X236Y307D01*
X260Y307D02*
X262Y307D01*
X535Y307D02*
X538Y307D01*
X631Y307D02*
X635Y307D01*
X701Y307D02*
X706Y307D01*
X783Y307D02*
X786Y307D01*
X794Y307D02*
X797Y307D01*
X810Y307D02*
X813Y307D01*
X1086Y307D02*
X1088Y307D01*
X1817Y307D02*
X1824Y307D01*
X0Y306D02*
X7Y306D01*
X44Y306D02*
X74Y306D01*
X184Y306D02*
X193Y306D01*
X206Y306D02*
X236Y306D01*
X260Y306D02*
X262Y306D01*
X535Y306D02*
X538Y306D01*
X629Y306D02*
X635Y306D01*
X701Y306D02*
X708Y306D01*
X767Y306D02*
X797Y306D01*
X810Y306D02*
X813Y306D01*
X1086Y306D02*
X1088Y306D01*
X1817Y306D02*
X1824Y306D01*
X0Y305D02*
X7Y305D01*
X44Y305D02*
X75Y305D01*
X184Y305D02*
X193Y305D01*
X205Y305D02*
X236Y305D01*
X260Y305D02*
X262Y305D01*
X535Y305D02*
X538Y305D01*
X627Y305D02*
X635Y305D01*
X701Y305D02*
X709Y305D01*
X766Y305D02*
X797Y305D01*
X810Y305D02*
X813Y305D01*
X1086Y305D02*
X1088Y305D01*
X1817Y305D02*
X1824Y305D01*
X0Y304D02*
X7Y304D01*
X44Y304D02*
X76Y304D01*
X184Y304D02*
X193Y304D01*
X205Y304D02*
X236Y304D01*
X260Y304D02*
X262Y304D01*
X535Y304D02*
X538Y304D01*
X626Y304D02*
X635Y304D01*
X701Y304D02*
X710Y304D01*
X766Y304D02*
X797Y304D01*
X810Y304D02*
X813Y304D01*
X1086Y304D02*
X1088Y304D01*
X1817Y304D02*
X1824Y304D01*
X0Y303D02*
X7Y303D01*
X44Y303D02*
X76Y303D01*
X184Y303D02*
X193Y303D01*
X205Y303D02*
X236Y303D01*
X260Y303D02*
X262Y303D01*
X535Y303D02*
X538Y303D01*
X625Y303D02*
X635Y303D01*
X701Y303D02*
X711Y303D01*
X766Y303D02*
X797Y303D01*
X810Y303D02*
X813Y303D01*
X1086Y303D02*
X1088Y303D01*
X1817Y303D02*
X1824Y303D01*
X0Y302D02*
X7Y302D01*
X44Y302D02*
X75Y302D01*
X184Y302D02*
X193Y302D01*
X260Y302D02*
X262Y302D01*
X535Y302D02*
X538Y302D01*
X625Y302D02*
X635Y302D01*
X701Y302D02*
X712Y302D01*
X810Y302D02*
X813Y302D01*
X1086Y302D02*
X1088Y302D01*
X1817Y302D02*
X1824Y302D01*
X0Y301D02*
X7Y301D01*
X44Y301D02*
X47Y301D01*
X55Y301D02*
X58Y301D01*
X184Y301D02*
X193Y301D01*
X260Y301D02*
X262Y301D01*
X535Y301D02*
X538Y301D01*
X624Y301D02*
X635Y301D01*
X701Y301D02*
X712Y301D01*
X810Y301D02*
X813Y301D01*
X1086Y301D02*
X1088Y301D01*
X1817Y301D02*
X1824Y301D01*
X0Y300D02*
X7Y300D01*
X44Y300D02*
X47Y300D01*
X55Y300D02*
X58Y300D01*
X184Y300D02*
X193Y300D01*
X260Y300D02*
X262Y300D01*
X535Y300D02*
X538Y300D01*
X624Y300D02*
X633Y300D01*
X703Y300D02*
X713Y300D01*
X810Y300D02*
X813Y300D01*
X1086Y300D02*
X1088Y300D01*
X1817Y300D02*
X1824Y300D01*
X0Y299D02*
X7Y299D01*
X44Y299D02*
X47Y299D01*
X55Y299D02*
X58Y299D01*
X184Y299D02*
X193Y299D01*
X260Y299D02*
X262Y299D01*
X535Y299D02*
X538Y299D01*
X623Y299D02*
X632Y299D01*
X705Y299D02*
X713Y299D01*
X810Y299D02*
X813Y299D01*
X1086Y299D02*
X1088Y299D01*
X1817Y299D02*
X1824Y299D01*
X0Y298D02*
X7Y298D01*
X44Y298D02*
X47Y298D01*
X55Y298D02*
X59Y298D01*
X184Y298D02*
X193Y298D01*
X260Y298D02*
X262Y298D01*
X535Y298D02*
X538Y298D01*
X623Y298D02*
X631Y298D01*
X706Y298D02*
X714Y298D01*
X810Y298D02*
X813Y298D01*
X1086Y298D02*
X1088Y298D01*
X1817Y298D02*
X1824Y298D01*
X0Y297D02*
X7Y297D01*
X44Y297D02*
X47Y297D01*
X55Y297D02*
X61Y297D01*
X184Y297D02*
X193Y297D01*
X260Y297D02*
X262Y297D01*
X535Y297D02*
X538Y297D01*
X623Y297D02*
X630Y297D01*
X707Y297D02*
X714Y297D01*
X810Y297D02*
X813Y297D01*
X1086Y297D02*
X1088Y297D01*
X1817Y297D02*
X1824Y297D01*
X0Y296D02*
X7Y296D01*
X44Y296D02*
X47Y296D01*
X55Y296D02*
X63Y296D01*
X184Y296D02*
X193Y296D01*
X260Y296D02*
X262Y296D01*
X535Y296D02*
X538Y296D01*
X622Y296D02*
X629Y296D01*
X707Y296D02*
X714Y296D01*
X810Y296D02*
X813Y296D01*
X1086Y296D02*
X1088Y296D01*
X1817Y296D02*
X1824Y296D01*
X0Y295D02*
X7Y295D01*
X44Y295D02*
X47Y295D01*
X55Y295D02*
X64Y295D01*
X184Y295D02*
X193Y295D01*
X260Y295D02*
X262Y295D01*
X535Y295D02*
X538Y295D01*
X622Y295D02*
X629Y295D01*
X707Y295D02*
X714Y295D01*
X810Y295D02*
X813Y295D01*
X1086Y295D02*
X1088Y295D01*
X1817Y295D02*
X1824Y295D01*
X0Y294D02*
X7Y294D01*
X44Y294D02*
X47Y294D01*
X55Y294D02*
X66Y294D01*
X184Y294D02*
X193Y294D01*
X260Y294D02*
X262Y294D01*
X535Y294D02*
X538Y294D01*
X810Y294D02*
X813Y294D01*
X1086Y294D02*
X1088Y294D01*
X1817Y294D02*
X1824Y294D01*
X0Y293D02*
X7Y293D01*
X44Y293D02*
X47Y293D01*
X55Y293D02*
X58Y293D01*
X60Y293D02*
X68Y293D01*
X184Y293D02*
X193Y293D01*
X260Y293D02*
X262Y293D01*
X535Y293D02*
X538Y293D01*
X810Y293D02*
X813Y293D01*
X1086Y293D02*
X1088Y293D01*
X1817Y293D02*
X1824Y293D01*
X0Y292D02*
X7Y292D01*
X44Y292D02*
X47Y292D01*
X55Y292D02*
X58Y292D01*
X62Y292D02*
X70Y292D01*
X184Y292D02*
X193Y292D01*
X205Y292D02*
X208Y292D01*
X226Y292D02*
X233Y292D01*
X260Y292D02*
X262Y292D01*
X535Y292D02*
X538Y292D01*
X766Y292D02*
X769Y292D01*
X787Y292D02*
X794Y292D01*
X810Y292D02*
X813Y292D01*
X1086Y292D02*
X1088Y292D01*
X1817Y292D02*
X1824Y292D01*
X0Y291D02*
X7Y291D01*
X44Y291D02*
X47Y291D01*
X54Y291D02*
X58Y291D01*
X64Y291D02*
X71Y291D01*
X184Y291D02*
X193Y291D01*
X205Y291D02*
X210Y291D01*
X224Y291D02*
X234Y291D01*
X260Y291D02*
X262Y291D01*
X535Y291D02*
X538Y291D01*
X766Y291D02*
X770Y291D01*
X785Y291D02*
X795Y291D01*
X810Y291D02*
X813Y291D01*
X1086Y291D02*
X1088Y291D01*
X1817Y291D02*
X1824Y291D01*
X0Y290D02*
X7Y290D01*
X44Y290D02*
X48Y290D01*
X54Y290D02*
X58Y290D01*
X65Y290D02*
X73Y290D01*
X184Y290D02*
X193Y290D01*
X205Y290D02*
X211Y290D01*
X224Y290D02*
X235Y290D01*
X260Y290D02*
X262Y290D01*
X535Y290D02*
X538Y290D01*
X766Y290D02*
X772Y290D01*
X785Y290D02*
X796Y290D01*
X810Y290D02*
X813Y290D01*
X1086Y290D02*
X1088Y290D01*
X1817Y290D02*
X1824Y290D01*
X0Y289D02*
X7Y289D01*
X44Y289D02*
X57Y289D01*
X67Y289D02*
X75Y289D01*
X184Y289D02*
X193Y289D01*
X206Y289D02*
X213Y289D01*
X223Y289D02*
X236Y289D01*
X260Y289D02*
X262Y289D01*
X535Y289D02*
X538Y289D01*
X766Y289D02*
X774Y289D01*
X784Y289D02*
X796Y289D01*
X810Y289D02*
X813Y289D01*
X1086Y289D02*
X1088Y289D01*
X1817Y289D02*
X1824Y289D01*
X0Y288D02*
X7Y288D01*
X45Y288D02*
X57Y288D01*
X69Y288D02*
X76Y288D01*
X184Y288D02*
X193Y288D01*
X207Y288D02*
X215Y288D01*
X223Y288D02*
X226Y288D01*
X232Y288D02*
X236Y288D01*
X260Y288D02*
X262Y288D01*
X768Y288D02*
X775Y288D01*
X783Y288D02*
X787Y288D01*
X793Y288D02*
X797Y288D01*
X810Y288D02*
X813Y288D01*
X1086Y288D02*
X1088Y288D01*
X1817Y288D02*
X1824Y288D01*
X0Y287D02*
X7Y287D01*
X46Y287D02*
X56Y287D01*
X71Y287D02*
X76Y287D01*
X184Y287D02*
X193Y287D01*
X209Y287D02*
X217Y287D01*
X222Y287D02*
X226Y287D01*
X233Y287D02*
X236Y287D01*
X260Y287D02*
X262Y287D01*
X770Y287D02*
X777Y287D01*
X783Y287D02*
X787Y287D01*
X794Y287D02*
X797Y287D01*
X810Y287D02*
X813Y287D01*
X1086Y287D02*
X1088Y287D01*
X1817Y287D02*
X1824Y287D01*
X0Y286D02*
X7Y286D01*
X47Y286D02*
X55Y286D01*
X72Y286D02*
X75Y286D01*
X184Y286D02*
X193Y286D01*
X211Y286D02*
X218Y286D01*
X222Y286D02*
X226Y286D01*
X233Y286D02*
X236Y286D01*
X260Y286D02*
X262Y286D01*
X771Y286D02*
X779Y286D01*
X783Y286D02*
X786Y286D01*
X794Y286D02*
X797Y286D01*
X810Y286D02*
X813Y286D01*
X1086Y286D02*
X1088Y286D01*
X1817Y286D02*
X1824Y286D01*
X0Y285D02*
X7Y285D01*
X49Y285D02*
X52Y285D01*
X74Y285D02*
X74Y285D01*
X184Y285D02*
X193Y285D01*
X213Y285D02*
X220Y285D01*
X222Y285D02*
X226Y285D01*
X233Y285D02*
X236Y285D01*
X260Y285D02*
X262Y285D01*
X773Y285D02*
X781Y285D01*
X783Y285D02*
X786Y285D01*
X794Y285D02*
X797Y285D01*
X810Y285D02*
X813Y285D01*
X1086Y285D02*
X1088Y285D01*
X1817Y285D02*
X1824Y285D01*
X0Y284D02*
X7Y284D01*
X184Y284D02*
X193Y284D01*
X214Y284D02*
X226Y284D01*
X233Y284D02*
X236Y284D01*
X260Y284D02*
X262Y284D01*
X775Y284D02*
X786Y284D01*
X794Y284D02*
X797Y284D01*
X810Y284D02*
X813Y284D01*
X1086Y284D02*
X1088Y284D01*
X1817Y284D02*
X1824Y284D01*
X0Y283D02*
X7Y283D01*
X184Y283D02*
X193Y283D01*
X216Y283D02*
X226Y283D01*
X233Y283D02*
X236Y283D01*
X260Y283D02*
X262Y283D01*
X777Y283D02*
X786Y283D01*
X794Y283D02*
X797Y283D01*
X810Y283D02*
X813Y283D01*
X1086Y283D02*
X1088Y283D01*
X1817Y283D02*
X1824Y283D01*
X0Y282D02*
X7Y282D01*
X184Y282D02*
X193Y282D01*
X218Y282D02*
X226Y282D01*
X233Y282D02*
X236Y282D01*
X260Y282D02*
X262Y282D01*
X778Y282D02*
X786Y282D01*
X794Y282D02*
X797Y282D01*
X810Y282D02*
X813Y282D01*
X1086Y282D02*
X1088Y282D01*
X1817Y282D02*
X1824Y282D01*
X0Y281D02*
X7Y281D01*
X184Y281D02*
X193Y281D01*
X219Y281D02*
X226Y281D01*
X233Y281D02*
X236Y281D01*
X260Y281D02*
X262Y281D01*
X780Y281D02*
X786Y281D01*
X794Y281D02*
X797Y281D01*
X810Y281D02*
X813Y281D01*
X1086Y281D02*
X1088Y281D01*
X1817Y281D02*
X1824Y281D01*
X0Y280D02*
X7Y280D01*
X184Y280D02*
X193Y280D01*
X221Y280D02*
X226Y280D01*
X233Y280D02*
X236Y280D01*
X260Y280D02*
X262Y280D01*
X782Y280D02*
X786Y280D01*
X794Y280D02*
X797Y280D01*
X810Y280D02*
X813Y280D01*
X1086Y280D02*
X1088Y280D01*
X1817Y280D02*
X1824Y280D01*
X0Y279D02*
X7Y279D01*
X184Y279D02*
X193Y279D01*
X222Y279D02*
X226Y279D01*
X233Y279D02*
X236Y279D01*
X260Y279D02*
X262Y279D01*
X783Y279D02*
X786Y279D01*
X794Y279D02*
X797Y279D01*
X810Y279D02*
X813Y279D01*
X1086Y279D02*
X1088Y279D01*
X1817Y279D02*
X1824Y279D01*
X0Y278D02*
X7Y278D01*
X184Y278D02*
X193Y278D01*
X222Y278D02*
X226Y278D01*
X233Y278D02*
X236Y278D01*
X260Y278D02*
X262Y278D01*
X783Y278D02*
X786Y278D01*
X794Y278D02*
X797Y278D01*
X810Y278D02*
X813Y278D01*
X1086Y278D02*
X1088Y278D01*
X1817Y278D02*
X1824Y278D01*
X0Y277D02*
X7Y277D01*
X184Y277D02*
X193Y277D01*
X222Y277D02*
X226Y277D01*
X233Y277D02*
X236Y277D01*
X260Y277D02*
X262Y277D01*
X783Y277D02*
X786Y277D01*
X794Y277D02*
X797Y277D01*
X810Y277D02*
X813Y277D01*
X1086Y277D02*
X1088Y277D01*
X1817Y277D02*
X1824Y277D01*
X0Y276D02*
X7Y276D01*
X184Y276D02*
X193Y276D01*
X206Y276D02*
X236Y276D01*
X260Y276D02*
X262Y276D01*
X767Y276D02*
X797Y276D01*
X810Y276D02*
X813Y276D01*
X1086Y276D02*
X1088Y276D01*
X1817Y276D02*
X1824Y276D01*
X0Y275D02*
X7Y275D01*
X44Y275D02*
X75Y275D01*
X184Y275D02*
X193Y275D01*
X205Y275D02*
X236Y275D01*
X260Y275D02*
X262Y275D01*
X766Y275D02*
X797Y275D01*
X810Y275D02*
X813Y275D01*
X1086Y275D02*
X1088Y275D01*
X1817Y275D02*
X1824Y275D01*
X0Y274D02*
X7Y274D01*
X44Y274D02*
X76Y274D01*
X184Y274D02*
X193Y274D01*
X205Y274D02*
X236Y274D01*
X260Y274D02*
X262Y274D01*
X766Y274D02*
X797Y274D01*
X810Y274D02*
X813Y274D01*
X1086Y274D02*
X1088Y274D01*
X1817Y274D02*
X1824Y274D01*
X0Y273D02*
X7Y273D01*
X44Y273D02*
X76Y273D01*
X184Y273D02*
X193Y273D01*
X205Y273D02*
X236Y273D01*
X260Y273D02*
X262Y273D01*
X766Y273D02*
X797Y273D01*
X810Y273D02*
X813Y273D01*
X1086Y273D02*
X1088Y273D01*
X1817Y273D02*
X1824Y273D01*
X0Y272D02*
X7Y272D01*
X44Y272D02*
X75Y272D01*
X184Y272D02*
X193Y272D01*
X260Y272D02*
X262Y272D01*
X810Y272D02*
X813Y272D01*
X1086Y272D02*
X1088Y272D01*
X1817Y272D02*
X1824Y272D01*
X0Y271D02*
X7Y271D01*
X44Y271D02*
X49Y271D01*
X184Y271D02*
X193Y271D01*
X260Y271D02*
X262Y271D01*
X810Y271D02*
X813Y271D01*
X1086Y271D02*
X1088Y271D01*
X1817Y271D02*
X1824Y271D01*
X0Y270D02*
X7Y270D01*
X44Y270D02*
X50Y270D01*
X184Y270D02*
X193Y270D01*
X260Y270D02*
X262Y270D01*
X810Y270D02*
X813Y270D01*
X1086Y270D02*
X1088Y270D01*
X1817Y270D02*
X1824Y270D01*
X0Y269D02*
X7Y269D01*
X45Y269D02*
X52Y269D01*
X184Y269D02*
X193Y269D01*
X260Y269D02*
X262Y269D01*
X810Y269D02*
X813Y269D01*
X1086Y269D02*
X1088Y269D01*
X1817Y269D02*
X1824Y269D01*
X0Y268D02*
X7Y268D01*
X47Y268D02*
X53Y268D01*
X184Y268D02*
X193Y268D01*
X260Y268D02*
X262Y268D01*
X810Y268D02*
X813Y268D01*
X1086Y268D02*
X1088Y268D01*
X1817Y268D02*
X1824Y268D01*
X0Y267D02*
X7Y267D01*
X48Y267D02*
X56Y267D01*
X184Y267D02*
X193Y267D01*
X260Y267D02*
X262Y267D01*
X810Y267D02*
X813Y267D01*
X1086Y267D02*
X1088Y267D01*
X1817Y267D02*
X1824Y267D01*
X0Y266D02*
X7Y266D01*
X50Y266D02*
X57Y266D01*
X184Y266D02*
X193Y266D01*
X260Y266D02*
X262Y266D01*
X810Y266D02*
X813Y266D01*
X1086Y266D02*
X1088Y266D01*
X1817Y266D02*
X1824Y266D01*
X0Y265D02*
X7Y265D01*
X51Y265D02*
X58Y265D01*
X184Y265D02*
X193Y265D01*
X260Y265D02*
X262Y265D01*
X810Y265D02*
X813Y265D01*
X1086Y265D02*
X1088Y265D01*
X1817Y265D02*
X1824Y265D01*
X0Y264D02*
X7Y264D01*
X50Y264D02*
X58Y264D01*
X184Y264D02*
X193Y264D01*
X260Y264D02*
X262Y264D01*
X810Y264D02*
X813Y264D01*
X1086Y264D02*
X1088Y264D01*
X1817Y264D02*
X1824Y264D01*
X0Y263D02*
X7Y263D01*
X48Y263D02*
X56Y263D01*
X184Y263D02*
X193Y263D01*
X260Y263D02*
X262Y263D01*
X810Y263D02*
X813Y263D01*
X1086Y263D02*
X1088Y263D01*
X1817Y263D02*
X1824Y263D01*
X0Y262D02*
X7Y262D01*
X47Y262D02*
X53Y262D01*
X184Y262D02*
X193Y262D01*
X230Y262D02*
X236Y262D01*
X260Y262D02*
X262Y262D01*
X791Y262D02*
X797Y262D01*
X810Y262D02*
X813Y262D01*
X1086Y262D02*
X1088Y262D01*
X1817Y262D02*
X1824Y262D01*
X0Y261D02*
X7Y261D01*
X45Y261D02*
X52Y261D01*
X184Y261D02*
X193Y261D01*
X230Y261D02*
X236Y261D01*
X260Y261D02*
X262Y261D01*
X790Y261D02*
X797Y261D01*
X810Y261D02*
X813Y261D01*
X1086Y261D02*
X1088Y261D01*
X1817Y261D02*
X1824Y261D01*
X0Y260D02*
X7Y260D01*
X44Y260D02*
X51Y260D01*
X184Y260D02*
X193Y260D01*
X230Y260D02*
X236Y260D01*
X260Y260D02*
X262Y260D01*
X790Y260D02*
X797Y260D01*
X810Y260D02*
X813Y260D01*
X1086Y260D02*
X1088Y260D01*
X1817Y260D02*
X1824Y260D01*
X0Y259D02*
X7Y259D01*
X44Y259D02*
X49Y259D01*
X184Y259D02*
X193Y259D01*
X231Y259D02*
X236Y259D01*
X260Y259D02*
X262Y259D01*
X791Y259D02*
X797Y259D01*
X810Y259D02*
X813Y259D01*
X1086Y259D02*
X1088Y259D01*
X1817Y259D02*
X1824Y259D01*
X0Y258D02*
X7Y258D01*
X44Y258D02*
X75Y258D01*
X184Y258D02*
X193Y258D01*
X233Y258D02*
X236Y258D01*
X260Y258D02*
X262Y258D01*
X794Y258D02*
X797Y258D01*
X810Y258D02*
X813Y258D01*
X1086Y258D02*
X1088Y258D01*
X1817Y258D02*
X1824Y258D01*
X0Y257D02*
X7Y257D01*
X44Y257D02*
X76Y257D01*
X184Y257D02*
X193Y257D01*
X233Y257D02*
X236Y257D01*
X260Y257D02*
X262Y257D01*
X794Y257D02*
X797Y257D01*
X810Y257D02*
X813Y257D01*
X1086Y257D02*
X1088Y257D01*
X1817Y257D02*
X1824Y257D01*
X0Y256D02*
X7Y256D01*
X44Y256D02*
X76Y256D01*
X184Y256D02*
X193Y256D01*
X233Y256D02*
X236Y256D01*
X260Y256D02*
X262Y256D01*
X794Y256D02*
X797Y256D01*
X810Y256D02*
X813Y256D01*
X1086Y256D02*
X1088Y256D01*
X1817Y256D02*
X1824Y256D01*
X0Y255D02*
X7Y255D01*
X44Y255D02*
X75Y255D01*
X184Y255D02*
X193Y255D01*
X233Y255D02*
X236Y255D01*
X260Y255D02*
X262Y255D01*
X794Y255D02*
X797Y255D01*
X810Y255D02*
X813Y255D01*
X1086Y255D02*
X1088Y255D01*
X1817Y255D02*
X1824Y255D01*
X0Y254D02*
X7Y254D01*
X184Y254D02*
X193Y254D01*
X205Y254D02*
X236Y254D01*
X260Y254D02*
X262Y254D01*
X766Y254D02*
X797Y254D01*
X810Y254D02*
X813Y254D01*
X1086Y254D02*
X1088Y254D01*
X1817Y254D02*
X1824Y254D01*
X0Y253D02*
X7Y253D01*
X184Y253D02*
X193Y253D01*
X205Y253D02*
X236Y253D01*
X260Y253D02*
X262Y253D01*
X766Y253D02*
X797Y253D01*
X810Y253D02*
X813Y253D01*
X1086Y253D02*
X1088Y253D01*
X1817Y253D02*
X1824Y253D01*
X0Y252D02*
X7Y252D01*
X184Y252D02*
X193Y252D01*
X205Y252D02*
X236Y252D01*
X260Y252D02*
X262Y252D01*
X766Y252D02*
X797Y252D01*
X810Y252D02*
X813Y252D01*
X1086Y252D02*
X1088Y252D01*
X1817Y252D02*
X1824Y252D01*
X0Y251D02*
X7Y251D01*
X184Y251D02*
X193Y251D01*
X206Y251D02*
X236Y251D01*
X260Y251D02*
X262Y251D01*
X766Y251D02*
X797Y251D01*
X810Y251D02*
X813Y251D01*
X1086Y251D02*
X1088Y251D01*
X1817Y251D02*
X1824Y251D01*
X0Y250D02*
X7Y250D01*
X184Y250D02*
X193Y250D01*
X233Y250D02*
X236Y250D01*
X260Y250D02*
X262Y250D01*
X794Y250D02*
X797Y250D01*
X810Y250D02*
X813Y250D01*
X1086Y250D02*
X1088Y250D01*
X1817Y250D02*
X1824Y250D01*
X0Y249D02*
X7Y249D01*
X184Y249D02*
X193Y249D01*
X233Y249D02*
X236Y249D01*
X260Y249D02*
X262Y249D01*
X794Y249D02*
X797Y249D01*
X810Y249D02*
X813Y249D01*
X1086Y249D02*
X1088Y249D01*
X1817Y249D02*
X1824Y249D01*
X0Y248D02*
X7Y248D01*
X184Y248D02*
X193Y248D01*
X233Y248D02*
X236Y248D01*
X260Y248D02*
X262Y248D01*
X794Y248D02*
X797Y248D01*
X810Y248D02*
X813Y248D01*
X1086Y248D02*
X1088Y248D01*
X1817Y248D02*
X1824Y248D01*
X0Y247D02*
X7Y247D01*
X184Y247D02*
X193Y247D01*
X233Y247D02*
X236Y247D01*
X260Y247D02*
X262Y247D01*
X794Y247D02*
X797Y247D01*
X810Y247D02*
X813Y247D01*
X1086Y247D02*
X1088Y247D01*
X1817Y247D02*
X1824Y247D01*
X0Y246D02*
X7Y246D01*
X184Y246D02*
X193Y246D01*
X231Y246D02*
X236Y246D01*
X260Y246D02*
X262Y246D01*
X792Y246D02*
X797Y246D01*
X810Y246D02*
X813Y246D01*
X1086Y246D02*
X1088Y246D01*
X1817Y246D02*
X1824Y246D01*
X0Y245D02*
X7Y245D01*
X184Y245D02*
X193Y245D01*
X230Y245D02*
X236Y245D01*
X260Y245D02*
X262Y245D01*
X791Y245D02*
X797Y245D01*
X810Y245D02*
X813Y245D01*
X1086Y245D02*
X1088Y245D01*
X1817Y245D02*
X1824Y245D01*
X0Y244D02*
X7Y244D01*
X184Y244D02*
X193Y244D01*
X230Y244D02*
X236Y244D01*
X260Y244D02*
X262Y244D01*
X790Y244D02*
X797Y244D01*
X810Y244D02*
X813Y244D01*
X1086Y244D02*
X1088Y244D01*
X1817Y244D02*
X1824Y244D01*
X0Y243D02*
X7Y243D01*
X184Y243D02*
X193Y243D01*
X230Y243D02*
X236Y243D01*
X260Y243D02*
X262Y243D01*
X791Y243D02*
X797Y243D01*
X810Y243D02*
X813Y243D01*
X1086Y243D02*
X1088Y243D01*
X1817Y243D02*
X1824Y243D01*
X0Y242D02*
X7Y242D01*
X53Y242D02*
X56Y242D01*
X73Y242D02*
X75Y242D01*
X184Y242D02*
X193Y242D01*
X260Y242D02*
X262Y242D01*
X810Y242D02*
X813Y242D01*
X1086Y242D02*
X1088Y242D01*
X1817Y242D02*
X1824Y242D01*
X0Y241D02*
X7Y241D01*
X53Y241D02*
X56Y241D01*
X73Y241D02*
X76Y241D01*
X184Y241D02*
X193Y241D01*
X260Y241D02*
X262Y241D01*
X810Y241D02*
X813Y241D01*
X1086Y241D02*
X1088Y241D01*
X1817Y241D02*
X1824Y241D01*
X0Y240D02*
X7Y240D01*
X53Y240D02*
X56Y240D01*
X73Y240D02*
X76Y240D01*
X184Y240D02*
X193Y240D01*
X260Y240D02*
X262Y240D01*
X810Y240D02*
X813Y240D01*
X1086Y240D02*
X1088Y240D01*
X1817Y240D02*
X1824Y240D01*
X0Y239D02*
X7Y239D01*
X53Y239D02*
X56Y239D01*
X73Y239D02*
X76Y239D01*
X184Y239D02*
X193Y239D01*
X260Y239D02*
X262Y239D01*
X535Y239D02*
X538Y239D01*
X810Y239D02*
X813Y239D01*
X1086Y239D02*
X1088Y239D01*
X1817Y239D02*
X1824Y239D01*
X0Y238D02*
X7Y238D01*
X43Y238D02*
X46Y238D01*
X53Y238D02*
X56Y238D01*
X73Y238D02*
X76Y238D01*
X184Y238D02*
X193Y238D01*
X260Y238D02*
X262Y238D01*
X535Y238D02*
X538Y238D01*
X810Y238D02*
X813Y238D01*
X1086Y238D02*
X1088Y238D01*
X1817Y238D02*
X1824Y238D01*
X0Y237D02*
X7Y237D01*
X42Y237D02*
X47Y237D01*
X53Y237D02*
X56Y237D01*
X72Y237D02*
X76Y237D01*
X184Y237D02*
X193Y237D01*
X260Y237D02*
X262Y237D01*
X535Y237D02*
X538Y237D01*
X810Y237D02*
X813Y237D01*
X1086Y237D02*
X1088Y237D01*
X1817Y237D02*
X1824Y237D01*
X0Y236D02*
X7Y236D01*
X42Y236D02*
X47Y236D01*
X53Y236D02*
X76Y236D01*
X184Y236D02*
X193Y236D01*
X260Y236D02*
X262Y236D01*
X535Y236D02*
X538Y236D01*
X810Y236D02*
X813Y236D01*
X1086Y236D02*
X1088Y236D01*
X1817Y236D02*
X1824Y236D01*
X0Y235D02*
X7Y235D01*
X42Y235D02*
X47Y235D01*
X53Y235D02*
X76Y235D01*
X184Y235D02*
X193Y235D01*
X260Y235D02*
X262Y235D01*
X535Y235D02*
X538Y235D01*
X810Y235D02*
X813Y235D01*
X1086Y235D02*
X1088Y235D01*
X1817Y235D02*
X1824Y235D01*
X0Y234D02*
X7Y234D01*
X42Y234D02*
X47Y234D01*
X53Y234D02*
X76Y234D01*
X184Y234D02*
X193Y234D01*
X260Y234D02*
X262Y234D01*
X535Y234D02*
X538Y234D01*
X622Y234D02*
X629Y234D01*
X707Y234D02*
X714Y234D01*
X810Y234D02*
X813Y234D01*
X1086Y234D02*
X1088Y234D01*
X1817Y234D02*
X1824Y234D01*
X0Y233D02*
X7Y233D01*
X43Y233D02*
X46Y233D01*
X53Y233D02*
X76Y233D01*
X184Y233D02*
X193Y233D01*
X260Y233D02*
X262Y233D01*
X535Y233D02*
X538Y233D01*
X622Y233D02*
X629Y233D01*
X634Y233D02*
X635Y233D01*
X701Y233D02*
X703Y233D01*
X707Y233D02*
X714Y233D01*
X810Y233D02*
X813Y233D01*
X1086Y233D02*
X1088Y233D01*
X1817Y233D02*
X1824Y233D01*
X0Y232D02*
X7Y232D01*
X72Y232D02*
X76Y232D01*
X184Y232D02*
X193Y232D01*
X260Y232D02*
X262Y232D01*
X535Y232D02*
X538Y232D01*
X623Y232D02*
X635Y232D01*
X701Y232D02*
X714Y232D01*
X810Y232D02*
X813Y232D01*
X1086Y232D02*
X1088Y232D01*
X1817Y232D02*
X1824Y232D01*
X0Y231D02*
X7Y231D01*
X73Y231D02*
X76Y231D01*
X184Y231D02*
X193Y231D01*
X260Y231D02*
X262Y231D01*
X535Y231D02*
X538Y231D01*
X623Y231D02*
X635Y231D01*
X701Y231D02*
X714Y231D01*
X810Y231D02*
X813Y231D01*
X1086Y231D02*
X1088Y231D01*
X1817Y231D02*
X1824Y231D01*
X0Y230D02*
X7Y230D01*
X73Y230D02*
X76Y230D01*
X184Y230D02*
X193Y230D01*
X260Y230D02*
X262Y230D01*
X535Y230D02*
X538Y230D01*
X623Y230D02*
X635Y230D01*
X701Y230D02*
X713Y230D01*
X810Y230D02*
X813Y230D01*
X1086Y230D02*
X1088Y230D01*
X1817Y230D02*
X1824Y230D01*
X0Y229D02*
X7Y229D01*
X73Y229D02*
X76Y229D01*
X184Y229D02*
X193Y229D01*
X260Y229D02*
X262Y229D01*
X535Y229D02*
X538Y229D01*
X623Y229D02*
X635Y229D01*
X701Y229D02*
X713Y229D01*
X810Y229D02*
X813Y229D01*
X1086Y229D02*
X1088Y229D01*
X1817Y229D02*
X1824Y229D01*
X0Y228D02*
X7Y228D01*
X73Y228D02*
X76Y228D01*
X184Y228D02*
X193Y228D01*
X260Y228D02*
X262Y228D01*
X535Y228D02*
X538Y228D01*
X624Y228D02*
X635Y228D01*
X701Y228D02*
X713Y228D01*
X810Y228D02*
X813Y228D01*
X1086Y228D02*
X1088Y228D01*
X1817Y228D02*
X1824Y228D01*
X0Y227D02*
X7Y227D01*
X73Y227D02*
X75Y227D01*
X184Y227D02*
X193Y227D01*
X260Y227D02*
X262Y227D01*
X535Y227D02*
X538Y227D01*
X624Y227D02*
X635Y227D01*
X701Y227D02*
X712Y227D01*
X810Y227D02*
X813Y227D01*
X1086Y227D02*
X1088Y227D01*
X1817Y227D02*
X1824Y227D01*
X0Y226D02*
X7Y226D01*
X184Y226D02*
X193Y226D01*
X260Y226D02*
X262Y226D01*
X535Y226D02*
X538Y226D01*
X624Y226D02*
X635Y226D01*
X701Y226D02*
X712Y226D01*
X810Y226D02*
X813Y226D01*
X1086Y226D02*
X1088Y226D01*
X1817Y226D02*
X1824Y226D01*
X0Y225D02*
X7Y225D01*
X184Y225D02*
X193Y225D01*
X260Y225D02*
X262Y225D01*
X535Y225D02*
X538Y225D01*
X624Y225D02*
X635Y225D01*
X701Y225D02*
X713Y225D01*
X810Y225D02*
X813Y225D01*
X1086Y225D02*
X1088Y225D01*
X1817Y225D02*
X1824Y225D01*
X0Y224D02*
X7Y224D01*
X184Y224D02*
X193Y224D01*
X260Y224D02*
X262Y224D01*
X535Y224D02*
X538Y224D01*
X623Y224D02*
X635Y224D01*
X701Y224D02*
X713Y224D01*
X810Y224D02*
X813Y224D01*
X1086Y224D02*
X1088Y224D01*
X1817Y224D02*
X1824Y224D01*
X0Y223D02*
X7Y223D01*
X184Y223D02*
X193Y223D01*
X260Y223D02*
X262Y223D01*
X535Y223D02*
X538Y223D01*
X623Y223D02*
X635Y223D01*
X701Y223D02*
X714Y223D01*
X810Y223D02*
X813Y223D01*
X1086Y223D02*
X1088Y223D01*
X1817Y223D02*
X1824Y223D01*
X0Y222D02*
X7Y222D01*
X184Y222D02*
X193Y222D01*
X260Y222D02*
X262Y222D01*
X535Y222D02*
X538Y222D01*
X623Y222D02*
X635Y222D01*
X701Y222D02*
X714Y222D01*
X810Y222D02*
X813Y222D01*
X1086Y222D02*
X1088Y222D01*
X1817Y222D02*
X1824Y222D01*
X0Y221D02*
X7Y221D01*
X184Y221D02*
X193Y221D01*
X260Y221D02*
X262Y221D01*
X535Y221D02*
X538Y221D01*
X622Y221D02*
X629Y221D01*
X632Y221D02*
X635Y221D01*
X701Y221D02*
X704Y221D01*
X707Y221D02*
X714Y221D01*
X810Y221D02*
X813Y221D01*
X1086Y221D02*
X1088Y221D01*
X1817Y221D02*
X1824Y221D01*
X0Y220D02*
X7Y220D01*
X184Y220D02*
X193Y220D01*
X260Y220D02*
X262Y220D01*
X535Y220D02*
X538Y220D01*
X622Y220D02*
X629Y220D01*
X707Y220D02*
X714Y220D01*
X810Y220D02*
X813Y220D01*
X1086Y220D02*
X1088Y220D01*
X1817Y220D02*
X1824Y220D01*
X0Y219D02*
X7Y219D01*
X184Y219D02*
X193Y219D01*
X260Y219D02*
X262Y219D01*
X535Y219D02*
X538Y219D01*
X810Y219D02*
X813Y219D01*
X1086Y219D02*
X1088Y219D01*
X1817Y219D02*
X1824Y219D01*
X0Y218D02*
X7Y218D01*
X184Y218D02*
X193Y218D01*
X260Y218D02*
X262Y218D01*
X535Y218D02*
X538Y218D01*
X810Y218D02*
X813Y218D01*
X1086Y218D02*
X1088Y218D01*
X1817Y218D02*
X1824Y218D01*
X0Y217D02*
X7Y217D01*
X184Y217D02*
X193Y217D01*
X260Y217D02*
X262Y217D01*
X535Y217D02*
X538Y217D01*
X810Y217D02*
X813Y217D01*
X1086Y217D02*
X1088Y217D01*
X1817Y217D02*
X1824Y217D01*
X0Y216D02*
X7Y216D01*
X184Y216D02*
X193Y216D01*
X260Y216D02*
X262Y216D01*
X535Y216D02*
X538Y216D01*
X810Y216D02*
X813Y216D01*
X1086Y216D02*
X1088Y216D01*
X1817Y216D02*
X1824Y216D01*
X0Y215D02*
X7Y215D01*
X184Y215D02*
X193Y215D01*
X260Y215D02*
X262Y215D01*
X535Y215D02*
X538Y215D01*
X810Y215D02*
X813Y215D01*
X1086Y215D02*
X1088Y215D01*
X1817Y215D02*
X1824Y215D01*
X0Y214D02*
X7Y214D01*
X60Y214D02*
X69Y214D01*
X184Y214D02*
X193Y214D01*
X260Y214D02*
X262Y214D01*
X535Y214D02*
X538Y214D01*
X810Y214D02*
X813Y214D01*
X1086Y214D02*
X1088Y214D01*
X1817Y214D02*
X1824Y214D01*
X0Y213D02*
X7Y213D01*
X58Y213D02*
X70Y213D01*
X184Y213D02*
X193Y213D01*
X260Y213D02*
X262Y213D01*
X535Y213D02*
X538Y213D01*
X810Y213D02*
X813Y213D01*
X1086Y213D02*
X1088Y213D01*
X1817Y213D02*
X1824Y213D01*
X0Y212D02*
X7Y212D01*
X57Y212D02*
X71Y212D01*
X184Y212D02*
X193Y212D01*
X260Y212D02*
X262Y212D01*
X535Y212D02*
X538Y212D01*
X810Y212D02*
X813Y212D01*
X1086Y212D02*
X1088Y212D01*
X1817Y212D02*
X1824Y212D01*
X0Y211D02*
X7Y211D01*
X56Y211D02*
X72Y211D01*
X184Y211D02*
X193Y211D01*
X260Y211D02*
X262Y211D01*
X535Y211D02*
X538Y211D01*
X810Y211D02*
X813Y211D01*
X1086Y211D02*
X1088Y211D01*
X1817Y211D02*
X1824Y211D01*
X0Y210D02*
X7Y210D01*
X55Y210D02*
X60Y210D01*
X68Y210D02*
X73Y210D01*
X184Y210D02*
X193Y210D01*
X260Y210D02*
X262Y210D01*
X535Y210D02*
X538Y210D01*
X810Y210D02*
X813Y210D01*
X1086Y210D02*
X1088Y210D01*
X1817Y210D02*
X1824Y210D01*
X0Y209D02*
X7Y209D01*
X54Y209D02*
X59Y209D01*
X69Y209D02*
X74Y209D01*
X184Y209D02*
X193Y209D01*
X260Y209D02*
X262Y209D01*
X535Y209D02*
X538Y209D01*
X810Y209D02*
X813Y209D01*
X1086Y209D02*
X1088Y209D01*
X1817Y209D02*
X1824Y209D01*
X0Y208D02*
X7Y208D01*
X54Y208D02*
X58Y208D01*
X70Y208D02*
X75Y208D01*
X184Y208D02*
X193Y208D01*
X260Y208D02*
X262Y208D01*
X535Y208D02*
X538Y208D01*
X810Y208D02*
X813Y208D01*
X1086Y208D02*
X1088Y208D01*
X1817Y208D02*
X1824Y208D01*
X0Y207D02*
X7Y207D01*
X53Y207D02*
X58Y207D01*
X71Y207D02*
X75Y207D01*
X184Y207D02*
X193Y207D01*
X260Y207D02*
X262Y207D01*
X535Y207D02*
X538Y207D01*
X810Y207D02*
X813Y207D01*
X1086Y207D02*
X1088Y207D01*
X1817Y207D02*
X1824Y207D01*
X0Y206D02*
X7Y206D01*
X53Y206D02*
X57Y206D01*
X72Y206D02*
X76Y206D01*
X184Y206D02*
X193Y206D01*
X260Y206D02*
X262Y206D01*
X535Y206D02*
X538Y206D01*
X810Y206D02*
X813Y206D01*
X1086Y206D02*
X1088Y206D01*
X1817Y206D02*
X1824Y206D01*
X0Y205D02*
X7Y205D01*
X53Y205D02*
X56Y205D01*
X72Y205D02*
X76Y205D01*
X184Y205D02*
X193Y205D01*
X260Y205D02*
X262Y205D01*
X535Y205D02*
X538Y205D01*
X810Y205D02*
X813Y205D01*
X1086Y205D02*
X1088Y205D01*
X1817Y205D02*
X1824Y205D01*
X0Y204D02*
X7Y204D01*
X53Y204D02*
X56Y204D01*
X73Y204D02*
X76Y204D01*
X184Y204D02*
X193Y204D01*
X260Y204D02*
X262Y204D01*
X535Y204D02*
X538Y204D01*
X810Y204D02*
X813Y204D01*
X1086Y204D02*
X1088Y204D01*
X1817Y204D02*
X1824Y204D01*
X0Y203D02*
X7Y203D01*
X53Y203D02*
X56Y203D01*
X73Y203D02*
X76Y203D01*
X184Y203D02*
X193Y203D01*
X260Y203D02*
X262Y203D01*
X535Y203D02*
X538Y203D01*
X810Y203D02*
X813Y203D01*
X1086Y203D02*
X1088Y203D01*
X1817Y203D02*
X1824Y203D01*
X0Y202D02*
X7Y202D01*
X53Y202D02*
X56Y202D01*
X73Y202D02*
X76Y202D01*
X184Y202D02*
X193Y202D01*
X260Y202D02*
X262Y202D01*
X535Y202D02*
X538Y202D01*
X810Y202D02*
X813Y202D01*
X1086Y202D02*
X1088Y202D01*
X1817Y202D02*
X1824Y202D01*
X0Y201D02*
X7Y201D01*
X53Y201D02*
X56Y201D01*
X73Y201D02*
X76Y201D01*
X184Y201D02*
X193Y201D01*
X260Y201D02*
X262Y201D01*
X535Y201D02*
X538Y201D01*
X810Y201D02*
X813Y201D01*
X1086Y201D02*
X1088Y201D01*
X1817Y201D02*
X1824Y201D01*
X0Y200D02*
X7Y200D01*
X53Y200D02*
X56Y200D01*
X73Y200D02*
X76Y200D01*
X184Y200D02*
X193Y200D01*
X260Y200D02*
X262Y200D01*
X535Y200D02*
X538Y200D01*
X810Y200D02*
X813Y200D01*
X1086Y200D02*
X1088Y200D01*
X1817Y200D02*
X1824Y200D01*
X0Y199D02*
X7Y199D01*
X53Y199D02*
X56Y199D01*
X73Y199D02*
X76Y199D01*
X184Y199D02*
X193Y199D01*
X260Y199D02*
X262Y199D01*
X535Y199D02*
X538Y199D01*
X810Y199D02*
X813Y199D01*
X1086Y199D02*
X1088Y199D01*
X1817Y199D02*
X1824Y199D01*
X0Y198D02*
X7Y198D01*
X53Y198D02*
X56Y198D01*
X73Y198D02*
X76Y198D01*
X184Y198D02*
X193Y198D01*
X260Y198D02*
X262Y198D01*
X535Y198D02*
X538Y198D01*
X810Y198D02*
X813Y198D01*
X1086Y198D02*
X1088Y198D01*
X1817Y198D02*
X1824Y198D01*
X0Y197D02*
X7Y197D01*
X53Y197D02*
X56Y197D01*
X73Y197D02*
X76Y197D01*
X184Y197D02*
X193Y197D01*
X260Y197D02*
X262Y197D01*
X535Y197D02*
X538Y197D01*
X810Y197D02*
X813Y197D01*
X1086Y197D02*
X1088Y197D01*
X1817Y197D02*
X1824Y197D01*
X0Y196D02*
X7Y196D01*
X53Y196D02*
X56Y196D01*
X73Y196D02*
X76Y196D01*
X184Y196D02*
X193Y196D01*
X260Y196D02*
X262Y196D01*
X535Y196D02*
X538Y196D01*
X810Y196D02*
X813Y196D01*
X1086Y196D02*
X1088Y196D01*
X1817Y196D02*
X1824Y196D01*
X0Y195D02*
X7Y195D01*
X53Y195D02*
X56Y195D01*
X73Y195D02*
X76Y195D01*
X184Y195D02*
X193Y195D01*
X260Y195D02*
X262Y195D01*
X535Y195D02*
X538Y195D01*
X810Y195D02*
X813Y195D01*
X1086Y195D02*
X1088Y195D01*
X1817Y195D02*
X1824Y195D01*
X0Y194D02*
X7Y194D01*
X53Y194D02*
X55Y194D01*
X73Y194D02*
X75Y194D01*
X184Y194D02*
X193Y194D01*
X260Y194D02*
X262Y194D01*
X535Y194D02*
X538Y194D01*
X810Y194D02*
X813Y194D01*
X1086Y194D02*
X1088Y194D01*
X1817Y194D02*
X1824Y194D01*
X0Y193D02*
X7Y193D01*
X184Y193D02*
X193Y193D01*
X260Y193D02*
X262Y193D01*
X535Y193D02*
X538Y193D01*
X810Y193D02*
X813Y193D01*
X1086Y193D02*
X1088Y193D01*
X1817Y193D02*
X1824Y193D01*
X0Y192D02*
X7Y192D01*
X184Y192D02*
X193Y192D01*
X260Y192D02*
X262Y192D01*
X535Y192D02*
X538Y192D01*
X810Y192D02*
X813Y192D01*
X1086Y192D02*
X1088Y192D01*
X1817Y192D02*
X1824Y192D01*
X0Y191D02*
X7Y191D01*
X184Y191D02*
X193Y191D01*
X260Y191D02*
X262Y191D01*
X535Y191D02*
X538Y191D01*
X810Y191D02*
X813Y191D01*
X1086Y191D02*
X1088Y191D01*
X1817Y191D02*
X1824Y191D01*
X0Y190D02*
X7Y190D01*
X184Y190D02*
X193Y190D01*
X260Y190D02*
X262Y190D01*
X535Y190D02*
X538Y190D01*
X810Y190D02*
X813Y190D01*
X1086Y190D02*
X1088Y190D01*
X1817Y190D02*
X1824Y190D01*
X0Y189D02*
X7Y189D01*
X184Y189D02*
X193Y189D01*
X260Y189D02*
X262Y189D01*
X535Y189D02*
X538Y189D01*
X810Y189D02*
X813Y189D01*
X1086Y189D02*
X1088Y189D01*
X1817Y189D02*
X1824Y189D01*
X0Y188D02*
X7Y188D01*
X184Y188D02*
X193Y188D01*
X260Y188D02*
X262Y188D01*
X535Y188D02*
X538Y188D01*
X810Y188D02*
X813Y188D01*
X1086Y188D02*
X1088Y188D01*
X1817Y188D02*
X1824Y188D01*
X0Y187D02*
X7Y187D01*
X184Y187D02*
X193Y187D01*
X260Y187D02*
X262Y187D01*
X536Y187D02*
X537Y187D01*
X811Y187D02*
X813Y187D01*
X1086Y187D02*
X1088Y187D01*
X1817Y187D02*
X1824Y187D01*
X0Y186D02*
X7Y186D01*
X184Y186D02*
X193Y186D01*
X1817Y186D02*
X1824Y186D01*
X0Y185D02*
X7Y185D01*
X184Y185D02*
X193Y185D01*
X1817Y185D02*
X1824Y185D01*
X0Y184D02*
X7Y184D01*
X184Y184D02*
X193Y184D01*
X1817Y184D02*
X1824Y184D01*
X0Y183D02*
X7Y183D01*
X59Y183D02*
X63Y183D01*
X184Y183D02*
X193Y183D01*
X1817Y183D02*
X1824Y183D01*
X0Y182D02*
X7Y182D01*
X58Y182D02*
X63Y182D01*
X184Y182D02*
X189Y182D01*
X1817Y182D02*
X1824Y182D01*
X0Y181D02*
X7Y181D01*
X58Y181D02*
X63Y181D01*
X184Y181D02*
X189Y181D01*
X1817Y181D02*
X1824Y181D01*
X0Y180D02*
X7Y180D01*
X58Y180D02*
X63Y180D01*
X184Y180D02*
X189Y180D01*
X1817Y180D02*
X1824Y180D01*
X0Y179D02*
X7Y179D01*
X58Y179D02*
X63Y179D01*
X184Y179D02*
X189Y179D01*
X1817Y179D02*
X1824Y179D01*
X0Y178D02*
X7Y178D01*
X58Y178D02*
X63Y178D01*
X184Y178D02*
X189Y178D01*
X1817Y178D02*
X1824Y178D01*
X0Y177D02*
X7Y177D01*
X58Y177D02*
X63Y177D01*
X184Y177D02*
X189Y177D01*
X1817Y177D02*
X1824Y177D01*
X0Y176D02*
X7Y176D01*
X58Y176D02*
X63Y176D01*
X184Y176D02*
X189Y176D01*
X1817Y176D02*
X1824Y176D01*
X0Y175D02*
X7Y175D01*
X58Y175D02*
X63Y175D01*
X184Y175D02*
X189Y175D01*
X1817Y175D02*
X1824Y175D01*
X0Y174D02*
X7Y174D01*
X58Y174D02*
X63Y174D01*
X184Y174D02*
X189Y174D01*
X1817Y174D02*
X1824Y174D01*
X0Y173D02*
X7Y173D01*
X58Y173D02*
X63Y173D01*
X184Y173D02*
X189Y173D01*
X1817Y173D02*
X1824Y173D01*
X0Y172D02*
X7Y172D01*
X58Y172D02*
X63Y172D01*
X184Y172D02*
X189Y172D01*
X1817Y172D02*
X1824Y172D01*
X0Y171D02*
X7Y171D01*
X58Y171D02*
X63Y171D01*
X184Y171D02*
X189Y171D01*
X1817Y171D02*
X1824Y171D01*
X0Y170D02*
X7Y170D01*
X58Y170D02*
X63Y170D01*
X184Y170D02*
X189Y170D01*
X1817Y170D02*
X1824Y170D01*
X0Y169D02*
X7Y169D01*
X58Y169D02*
X63Y169D01*
X184Y169D02*
X189Y169D01*
X1817Y169D02*
X1824Y169D01*
X0Y168D02*
X7Y168D01*
X58Y168D02*
X63Y168D01*
X89Y168D02*
X189Y168D01*
X1817Y168D02*
X1824Y168D01*
X0Y167D02*
X7Y167D01*
X58Y167D02*
X63Y167D01*
X89Y167D02*
X189Y167D01*
X1817Y167D02*
X1824Y167D01*
X0Y166D02*
X7Y166D01*
X58Y166D02*
X63Y166D01*
X89Y166D02*
X189Y166D01*
X1817Y166D02*
X1824Y166D01*
X0Y165D02*
X7Y165D01*
X58Y165D02*
X63Y165D01*
X89Y165D02*
X189Y165D01*
X1817Y165D02*
X1824Y165D01*
X0Y164D02*
X7Y164D01*
X58Y164D02*
X63Y164D01*
X89Y164D02*
X189Y164D01*
X1817Y164D02*
X1824Y164D01*
X0Y163D02*
X7Y163D01*
X60Y163D02*
X62Y163D01*
X89Y163D02*
X188Y163D01*
X1817Y163D02*
X1824Y163D01*
X0Y162D02*
X7Y162D01*
X89Y162D02*
X188Y162D01*
X1817Y162D02*
X1824Y162D01*
X0Y161D02*
X7Y161D01*
X89Y161D02*
X188Y161D01*
X1817Y161D02*
X1824Y161D01*
X0Y160D02*
X7Y160D01*
X89Y160D02*
X188Y160D01*
X1817Y160D02*
X1824Y160D01*
X0Y159D02*
X7Y159D01*
X89Y159D02*
X188Y159D01*
X622Y159D02*
X629Y159D01*
X707Y159D02*
X714Y159D01*
X1817Y159D02*
X1824Y159D01*
X0Y158D02*
X7Y158D01*
X622Y158D02*
X629Y158D01*
X707Y158D02*
X714Y158D01*
X1817Y158D02*
X1824Y158D01*
X0Y157D02*
X7Y157D01*
X175Y157D02*
X182Y157D01*
X623Y157D02*
X630Y157D01*
X707Y157D02*
X714Y157D01*
X1817Y157D02*
X1824Y157D01*
X0Y156D02*
X7Y156D01*
X174Y156D02*
X184Y156D01*
X623Y156D02*
X630Y156D01*
X706Y156D02*
X714Y156D01*
X1817Y156D02*
X1824Y156D01*
X0Y155D02*
X7Y155D01*
X174Y155D02*
X186Y155D01*
X623Y155D02*
X631Y155D01*
X705Y155D02*
X713Y155D01*
X1817Y155D02*
X1824Y155D01*
X0Y154D02*
X7Y154D01*
X174Y154D02*
X186Y154D01*
X623Y154D02*
X633Y154D01*
X704Y154D02*
X713Y154D01*
X1817Y154D02*
X1824Y154D01*
X0Y153D02*
X7Y153D01*
X175Y153D02*
X187Y153D01*
X624Y153D02*
X635Y153D01*
X701Y153D02*
X713Y153D01*
X1817Y153D02*
X1824Y153D01*
X0Y152D02*
X7Y152D01*
X184Y152D02*
X187Y152D01*
X624Y152D02*
X635Y152D01*
X701Y152D02*
X712Y152D01*
X1817Y152D02*
X1824Y152D01*
X0Y151D02*
X7Y151D01*
X184Y151D02*
X187Y151D01*
X625Y151D02*
X635Y151D01*
X701Y151D02*
X711Y151D01*
X1817Y151D02*
X1824Y151D01*
X0Y150D02*
X7Y150D01*
X184Y150D02*
X187Y150D01*
X626Y150D02*
X635Y150D01*
X701Y150D02*
X711Y150D01*
X1817Y150D02*
X1824Y150D01*
X0Y149D02*
X7Y149D01*
X184Y149D02*
X187Y149D01*
X627Y149D02*
X635Y149D01*
X701Y149D02*
X710Y149D01*
X1817Y149D02*
X1824Y149D01*
X0Y148D02*
X7Y148D01*
X184Y148D02*
X187Y148D01*
X628Y148D02*
X635Y148D01*
X701Y148D02*
X708Y148D01*
X1817Y148D02*
X1824Y148D01*
X0Y147D02*
X7Y147D01*
X184Y147D02*
X187Y147D01*
X630Y147D02*
X635Y147D01*
X701Y147D02*
X707Y147D01*
X1817Y147D02*
X1824Y147D01*
X0Y146D02*
X7Y146D01*
X184Y146D02*
X187Y146D01*
X633Y146D02*
X635Y146D01*
X701Y146D02*
X704Y146D01*
X1817Y146D02*
X1824Y146D01*
X0Y145D02*
X7Y145D01*
X183Y145D02*
X187Y145D01*
X1817Y145D02*
X1824Y145D01*
X0Y144D02*
X7Y144D01*
X157Y144D02*
X187Y144D01*
X1817Y144D02*
X1824Y144D01*
X0Y143D02*
X7Y143D01*
X156Y143D02*
X186Y143D01*
X1817Y143D02*
X1824Y143D01*
X0Y142D02*
X7Y142D01*
X156Y142D02*
X185Y142D01*
X1817Y142D02*
X1824Y142D01*
X0Y141D02*
X7Y141D01*
X157Y141D02*
X183Y141D01*
X1817Y141D02*
X1824Y141D01*
X0Y140D02*
X7Y140D01*
X1817Y140D02*
X1824Y140D01*
X0Y139D02*
X7Y139D01*
X1817Y139D02*
X1824Y139D01*
X0Y138D02*
X7Y138D01*
X1817Y138D02*
X1824Y138D01*
X0Y137D02*
X7Y137D01*
X1817Y137D02*
X1824Y137D01*
X0Y136D02*
X7Y136D01*
X1817Y136D02*
X1824Y136D01*
X0Y135D02*
X7Y135D01*
X1817Y135D02*
X1824Y135D01*
X0Y134D02*
X7Y134D01*
X1817Y134D02*
X1824Y134D01*
X0Y133D02*
X7Y133D01*
X1817Y133D02*
X1824Y133D01*
X0Y132D02*
X7Y132D01*
X1817Y132D02*
X1824Y132D01*
X0Y131D02*
X7Y131D01*
X635Y131D02*
X652Y131D01*
X666Y131D02*
X667Y131D01*
X696Y131D02*
X710Y131D01*
X1817Y131D02*
X1824Y131D01*
X0Y130D02*
X7Y130D01*
X634Y130D02*
X652Y130D01*
X665Y130D02*
X668Y130D01*
X695Y130D02*
X711Y130D01*
X1817Y130D02*
X1824Y130D01*
X0Y129D02*
X7Y129D01*
X184Y129D02*
X184Y129D01*
X633Y129D02*
X652Y129D01*
X665Y129D02*
X668Y129D01*
X694Y129D02*
X712Y129D01*
X1817Y129D02*
X1824Y129D01*
X0Y128D02*
X7Y128D01*
X183Y128D02*
X185Y128D01*
X633Y128D02*
X652Y128D01*
X665Y128D02*
X668Y128D01*
X693Y128D02*
X712Y128D01*
X1817Y128D02*
X1824Y128D01*
X0Y127D02*
X7Y127D01*
X182Y127D02*
X186Y127D01*
X633Y127D02*
X636Y127D01*
X665Y127D02*
X668Y127D01*
X693Y127D02*
X697Y127D01*
X709Y127D02*
X712Y127D01*
X1817Y127D02*
X1824Y127D01*
X0Y126D02*
X7Y126D01*
X183Y126D02*
X186Y126D01*
X633Y126D02*
X636Y126D01*
X665Y126D02*
X668Y126D01*
X693Y126D02*
X696Y126D01*
X709Y126D02*
X712Y126D01*
X1817Y126D02*
X1824Y126D01*
X0Y125D02*
X7Y125D01*
X156Y125D02*
X173Y125D01*
X183Y125D02*
X187Y125D01*
X633Y125D02*
X636Y125D01*
X665Y125D02*
X668Y125D01*
X693Y125D02*
X696Y125D01*
X708Y125D02*
X712Y125D01*
X1817Y125D02*
X1824Y125D01*
X0Y124D02*
X7Y124D01*
X156Y124D02*
X173Y124D01*
X184Y124D02*
X187Y124D01*
X633Y124D02*
X636Y124D01*
X665Y124D02*
X668Y124D01*
X694Y124D02*
X695Y124D01*
X707Y124D02*
X712Y124D01*
X1817Y124D02*
X1824Y124D01*
X0Y123D02*
X7Y123D01*
X157Y123D02*
X173Y123D01*
X184Y123D02*
X187Y123D01*
X633Y123D02*
X636Y123D01*
X665Y123D02*
X668Y123D01*
X706Y123D02*
X711Y123D01*
X1817Y123D02*
X1824Y123D01*
X0Y122D02*
X7Y122D01*
X157Y122D02*
X173Y122D01*
X184Y122D02*
X187Y122D01*
X633Y122D02*
X636Y122D01*
X665Y122D02*
X668Y122D01*
X706Y122D02*
X710Y122D01*
X1817Y122D02*
X1824Y122D01*
X0Y121D02*
X7Y121D01*
X158Y121D02*
X173Y121D01*
X184Y121D02*
X187Y121D01*
X633Y121D02*
X636Y121D01*
X665Y121D02*
X668Y121D01*
X705Y121D02*
X709Y121D01*
X1817Y121D02*
X1824Y121D01*
X0Y120D02*
X7Y120D01*
X158Y120D02*
X159Y120D01*
X170Y120D02*
X173Y120D01*
X184Y120D02*
X187Y120D01*
X633Y120D02*
X636Y120D01*
X665Y120D02*
X668Y120D01*
X704Y120D02*
X709Y120D01*
X1817Y120D02*
X1824Y120D01*
X0Y119D02*
X7Y119D01*
X159Y119D02*
X159Y119D01*
X170Y119D02*
X173Y119D01*
X184Y119D02*
X187Y119D01*
X633Y119D02*
X636Y119D01*
X665Y119D02*
X668Y119D01*
X703Y119D02*
X708Y119D01*
X1817Y119D02*
X1824Y119D01*
X0Y118D02*
X7Y118D01*
X159Y118D02*
X159Y118D01*
X170Y118D02*
X173Y118D01*
X184Y118D02*
X187Y118D01*
X633Y118D02*
X636Y118D01*
X665Y118D02*
X668Y118D01*
X703Y118D02*
X707Y118D01*
X1817Y118D02*
X1824Y118D01*
X0Y117D02*
X7Y117D01*
X170Y117D02*
X173Y117D01*
X184Y117D02*
X187Y117D01*
X633Y117D02*
X650Y117D01*
X665Y117D02*
X668Y117D01*
X702Y117D02*
X706Y117D01*
X1817Y117D02*
X1824Y117D01*
X0Y116D02*
X7Y116D01*
X170Y116D02*
X173Y116D01*
X184Y116D02*
X187Y116D01*
X633Y116D02*
X651Y116D01*
X665Y116D02*
X668Y116D01*
X701Y116D02*
X705Y116D01*
X1817Y116D02*
X1824Y116D01*
X0Y115D02*
X7Y115D01*
X170Y115D02*
X173Y115D01*
X184Y115D02*
X187Y115D01*
X634Y115D02*
X652Y115D01*
X665Y115D02*
X668Y115D01*
X700Y115D02*
X705Y115D01*
X1817Y115D02*
X1824Y115D01*
X0Y114D02*
X7Y114D01*
X170Y114D02*
X173Y114D01*
X184Y114D02*
X187Y114D01*
X635Y114D02*
X652Y114D01*
X665Y114D02*
X668Y114D01*
X699Y114D02*
X704Y114D01*
X0Y113D02*
X7Y113D01*
X170Y113D02*
X173Y113D01*
X184Y113D02*
X187Y113D01*
X649Y113D02*
X652Y113D01*
X665Y113D02*
X668Y113D01*
X678Y113D02*
X680Y113D01*
X699Y113D02*
X703Y113D01*
X0Y112D02*
X7Y112D01*
X170Y112D02*
X187Y112D01*
X649Y112D02*
X653Y112D01*
X665Y112D02*
X668Y112D01*
X677Y112D02*
X680Y112D01*
X698Y112D02*
X702Y112D01*
X0Y111D02*
X7Y111D01*
X170Y111D02*
X187Y111D01*
X649Y111D02*
X653Y111D01*
X665Y111D02*
X668Y111D01*
X677Y111D02*
X680Y111D01*
X697Y111D02*
X702Y111D01*
X1817Y111D02*
X1824Y111D01*
X0Y110D02*
X7Y110D01*
X171Y110D02*
X186Y110D01*
X649Y110D02*
X653Y110D01*
X665Y110D02*
X668Y110D01*
X677Y110D02*
X680Y110D01*
X696Y110D02*
X701Y110D01*
X1817Y110D02*
X1824Y110D01*
X0Y109D02*
X7Y109D01*
X172Y109D02*
X185Y109D01*
X649Y109D02*
X653Y109D01*
X665Y109D02*
X668Y109D01*
X677Y109D02*
X680Y109D01*
X696Y109D02*
X700Y109D01*
X1817Y109D02*
X1824Y109D01*
X0Y108D02*
X7Y108D01*
X649Y108D02*
X653Y108D01*
X665Y108D02*
X668Y108D01*
X677Y108D02*
X680Y108D01*
X695Y108D02*
X699Y108D01*
X1817Y108D02*
X1824Y108D01*
X0Y107D02*
X7Y107D01*
X649Y107D02*
X653Y107D01*
X665Y107D02*
X668Y107D01*
X677Y107D02*
X680Y107D01*
X694Y107D02*
X698Y107D01*
X1817Y107D02*
X1824Y107D01*
X0Y106D02*
X7Y106D01*
X649Y106D02*
X653Y106D01*
X665Y106D02*
X668Y106D01*
X677Y106D02*
X680Y106D01*
X693Y106D02*
X698Y106D01*
X710Y106D02*
X712Y106D01*
X1817Y106D02*
X1824Y106D01*
X0Y105D02*
X7Y105D01*
X649Y105D02*
X653Y105D01*
X665Y105D02*
X668Y105D01*
X677Y105D02*
X680Y105D01*
X693Y105D02*
X697Y105D01*
X709Y105D02*
X712Y105D01*
X1817Y105D02*
X1824Y105D01*
X0Y104D02*
X7Y104D01*
X649Y104D02*
X653Y104D01*
X665Y104D02*
X669Y104D01*
X677Y104D02*
X680Y104D01*
X693Y104D02*
X696Y104D01*
X709Y104D02*
X712Y104D01*
X1817Y104D02*
X1824Y104D01*
X0Y103D02*
X7Y103D01*
X634Y103D02*
X653Y103D01*
X665Y103D02*
X680Y103D01*
X693Y103D02*
X712Y103D01*
X1817Y103D02*
X1824Y103D01*
X0Y102D02*
X7Y102D01*
X633Y102D02*
X653Y102D01*
X666Y102D02*
X679Y102D01*
X693Y102D02*
X712Y102D01*
X1817Y102D02*
X1824Y102D01*
X0Y101D02*
X7Y101D01*
X633Y101D02*
X653Y101D01*
X667Y101D02*
X679Y101D01*
X694Y101D02*
X711Y101D01*
X1817Y101D02*
X1824Y101D01*
X0Y100D02*
X7Y100D01*
X633Y100D02*
X653Y100D01*
X668Y100D02*
X677Y100D01*
X695Y100D02*
X710Y100D01*
X1817Y100D02*
X1824Y100D01*
X0Y99D02*
X7Y99D01*
X1817Y99D02*
X1824Y99D01*
X0Y98D02*
X7Y98D01*
X1817Y98D02*
X1824Y98D01*
X0Y97D02*
X7Y97D01*
X1817Y97D02*
X1824Y97D01*
X0Y96D02*
X7Y96D01*
X1817Y96D02*
X1824Y96D01*
X0Y95D02*
X7Y95D01*
X1817Y95D02*
X1824Y95D01*
X0Y94D02*
X7Y94D01*
X1817Y94D02*
X1824Y94D01*
X0Y93D02*
X7Y93D01*
X1817Y93D02*
X1824Y93D01*
X0Y92D02*
X7Y92D01*
X1817Y92D02*
X1824Y92D01*
X0Y91D02*
X7Y91D01*
X1817Y91D02*
X1824Y91D01*
X0Y90D02*
X7Y90D01*
X1817Y90D02*
X1824Y90D01*
X0Y89D02*
X7Y89D01*
X1817Y89D02*
X1824Y89D01*
X0Y88D02*
X7Y88D01*
X1817Y88D02*
X1824Y88D01*
X0Y87D02*
X7Y87D01*
X1817Y87D02*
X1824Y87D01*
X0Y86D02*
X7Y86D01*
X1817Y86D02*
X1824Y86D01*
X0Y85D02*
X7Y85D01*
X1817Y85D02*
X1824Y85D01*
X0Y84D02*
X7Y84D01*
X1817Y84D02*
X1824Y84D01*
X0Y83D02*
X7Y83D01*
X1817Y83D02*
X1824Y83D01*
X0Y82D02*
X7Y82D01*
X1817Y82D02*
X1824Y82D01*
X0Y81D02*
X7Y81D01*
X1817Y81D02*
X1824Y81D01*
X0Y80D02*
X7Y80D01*
X1817Y80D02*
X1824Y80D01*
X0Y79D02*
X7Y79D01*
X1817Y79D02*
X1824Y79D01*
X0Y78D02*
X7Y78D01*
X1817Y78D02*
X1824Y78D01*
X0Y77D02*
X7Y77D01*
X1438Y77D02*
X1453Y77D01*
X1565Y77D02*
X1585Y77D01*
X1817Y77D02*
X1824Y77D01*
X0Y76D02*
X7Y76D01*
X1438Y76D02*
X1454Y76D01*
X1562Y76D02*
X1586Y76D01*
X1817Y76D02*
X1824Y76D01*
X0Y75D02*
X7Y75D01*
X1438Y75D02*
X1455Y75D01*
X1560Y75D02*
X1586Y75D01*
X1817Y75D02*
X1824Y75D01*
X0Y74D02*
X7Y74D01*
X1438Y74D02*
X1455Y74D01*
X1559Y74D02*
X1586Y74D01*
X1817Y74D02*
X1824Y74D01*
X0Y73D02*
X7Y73D01*
X1438Y73D02*
X1455Y73D01*
X1558Y73D02*
X1586Y73D01*
X1817Y73D02*
X1824Y73D01*
X0Y72D02*
X7Y72D01*
X1438Y72D02*
X1454Y72D01*
X1558Y72D02*
X1586Y72D01*
X1817Y72D02*
X1824Y72D01*
X0Y71D02*
X7Y71D01*
X1438Y71D02*
X1451Y71D01*
X1557Y71D02*
X1586Y71D01*
X1817Y71D02*
X1824Y71D01*
X0Y70D02*
X7Y70D01*
X1438Y70D02*
X1443Y70D01*
X1557Y70D02*
X1563Y70D01*
X1581Y70D02*
X1586Y70D01*
X1817Y70D02*
X1824Y70D01*
X0Y69D02*
X7Y69D01*
X1438Y69D02*
X1443Y69D01*
X1557Y69D02*
X1562Y69D01*
X1581Y69D02*
X1586Y69D01*
X1817Y69D02*
X1824Y69D01*
X0Y68D02*
X7Y68D01*
X1438Y68D02*
X1443Y68D01*
X1557Y68D02*
X1562Y68D01*
X1581Y68D02*
X1586Y68D01*
X1817Y68D02*
X1824Y68D01*
X0Y67D02*
X7Y67D01*
X1438Y67D02*
X1443Y67D01*
X1557Y67D02*
X1562Y67D01*
X1581Y67D02*
X1586Y67D01*
X1817Y67D02*
X1824Y67D01*
X0Y66D02*
X7Y66D01*
X1438Y66D02*
X1443Y66D01*
X1557Y66D02*
X1562Y66D01*
X1581Y66D02*
X1586Y66D01*
X1817Y66D02*
X1824Y66D01*
X0Y65D02*
X7Y65D01*
X1438Y65D02*
X1443Y65D01*
X1557Y65D02*
X1562Y65D01*
X1581Y65D02*
X1586Y65D01*
X1817Y65D02*
X1824Y65D01*
X0Y64D02*
X7Y64D01*
X1438Y64D02*
X1443Y64D01*
X1471Y64D02*
X1473Y64D01*
X1495Y64D02*
X1497Y64D01*
X1522Y64D02*
X1533Y64D01*
X1557Y64D02*
X1562Y64D01*
X1581Y64D02*
X1586Y64D01*
X1817Y64D02*
X1824Y64D01*
X0Y63D02*
X7Y63D01*
X199Y63D02*
X203Y63D01*
X1438Y63D02*
X1443Y63D01*
X1470Y63D02*
X1474Y63D01*
X1494Y63D02*
X1498Y63D01*
X1520Y63D02*
X1536Y63D01*
X1557Y63D02*
X1562Y63D01*
X1581Y63D02*
X1586Y63D01*
X1817Y63D02*
X1824Y63D01*
X0Y62D02*
X7Y62D01*
X199Y62D02*
X204Y62D01*
X1438Y62D02*
X1443Y62D01*
X1470Y62D02*
X1474Y62D01*
X1494Y62D02*
X1498Y62D01*
X1518Y62D02*
X1537Y62D01*
X1557Y62D02*
X1564Y62D01*
X1581Y62D02*
X1586Y62D01*
X1817Y62D02*
X1824Y62D01*
X0Y61D02*
X7Y61D01*
X198Y61D02*
X204Y61D01*
X221Y61D02*
X225Y61D01*
X236Y61D02*
X241Y61D01*
X1438Y61D02*
X1443Y61D01*
X1469Y61D02*
X1475Y61D01*
X1493Y61D02*
X1499Y61D01*
X1517Y61D02*
X1538Y61D01*
X1557Y61D02*
X1586Y61D01*
X1817Y61D02*
X1824Y61D01*
X0Y60D02*
X7Y60D01*
X198Y60D02*
X204Y60D01*
X221Y60D02*
X226Y60D01*
X235Y60D02*
X241Y60D01*
X721Y60D02*
X722Y60D01*
X768Y60D02*
X781Y60D01*
X1438Y60D02*
X1443Y60D01*
X1469Y60D02*
X1475Y60D01*
X1493Y60D02*
X1499Y60D01*
X1516Y60D02*
X1539Y60D01*
X1558Y60D02*
X1586Y60D01*
X1817Y60D02*
X1824Y60D01*
X0Y59D02*
X7Y59D01*
X199Y59D02*
X204Y59D01*
X221Y59D02*
X227Y59D01*
X234Y59D02*
X241Y59D01*
X720Y59D02*
X723Y59D01*
X766Y59D02*
X783Y59D01*
X1438Y59D02*
X1443Y59D01*
X1469Y59D02*
X1475Y59D01*
X1493Y59D02*
X1499Y59D01*
X1515Y59D02*
X1540Y59D01*
X1559Y59D02*
X1586Y59D01*
X1817Y59D02*
X1824Y59D01*
X0Y58D02*
X7Y58D01*
X199Y58D02*
X203Y58D01*
X221Y58D02*
X227Y58D01*
X234Y58D02*
X241Y58D01*
X720Y58D02*
X723Y58D01*
X765Y58D02*
X784Y58D01*
X1438Y58D02*
X1443Y58D01*
X1469Y58D02*
X1475Y58D01*
X1493Y58D02*
X1499Y58D01*
X1514Y58D02*
X1523Y58D01*
X1533Y58D02*
X1541Y58D01*
X1560Y58D02*
X1586Y58D01*
X1817Y58D02*
X1824Y58D01*
X0Y57D02*
X7Y57D01*
X221Y57D02*
X228Y57D01*
X233Y57D02*
X241Y57D01*
X720Y57D02*
X723Y57D01*
X765Y57D02*
X784Y57D01*
X1438Y57D02*
X1443Y57D01*
X1469Y57D02*
X1475Y57D01*
X1493Y57D02*
X1499Y57D01*
X1514Y57D02*
X1521Y57D01*
X1534Y57D02*
X1541Y57D01*
X1561Y57D02*
X1586Y57D01*
X1817Y57D02*
X1824Y57D01*
X0Y56D02*
X7Y56D01*
X221Y56D02*
X229Y56D01*
X232Y56D02*
X241Y56D01*
X720Y56D02*
X723Y56D01*
X764Y56D02*
X768Y56D01*
X781Y56D02*
X784Y56D01*
X1438Y56D02*
X1443Y56D01*
X1469Y56D02*
X1475Y56D01*
X1493Y56D02*
X1499Y56D01*
X1513Y56D02*
X1520Y56D01*
X1536Y56D02*
X1542Y56D01*
X1563Y56D02*
X1586Y56D01*
X1817Y56D02*
X1824Y56D01*
X0Y55D02*
X7Y55D01*
X221Y55D02*
X230Y55D01*
X232Y55D02*
X241Y55D01*
X720Y55D02*
X723Y55D01*
X764Y55D02*
X767Y55D01*
X781Y55D02*
X784Y55D01*
X1438Y55D02*
X1443Y55D01*
X1470Y55D02*
X1475Y55D01*
X1493Y55D02*
X1498Y55D01*
X1513Y55D02*
X1519Y55D01*
X1536Y55D02*
X1542Y55D01*
X1569Y55D02*
X1575Y55D01*
X1581Y55D02*
X1586Y55D01*
X1817Y55D02*
X1824Y55D01*
X0Y54D02*
X7Y54D01*
X221Y54D02*
X224Y54D01*
X226Y54D02*
X235Y54D01*
X237Y54D02*
X241Y54D01*
X720Y54D02*
X723Y54D01*
X764Y54D02*
X767Y54D01*
X780Y54D02*
X784Y54D01*
X1438Y54D02*
X1443Y54D01*
X1470Y54D02*
X1476Y54D01*
X1492Y54D02*
X1498Y54D01*
X1513Y54D02*
X1518Y54D01*
X1537Y54D02*
X1542Y54D01*
X1568Y54D02*
X1575Y54D01*
X1581Y54D02*
X1586Y54D01*
X1817Y54D02*
X1824Y54D01*
X0Y53D02*
X7Y53D01*
X221Y53D02*
X224Y53D01*
X227Y53D02*
X235Y53D01*
X237Y53D02*
X241Y53D01*
X720Y53D02*
X723Y53D01*
X765Y53D02*
X766Y53D01*
X779Y53D02*
X783Y53D01*
X1438Y53D02*
X1443Y53D01*
X1471Y53D02*
X1476Y53D01*
X1492Y53D02*
X1498Y53D01*
X1513Y53D02*
X1518Y53D01*
X1537Y53D02*
X1542Y53D01*
X1568Y53D02*
X1574Y53D01*
X1581Y53D02*
X1586Y53D01*
X1817Y53D02*
X1824Y53D01*
X0Y52D02*
X7Y52D01*
X160Y52D02*
X172Y52D01*
X199Y52D02*
X207Y52D01*
X221Y52D02*
X224Y52D01*
X227Y52D02*
X234Y52D01*
X237Y52D02*
X241Y52D01*
X720Y52D02*
X723Y52D01*
X742Y52D02*
X746Y52D01*
X751Y52D02*
X753Y52D01*
X778Y52D02*
X783Y52D01*
X1438Y52D02*
X1443Y52D01*
X1471Y52D02*
X1477Y52D01*
X1491Y52D02*
X1497Y52D01*
X1513Y52D02*
X1518Y52D01*
X1537Y52D02*
X1542Y52D01*
X1567Y52D02*
X1573Y52D01*
X1581Y52D02*
X1586Y52D01*
X1817Y52D02*
X1824Y52D01*
X0Y51D02*
X7Y51D01*
X160Y51D02*
X174Y51D01*
X199Y51D02*
X208Y51D01*
X221Y51D02*
X224Y51D01*
X228Y51D02*
X233Y51D01*
X237Y51D02*
X241Y51D01*
X706Y51D02*
X708Y51D01*
X720Y51D02*
X723Y51D01*
X740Y51D02*
X747Y51D01*
X751Y51D02*
X753Y51D01*
X777Y51D02*
X782Y51D01*
X1427Y51D02*
X1429Y51D01*
X1438Y51D02*
X1443Y51D01*
X1471Y51D02*
X1477Y51D01*
X1491Y51D02*
X1497Y51D01*
X1513Y51D02*
X1518Y51D01*
X1537Y51D02*
X1542Y51D01*
X1567Y51D02*
X1573Y51D01*
X1581Y51D02*
X1586Y51D01*
X1817Y51D02*
X1824Y51D01*
X0Y50D02*
X7Y50D01*
X160Y50D02*
X175Y50D01*
X198Y50D02*
X208Y50D01*
X221Y50D02*
X224Y50D01*
X229Y50D02*
X232Y50D01*
X237Y50D02*
X241Y50D01*
X705Y50D02*
X709Y50D01*
X720Y50D02*
X723Y50D01*
X738Y50D02*
X754Y50D01*
X777Y50D02*
X781Y50D01*
X1426Y50D02*
X1430Y50D01*
X1438Y50D02*
X1443Y50D01*
X1472Y50D02*
X1477Y50D01*
X1491Y50D02*
X1496Y50D01*
X1513Y50D02*
X1518Y50D01*
X1537Y50D02*
X1542Y50D01*
X1566Y50D02*
X1572Y50D01*
X1581Y50D02*
X1586Y50D01*
X1817Y50D02*
X1824Y50D01*
X0Y49D02*
X7Y49D01*
X160Y49D02*
X176Y49D01*
X198Y49D02*
X207Y49D01*
X221Y49D02*
X224Y49D01*
X229Y49D02*
X232Y49D01*
X237Y49D02*
X241Y49D01*
X705Y49D02*
X710Y49D01*
X720Y49D02*
X723Y49D01*
X737Y49D02*
X754Y49D01*
X776Y49D02*
X780Y49D01*
X1426Y49D02*
X1431Y49D01*
X1438Y49D02*
X1443Y49D01*
X1472Y49D02*
X1478Y49D01*
X1490Y49D02*
X1496Y49D01*
X1513Y49D02*
X1518Y49D01*
X1537Y49D02*
X1542Y49D01*
X1566Y49D02*
X1572Y49D01*
X1581Y49D02*
X1586Y49D01*
X1817Y49D02*
X1824Y49D01*
X0Y48D02*
X7Y48D01*
X172Y48D02*
X177Y48D01*
X198Y48D02*
X202Y48D01*
X221Y48D02*
X224Y48D01*
X229Y48D02*
X232Y48D01*
X237Y48D02*
X241Y48D01*
X706Y48D02*
X711Y48D01*
X720Y48D02*
X723Y48D01*
X736Y48D02*
X742Y48D01*
X745Y48D02*
X754Y48D01*
X775Y48D02*
X780Y48D01*
X1426Y48D02*
X1431Y48D01*
X1438Y48D02*
X1443Y48D01*
X1473Y48D02*
X1478Y48D01*
X1490Y48D02*
X1495Y48D01*
X1513Y48D02*
X1542Y48D01*
X1565Y48D02*
X1571Y48D01*
X1581Y48D02*
X1586Y48D01*
X1817Y48D02*
X1824Y48D01*
X0Y47D02*
X7Y47D01*
X173Y47D02*
X178Y47D01*
X198Y47D02*
X202Y47D01*
X221Y47D02*
X224Y47D01*
X230Y47D02*
X231Y47D01*
X237Y47D02*
X241Y47D01*
X707Y47D02*
X712Y47D01*
X720Y47D02*
X723Y47D01*
X735Y47D02*
X741Y47D01*
X746Y47D02*
X754Y47D01*
X774Y47D02*
X779Y47D01*
X1426Y47D02*
X1431Y47D01*
X1438Y47D02*
X1443Y47D01*
X1473Y47D02*
X1479Y47D01*
X1489Y47D02*
X1495Y47D01*
X1513Y47D02*
X1542Y47D01*
X1564Y47D02*
X1570Y47D01*
X1581Y47D02*
X1586Y47D01*
X1817Y47D02*
X1824Y47D01*
X0Y46D02*
X7Y46D01*
X174Y46D02*
X179Y46D01*
X198Y46D02*
X202Y46D01*
X221Y46D02*
X224Y46D01*
X237Y46D02*
X241Y46D01*
X708Y46D02*
X714Y46D01*
X720Y46D02*
X723Y46D01*
X734Y46D02*
X739Y46D01*
X747Y46D02*
X754Y46D01*
X774Y46D02*
X778Y46D01*
X1426Y46D02*
X1431Y46D01*
X1438Y46D02*
X1443Y46D01*
X1474Y46D02*
X1479Y46D01*
X1489Y46D02*
X1494Y46D01*
X1513Y46D02*
X1542Y46D01*
X1564Y46D02*
X1570Y46D01*
X1581Y46D02*
X1586Y46D01*
X1817Y46D02*
X1824Y46D01*
X0Y45D02*
X7Y45D01*
X175Y45D02*
X179Y45D01*
X198Y45D02*
X202Y45D01*
X221Y45D02*
X224Y45D01*
X237Y45D02*
X241Y45D01*
X709Y45D02*
X715Y45D01*
X720Y45D02*
X723Y45D01*
X734Y45D02*
X738Y45D01*
X748Y45D02*
X754Y45D01*
X773Y45D02*
X777Y45D01*
X1426Y45D02*
X1431Y45D01*
X1438Y45D02*
X1443Y45D01*
X1474Y45D02*
X1480Y45D01*
X1488Y45D02*
X1494Y45D01*
X1513Y45D02*
X1542Y45D01*
X1563Y45D02*
X1569Y45D01*
X1581Y45D02*
X1586Y45D01*
X1817Y45D02*
X1824Y45D01*
X0Y44D02*
X7Y44D01*
X176Y44D02*
X180Y44D01*
X198Y44D02*
X202Y44D01*
X221Y44D02*
X224Y44D01*
X237Y44D02*
X241Y44D01*
X710Y44D02*
X716Y44D01*
X720Y44D02*
X723Y44D01*
X734Y44D02*
X737Y44D01*
X749Y44D02*
X754Y44D01*
X772Y44D02*
X776Y44D01*
X1426Y44D02*
X1431Y44D01*
X1438Y44D02*
X1443Y44D01*
X1474Y44D02*
X1480Y44D01*
X1488Y44D02*
X1494Y44D01*
X1514Y44D02*
X1542Y44D01*
X1563Y44D02*
X1569Y44D01*
X1581Y44D02*
X1586Y44D01*
X1817Y44D02*
X1824Y44D01*
X0Y43D02*
X7Y43D01*
X176Y43D02*
X180Y43D01*
X198Y43D02*
X202Y43D01*
X221Y43D02*
X224Y43D01*
X237Y43D02*
X241Y43D01*
X711Y43D02*
X717Y43D01*
X720Y43D02*
X723Y43D01*
X734Y43D02*
X737Y43D01*
X750Y43D02*
X754Y43D01*
X771Y43D02*
X776Y43D01*
X1426Y43D02*
X1431Y43D01*
X1438Y43D02*
X1443Y43D01*
X1475Y43D02*
X1481Y43D01*
X1488Y43D02*
X1493Y43D01*
X1515Y43D02*
X1542Y43D01*
X1562Y43D02*
X1568Y43D01*
X1581Y43D02*
X1586Y43D01*
X1817Y43D02*
X1824Y43D01*
X0Y42D02*
X7Y42D01*
X176Y42D02*
X180Y42D01*
X198Y42D02*
X202Y42D01*
X221Y42D02*
X224Y42D01*
X237Y42D02*
X241Y42D01*
X713Y42D02*
X718Y42D01*
X720Y42D02*
X723Y42D01*
X734Y42D02*
X737Y42D01*
X750Y42D02*
X754Y42D01*
X770Y42D02*
X775Y42D01*
X1426Y42D02*
X1431Y42D01*
X1438Y42D02*
X1443Y42D01*
X1475Y42D02*
X1481Y42D01*
X1487Y42D02*
X1493Y42D01*
X1537Y42D02*
X1542Y42D01*
X1561Y42D02*
X1568Y42D01*
X1581Y42D02*
X1586Y42D01*
X1817Y42D02*
X1824Y42D01*
X0Y41D02*
X7Y41D01*
X176Y41D02*
X180Y41D01*
X198Y41D02*
X202Y41D01*
X221Y41D02*
X224Y41D01*
X237Y41D02*
X241Y41D01*
X714Y41D02*
X723Y41D01*
X734Y41D02*
X737Y41D01*
X750Y41D02*
X754Y41D01*
X770Y41D02*
X774Y41D01*
X1426Y41D02*
X1431Y41D01*
X1438Y41D02*
X1443Y41D01*
X1476Y41D02*
X1481Y41D01*
X1487Y41D02*
X1492Y41D01*
X1537Y41D02*
X1542Y41D01*
X1561Y41D02*
X1567Y41D01*
X1581Y41D02*
X1586Y41D01*
X1817Y41D02*
X1824Y41D01*
X0Y40D02*
X7Y40D01*
X176Y40D02*
X180Y40D01*
X198Y40D02*
X202Y40D01*
X221Y40D02*
X224Y40D01*
X237Y40D02*
X241Y40D01*
X714Y40D02*
X723Y40D01*
X734Y40D02*
X737Y40D01*
X750Y40D02*
X754Y40D01*
X769Y40D02*
X773Y40D01*
X1426Y40D02*
X1431Y40D01*
X1438Y40D02*
X1443Y40D01*
X1476Y40D02*
X1482Y40D01*
X1486Y40D02*
X1492Y40D01*
X1537Y40D02*
X1542Y40D01*
X1560Y40D02*
X1566Y40D01*
X1581Y40D02*
X1586Y40D01*
X1817Y40D02*
X1824Y40D01*
X0Y39D02*
X7Y39D01*
X176Y39D02*
X180Y39D01*
X198Y39D02*
X202Y39D01*
X221Y39D02*
X224Y39D01*
X237Y39D02*
X241Y39D01*
X713Y39D02*
X723Y39D01*
X734Y39D02*
X737Y39D01*
X750Y39D02*
X754Y39D01*
X768Y39D02*
X773Y39D01*
X1426Y39D02*
X1431Y39D01*
X1438Y39D02*
X1443Y39D01*
X1477Y39D02*
X1482Y39D01*
X1486Y39D02*
X1491Y39D01*
X1536Y39D02*
X1542Y39D01*
X1560Y39D02*
X1566Y39D01*
X1581Y39D02*
X1586Y39D01*
X1817Y39D02*
X1824Y39D01*
X0Y38D02*
X7Y38D01*
X176Y38D02*
X180Y38D01*
X198Y38D02*
X202Y38D01*
X221Y38D02*
X224Y38D01*
X237Y38D02*
X241Y38D01*
X712Y38D02*
X723Y38D01*
X734Y38D02*
X737Y38D01*
X750Y38D02*
X754Y38D01*
X767Y38D02*
X772Y38D01*
X1426Y38D02*
X1431Y38D01*
X1438Y38D02*
X1443Y38D01*
X1477Y38D02*
X1483Y38D01*
X1485Y38D02*
X1491Y38D01*
X1535Y38D02*
X1542Y38D01*
X1559Y38D02*
X1565Y38D01*
X1581Y38D02*
X1586Y38D01*
X1817Y38D02*
X1824Y38D01*
X0Y37D02*
X7Y37D01*
X176Y37D02*
X179Y37D01*
X198Y37D02*
X202Y37D01*
X221Y37D02*
X224Y37D01*
X237Y37D02*
X241Y37D01*
X711Y37D02*
X716Y37D01*
X718Y37D02*
X723Y37D01*
X734Y37D02*
X737Y37D01*
X750Y37D02*
X754Y37D01*
X767Y37D02*
X771Y37D01*
X1426Y37D02*
X1431Y37D01*
X1438Y37D02*
X1443Y37D01*
X1478Y37D02*
X1483Y37D01*
X1485Y37D02*
X1491Y37D01*
X1534Y37D02*
X1541Y37D01*
X1559Y37D02*
X1565Y37D01*
X1581Y37D02*
X1586Y37D01*
X1817Y37D02*
X1824Y37D01*
X0Y36D02*
X7Y36D01*
X175Y36D02*
X179Y36D01*
X198Y36D02*
X202Y36D01*
X221Y36D02*
X224Y36D01*
X237Y36D02*
X241Y36D01*
X709Y36D02*
X715Y36D01*
X720Y36D02*
X723Y36D01*
X734Y36D02*
X737Y36D01*
X750Y36D02*
X754Y36D01*
X766Y36D02*
X770Y36D01*
X1426Y36D02*
X1451Y36D01*
X1478Y36D02*
X1490Y36D01*
X1517Y36D02*
X1541Y36D01*
X1558Y36D02*
X1564Y36D01*
X1581Y36D02*
X1586Y36D01*
X1817Y36D02*
X1824Y36D01*
X0Y35D02*
X7Y35D01*
X174Y35D02*
X179Y35D01*
X198Y35D02*
X202Y35D01*
X221Y35D02*
X224Y35D01*
X237Y35D02*
X241Y35D01*
X708Y35D02*
X714Y35D01*
X720Y35D02*
X723Y35D01*
X734Y35D02*
X737Y35D01*
X750Y35D02*
X754Y35D01*
X765Y35D02*
X769Y35D01*
X782Y35D02*
X783Y35D01*
X1426Y35D02*
X1454Y35D01*
X1478Y35D02*
X1490Y35D01*
X1514Y35D02*
X1540Y35D01*
X1557Y35D02*
X1563Y35D01*
X1581Y35D02*
X1586Y35D01*
X1817Y35D02*
X1824Y35D01*
X0Y34D02*
X7Y34D01*
X173Y34D02*
X178Y34D01*
X198Y34D02*
X202Y34D01*
X221Y34D02*
X224Y34D01*
X237Y34D02*
X241Y34D01*
X707Y34D02*
X713Y34D01*
X720Y34D02*
X723Y34D01*
X734Y34D02*
X738Y34D01*
X749Y34D02*
X754Y34D01*
X764Y34D02*
X769Y34D01*
X781Y34D02*
X784Y34D01*
X1426Y34D02*
X1455Y34D01*
X1479Y34D02*
X1489Y34D01*
X1513Y34D02*
X1539Y34D01*
X1557Y34D02*
X1563Y34D01*
X1581Y34D02*
X1586Y34D01*
X1817Y34D02*
X1824Y34D01*
X0Y33D02*
X7Y33D01*
X171Y33D02*
X177Y33D01*
X198Y33D02*
X202Y33D01*
X221Y33D02*
X224Y33D01*
X237Y33D02*
X241Y33D01*
X706Y33D02*
X712Y33D01*
X720Y33D02*
X723Y33D01*
X734Y33D02*
X739Y33D01*
X748Y33D02*
X754Y33D01*
X764Y33D02*
X768Y33D01*
X781Y33D02*
X784Y33D01*
X1426Y33D02*
X1455Y33D01*
X1479Y33D02*
X1489Y33D01*
X1513Y33D02*
X1538Y33D01*
X1557Y33D02*
X1562Y33D01*
X1581Y33D02*
X1586Y33D01*
X1817Y33D02*
X1824Y33D01*
X0Y32D02*
X7Y32D01*
X160Y32D02*
X176Y32D01*
X193Y32D02*
X208Y32D01*
X221Y32D02*
X224Y32D01*
X237Y32D02*
X241Y32D01*
X705Y32D02*
X710Y32D01*
X720Y32D02*
X723Y32D01*
X735Y32D02*
X740Y32D01*
X747Y32D02*
X754Y32D01*
X764Y32D02*
X768Y32D01*
X780Y32D02*
X784Y32D01*
X1426Y32D02*
X1455Y32D01*
X1480Y32D02*
X1488Y32D01*
X1513Y32D02*
X1537Y32D01*
X1557Y32D02*
X1562Y32D01*
X1581Y32D02*
X1586Y32D01*
X1817Y32D02*
X1824Y32D01*
X0Y31D02*
X7Y31D01*
X160Y31D02*
X175Y31D01*
X192Y31D02*
X208Y31D01*
X221Y31D02*
X224Y31D01*
X237Y31D02*
X241Y31D01*
X704Y31D02*
X709Y31D01*
X720Y31D02*
X723Y31D01*
X736Y31D02*
X742Y31D01*
X745Y31D02*
X754Y31D01*
X764Y31D02*
X784Y31D01*
X1427Y31D02*
X1454Y31D01*
X1480Y31D02*
X1488Y31D01*
X1514Y31D02*
X1535Y31D01*
X1557Y31D02*
X1561Y31D01*
X1581Y31D02*
X1585Y31D01*
X1817Y31D02*
X1824Y31D01*
X0Y30D02*
X7Y30D01*
X160Y30D02*
X174Y30D01*
X192Y30D02*
X208Y30D01*
X221Y30D02*
X224Y30D01*
X238Y30D02*
X240Y30D01*
X703Y30D02*
X708Y30D01*
X720Y30D02*
X723Y30D01*
X737Y30D02*
X754Y30D01*
X765Y30D02*
X783Y30D01*
X1428Y30D02*
X1453Y30D01*
X1482Y30D02*
X1486Y30D01*
X1516Y30D02*
X1532Y30D01*
X1559Y30D02*
X1559Y30D01*
X1583Y30D02*
X1583Y30D01*
X1817Y30D02*
X1824Y30D01*
X0Y29D02*
X7Y29D01*
X160Y29D02*
X172Y29D01*
X193Y29D02*
X207Y29D01*
X221Y29D02*
X223Y29D01*
X238Y29D02*
X240Y29D01*
X703Y29D02*
X707Y29D01*
X720Y29D02*
X723Y29D01*
X738Y29D02*
X754Y29D01*
X765Y29D02*
X782Y29D01*
X1817Y29D02*
X1824Y29D01*
X0Y28D02*
X7Y28D01*
X704Y28D02*
X706Y28D01*
X721Y28D02*
X722Y28D01*
X740Y28D02*
X748Y28D01*
X750Y28D02*
X754Y28D01*
X767Y28D02*
X781Y28D01*
X1817Y28D02*
X1824Y28D01*
X0Y27D02*
X7Y27D01*
X741Y27D02*
X746Y27D01*
X750Y27D02*
X754Y27D01*
X1817Y27D02*
X1824Y27D01*
X0Y26D02*
X7Y26D01*
X750Y26D02*
X754Y26D01*
X1817Y26D02*
X1824Y26D01*
X0Y25D02*
X7Y25D01*
X750Y25D02*
X754Y25D01*
X1817Y25D02*
X1824Y25D01*
X0Y24D02*
X7Y24D01*
X750Y24D02*
X754Y24D01*
X1817Y24D02*
X1824Y24D01*
X0Y23D02*
X7Y23D01*
X750Y23D02*
X754Y23D01*
X1817Y23D02*
X1824Y23D01*
X0Y22D02*
X7Y22D01*
X750Y22D02*
X754Y22D01*
X1817Y22D02*
X1824Y22D01*
X0Y21D02*
X7Y21D01*
X750Y21D02*
X754Y21D01*
X1817Y21D02*
X1824Y21D01*
X0Y20D02*
X7Y20D01*
X751Y20D02*
X754Y20D01*
X1817Y20D02*
X1824Y20D01*
X0Y19D02*
X7Y19D01*
X751Y19D02*
X753Y19D01*
X1817Y19D02*
X1824Y19D01*
X0Y18D02*
X7Y18D01*
X1817Y18D02*
X1824Y18D01*
X0Y17D02*
X7Y17D01*
X1817Y17D02*
X1824Y17D01*
X0Y16D02*
X7Y16D01*
X1817Y16D02*
X1824Y16D01*
X0Y15D02*
X7Y15D01*
X1817Y15D02*
X1824Y15D01*
X0Y14D02*
X7Y14D01*
X1817Y14D02*
X1824Y14D01*
X0Y13D02*
X7Y13D01*
X1817Y13D02*
X1824Y13D01*
X0Y12D02*
X7Y12D01*
X1817Y12D02*
X1824Y12D01*
X0Y11D02*
X7Y11D01*
X1817Y11D02*
X1824Y11D01*
X0Y10D02*
X7Y10D01*
X1817Y10D02*
X1824Y10D01*
X0Y9D02*
X7Y9D01*
X283Y9D02*
X284Y9D01*
X516Y9D02*
X517Y9D01*
X834Y9D02*
X834Y9D01*
X1067Y9D02*
X1067Y9D01*
X1817Y9D02*
X1824Y9D01*
X0Y8D02*
X1824Y8D01*
X0Y7D02*
X1824Y7D01*
X0Y6D02*
X1824Y6D01*
X0Y5D02*
X1824Y5D01*
X0Y4D02*
X1824Y4D01*
X0Y3D02*
X1824Y3D01*
X0Y2D02*
X1824Y2D01*
X0Y1D02*
X1824Y1D01*
X282Y0D02*
X285Y0D01*
X515Y0D02*
X518Y0D01*
X833Y0D02*
X835Y0D01*
X1066Y0D02*
X1068Y0D01*
X282Y-1D02*
X285Y-1D01*
X515Y-1D02*
X518Y-1D01*
X833Y-1D02*
X835Y-1D01*
X1066Y-1D02*
X1068Y-1D01*
D02*
G04 End of Silk0*
M02*