G04 MADE WITH FRITZING*
G04 WWW.FRITZING.ORG*
G04 DOUBLE SIDED*
G04 HOLES PLATED*
G04 CONTOUR ON CENTER OF CONTOUR VECTOR*
%ASAXBY*%
%FSLAX23Y23*%
%MOIN*%
%OFA0B0*%
%SFA1.0B1.0*%
%ADD10C,0.003528*%
%ADD11R,0.001000X0.001000*%
%LNSILK0*%
G90*
G70*
G54D10*
X2231Y384D02*
X2231Y344D01*
D02*
X2520Y161D02*
X2247Y161D01*
D02*
X1500Y188D02*
X1500Y462D01*
D02*
X1447Y477D02*
X1408Y477D01*
D02*
X1225Y188D02*
X1225Y462D01*
D02*
X600Y188D02*
X600Y462D01*
D02*
X547Y477D02*
X508Y477D01*
D02*
X414Y477D02*
X370Y477D01*
D02*
X325Y188D02*
X325Y462D01*
X2620Y437D02*
X2701Y437D01*
X2701Y161D01*
X2620Y161D01*
D02*
X1500Y88D02*
X1500Y8D01*
X1225Y8D01*
X1225Y88D01*
D02*
X600Y88D02*
X600Y8D01*
X325Y8D01*
X325Y88D01*
D02*
G54D11*
X0Y678D02*
X2715Y678D01*
X0Y677D02*
X2715Y677D01*
X0Y676D02*
X2715Y676D01*
X0Y675D02*
X2715Y675D01*
X0Y674D02*
X2715Y674D01*
X0Y673D02*
X2715Y673D01*
X0Y672D02*
X2715Y672D01*
X0Y671D02*
X2715Y671D01*
X0Y670D02*
X7Y670D01*
X2708Y670D02*
X2715Y670D01*
X0Y669D02*
X7Y669D01*
X2708Y669D02*
X2715Y669D01*
X0Y668D02*
X7Y668D01*
X2708Y668D02*
X2715Y668D01*
X0Y667D02*
X7Y667D01*
X2708Y667D02*
X2715Y667D01*
X0Y666D02*
X7Y666D01*
X2708Y666D02*
X2715Y666D01*
X0Y665D02*
X7Y665D01*
X2708Y665D02*
X2715Y665D01*
X0Y664D02*
X7Y664D01*
X2708Y664D02*
X2715Y664D01*
X0Y663D02*
X7Y663D01*
X2708Y663D02*
X2715Y663D01*
X0Y662D02*
X7Y662D01*
X2708Y662D02*
X2715Y662D01*
X0Y661D02*
X7Y661D01*
X2708Y661D02*
X2715Y661D01*
X0Y660D02*
X7Y660D01*
X2708Y660D02*
X2715Y660D01*
X0Y659D02*
X7Y659D01*
X2708Y659D02*
X2715Y659D01*
X0Y658D02*
X7Y658D01*
X2708Y658D02*
X2715Y658D01*
X0Y657D02*
X7Y657D01*
X2708Y657D02*
X2715Y657D01*
X0Y656D02*
X7Y656D01*
X2708Y656D02*
X2715Y656D01*
X0Y655D02*
X7Y655D01*
X2708Y655D02*
X2715Y655D01*
X0Y654D02*
X7Y654D01*
X2708Y654D02*
X2715Y654D01*
X0Y653D02*
X7Y653D01*
X2708Y653D02*
X2715Y653D01*
X0Y652D02*
X7Y652D01*
X2708Y652D02*
X2715Y652D01*
X0Y651D02*
X7Y651D01*
X2708Y651D02*
X2715Y651D01*
X0Y650D02*
X7Y650D01*
X2708Y650D02*
X2715Y650D01*
X0Y649D02*
X7Y649D01*
X2708Y649D02*
X2715Y649D01*
X0Y648D02*
X7Y648D01*
X2708Y648D02*
X2715Y648D01*
X0Y647D02*
X7Y647D01*
X2573Y647D02*
X2595Y647D01*
X2626Y647D02*
X2658Y647D01*
X2708Y647D02*
X2715Y647D01*
X0Y646D02*
X7Y646D01*
X732Y646D02*
X735Y646D01*
X757Y646D02*
X761Y646D01*
X2573Y646D02*
X2596Y646D01*
X2624Y646D02*
X2658Y646D01*
X2708Y646D02*
X2715Y646D01*
X0Y645D02*
X7Y645D01*
X731Y645D02*
X736Y645D01*
X757Y645D02*
X761Y645D01*
X2573Y645D02*
X2597Y645D01*
X2622Y645D02*
X2658Y645D01*
X2708Y645D02*
X2715Y645D01*
X0Y644D02*
X7Y644D01*
X731Y644D02*
X736Y644D01*
X756Y644D02*
X762Y644D01*
X2573Y644D02*
X2597Y644D01*
X2621Y644D02*
X2658Y644D01*
X2708Y644D02*
X2715Y644D01*
X0Y643D02*
X7Y643D01*
X731Y643D02*
X736Y643D01*
X756Y643D02*
X762Y643D01*
X2573Y643D02*
X2597Y643D01*
X2620Y643D02*
X2658Y643D01*
X2708Y643D02*
X2715Y643D01*
X0Y642D02*
X7Y642D01*
X731Y642D02*
X736Y642D01*
X756Y642D02*
X762Y642D01*
X2573Y642D02*
X2597Y642D01*
X2619Y642D02*
X2658Y642D01*
X2708Y642D02*
X2715Y642D01*
X0Y641D02*
X7Y641D01*
X714Y641D02*
X716Y641D01*
X731Y641D02*
X736Y641D01*
X756Y641D02*
X762Y641D01*
X2573Y641D02*
X2596Y641D01*
X2619Y641D02*
X2658Y641D01*
X2708Y641D02*
X2715Y641D01*
X0Y640D02*
X7Y640D01*
X713Y640D02*
X717Y640D01*
X731Y640D02*
X736Y640D01*
X756Y640D02*
X762Y640D01*
X2573Y640D02*
X2595Y640D01*
X2618Y640D02*
X2658Y640D01*
X2708Y640D02*
X2715Y640D01*
X0Y639D02*
X7Y639D01*
X712Y639D02*
X717Y639D01*
X731Y639D02*
X736Y639D01*
X756Y639D02*
X762Y639D01*
X2573Y639D02*
X2581Y639D01*
X2618Y639D02*
X2629Y639D01*
X2650Y639D02*
X2658Y639D01*
X2708Y639D02*
X2715Y639D01*
X0Y638D02*
X7Y638D01*
X712Y638D02*
X718Y638D01*
X731Y638D02*
X736Y638D01*
X756Y638D02*
X762Y638D01*
X2573Y638D02*
X2580Y638D01*
X2617Y638D02*
X2626Y638D01*
X2651Y638D02*
X2658Y638D01*
X2708Y638D02*
X2715Y638D01*
X0Y637D02*
X7Y637D01*
X712Y637D02*
X718Y637D01*
X731Y637D02*
X736Y637D01*
X756Y637D02*
X762Y637D01*
X2573Y637D02*
X2580Y637D01*
X2617Y637D02*
X2625Y637D01*
X2651Y637D02*
X2658Y637D01*
X2708Y637D02*
X2715Y637D01*
X0Y636D02*
X7Y636D01*
X712Y636D02*
X718Y636D01*
X731Y636D02*
X736Y636D01*
X756Y636D02*
X762Y636D01*
X2573Y636D02*
X2580Y636D01*
X2617Y636D02*
X2625Y636D01*
X2651Y636D02*
X2658Y636D01*
X2708Y636D02*
X2715Y636D01*
X0Y635D02*
X7Y635D01*
X712Y635D02*
X718Y635D01*
X731Y635D02*
X736Y635D01*
X756Y635D02*
X762Y635D01*
X2573Y635D02*
X2580Y635D01*
X2617Y635D02*
X2625Y635D01*
X2651Y635D02*
X2658Y635D01*
X2708Y635D02*
X2715Y635D01*
X0Y634D02*
X7Y634D01*
X712Y634D02*
X718Y634D01*
X731Y634D02*
X736Y634D01*
X756Y634D02*
X762Y634D01*
X2573Y634D02*
X2580Y634D01*
X2617Y634D02*
X2625Y634D01*
X2651Y634D02*
X2658Y634D01*
X2708Y634D02*
X2715Y634D01*
X0Y633D02*
X7Y633D01*
X712Y633D02*
X718Y633D01*
X731Y633D02*
X736Y633D01*
X756Y633D02*
X762Y633D01*
X2573Y633D02*
X2580Y633D01*
X2617Y633D02*
X2625Y633D01*
X2651Y633D02*
X2658Y633D01*
X2708Y633D02*
X2715Y633D01*
X0Y632D02*
X7Y632D01*
X712Y632D02*
X718Y632D01*
X731Y632D02*
X736Y632D01*
X756Y632D02*
X762Y632D01*
X2573Y632D02*
X2580Y632D01*
X2617Y632D02*
X2625Y632D01*
X2651Y632D02*
X2658Y632D01*
X2708Y632D02*
X2715Y632D01*
X0Y631D02*
X7Y631D01*
X712Y631D02*
X718Y631D01*
X731Y631D02*
X736Y631D01*
X756Y631D02*
X762Y631D01*
X2573Y631D02*
X2580Y631D01*
X2617Y631D02*
X2625Y631D01*
X2651Y631D02*
X2658Y631D01*
X2708Y631D02*
X2715Y631D01*
X0Y630D02*
X7Y630D01*
X712Y630D02*
X718Y630D01*
X731Y630D02*
X736Y630D01*
X756Y630D02*
X762Y630D01*
X2573Y630D02*
X2580Y630D01*
X2617Y630D02*
X2625Y630D01*
X2651Y630D02*
X2658Y630D01*
X2708Y630D02*
X2715Y630D01*
X0Y629D02*
X7Y629D01*
X712Y629D02*
X718Y629D01*
X731Y629D02*
X736Y629D01*
X756Y629D02*
X762Y629D01*
X2573Y629D02*
X2580Y629D01*
X2617Y629D02*
X2625Y629D01*
X2651Y629D02*
X2658Y629D01*
X2708Y629D02*
X2715Y629D01*
X0Y628D02*
X7Y628D01*
X712Y628D02*
X718Y628D01*
X731Y628D02*
X736Y628D01*
X756Y628D02*
X762Y628D01*
X2573Y628D02*
X2580Y628D01*
X2617Y628D02*
X2625Y628D01*
X2651Y628D02*
X2658Y628D01*
X2708Y628D02*
X2715Y628D01*
X0Y627D02*
X7Y627D01*
X712Y627D02*
X718Y627D01*
X731Y627D02*
X736Y627D01*
X756Y627D02*
X762Y627D01*
X2573Y627D02*
X2580Y627D01*
X2617Y627D02*
X2626Y627D01*
X2651Y627D02*
X2658Y627D01*
X2708Y627D02*
X2715Y627D01*
X0Y626D02*
X7Y626D01*
X712Y626D02*
X718Y626D01*
X731Y626D02*
X736Y626D01*
X756Y626D02*
X762Y626D01*
X2573Y626D02*
X2580Y626D01*
X2618Y626D02*
X2629Y626D01*
X2650Y626D02*
X2658Y626D01*
X2708Y626D02*
X2715Y626D01*
X0Y625D02*
X7Y625D01*
X712Y625D02*
X718Y625D01*
X731Y625D02*
X736Y625D01*
X756Y625D02*
X762Y625D01*
X2573Y625D02*
X2580Y625D01*
X2618Y625D02*
X2658Y625D01*
X2708Y625D02*
X2715Y625D01*
X0Y624D02*
X7Y624D01*
X712Y624D02*
X718Y624D01*
X731Y624D02*
X736Y624D01*
X756Y624D02*
X762Y624D01*
X2573Y624D02*
X2580Y624D01*
X2619Y624D02*
X2658Y624D01*
X2708Y624D02*
X2715Y624D01*
X0Y623D02*
X7Y623D01*
X712Y623D02*
X718Y623D01*
X731Y623D02*
X736Y623D01*
X756Y623D02*
X762Y623D01*
X2573Y623D02*
X2580Y623D01*
X2619Y623D02*
X2658Y623D01*
X2708Y623D02*
X2715Y623D01*
X0Y622D02*
X7Y622D01*
X712Y622D02*
X718Y622D01*
X731Y622D02*
X736Y622D01*
X756Y622D02*
X762Y622D01*
X1722Y622D02*
X1745Y622D01*
X1771Y622D02*
X1774Y622D01*
X2573Y622D02*
X2580Y622D01*
X2620Y622D02*
X2658Y622D01*
X2708Y622D02*
X2715Y622D01*
X0Y621D02*
X7Y621D01*
X712Y621D02*
X718Y621D01*
X731Y621D02*
X736Y621D01*
X756Y621D02*
X762Y621D01*
X1722Y621D02*
X1745Y621D01*
X1771Y621D02*
X1775Y621D01*
X2573Y621D02*
X2580Y621D01*
X2621Y621D02*
X2658Y621D01*
X2708Y621D02*
X2715Y621D01*
X0Y620D02*
X7Y620D01*
X712Y620D02*
X718Y620D01*
X731Y620D02*
X736Y620D01*
X756Y620D02*
X762Y620D01*
X1721Y620D02*
X1745Y620D01*
X1770Y620D02*
X1775Y620D01*
X2573Y620D02*
X2580Y620D01*
X2622Y620D02*
X2658Y620D01*
X2708Y620D02*
X2715Y620D01*
X0Y619D02*
X7Y619D01*
X710Y619D02*
X736Y619D01*
X756Y619D02*
X762Y619D01*
X776Y619D02*
X780Y619D01*
X1721Y619D02*
X1745Y619D01*
X1770Y619D02*
X1775Y619D01*
X2573Y619D02*
X2580Y619D01*
X2624Y619D02*
X2658Y619D01*
X2708Y619D02*
X2715Y619D01*
X0Y618D02*
X7Y618D01*
X709Y618D02*
X736Y618D01*
X756Y618D02*
X762Y618D01*
X776Y618D02*
X780Y618D01*
X1722Y618D02*
X1745Y618D01*
X1770Y618D02*
X1775Y618D01*
X2573Y618D02*
X2580Y618D01*
X2626Y618D02*
X2658Y618D01*
X2708Y618D02*
X2715Y618D01*
X0Y617D02*
X7Y617D01*
X709Y617D02*
X736Y617D01*
X756Y617D02*
X762Y617D01*
X775Y617D02*
X781Y617D01*
X1722Y617D02*
X1745Y617D01*
X1770Y617D02*
X1775Y617D01*
X2573Y617D02*
X2580Y617D01*
X2634Y617D02*
X2644Y617D01*
X2651Y617D02*
X2658Y617D01*
X2708Y617D02*
X2715Y617D01*
X0Y616D02*
X7Y616D01*
X709Y616D02*
X736Y616D01*
X756Y616D02*
X762Y616D01*
X775Y616D02*
X781Y616D01*
X1740Y616D02*
X1745Y616D01*
X1770Y616D02*
X1775Y616D01*
X2573Y616D02*
X2580Y616D01*
X2634Y616D02*
X2643Y616D01*
X2651Y616D02*
X2658Y616D01*
X2708Y616D02*
X2715Y616D01*
X0Y615D02*
X7Y615D01*
X709Y615D02*
X736Y615D01*
X756Y615D02*
X762Y615D01*
X775Y615D02*
X781Y615D01*
X1740Y615D02*
X1745Y615D01*
X1770Y615D02*
X1775Y615D01*
X2573Y615D02*
X2580Y615D01*
X2633Y615D02*
X2642Y615D01*
X2651Y615D02*
X2658Y615D01*
X2708Y615D02*
X2715Y615D01*
X0Y614D02*
X7Y614D01*
X711Y614D02*
X736Y614D01*
X756Y614D02*
X762Y614D01*
X775Y614D02*
X781Y614D01*
X1740Y614D02*
X1745Y614D01*
X1770Y614D02*
X1775Y614D01*
X2573Y614D02*
X2580Y614D01*
X2633Y614D02*
X2642Y614D01*
X2651Y614D02*
X2658Y614D01*
X2708Y614D02*
X2715Y614D01*
X0Y613D02*
X7Y613D01*
X712Y613D02*
X718Y613D01*
X756Y613D02*
X762Y613D01*
X775Y613D02*
X781Y613D01*
X1740Y613D02*
X1745Y613D01*
X1770Y613D02*
X1775Y613D01*
X2573Y613D02*
X2580Y613D01*
X2632Y613D02*
X2641Y613D01*
X2651Y613D02*
X2658Y613D01*
X2708Y613D02*
X2715Y613D01*
X0Y612D02*
X7Y612D01*
X712Y612D02*
X718Y612D01*
X756Y612D02*
X762Y612D01*
X775Y612D02*
X781Y612D01*
X1740Y612D02*
X1745Y612D01*
X1770Y612D02*
X1775Y612D01*
X2573Y612D02*
X2580Y612D01*
X2632Y612D02*
X2641Y612D01*
X2651Y612D02*
X2658Y612D01*
X2708Y612D02*
X2715Y612D01*
X0Y611D02*
X7Y611D01*
X712Y611D02*
X718Y611D01*
X756Y611D02*
X762Y611D01*
X775Y611D02*
X781Y611D01*
X1740Y611D02*
X1745Y611D01*
X1770Y611D02*
X1775Y611D01*
X2558Y611D02*
X2561Y611D01*
X2573Y611D02*
X2580Y611D01*
X2631Y611D02*
X2640Y611D01*
X2651Y611D02*
X2658Y611D01*
X2708Y611D02*
X2715Y611D01*
X0Y610D02*
X7Y610D01*
X712Y610D02*
X718Y610D01*
X756Y610D02*
X762Y610D01*
X775Y610D02*
X781Y610D01*
X1740Y610D02*
X1745Y610D01*
X1770Y610D02*
X1775Y610D01*
X2557Y610D02*
X2562Y610D01*
X2573Y610D02*
X2580Y610D01*
X2630Y610D02*
X2639Y610D01*
X2651Y610D02*
X2658Y610D01*
X2708Y610D02*
X2715Y610D01*
X0Y609D02*
X7Y609D01*
X712Y609D02*
X718Y609D01*
X756Y609D02*
X762Y609D01*
X775Y609D02*
X781Y609D01*
X1740Y609D02*
X1745Y609D01*
X1770Y609D02*
X1775Y609D01*
X2556Y609D02*
X2563Y609D01*
X2573Y609D02*
X2580Y609D01*
X2630Y609D02*
X2639Y609D01*
X2651Y609D02*
X2658Y609D01*
X2708Y609D02*
X2715Y609D01*
X0Y608D02*
X7Y608D01*
X712Y608D02*
X718Y608D01*
X756Y608D02*
X762Y608D01*
X775Y608D02*
X781Y608D01*
X1740Y608D02*
X1745Y608D01*
X1770Y608D02*
X1775Y608D01*
X2556Y608D02*
X2563Y608D01*
X2573Y608D02*
X2580Y608D01*
X2629Y608D02*
X2638Y608D01*
X2651Y608D02*
X2658Y608D01*
X2708Y608D02*
X2715Y608D01*
X0Y607D02*
X7Y607D01*
X712Y607D02*
X718Y607D01*
X756Y607D02*
X762Y607D01*
X775Y607D02*
X781Y607D01*
X1740Y607D02*
X1745Y607D01*
X1770Y607D02*
X1775Y607D01*
X2556Y607D02*
X2563Y607D01*
X2573Y607D02*
X2580Y607D01*
X2629Y607D02*
X2638Y607D01*
X2651Y607D02*
X2658Y607D01*
X2708Y607D02*
X2715Y607D01*
X0Y606D02*
X7Y606D01*
X712Y606D02*
X718Y606D01*
X756Y606D02*
X762Y606D01*
X775Y606D02*
X781Y606D01*
X1740Y606D02*
X1745Y606D01*
X1770Y606D02*
X1775Y606D01*
X2556Y606D02*
X2563Y606D01*
X2573Y606D02*
X2580Y606D01*
X2628Y606D02*
X2637Y606D01*
X2651Y606D02*
X2658Y606D01*
X2708Y606D02*
X2715Y606D01*
X0Y605D02*
X7Y605D01*
X712Y605D02*
X718Y605D01*
X756Y605D02*
X762Y605D01*
X775Y605D02*
X780Y605D01*
X1740Y605D02*
X1745Y605D01*
X1770Y605D02*
X1775Y605D01*
X2556Y605D02*
X2563Y605D01*
X2573Y605D02*
X2580Y605D01*
X2627Y605D02*
X2636Y605D01*
X2651Y605D02*
X2658Y605D01*
X2708Y605D02*
X2715Y605D01*
X0Y604D02*
X7Y604D01*
X712Y604D02*
X718Y604D01*
X757Y604D02*
X764Y604D01*
X773Y604D02*
X780Y604D01*
X1740Y604D02*
X1745Y604D01*
X1770Y604D02*
X1775Y604D01*
X2556Y604D02*
X2563Y604D01*
X2573Y604D02*
X2580Y604D01*
X2627Y604D02*
X2636Y604D01*
X2651Y604D02*
X2658Y604D01*
X2708Y604D02*
X2715Y604D01*
X0Y603D02*
X7Y603D01*
X712Y603D02*
X718Y603D01*
X757Y603D02*
X780Y603D01*
X1740Y603D02*
X1745Y603D01*
X1770Y603D02*
X1775Y603D01*
X2556Y603D02*
X2563Y603D01*
X2573Y603D02*
X2580Y603D01*
X2626Y603D02*
X2635Y603D01*
X2651Y603D02*
X2658Y603D01*
X2708Y603D02*
X2715Y603D01*
X0Y602D02*
X7Y602D01*
X712Y602D02*
X718Y602D01*
X758Y602D02*
X779Y602D01*
X1740Y602D02*
X1745Y602D01*
X1770Y602D02*
X1775Y602D01*
X2556Y602D02*
X2563Y602D01*
X2573Y602D02*
X2580Y602D01*
X2626Y602D02*
X2635Y602D01*
X2651Y602D02*
X2658Y602D01*
X2708Y602D02*
X2715Y602D01*
X0Y601D02*
X7Y601D01*
X712Y601D02*
X718Y601D01*
X758Y601D02*
X779Y601D01*
X1726Y601D02*
X1745Y601D01*
X1770Y601D02*
X1775Y601D01*
X2556Y601D02*
X2563Y601D01*
X2573Y601D02*
X2580Y601D01*
X2625Y601D02*
X2634Y601D01*
X2651Y601D02*
X2658Y601D01*
X2708Y601D02*
X2715Y601D01*
X0Y600D02*
X7Y600D01*
X712Y600D02*
X717Y600D01*
X759Y600D02*
X778Y600D01*
X1724Y600D02*
X1745Y600D01*
X1770Y600D02*
X1775Y600D01*
X2556Y600D02*
X2563Y600D01*
X2573Y600D02*
X2580Y600D01*
X2625Y600D02*
X2634Y600D01*
X2651Y600D02*
X2658Y600D01*
X2708Y600D02*
X2715Y600D01*
X0Y599D02*
X7Y599D01*
X713Y599D02*
X717Y599D01*
X761Y599D02*
X776Y599D01*
X1723Y599D02*
X1745Y599D01*
X1770Y599D02*
X1775Y599D01*
X2556Y599D02*
X2563Y599D01*
X2573Y599D02*
X2580Y599D01*
X2624Y599D02*
X2633Y599D01*
X2651Y599D02*
X2658Y599D01*
X2708Y599D02*
X2715Y599D01*
X0Y598D02*
X7Y598D01*
X713Y598D02*
X716Y598D01*
X762Y598D02*
X775Y598D01*
X1722Y598D02*
X1745Y598D01*
X1770Y598D02*
X1775Y598D01*
X2556Y598D02*
X2563Y598D01*
X2573Y598D02*
X2580Y598D01*
X2623Y598D02*
X2632Y598D01*
X2651Y598D02*
X2658Y598D01*
X2708Y598D02*
X2715Y598D01*
X0Y597D02*
X7Y597D01*
X1722Y597D02*
X1745Y597D01*
X1770Y597D02*
X1775Y597D01*
X2556Y597D02*
X2563Y597D01*
X2573Y597D02*
X2580Y597D01*
X2623Y597D02*
X2632Y597D01*
X2651Y597D02*
X2658Y597D01*
X2708Y597D02*
X2715Y597D01*
X0Y596D02*
X7Y596D01*
X1721Y596D02*
X1745Y596D01*
X1770Y596D02*
X1775Y596D01*
X2556Y596D02*
X2563Y596D01*
X2573Y596D02*
X2580Y596D01*
X2622Y596D02*
X2631Y596D01*
X2651Y596D02*
X2658Y596D01*
X2708Y596D02*
X2715Y596D01*
X0Y595D02*
X7Y595D01*
X1721Y595D02*
X1745Y595D01*
X1770Y595D02*
X1775Y595D01*
X1790Y595D02*
X1793Y595D01*
X2556Y595D02*
X2563Y595D01*
X2573Y595D02*
X2580Y595D01*
X2622Y595D02*
X2631Y595D01*
X2651Y595D02*
X2658Y595D01*
X2708Y595D02*
X2715Y595D01*
X0Y594D02*
X7Y594D01*
X1721Y594D02*
X1727Y594D01*
X1770Y594D02*
X1775Y594D01*
X1789Y594D02*
X1794Y594D01*
X2556Y594D02*
X2563Y594D01*
X2573Y594D02*
X2580Y594D01*
X2621Y594D02*
X2630Y594D01*
X2651Y594D02*
X2658Y594D01*
X2708Y594D02*
X2715Y594D01*
X0Y593D02*
X7Y593D01*
X1721Y593D02*
X1727Y593D01*
X1770Y593D02*
X1775Y593D01*
X1789Y593D02*
X1794Y593D01*
X2556Y593D02*
X2563Y593D01*
X2573Y593D02*
X2580Y593D01*
X2620Y593D02*
X2629Y593D01*
X2651Y593D02*
X2658Y593D01*
X2708Y593D02*
X2715Y593D01*
X0Y592D02*
X7Y592D01*
X1721Y592D02*
X1727Y592D01*
X1770Y592D02*
X1775Y592D01*
X1789Y592D02*
X1794Y592D01*
X2556Y592D02*
X2563Y592D01*
X2573Y592D02*
X2580Y592D01*
X2620Y592D02*
X2629Y592D01*
X2651Y592D02*
X2658Y592D01*
X2708Y592D02*
X2715Y592D01*
X0Y591D02*
X7Y591D01*
X1721Y591D02*
X1727Y591D01*
X1770Y591D02*
X1775Y591D01*
X1789Y591D02*
X1794Y591D01*
X2556Y591D02*
X2563Y591D01*
X2573Y591D02*
X2580Y591D01*
X2619Y591D02*
X2628Y591D01*
X2651Y591D02*
X2658Y591D01*
X2708Y591D02*
X2715Y591D01*
X0Y590D02*
X7Y590D01*
X1721Y590D02*
X1727Y590D01*
X1770Y590D02*
X1775Y590D01*
X1789Y590D02*
X1794Y590D01*
X2556Y590D02*
X2593Y590D01*
X2619Y590D02*
X2628Y590D01*
X2651Y590D02*
X2658Y590D01*
X2708Y590D02*
X2715Y590D01*
X0Y589D02*
X7Y589D01*
X1721Y589D02*
X1727Y589D01*
X1770Y589D02*
X1775Y589D01*
X1789Y589D02*
X1794Y589D01*
X2556Y589D02*
X2596Y589D01*
X2618Y589D02*
X2627Y589D01*
X2651Y589D02*
X2658Y589D01*
X2708Y589D02*
X2715Y589D01*
X0Y588D02*
X7Y588D01*
X1721Y588D02*
X1727Y588D01*
X1770Y588D02*
X1775Y588D01*
X1789Y588D02*
X1794Y588D01*
X2556Y588D02*
X2596Y588D01*
X2618Y588D02*
X2627Y588D01*
X2651Y588D02*
X2658Y588D01*
X2708Y588D02*
X2715Y588D01*
X0Y587D02*
X7Y587D01*
X1721Y587D02*
X1727Y587D01*
X1770Y587D02*
X1775Y587D01*
X1789Y587D02*
X1794Y587D01*
X2556Y587D02*
X2597Y587D01*
X2617Y587D02*
X2626Y587D01*
X2651Y587D02*
X2658Y587D01*
X2708Y587D02*
X2715Y587D01*
X0Y586D02*
X7Y586D01*
X1721Y586D02*
X1727Y586D01*
X1770Y586D02*
X1775Y586D01*
X1789Y586D02*
X1794Y586D01*
X2556Y586D02*
X2597Y586D01*
X2617Y586D02*
X2625Y586D01*
X2651Y586D02*
X2658Y586D01*
X2708Y586D02*
X2715Y586D01*
X0Y585D02*
X7Y585D01*
X1721Y585D02*
X1727Y585D01*
X1770Y585D02*
X1775Y585D01*
X1789Y585D02*
X1794Y585D01*
X2556Y585D02*
X2597Y585D01*
X2617Y585D02*
X2625Y585D01*
X2651Y585D02*
X2658Y585D01*
X2708Y585D02*
X2715Y585D01*
X0Y584D02*
X7Y584D01*
X1721Y584D02*
X1727Y584D01*
X1770Y584D02*
X1775Y584D01*
X1789Y584D02*
X1794Y584D01*
X2556Y584D02*
X2597Y584D01*
X2617Y584D02*
X2624Y584D01*
X2651Y584D02*
X2658Y584D01*
X2708Y584D02*
X2715Y584D01*
X0Y583D02*
X7Y583D01*
X1721Y583D02*
X1727Y583D01*
X1770Y583D02*
X1775Y583D01*
X1789Y583D02*
X1794Y583D01*
X2557Y583D02*
X2596Y583D01*
X2618Y583D02*
X2624Y583D01*
X2652Y583D02*
X2657Y583D01*
X2708Y583D02*
X2715Y583D01*
X0Y582D02*
X7Y582D01*
X1721Y582D02*
X1727Y582D01*
X1749Y582D02*
X1750Y582D01*
X1770Y582D02*
X1776Y582D01*
X1789Y582D02*
X1794Y582D01*
X2558Y582D02*
X2595Y582D01*
X2619Y582D02*
X2622Y582D01*
X2653Y582D02*
X2656Y582D01*
X2708Y582D02*
X2715Y582D01*
X0Y581D02*
X7Y581D01*
X1721Y581D02*
X1727Y581D01*
X1746Y581D02*
X1751Y581D01*
X1770Y581D02*
X1776Y581D01*
X1788Y581D02*
X1794Y581D01*
X2708Y581D02*
X2715Y581D01*
X0Y580D02*
X7Y580D01*
X1721Y580D02*
X1727Y580D01*
X1744Y580D02*
X1752Y580D01*
X1771Y580D02*
X1777Y580D01*
X1787Y580D02*
X1794Y580D01*
X2708Y580D02*
X2715Y580D01*
X0Y579D02*
X7Y579D01*
X1721Y579D02*
X1752Y579D01*
X1771Y579D02*
X1794Y579D01*
X2708Y579D02*
X2715Y579D01*
X0Y578D02*
X7Y578D01*
X1721Y578D02*
X1752Y578D01*
X1771Y578D02*
X1793Y578D01*
X2708Y578D02*
X2715Y578D01*
X0Y577D02*
X7Y577D01*
X1722Y577D02*
X1751Y577D01*
X1772Y577D02*
X1792Y577D01*
X2708Y577D02*
X2715Y577D01*
X0Y576D02*
X7Y576D01*
X1722Y576D02*
X1750Y576D01*
X1773Y576D02*
X1792Y576D01*
X2708Y576D02*
X2715Y576D01*
X0Y575D02*
X7Y575D01*
X1723Y575D02*
X1748Y575D01*
X1774Y575D02*
X1790Y575D01*
X2708Y575D02*
X2715Y575D01*
X0Y574D02*
X7Y574D01*
X1725Y574D02*
X1745Y574D01*
X1776Y574D02*
X1789Y574D01*
X2708Y574D02*
X2715Y574D01*
X0Y573D02*
X7Y573D01*
X2708Y573D02*
X2715Y573D01*
X0Y572D02*
X7Y572D01*
X2708Y572D02*
X2715Y572D01*
X0Y571D02*
X7Y571D01*
X2708Y571D02*
X2715Y571D01*
X0Y570D02*
X7Y570D01*
X2708Y570D02*
X2715Y570D01*
X0Y569D02*
X7Y569D01*
X2708Y569D02*
X2715Y569D01*
X0Y568D02*
X7Y568D01*
X2708Y568D02*
X2715Y568D01*
X0Y567D02*
X7Y567D01*
X2708Y567D02*
X2715Y567D01*
X0Y566D02*
X7Y566D01*
X2708Y566D02*
X2715Y566D01*
X0Y565D02*
X7Y565D01*
X2708Y565D02*
X2715Y565D01*
X0Y564D02*
X7Y564D01*
X2708Y564D02*
X2715Y564D01*
X0Y563D02*
X7Y563D01*
X2708Y563D02*
X2715Y563D01*
X0Y562D02*
X7Y562D01*
X2708Y562D02*
X2715Y562D01*
X0Y561D02*
X7Y561D01*
X2708Y561D02*
X2715Y561D01*
X0Y560D02*
X7Y560D01*
X2708Y560D02*
X2715Y560D01*
X0Y559D02*
X7Y559D01*
X2708Y559D02*
X2715Y559D01*
X0Y558D02*
X7Y558D01*
X2708Y558D02*
X2715Y558D01*
X0Y557D02*
X7Y557D01*
X2708Y557D02*
X2715Y557D01*
X0Y556D02*
X7Y556D01*
X2708Y556D02*
X2715Y556D01*
X0Y555D02*
X7Y555D01*
X2708Y555D02*
X2715Y555D01*
X0Y554D02*
X7Y554D01*
X2708Y554D02*
X2715Y554D01*
X0Y553D02*
X7Y553D01*
X2708Y553D02*
X2715Y553D01*
X0Y552D02*
X7Y552D01*
X2708Y552D02*
X2715Y552D01*
X0Y551D02*
X7Y551D01*
X2708Y551D02*
X2715Y551D01*
X0Y550D02*
X7Y550D01*
X2708Y550D02*
X2715Y550D01*
X0Y549D02*
X7Y549D01*
X2708Y549D02*
X2715Y549D01*
X0Y548D02*
X7Y548D01*
X2708Y548D02*
X2715Y548D01*
X0Y547D02*
X7Y547D01*
X2708Y547D02*
X2715Y547D01*
X0Y546D02*
X7Y546D01*
X2708Y546D02*
X2715Y546D01*
X0Y545D02*
X7Y545D01*
X2708Y545D02*
X2715Y545D01*
X0Y544D02*
X7Y544D01*
X2708Y544D02*
X2715Y544D01*
X0Y543D02*
X7Y543D01*
X2708Y543D02*
X2715Y543D01*
X0Y542D02*
X7Y542D01*
X2708Y542D02*
X2715Y542D01*
X0Y541D02*
X7Y541D01*
X2708Y541D02*
X2715Y541D01*
X0Y540D02*
X7Y540D01*
X2708Y540D02*
X2715Y540D01*
X0Y539D02*
X7Y539D01*
X2708Y539D02*
X2715Y539D01*
X0Y538D02*
X7Y538D01*
X2708Y538D02*
X2715Y538D01*
X0Y537D02*
X7Y537D01*
X2708Y537D02*
X2715Y537D01*
X0Y536D02*
X7Y536D01*
X2708Y536D02*
X2715Y536D01*
X0Y535D02*
X7Y535D01*
X2708Y535D02*
X2715Y535D01*
X0Y534D02*
X7Y534D01*
X2708Y534D02*
X2715Y534D01*
X0Y533D02*
X7Y533D01*
X2708Y533D02*
X2715Y533D01*
X0Y532D02*
X7Y532D01*
X2708Y532D02*
X2715Y532D01*
X0Y531D02*
X7Y531D01*
X2708Y531D02*
X2715Y531D01*
X0Y530D02*
X7Y530D01*
X2708Y530D02*
X2715Y530D01*
X0Y529D02*
X7Y529D01*
X2708Y529D02*
X2715Y529D01*
X0Y528D02*
X7Y528D01*
X2708Y528D02*
X2715Y528D01*
X0Y527D02*
X7Y527D01*
X2708Y527D02*
X2715Y527D01*
X0Y526D02*
X7Y526D01*
X2708Y526D02*
X2715Y526D01*
X0Y525D02*
X7Y525D01*
X2708Y525D02*
X2715Y525D01*
X0Y524D02*
X7Y524D01*
X2708Y524D02*
X2715Y524D01*
X0Y523D02*
X7Y523D01*
X2708Y523D02*
X2715Y523D01*
X0Y522D02*
X7Y522D01*
X748Y522D02*
X764Y522D01*
X785Y522D02*
X788Y522D01*
X2708Y522D02*
X2715Y522D01*
X0Y521D02*
X7Y521D01*
X748Y521D02*
X765Y521D01*
X784Y521D02*
X789Y521D01*
X2708Y521D02*
X2715Y521D01*
X0Y520D02*
X7Y520D01*
X748Y520D02*
X766Y520D01*
X784Y520D02*
X789Y520D01*
X2708Y520D02*
X2715Y520D01*
X0Y519D02*
X7Y519D01*
X748Y519D02*
X765Y519D01*
X784Y519D02*
X789Y519D01*
X2708Y519D02*
X2715Y519D01*
X0Y518D02*
X7Y518D01*
X748Y518D02*
X765Y518D01*
X784Y518D02*
X789Y518D01*
X2708Y518D02*
X2715Y518D01*
X0Y517D02*
X7Y517D01*
X748Y517D02*
X764Y517D01*
X784Y517D02*
X789Y517D01*
X2708Y517D02*
X2715Y517D01*
X0Y516D02*
X7Y516D01*
X748Y516D02*
X753Y516D01*
X784Y516D02*
X789Y516D01*
X2708Y516D02*
X2715Y516D01*
X0Y515D02*
X7Y515D01*
X748Y515D02*
X753Y515D01*
X784Y515D02*
X789Y515D01*
X936Y515D02*
X962Y515D01*
X982Y515D02*
X985Y515D01*
X2708Y515D02*
X2715Y515D01*
X0Y514D02*
X7Y514D01*
X748Y514D02*
X753Y514D01*
X784Y514D02*
X789Y514D01*
X935Y514D02*
X963Y514D01*
X981Y514D02*
X986Y514D01*
X2708Y514D02*
X2715Y514D01*
X0Y513D02*
X7Y513D01*
X748Y513D02*
X753Y513D01*
X784Y513D02*
X789Y513D01*
X934Y513D02*
X963Y513D01*
X981Y513D02*
X986Y513D01*
X2708Y513D02*
X2715Y513D01*
X0Y512D02*
X7Y512D01*
X748Y512D02*
X753Y512D01*
X784Y512D02*
X789Y512D01*
X933Y512D02*
X963Y512D01*
X981Y512D02*
X986Y512D01*
X2708Y512D02*
X2715Y512D01*
X0Y511D02*
X7Y511D01*
X748Y511D02*
X753Y511D01*
X784Y511D02*
X789Y511D01*
X933Y511D02*
X962Y511D01*
X981Y511D02*
X986Y511D01*
X2708Y511D02*
X2715Y511D01*
X0Y510D02*
X7Y510D01*
X748Y510D02*
X753Y510D01*
X784Y510D02*
X789Y510D01*
X933Y510D02*
X961Y510D01*
X981Y510D02*
X986Y510D01*
X2708Y510D02*
X2715Y510D01*
X0Y509D02*
X7Y509D01*
X50Y509D02*
X54Y509D01*
X77Y509D02*
X78Y509D01*
X748Y509D02*
X753Y509D01*
X784Y509D02*
X789Y509D01*
X932Y509D02*
X938Y509D01*
X981Y509D02*
X986Y509D01*
X2708Y509D02*
X2715Y509D01*
X0Y508D02*
X7Y508D01*
X49Y508D02*
X56Y508D01*
X76Y508D02*
X79Y508D01*
X748Y508D02*
X753Y508D01*
X784Y508D02*
X789Y508D01*
X932Y508D02*
X938Y508D01*
X981Y508D02*
X986Y508D01*
X2708Y508D02*
X2715Y508D01*
X0Y507D02*
X7Y507D01*
X48Y507D02*
X56Y507D01*
X75Y507D02*
X80Y507D01*
X748Y507D02*
X753Y507D01*
X784Y507D02*
X789Y507D01*
X932Y507D02*
X938Y507D01*
X981Y507D02*
X986Y507D01*
X2708Y507D02*
X2715Y507D01*
X0Y506D02*
X7Y506D01*
X48Y506D02*
X57Y506D01*
X75Y506D02*
X80Y506D01*
X748Y506D02*
X753Y506D01*
X784Y506D02*
X789Y506D01*
X932Y506D02*
X938Y506D01*
X981Y506D02*
X986Y506D01*
X2041Y506D02*
X2063Y506D01*
X2085Y506D02*
X2086Y506D01*
X2708Y506D02*
X2715Y506D01*
X0Y505D02*
X7Y505D01*
X48Y505D02*
X57Y505D01*
X75Y505D02*
X80Y505D01*
X748Y505D02*
X753Y505D01*
X784Y505D02*
X789Y505D01*
X932Y505D02*
X938Y505D01*
X981Y505D02*
X986Y505D01*
X2039Y505D02*
X2065Y505D01*
X2084Y505D02*
X2087Y505D01*
X2708Y505D02*
X2715Y505D01*
X0Y504D02*
X7Y504D01*
X49Y504D02*
X57Y504D01*
X75Y504D02*
X80Y504D01*
X748Y504D02*
X753Y504D01*
X784Y504D02*
X789Y504D01*
X932Y504D02*
X938Y504D01*
X981Y504D02*
X986Y504D01*
X2038Y504D02*
X2065Y504D01*
X2083Y504D02*
X2088Y504D01*
X2708Y504D02*
X2715Y504D01*
X0Y503D02*
X7Y503D01*
X50Y503D02*
X57Y503D01*
X75Y503D02*
X80Y503D01*
X748Y503D02*
X753Y503D01*
X784Y503D02*
X789Y503D01*
X932Y503D02*
X938Y503D01*
X981Y503D02*
X986Y503D01*
X2037Y503D02*
X2065Y503D01*
X2083Y503D02*
X2088Y503D01*
X2708Y503D02*
X2715Y503D01*
X0Y502D02*
X7Y502D01*
X51Y502D02*
X57Y502D01*
X75Y502D02*
X80Y502D01*
X748Y502D02*
X753Y502D01*
X784Y502D02*
X789Y502D01*
X932Y502D02*
X938Y502D01*
X981Y502D02*
X986Y502D01*
X2036Y502D02*
X2065Y502D01*
X2083Y502D02*
X2088Y502D01*
X2708Y502D02*
X2715Y502D01*
X0Y501D02*
X7Y501D01*
X51Y501D02*
X57Y501D01*
X75Y501D02*
X80Y501D01*
X748Y501D02*
X753Y501D01*
X784Y501D02*
X789Y501D01*
X932Y501D02*
X938Y501D01*
X981Y501D02*
X986Y501D01*
X2036Y501D02*
X2064Y501D01*
X2083Y501D02*
X2088Y501D01*
X2708Y501D02*
X2715Y501D01*
X0Y500D02*
X7Y500D01*
X51Y500D02*
X57Y500D01*
X75Y500D02*
X80Y500D01*
X748Y500D02*
X753Y500D01*
X784Y500D02*
X789Y500D01*
X932Y500D02*
X938Y500D01*
X981Y500D02*
X986Y500D01*
X2036Y500D02*
X2042Y500D01*
X2083Y500D02*
X2088Y500D01*
X2708Y500D02*
X2715Y500D01*
X0Y499D02*
X7Y499D01*
X51Y499D02*
X57Y499D01*
X75Y499D02*
X80Y499D01*
X748Y499D02*
X753Y499D01*
X784Y499D02*
X789Y499D01*
X932Y499D02*
X938Y499D01*
X981Y499D02*
X986Y499D01*
X2036Y499D02*
X2041Y499D01*
X2083Y499D02*
X2088Y499D01*
X2708Y499D02*
X2715Y499D01*
X0Y498D02*
X7Y498D01*
X51Y498D02*
X57Y498D01*
X75Y498D02*
X80Y498D01*
X748Y498D02*
X753Y498D01*
X784Y498D02*
X789Y498D01*
X932Y498D02*
X938Y498D01*
X981Y498D02*
X986Y498D01*
X2036Y498D02*
X2041Y498D01*
X2083Y498D02*
X2088Y498D01*
X2708Y498D02*
X2715Y498D01*
X0Y497D02*
X7Y497D01*
X51Y497D02*
X57Y497D01*
X75Y497D02*
X80Y497D01*
X748Y497D02*
X753Y497D01*
X784Y497D02*
X789Y497D01*
X932Y497D02*
X938Y497D01*
X981Y497D02*
X986Y497D01*
X2036Y497D02*
X2041Y497D01*
X2083Y497D02*
X2088Y497D01*
X2708Y497D02*
X2715Y497D01*
X0Y496D02*
X7Y496D01*
X51Y496D02*
X57Y496D01*
X75Y496D02*
X80Y496D01*
X748Y496D02*
X753Y496D01*
X784Y496D02*
X789Y496D01*
X932Y496D02*
X938Y496D01*
X981Y496D02*
X986Y496D01*
X2036Y496D02*
X2041Y496D01*
X2083Y496D02*
X2088Y496D01*
X2708Y496D02*
X2715Y496D01*
X0Y495D02*
X7Y495D01*
X51Y495D02*
X57Y495D01*
X75Y495D02*
X80Y495D01*
X736Y495D02*
X740Y495D01*
X748Y495D02*
X753Y495D01*
X784Y495D02*
X789Y495D01*
X803Y495D02*
X807Y495D01*
X932Y495D02*
X938Y495D01*
X981Y495D02*
X986Y495D01*
X2036Y495D02*
X2041Y495D01*
X2083Y495D02*
X2088Y495D01*
X2708Y495D02*
X2715Y495D01*
X0Y494D02*
X7Y494D01*
X51Y494D02*
X57Y494D01*
X75Y494D02*
X80Y494D01*
X736Y494D02*
X740Y494D01*
X748Y494D02*
X753Y494D01*
X784Y494D02*
X789Y494D01*
X803Y494D02*
X808Y494D01*
X933Y494D02*
X959Y494D01*
X981Y494D02*
X986Y494D01*
X2036Y494D02*
X2041Y494D01*
X2083Y494D02*
X2088Y494D01*
X2708Y494D02*
X2715Y494D01*
X0Y493D02*
X7Y493D01*
X51Y493D02*
X57Y493D01*
X75Y493D02*
X80Y493D01*
X735Y493D02*
X741Y493D01*
X748Y493D02*
X753Y493D01*
X784Y493D02*
X789Y493D01*
X803Y493D02*
X808Y493D01*
X933Y493D02*
X960Y493D01*
X981Y493D02*
X986Y493D01*
X2036Y493D02*
X2041Y493D01*
X2083Y493D02*
X2088Y493D01*
X2708Y493D02*
X2715Y493D01*
X0Y492D02*
X7Y492D01*
X51Y492D02*
X57Y492D01*
X75Y492D02*
X80Y492D01*
X735Y492D02*
X741Y492D01*
X748Y492D02*
X753Y492D01*
X784Y492D02*
X789Y492D01*
X802Y492D02*
X808Y492D01*
X933Y492D02*
X961Y492D01*
X981Y492D02*
X986Y492D01*
X2036Y492D02*
X2041Y492D01*
X2083Y492D02*
X2088Y492D01*
X2708Y492D02*
X2715Y492D01*
X0Y491D02*
X7Y491D01*
X51Y491D02*
X57Y491D01*
X75Y491D02*
X80Y491D01*
X735Y491D02*
X741Y491D01*
X748Y491D02*
X753Y491D01*
X784Y491D02*
X789Y491D01*
X802Y491D02*
X808Y491D01*
X934Y491D02*
X962Y491D01*
X981Y491D02*
X986Y491D01*
X2036Y491D02*
X2041Y491D01*
X2083Y491D02*
X2088Y491D01*
X2708Y491D02*
X2715Y491D01*
X0Y490D02*
X7Y490D01*
X51Y490D02*
X57Y490D01*
X75Y490D02*
X80Y490D01*
X735Y490D02*
X741Y490D01*
X748Y490D02*
X753Y490D01*
X784Y490D02*
X789Y490D01*
X802Y490D02*
X808Y490D01*
X935Y490D02*
X963Y490D01*
X981Y490D02*
X986Y490D01*
X2036Y490D02*
X2041Y490D01*
X2083Y490D02*
X2088Y490D01*
X2708Y490D02*
X2715Y490D01*
X0Y489D02*
X7Y489D01*
X51Y489D02*
X57Y489D01*
X75Y489D02*
X80Y489D01*
X735Y489D02*
X741Y489D01*
X748Y489D02*
X753Y489D01*
X784Y489D02*
X789Y489D01*
X802Y489D02*
X808Y489D01*
X936Y489D02*
X963Y489D01*
X981Y489D02*
X986Y489D01*
X1002Y489D02*
X1003Y489D01*
X2036Y489D02*
X2041Y489D01*
X2083Y489D02*
X2088Y489D01*
X2708Y489D02*
X2715Y489D01*
X0Y488D02*
X7Y488D01*
X51Y488D02*
X57Y488D01*
X75Y488D02*
X80Y488D01*
X735Y488D02*
X741Y488D01*
X748Y488D02*
X753Y488D01*
X784Y488D02*
X789Y488D01*
X802Y488D02*
X808Y488D01*
X957Y488D02*
X963Y488D01*
X981Y488D02*
X986Y488D01*
X1001Y488D02*
X1004Y488D01*
X2036Y488D02*
X2041Y488D01*
X2083Y488D02*
X2088Y488D01*
X2708Y488D02*
X2715Y488D01*
X0Y487D02*
X7Y487D01*
X51Y487D02*
X57Y487D01*
X75Y487D02*
X80Y487D01*
X735Y487D02*
X741Y487D01*
X748Y487D02*
X753Y487D01*
X784Y487D02*
X789Y487D01*
X802Y487D02*
X808Y487D01*
X957Y487D02*
X963Y487D01*
X981Y487D02*
X986Y487D01*
X1000Y487D02*
X1005Y487D01*
X2036Y487D02*
X2042Y487D01*
X2083Y487D02*
X2088Y487D01*
X2708Y487D02*
X2715Y487D01*
X0Y486D02*
X7Y486D01*
X51Y486D02*
X57Y486D01*
X75Y486D02*
X80Y486D01*
X735Y486D02*
X741Y486D01*
X748Y486D02*
X753Y486D01*
X784Y486D02*
X789Y486D01*
X802Y486D02*
X808Y486D01*
X957Y486D02*
X963Y486D01*
X981Y486D02*
X986Y486D01*
X1000Y486D02*
X1005Y486D01*
X2036Y486D02*
X2043Y486D01*
X2083Y486D02*
X2088Y486D01*
X2708Y486D02*
X2715Y486D01*
X0Y485D02*
X7Y485D01*
X51Y485D02*
X57Y485D01*
X75Y485D02*
X80Y485D01*
X735Y485D02*
X741Y485D01*
X748Y485D02*
X753Y485D01*
X784Y485D02*
X789Y485D01*
X802Y485D02*
X808Y485D01*
X957Y485D02*
X963Y485D01*
X981Y485D02*
X986Y485D01*
X1000Y485D02*
X1005Y485D01*
X2037Y485D02*
X2058Y485D01*
X2083Y485D02*
X2088Y485D01*
X2708Y485D02*
X2715Y485D01*
X0Y484D02*
X7Y484D01*
X51Y484D02*
X57Y484D01*
X75Y484D02*
X80Y484D01*
X735Y484D02*
X741Y484D01*
X748Y484D02*
X753Y484D01*
X784Y484D02*
X789Y484D01*
X802Y484D02*
X808Y484D01*
X957Y484D02*
X963Y484D01*
X981Y484D02*
X986Y484D01*
X1000Y484D02*
X1005Y484D01*
X2037Y484D02*
X2059Y484D01*
X2083Y484D02*
X2088Y484D01*
X2708Y484D02*
X2715Y484D01*
X0Y483D02*
X7Y483D01*
X51Y483D02*
X57Y483D01*
X75Y483D02*
X80Y483D01*
X735Y483D02*
X741Y483D01*
X748Y483D02*
X753Y483D01*
X784Y483D02*
X789Y483D01*
X802Y483D02*
X808Y483D01*
X957Y483D02*
X963Y483D01*
X981Y483D02*
X986Y483D01*
X1000Y483D02*
X1005Y483D01*
X2038Y483D02*
X2059Y483D01*
X2083Y483D02*
X2088Y483D01*
X2708Y483D02*
X2715Y483D01*
X0Y482D02*
X7Y482D01*
X28Y482D02*
X57Y482D01*
X75Y482D02*
X80Y482D01*
X96Y482D02*
X97Y482D01*
X735Y482D02*
X741Y482D01*
X748Y482D02*
X753Y482D01*
X784Y482D02*
X789Y482D01*
X802Y482D02*
X808Y482D01*
X957Y482D02*
X963Y482D01*
X981Y482D02*
X986Y482D01*
X1000Y482D02*
X1005Y482D01*
X2038Y482D02*
X2059Y482D01*
X2083Y482D02*
X2088Y482D01*
X2708Y482D02*
X2715Y482D01*
X0Y481D02*
X7Y481D01*
X27Y481D02*
X57Y481D01*
X75Y481D02*
X80Y481D01*
X95Y481D02*
X98Y481D01*
X735Y481D02*
X741Y481D01*
X748Y481D02*
X753Y481D01*
X784Y481D02*
X790Y481D01*
X802Y481D02*
X808Y481D01*
X957Y481D02*
X963Y481D01*
X981Y481D02*
X986Y481D01*
X1000Y481D02*
X1005Y481D01*
X2037Y481D02*
X2059Y481D01*
X2083Y481D02*
X2088Y481D01*
X2708Y481D02*
X2715Y481D01*
X0Y480D02*
X7Y480D01*
X26Y480D02*
X57Y480D01*
X75Y480D02*
X80Y480D01*
X94Y480D02*
X99Y480D01*
X735Y480D02*
X741Y480D01*
X747Y480D02*
X754Y480D01*
X784Y480D02*
X792Y480D01*
X799Y480D02*
X807Y480D01*
X957Y480D02*
X963Y480D01*
X981Y480D02*
X986Y480D01*
X1000Y480D02*
X1005Y480D01*
X1270Y480D02*
X1312Y480D01*
X2037Y480D02*
X2058Y480D01*
X2083Y480D02*
X2088Y480D01*
X2103Y480D02*
X2104Y480D01*
X2708Y480D02*
X2715Y480D01*
X0Y479D02*
X7Y479D01*
X26Y479D02*
X57Y479D01*
X75Y479D02*
X80Y479D01*
X94Y479D02*
X99Y479D01*
X735Y479D02*
X765Y479D01*
X785Y479D02*
X807Y479D01*
X957Y479D02*
X963Y479D01*
X981Y479D02*
X986Y479D01*
X1000Y479D02*
X1005Y479D01*
X1269Y479D02*
X1314Y479D01*
X2036Y479D02*
X2043Y479D01*
X2083Y479D02*
X2088Y479D01*
X2102Y479D02*
X2106Y479D01*
X2708Y479D02*
X2715Y479D01*
X0Y478D02*
X7Y478D01*
X26Y478D02*
X57Y478D01*
X75Y478D02*
X80Y478D01*
X94Y478D02*
X99Y478D01*
X735Y478D02*
X765Y478D01*
X785Y478D02*
X806Y478D01*
X957Y478D02*
X963Y478D01*
X981Y478D02*
X986Y478D01*
X1000Y478D02*
X1005Y478D01*
X1269Y478D02*
X1314Y478D01*
X2036Y478D02*
X2042Y478D01*
X2083Y478D02*
X2088Y478D01*
X2101Y478D02*
X2106Y478D01*
X2708Y478D02*
X2715Y478D01*
X0Y477D02*
X7Y477D01*
X26Y477D02*
X57Y477D01*
X75Y477D02*
X80Y477D01*
X94Y477D02*
X99Y477D01*
X735Y477D02*
X766Y477D01*
X786Y477D02*
X806Y477D01*
X957Y477D02*
X963Y477D01*
X981Y477D02*
X986Y477D01*
X1000Y477D02*
X1005Y477D01*
X1269Y477D02*
X1314Y477D01*
X2036Y477D02*
X2041Y477D01*
X2083Y477D02*
X2088Y477D01*
X2101Y477D02*
X2106Y477D01*
X2708Y477D02*
X2715Y477D01*
X0Y476D02*
X7Y476D01*
X26Y476D02*
X57Y476D01*
X75Y476D02*
X80Y476D01*
X94Y476D02*
X99Y476D01*
X735Y476D02*
X765Y476D01*
X787Y476D02*
X805Y476D01*
X957Y476D02*
X963Y476D01*
X981Y476D02*
X986Y476D01*
X1000Y476D02*
X1005Y476D01*
X2036Y476D02*
X2041Y476D01*
X2083Y476D02*
X2088Y476D01*
X2101Y476D02*
X2106Y476D01*
X2708Y476D02*
X2715Y476D01*
X0Y475D02*
X7Y475D01*
X26Y475D02*
X31Y475D01*
X51Y475D02*
X57Y475D01*
X75Y475D02*
X80Y475D01*
X94Y475D02*
X99Y475D01*
X736Y475D02*
X765Y475D01*
X788Y475D02*
X803Y475D01*
X957Y475D02*
X963Y475D01*
X981Y475D02*
X987Y475D01*
X999Y475D02*
X1005Y475D01*
X2036Y475D02*
X2041Y475D01*
X2083Y475D02*
X2088Y475D01*
X2101Y475D02*
X2106Y475D01*
X2708Y475D02*
X2715Y475D01*
X0Y474D02*
X7Y474D01*
X26Y474D02*
X31Y474D01*
X51Y474D02*
X57Y474D01*
X75Y474D02*
X80Y474D01*
X94Y474D02*
X99Y474D01*
X737Y474D02*
X764Y474D01*
X791Y474D02*
X801Y474D01*
X957Y474D02*
X963Y474D01*
X981Y474D02*
X987Y474D01*
X999Y474D02*
X1005Y474D01*
X2036Y474D02*
X2041Y474D01*
X2083Y474D02*
X2088Y474D01*
X2101Y474D02*
X2106Y474D01*
X2708Y474D02*
X2715Y474D01*
X0Y473D02*
X7Y473D01*
X26Y473D02*
X31Y473D01*
X51Y473D02*
X57Y473D01*
X75Y473D02*
X80Y473D01*
X94Y473D02*
X99Y473D01*
X935Y473D02*
X963Y473D01*
X982Y473D02*
X1004Y473D01*
X2036Y473D02*
X2041Y473D01*
X2083Y473D02*
X2088Y473D01*
X2101Y473D02*
X2106Y473D01*
X2708Y473D02*
X2715Y473D01*
X0Y472D02*
X7Y472D01*
X26Y472D02*
X31Y472D01*
X51Y472D02*
X57Y472D01*
X75Y472D02*
X80Y472D01*
X94Y472D02*
X99Y472D01*
X933Y472D02*
X963Y472D01*
X982Y472D02*
X1004Y472D01*
X2036Y472D02*
X2041Y472D01*
X2083Y472D02*
X2088Y472D01*
X2101Y472D02*
X2106Y472D01*
X2708Y472D02*
X2715Y472D01*
X0Y471D02*
X7Y471D01*
X26Y471D02*
X31Y471D01*
X51Y471D02*
X57Y471D01*
X75Y471D02*
X80Y471D01*
X94Y471D02*
X99Y471D01*
X933Y471D02*
X963Y471D01*
X983Y471D02*
X1003Y471D01*
X2036Y471D02*
X2041Y471D01*
X2083Y471D02*
X2088Y471D01*
X2101Y471D02*
X2106Y471D01*
X2708Y471D02*
X2715Y471D01*
X0Y470D02*
X7Y470D01*
X26Y470D02*
X31Y470D01*
X51Y470D02*
X57Y470D01*
X75Y470D02*
X80Y470D01*
X94Y470D02*
X99Y470D01*
X933Y470D02*
X963Y470D01*
X983Y470D02*
X1003Y470D01*
X2036Y470D02*
X2041Y470D01*
X2083Y470D02*
X2088Y470D01*
X2101Y470D02*
X2106Y470D01*
X2708Y470D02*
X2715Y470D01*
X0Y469D02*
X7Y469D01*
X26Y469D02*
X31Y469D01*
X51Y469D02*
X57Y469D01*
X75Y469D02*
X80Y469D01*
X94Y469D02*
X99Y469D01*
X933Y469D02*
X963Y469D01*
X985Y469D02*
X1002Y469D01*
X2036Y469D02*
X2041Y469D01*
X2083Y469D02*
X2088Y469D01*
X2101Y469D02*
X2106Y469D01*
X2708Y469D02*
X2715Y469D01*
X0Y468D02*
X7Y468D01*
X26Y468D02*
X31Y468D01*
X51Y468D02*
X57Y468D01*
X75Y468D02*
X81Y468D01*
X93Y468D02*
X99Y468D01*
X933Y468D02*
X963Y468D01*
X986Y468D02*
X1000Y468D01*
X2036Y468D02*
X2041Y468D01*
X2083Y468D02*
X2088Y468D01*
X2101Y468D02*
X2106Y468D01*
X2708Y468D02*
X2715Y468D01*
X0Y467D02*
X7Y467D01*
X26Y467D02*
X31Y467D01*
X51Y467D02*
X57Y467D01*
X75Y467D02*
X81Y467D01*
X93Y467D02*
X99Y467D01*
X935Y467D02*
X963Y467D01*
X989Y467D02*
X997Y467D01*
X2036Y467D02*
X2041Y467D01*
X2083Y467D02*
X2088Y467D01*
X2101Y467D02*
X2106Y467D01*
X2708Y467D02*
X2715Y467D01*
X0Y466D02*
X7Y466D01*
X26Y466D02*
X57Y466D01*
X75Y466D02*
X99Y466D01*
X2036Y466D02*
X2041Y466D01*
X2083Y466D02*
X2089Y466D01*
X2100Y466D02*
X2106Y466D01*
X2708Y466D02*
X2715Y466D01*
X0Y465D02*
X7Y465D01*
X26Y465D02*
X57Y465D01*
X76Y465D02*
X98Y465D01*
X2036Y465D02*
X2041Y465D01*
X2083Y465D02*
X2090Y465D01*
X2099Y465D02*
X2106Y465D01*
X2708Y465D02*
X2715Y465D01*
X0Y464D02*
X7Y464D01*
X26Y464D02*
X57Y464D01*
X76Y464D02*
X98Y464D01*
X2036Y464D02*
X2064Y464D01*
X2084Y464D02*
X2105Y464D01*
X2708Y464D02*
X2715Y464D01*
X0Y463D02*
X7Y463D01*
X26Y463D02*
X57Y463D01*
X77Y463D02*
X97Y463D01*
X2036Y463D02*
X2065Y463D01*
X2084Y463D02*
X2105Y463D01*
X2708Y463D02*
X2715Y463D01*
X0Y462D02*
X7Y462D01*
X26Y462D02*
X56Y462D01*
X78Y462D02*
X96Y462D01*
X2037Y462D02*
X2065Y462D01*
X2085Y462D02*
X2104Y462D01*
X2708Y462D02*
X2715Y462D01*
X0Y461D02*
X7Y461D01*
X27Y461D02*
X56Y461D01*
X80Y461D02*
X94Y461D01*
X2037Y461D02*
X2065Y461D01*
X2086Y461D02*
X2103Y461D01*
X2708Y461D02*
X2715Y461D01*
X0Y460D02*
X7Y460D01*
X28Y460D02*
X55Y460D01*
X82Y460D02*
X92Y460D01*
X2039Y460D02*
X2065Y460D01*
X2087Y460D02*
X2102Y460D01*
X2708Y460D02*
X2715Y460D01*
X0Y459D02*
X7Y459D01*
X2040Y459D02*
X2064Y459D01*
X2090Y459D02*
X2099Y459D01*
X2708Y459D02*
X2715Y459D01*
X0Y458D02*
X7Y458D01*
X2708Y458D02*
X2715Y458D01*
X0Y457D02*
X7Y457D01*
X2708Y457D02*
X2715Y457D01*
X0Y456D02*
X7Y456D01*
X2708Y456D02*
X2715Y456D01*
X0Y455D02*
X7Y455D01*
X2708Y455D02*
X2715Y455D01*
X0Y454D02*
X7Y454D01*
X2708Y454D02*
X2715Y454D01*
X0Y453D02*
X7Y453D01*
X2708Y453D02*
X2715Y453D01*
X0Y452D02*
X7Y452D01*
X1562Y452D02*
X1564Y452D01*
X2708Y452D02*
X2715Y452D01*
X0Y451D02*
X7Y451D01*
X1561Y451D02*
X1565Y451D01*
X2708Y451D02*
X2715Y451D01*
X0Y450D02*
X7Y450D01*
X1560Y450D02*
X1566Y450D01*
X2708Y450D02*
X2715Y450D01*
X0Y449D02*
X7Y449D01*
X1546Y449D02*
X1586Y449D01*
X2708Y449D02*
X2715Y449D01*
X0Y448D02*
X7Y448D01*
X1544Y448D02*
X1588Y448D01*
X2708Y448D02*
X2715Y448D01*
X0Y447D02*
X7Y447D01*
X1543Y447D02*
X1589Y447D01*
X2708Y447D02*
X2715Y447D01*
X0Y446D02*
X7Y446D01*
X1542Y446D02*
X1590Y446D01*
X2708Y446D02*
X2715Y446D01*
X0Y445D02*
X7Y445D01*
X1542Y445D02*
X1589Y445D01*
X2708Y445D02*
X2715Y445D01*
X0Y444D02*
X7Y444D01*
X1543Y444D02*
X1589Y444D01*
X2708Y444D02*
X2715Y444D01*
X0Y443D02*
X7Y443D01*
X1544Y443D02*
X1588Y443D01*
X2708Y443D02*
X2715Y443D01*
X0Y442D02*
X7Y442D01*
X1560Y442D02*
X1567Y442D01*
X2708Y442D02*
X2715Y442D01*
X0Y441D02*
X7Y441D01*
X1560Y441D02*
X1566Y441D01*
X2708Y441D02*
X2715Y441D01*
X0Y440D02*
X7Y440D01*
X1560Y440D02*
X1566Y440D01*
X2708Y440D02*
X2715Y440D01*
X0Y439D02*
X7Y439D01*
X1560Y439D02*
X1566Y439D01*
X2245Y439D02*
X2443Y439D01*
X2493Y439D02*
X2519Y439D01*
X2708Y439D02*
X2715Y439D01*
X0Y438D02*
X7Y438D01*
X1560Y438D02*
X1566Y438D01*
X2244Y438D02*
X2443Y438D01*
X2493Y438D02*
X2520Y438D01*
X2708Y438D02*
X2715Y438D01*
X0Y437D02*
X7Y437D01*
X636Y437D02*
X639Y437D01*
X663Y437D02*
X683Y437D01*
X1560Y437D02*
X1566Y437D01*
X2244Y437D02*
X2443Y437D01*
X2493Y437D02*
X2520Y437D01*
X2708Y437D02*
X2715Y437D01*
X0Y436D02*
X7Y436D01*
X635Y436D02*
X640Y436D01*
X661Y436D02*
X685Y436D01*
X1560Y436D02*
X1566Y436D01*
X2245Y436D02*
X2444Y436D01*
X2493Y436D02*
X2519Y436D01*
X2708Y436D02*
X2715Y436D01*
X0Y435D02*
X7Y435D01*
X635Y435D02*
X640Y435D01*
X660Y435D02*
X686Y435D01*
X1560Y435D02*
X1566Y435D01*
X2708Y435D02*
X2715Y435D01*
X0Y434D02*
X7Y434D01*
X635Y434D02*
X641Y434D01*
X659Y434D02*
X687Y434D01*
X1560Y434D02*
X1566Y434D01*
X2708Y434D02*
X2715Y434D01*
X0Y433D02*
X7Y433D01*
X635Y433D02*
X641Y433D01*
X659Y433D02*
X687Y433D01*
X1560Y433D02*
X1566Y433D01*
X2708Y433D02*
X2715Y433D01*
X0Y432D02*
X7Y432D01*
X635Y432D02*
X641Y432D01*
X658Y432D02*
X688Y432D01*
X1560Y432D02*
X1566Y432D01*
X2708Y432D02*
X2715Y432D01*
X0Y431D02*
X7Y431D01*
X635Y431D02*
X641Y431D01*
X658Y431D02*
X688Y431D01*
X1560Y431D02*
X1566Y431D01*
X2708Y431D02*
X2715Y431D01*
X0Y430D02*
X7Y430D01*
X635Y430D02*
X641Y430D01*
X658Y430D02*
X664Y430D01*
X682Y430D02*
X688Y430D01*
X1560Y430D02*
X1566Y430D01*
X2708Y430D02*
X2715Y430D01*
X0Y429D02*
X7Y429D01*
X635Y429D02*
X641Y429D01*
X658Y429D02*
X664Y429D01*
X682Y429D02*
X688Y429D01*
X1560Y429D02*
X1566Y429D01*
X2708Y429D02*
X2715Y429D01*
X0Y428D02*
X7Y428D01*
X635Y428D02*
X641Y428D01*
X658Y428D02*
X664Y428D01*
X682Y428D02*
X688Y428D01*
X1560Y428D02*
X1593Y428D01*
X2708Y428D02*
X2715Y428D01*
X0Y427D02*
X7Y427D01*
X635Y427D02*
X641Y427D01*
X658Y427D02*
X664Y427D01*
X682Y427D02*
X688Y427D01*
X1560Y427D02*
X1595Y427D01*
X2708Y427D02*
X2715Y427D01*
X0Y426D02*
X7Y426D01*
X635Y426D02*
X641Y426D01*
X658Y426D02*
X664Y426D01*
X682Y426D02*
X688Y426D01*
X1560Y426D02*
X1595Y426D01*
X2708Y426D02*
X2715Y426D01*
X0Y425D02*
X7Y425D01*
X635Y425D02*
X641Y425D01*
X658Y425D02*
X664Y425D01*
X682Y425D02*
X688Y425D01*
X1560Y425D02*
X1595Y425D01*
X2708Y425D02*
X2715Y425D01*
X0Y424D02*
X7Y424D01*
X635Y424D02*
X641Y424D01*
X658Y424D02*
X664Y424D01*
X682Y424D02*
X688Y424D01*
X1560Y424D02*
X1595Y424D01*
X2708Y424D02*
X2715Y424D01*
X0Y423D02*
X7Y423D01*
X635Y423D02*
X641Y423D01*
X658Y423D02*
X664Y423D01*
X682Y423D02*
X688Y423D01*
X1560Y423D02*
X1595Y423D01*
X2708Y423D02*
X2715Y423D01*
X0Y422D02*
X7Y422D01*
X635Y422D02*
X641Y422D01*
X658Y422D02*
X664Y422D01*
X682Y422D02*
X688Y422D01*
X1560Y422D02*
X1594Y422D01*
X2708Y422D02*
X2715Y422D01*
X0Y421D02*
X7Y421D01*
X635Y421D02*
X641Y421D01*
X658Y421D02*
X664Y421D01*
X682Y421D02*
X688Y421D01*
X2708Y421D02*
X2715Y421D01*
X0Y420D02*
X7Y420D01*
X635Y420D02*
X641Y420D01*
X658Y420D02*
X664Y420D01*
X682Y420D02*
X688Y420D01*
X2708Y420D02*
X2715Y420D01*
X0Y419D02*
X7Y419D01*
X635Y419D02*
X641Y419D01*
X658Y419D02*
X664Y419D01*
X682Y419D02*
X688Y419D01*
X0Y418D02*
X7Y418D01*
X635Y418D02*
X641Y418D01*
X658Y418D02*
X664Y418D01*
X682Y418D02*
X688Y418D01*
X0Y417D02*
X7Y417D01*
X635Y417D02*
X641Y417D01*
X658Y417D02*
X664Y417D01*
X682Y417D02*
X688Y417D01*
X0Y416D02*
X7Y416D01*
X635Y416D02*
X641Y416D01*
X658Y416D02*
X664Y416D01*
X682Y416D02*
X688Y416D01*
X0Y415D02*
X7Y415D01*
X635Y415D02*
X641Y415D01*
X658Y415D02*
X664Y415D01*
X682Y415D02*
X688Y415D01*
X2708Y415D02*
X2715Y415D01*
X0Y414D02*
X7Y414D01*
X635Y414D02*
X641Y414D01*
X658Y414D02*
X664Y414D01*
X682Y414D02*
X688Y414D01*
X2708Y414D02*
X2715Y414D01*
X0Y413D02*
X7Y413D01*
X635Y413D02*
X641Y413D01*
X658Y413D02*
X664Y413D01*
X682Y413D02*
X688Y413D01*
X2708Y413D02*
X2715Y413D01*
X0Y412D02*
X7Y412D01*
X635Y412D02*
X641Y412D01*
X658Y412D02*
X664Y412D01*
X682Y412D02*
X688Y412D01*
X2708Y412D02*
X2715Y412D01*
X0Y411D02*
X7Y411D01*
X635Y411D02*
X641Y411D01*
X658Y411D02*
X664Y411D01*
X682Y411D02*
X688Y411D01*
X2708Y411D02*
X2715Y411D01*
X0Y410D02*
X7Y410D01*
X635Y410D02*
X641Y410D01*
X658Y410D02*
X664Y410D01*
X682Y410D02*
X688Y410D01*
X2708Y410D02*
X2715Y410D01*
X0Y409D02*
X7Y409D01*
X635Y409D02*
X664Y409D01*
X682Y409D02*
X688Y409D01*
X2708Y409D02*
X2715Y409D01*
X0Y408D02*
X7Y408D01*
X635Y408D02*
X664Y408D01*
X682Y408D02*
X688Y408D01*
X2708Y408D02*
X2715Y408D01*
X0Y407D02*
X7Y407D01*
X635Y407D02*
X663Y407D01*
X682Y407D02*
X688Y407D01*
X2708Y407D02*
X2715Y407D01*
X0Y406D02*
X7Y406D01*
X635Y406D02*
X663Y406D01*
X682Y406D02*
X688Y406D01*
X2708Y406D02*
X2715Y406D01*
X0Y405D02*
X7Y405D01*
X635Y405D02*
X662Y405D01*
X682Y405D02*
X687Y405D01*
X2708Y405D02*
X2715Y405D01*
X0Y404D02*
X7Y404D01*
X635Y404D02*
X661Y404D01*
X683Y404D02*
X687Y404D01*
X1548Y404D02*
X1551Y404D01*
X1586Y404D02*
X1588Y404D01*
X2708Y404D02*
X2715Y404D01*
X0Y403D02*
X7Y403D01*
X635Y403D02*
X658Y403D01*
X1546Y403D02*
X1553Y403D01*
X1584Y403D02*
X1591Y403D01*
X2708Y403D02*
X2715Y403D01*
X0Y402D02*
X7Y402D01*
X1545Y402D02*
X1555Y402D01*
X1584Y402D02*
X1592Y402D01*
X2708Y402D02*
X2715Y402D01*
X0Y401D02*
X7Y401D01*
X1544Y401D02*
X1556Y401D01*
X1584Y401D02*
X1593Y401D01*
X2708Y401D02*
X2715Y401D01*
X0Y400D02*
X7Y400D01*
X1543Y400D02*
X1557Y400D01*
X1584Y400D02*
X1594Y400D01*
X2708Y400D02*
X2715Y400D01*
X0Y399D02*
X7Y399D01*
X1543Y399D02*
X1559Y399D01*
X1584Y399D02*
X1594Y399D01*
X2708Y399D02*
X2715Y399D01*
X0Y398D02*
X7Y398D01*
X1543Y398D02*
X1560Y398D01*
X1585Y398D02*
X1595Y398D01*
X2708Y398D02*
X2715Y398D01*
X0Y397D02*
X7Y397D01*
X1542Y397D02*
X1549Y397D01*
X1551Y397D02*
X1561Y397D01*
X1588Y397D02*
X1595Y397D01*
X2708Y397D02*
X2715Y397D01*
X0Y396D02*
X7Y396D01*
X1542Y396D02*
X1548Y396D01*
X1552Y396D02*
X1563Y396D01*
X1589Y396D02*
X1595Y396D01*
X2708Y396D02*
X2715Y396D01*
X0Y395D02*
X7Y395D01*
X1542Y395D02*
X1548Y395D01*
X1553Y395D02*
X1564Y395D01*
X1589Y395D02*
X1595Y395D01*
X2708Y395D02*
X2715Y395D01*
X0Y394D02*
X7Y394D01*
X1542Y394D02*
X1548Y394D01*
X1554Y394D02*
X1565Y394D01*
X1589Y394D02*
X1596Y394D01*
X2708Y394D02*
X2715Y394D01*
X0Y393D02*
X7Y393D01*
X1542Y393D02*
X1548Y393D01*
X1556Y393D02*
X1566Y393D01*
X1589Y393D02*
X1596Y393D01*
X2708Y393D02*
X2715Y393D01*
X0Y392D02*
X7Y392D01*
X1542Y392D02*
X1548Y392D01*
X1557Y392D02*
X1568Y392D01*
X1589Y392D02*
X1596Y392D01*
X2708Y392D02*
X2715Y392D01*
X0Y391D02*
X7Y391D01*
X1542Y391D02*
X1548Y391D01*
X1558Y391D02*
X1569Y391D01*
X1589Y391D02*
X1596Y391D01*
X2708Y391D02*
X2715Y391D01*
X0Y390D02*
X7Y390D01*
X1542Y390D02*
X1548Y390D01*
X1560Y390D02*
X1570Y390D01*
X1589Y390D02*
X1596Y390D01*
X2708Y390D02*
X2715Y390D01*
X0Y389D02*
X7Y389D01*
X1542Y389D02*
X1548Y389D01*
X1561Y389D02*
X1572Y389D01*
X1589Y389D02*
X1596Y389D01*
X2708Y389D02*
X2715Y389D01*
X0Y388D02*
X7Y388D01*
X1542Y388D02*
X1548Y388D01*
X1562Y388D02*
X1573Y388D01*
X1589Y388D02*
X1596Y388D01*
X2708Y388D02*
X2715Y388D01*
X0Y387D02*
X7Y387D01*
X640Y387D02*
X644Y387D01*
X678Y387D02*
X682Y387D01*
X1542Y387D02*
X1548Y387D01*
X1564Y387D02*
X1574Y387D01*
X1589Y387D02*
X1596Y387D01*
X2708Y387D02*
X2715Y387D01*
X0Y386D02*
X7Y386D01*
X638Y386D02*
X646Y386D01*
X677Y386D02*
X683Y386D01*
X1542Y386D02*
X1548Y386D01*
X1565Y386D02*
X1575Y386D01*
X1589Y386D02*
X1596Y386D01*
X2708Y386D02*
X2715Y386D01*
X0Y385D02*
X7Y385D01*
X637Y385D02*
X647Y385D01*
X676Y385D02*
X685Y385D01*
X1542Y385D02*
X1548Y385D01*
X1566Y385D02*
X1577Y385D01*
X1589Y385D02*
X1596Y385D01*
X2708Y385D02*
X2715Y385D01*
X0Y384D02*
X7Y384D01*
X636Y384D02*
X649Y384D01*
X676Y384D02*
X686Y384D01*
X1542Y384D02*
X1548Y384D01*
X1567Y384D02*
X1578Y384D01*
X1589Y384D02*
X1596Y384D01*
X2708Y384D02*
X2715Y384D01*
X0Y383D02*
X7Y383D01*
X635Y383D02*
X650Y383D01*
X676Y383D02*
X686Y383D01*
X1542Y383D02*
X1548Y383D01*
X1569Y383D02*
X1579Y383D01*
X1589Y383D02*
X1596Y383D01*
X2708Y383D02*
X2715Y383D01*
X0Y382D02*
X7Y382D01*
X635Y382D02*
X651Y382D01*
X677Y382D02*
X687Y382D01*
X1542Y382D02*
X1548Y382D01*
X1570Y382D02*
X1581Y382D01*
X1589Y382D02*
X1596Y382D01*
X2708Y382D02*
X2715Y382D01*
X0Y381D02*
X7Y381D01*
X635Y381D02*
X653Y381D01*
X678Y381D02*
X687Y381D01*
X1542Y381D02*
X1548Y381D01*
X1571Y381D02*
X1582Y381D01*
X1589Y381D02*
X1596Y381D01*
X2708Y381D02*
X2715Y381D01*
X0Y380D02*
X7Y380D01*
X635Y380D02*
X641Y380D01*
X643Y380D02*
X654Y380D01*
X681Y380D02*
X688Y380D01*
X1542Y380D02*
X1548Y380D01*
X1573Y380D02*
X1583Y380D01*
X1589Y380D02*
X1596Y380D01*
X2708Y380D02*
X2715Y380D01*
X0Y379D02*
X7Y379D01*
X635Y379D02*
X641Y379D01*
X645Y379D02*
X655Y379D01*
X682Y379D02*
X688Y379D01*
X1542Y379D02*
X1548Y379D01*
X1574Y379D02*
X1584Y379D01*
X1589Y379D02*
X1596Y379D01*
X2708Y379D02*
X2715Y379D01*
X0Y378D02*
X7Y378D01*
X635Y378D02*
X641Y378D01*
X646Y378D02*
X656Y378D01*
X682Y378D02*
X688Y378D01*
X1542Y378D02*
X1549Y378D01*
X1575Y378D02*
X1586Y378D01*
X1589Y378D02*
X1595Y378D01*
X2708Y378D02*
X2715Y378D01*
X0Y377D02*
X7Y377D01*
X635Y377D02*
X641Y377D01*
X647Y377D02*
X658Y377D01*
X682Y377D02*
X688Y377D01*
X1543Y377D02*
X1550Y377D01*
X1576Y377D02*
X1587Y377D01*
X1589Y377D02*
X1595Y377D01*
X2708Y377D02*
X2715Y377D01*
X0Y376D02*
X7Y376D01*
X635Y376D02*
X641Y376D01*
X648Y376D02*
X659Y376D01*
X682Y376D02*
X688Y376D01*
X1543Y376D02*
X1553Y376D01*
X1578Y376D02*
X1595Y376D01*
X2708Y376D02*
X2715Y376D01*
X0Y375D02*
X7Y375D01*
X635Y375D02*
X641Y375D01*
X650Y375D02*
X660Y375D01*
X682Y375D02*
X688Y375D01*
X1543Y375D02*
X1554Y375D01*
X1579Y375D02*
X1595Y375D01*
X2708Y375D02*
X2715Y375D01*
X0Y374D02*
X7Y374D01*
X635Y374D02*
X641Y374D01*
X651Y374D02*
X662Y374D01*
X682Y374D02*
X688Y374D01*
X1544Y374D02*
X1554Y374D01*
X1580Y374D02*
X1595Y374D01*
X2708Y374D02*
X2715Y374D01*
X0Y373D02*
X7Y373D01*
X635Y373D02*
X641Y373D01*
X652Y373D02*
X663Y373D01*
X682Y373D02*
X688Y373D01*
X1545Y373D02*
X1554Y373D01*
X1582Y373D02*
X1594Y373D01*
X2708Y373D02*
X2715Y373D01*
X0Y372D02*
X7Y372D01*
X635Y372D02*
X641Y372D01*
X654Y372D02*
X664Y372D01*
X682Y372D02*
X688Y372D01*
X1546Y372D02*
X1554Y372D01*
X1583Y372D02*
X1593Y372D01*
X2708Y372D02*
X2715Y372D01*
X0Y371D02*
X7Y371D01*
X635Y371D02*
X641Y371D01*
X655Y371D02*
X665Y371D01*
X682Y371D02*
X688Y371D01*
X1547Y371D02*
X1553Y371D01*
X1584Y371D02*
X1592Y371D01*
X2708Y371D02*
X2715Y371D01*
X0Y370D02*
X7Y370D01*
X635Y370D02*
X641Y370D01*
X656Y370D02*
X667Y370D01*
X682Y370D02*
X688Y370D01*
X1550Y370D02*
X1552Y370D01*
X1587Y370D02*
X1590Y370D01*
X2708Y370D02*
X2715Y370D01*
X0Y369D02*
X7Y369D01*
X635Y369D02*
X641Y369D01*
X657Y369D02*
X668Y369D01*
X682Y369D02*
X688Y369D01*
X2708Y369D02*
X2715Y369D01*
X0Y368D02*
X7Y368D01*
X635Y368D02*
X641Y368D01*
X659Y368D02*
X669Y368D01*
X682Y368D02*
X688Y368D01*
X2708Y368D02*
X2715Y368D01*
X0Y367D02*
X7Y367D01*
X635Y367D02*
X641Y367D01*
X660Y367D02*
X671Y367D01*
X682Y367D02*
X688Y367D01*
X2708Y367D02*
X2715Y367D01*
X0Y366D02*
X7Y366D01*
X635Y366D02*
X641Y366D01*
X661Y366D02*
X672Y366D01*
X682Y366D02*
X688Y366D01*
X2708Y366D02*
X2715Y366D01*
X0Y365D02*
X7Y365D01*
X635Y365D02*
X641Y365D01*
X663Y365D02*
X673Y365D01*
X682Y365D02*
X688Y365D01*
X2708Y365D02*
X2715Y365D01*
X0Y364D02*
X7Y364D01*
X635Y364D02*
X641Y364D01*
X664Y364D02*
X674Y364D01*
X682Y364D02*
X688Y364D01*
X2708Y364D02*
X2715Y364D01*
X0Y363D02*
X7Y363D01*
X635Y363D02*
X641Y363D01*
X665Y363D02*
X676Y363D01*
X682Y363D02*
X688Y363D01*
X2708Y363D02*
X2715Y363D01*
X0Y362D02*
X7Y362D01*
X635Y362D02*
X641Y362D01*
X666Y362D02*
X677Y362D01*
X682Y362D02*
X688Y362D01*
X2708Y362D02*
X2715Y362D01*
X0Y361D02*
X7Y361D01*
X635Y361D02*
X641Y361D01*
X668Y361D02*
X678Y361D01*
X682Y361D02*
X688Y361D01*
X2708Y361D02*
X2715Y361D01*
X0Y360D02*
X7Y360D01*
X635Y360D02*
X643Y360D01*
X669Y360D02*
X688Y360D01*
X2708Y360D02*
X2715Y360D01*
X0Y359D02*
X7Y359D01*
X635Y359D02*
X645Y359D01*
X670Y359D02*
X688Y359D01*
X2708Y359D02*
X2715Y359D01*
X0Y358D02*
X7Y358D01*
X636Y358D02*
X646Y358D01*
X672Y358D02*
X687Y358D01*
X2708Y358D02*
X2715Y358D01*
X0Y357D02*
X7Y357D01*
X636Y357D02*
X646Y357D01*
X673Y357D02*
X687Y357D01*
X2708Y357D02*
X2715Y357D01*
X0Y356D02*
X7Y356D01*
X637Y356D02*
X646Y356D01*
X674Y356D02*
X686Y356D01*
X2708Y356D02*
X2715Y356D01*
X0Y355D02*
X7Y355D01*
X638Y355D02*
X646Y355D01*
X675Y355D02*
X685Y355D01*
X2708Y355D02*
X2715Y355D01*
X0Y354D02*
X7Y354D01*
X640Y354D02*
X645Y354D01*
X677Y354D02*
X684Y354D01*
X1544Y354D02*
X1546Y354D01*
X1580Y354D02*
X1587Y354D01*
X2708Y354D02*
X2715Y354D01*
X0Y353D02*
X7Y353D01*
X1543Y353D02*
X1548Y353D01*
X1577Y353D02*
X1590Y353D01*
X2708Y353D02*
X2715Y353D01*
X0Y352D02*
X7Y352D01*
X1543Y352D02*
X1550Y352D01*
X1576Y352D02*
X1591Y352D01*
X2708Y352D02*
X2715Y352D01*
X0Y351D02*
X7Y351D01*
X1542Y351D02*
X1552Y351D01*
X1575Y351D02*
X1593Y351D01*
X2708Y351D02*
X2715Y351D01*
X0Y350D02*
X7Y350D01*
X1542Y350D02*
X1553Y350D01*
X1574Y350D02*
X1593Y350D01*
X2708Y350D02*
X2715Y350D01*
X0Y349D02*
X7Y349D01*
X1543Y349D02*
X1555Y349D01*
X1573Y349D02*
X1594Y349D01*
X2708Y349D02*
X2715Y349D01*
X0Y348D02*
X7Y348D01*
X1544Y348D02*
X1557Y348D01*
X1573Y348D02*
X1595Y348D01*
X2708Y348D02*
X2715Y348D01*
X0Y347D02*
X7Y347D01*
X1545Y347D02*
X1558Y347D01*
X1572Y347D02*
X1580Y347D01*
X1587Y347D02*
X1595Y347D01*
X2708Y347D02*
X2715Y347D01*
X0Y346D02*
X7Y346D01*
X1547Y346D02*
X1560Y346D01*
X1572Y346D02*
X1579Y346D01*
X1589Y346D02*
X1595Y346D01*
X2708Y346D02*
X2715Y346D01*
X0Y345D02*
X7Y345D01*
X1549Y345D02*
X1562Y345D01*
X1572Y345D02*
X1578Y345D01*
X1589Y345D02*
X1595Y345D01*
X2708Y345D02*
X2715Y345D01*
X0Y344D02*
X7Y344D01*
X1551Y344D02*
X1564Y344D01*
X1572Y344D02*
X1578Y344D01*
X1589Y344D02*
X1595Y344D01*
X2708Y344D02*
X2715Y344D01*
X0Y343D02*
X7Y343D01*
X1552Y343D02*
X1565Y343D01*
X1572Y343D02*
X1578Y343D01*
X1589Y343D02*
X1596Y343D01*
X2708Y343D02*
X2715Y343D01*
X0Y342D02*
X7Y342D01*
X1554Y342D02*
X1567Y342D01*
X1572Y342D02*
X1578Y342D01*
X1589Y342D02*
X1596Y342D01*
X2708Y342D02*
X2715Y342D01*
X0Y341D02*
X7Y341D01*
X1556Y341D02*
X1569Y341D01*
X1572Y341D02*
X1578Y341D01*
X1589Y341D02*
X1596Y341D01*
X2708Y341D02*
X2715Y341D01*
X0Y340D02*
X7Y340D01*
X1557Y340D02*
X1578Y340D01*
X1589Y340D02*
X1596Y340D01*
X2708Y340D02*
X2715Y340D01*
X0Y339D02*
X7Y339D01*
X1559Y339D02*
X1578Y339D01*
X1589Y339D02*
X1596Y339D01*
X2708Y339D02*
X2715Y339D01*
X0Y338D02*
X7Y338D01*
X1561Y338D02*
X1578Y338D01*
X1589Y338D02*
X1596Y338D01*
X2708Y338D02*
X2715Y338D01*
X0Y337D02*
X7Y337D01*
X636Y337D02*
X639Y337D01*
X671Y337D02*
X681Y337D01*
X1562Y337D02*
X1578Y337D01*
X1589Y337D02*
X1596Y337D01*
X2708Y337D02*
X2715Y337D01*
X0Y336D02*
X7Y336D01*
X635Y336D02*
X641Y336D01*
X669Y336D02*
X683Y336D01*
X1564Y336D02*
X1578Y336D01*
X1589Y336D02*
X1596Y336D01*
X2708Y336D02*
X2715Y336D01*
X0Y335D02*
X7Y335D01*
X635Y335D02*
X643Y335D01*
X668Y335D02*
X684Y335D01*
X1566Y335D02*
X1578Y335D01*
X1589Y335D02*
X1596Y335D01*
X2708Y335D02*
X2715Y335D01*
X0Y334D02*
X7Y334D01*
X635Y334D02*
X644Y334D01*
X667Y334D02*
X685Y334D01*
X1568Y334D02*
X1578Y334D01*
X1589Y334D02*
X1596Y334D01*
X2708Y334D02*
X2715Y334D01*
X0Y333D02*
X7Y333D01*
X635Y333D02*
X646Y333D01*
X666Y333D02*
X686Y333D01*
X1569Y333D02*
X1578Y333D01*
X1589Y333D02*
X1596Y333D01*
X2708Y333D02*
X2715Y333D01*
X0Y332D02*
X7Y332D01*
X635Y332D02*
X648Y332D01*
X665Y332D02*
X686Y332D01*
X1571Y332D02*
X1578Y332D01*
X1589Y332D02*
X1596Y332D01*
X2708Y332D02*
X2715Y332D01*
X0Y331D02*
X7Y331D01*
X636Y331D02*
X649Y331D01*
X665Y331D02*
X687Y331D01*
X1572Y331D02*
X1578Y331D01*
X1589Y331D02*
X1596Y331D01*
X2708Y331D02*
X2715Y331D01*
X0Y330D02*
X7Y330D01*
X638Y330D02*
X651Y330D01*
X665Y330D02*
X672Y330D01*
X680Y330D02*
X687Y330D01*
X1572Y330D02*
X1578Y330D01*
X1589Y330D02*
X1596Y330D01*
X2708Y330D02*
X2715Y330D01*
X0Y329D02*
X7Y329D01*
X640Y329D02*
X653Y329D01*
X664Y329D02*
X671Y329D01*
X681Y329D02*
X688Y329D01*
X1572Y329D02*
X1578Y329D01*
X1589Y329D02*
X1596Y329D01*
X2708Y329D02*
X2715Y329D01*
X0Y328D02*
X7Y328D01*
X642Y328D02*
X655Y328D01*
X664Y328D02*
X670Y328D01*
X682Y328D02*
X688Y328D01*
X1572Y328D02*
X1578Y328D01*
X1589Y328D02*
X1596Y328D01*
X2708Y328D02*
X2715Y328D01*
X0Y327D02*
X7Y327D01*
X643Y327D02*
X656Y327D01*
X664Y327D02*
X670Y327D01*
X682Y327D02*
X688Y327D01*
X1572Y327D02*
X1578Y327D01*
X1589Y327D02*
X1596Y327D01*
X2708Y327D02*
X2715Y327D01*
X0Y326D02*
X7Y326D01*
X645Y326D02*
X658Y326D01*
X664Y326D02*
X670Y326D01*
X682Y326D02*
X688Y326D01*
X1544Y326D02*
X1596Y326D01*
X2708Y326D02*
X2715Y326D01*
X0Y325D02*
X7Y325D01*
X647Y325D02*
X660Y325D01*
X664Y325D02*
X670Y325D01*
X682Y325D02*
X688Y325D01*
X1543Y325D02*
X1596Y325D01*
X2708Y325D02*
X2715Y325D01*
X0Y324D02*
X7Y324D01*
X648Y324D02*
X661Y324D01*
X664Y324D02*
X670Y324D01*
X682Y324D02*
X688Y324D01*
X1542Y324D02*
X1596Y324D01*
X2708Y324D02*
X2715Y324D01*
X0Y323D02*
X7Y323D01*
X650Y323D02*
X670Y323D01*
X682Y323D02*
X688Y323D01*
X1542Y323D02*
X1596Y323D01*
X2708Y323D02*
X2715Y323D01*
X0Y322D02*
X7Y322D01*
X652Y322D02*
X670Y322D01*
X682Y322D02*
X688Y322D01*
X1543Y322D02*
X1596Y322D01*
X2708Y322D02*
X2715Y322D01*
X0Y321D02*
X7Y321D01*
X654Y321D02*
X670Y321D01*
X682Y321D02*
X688Y321D01*
X1543Y321D02*
X1596Y321D01*
X2708Y321D02*
X2715Y321D01*
X0Y320D02*
X7Y320D01*
X655Y320D02*
X670Y320D01*
X682Y320D02*
X688Y320D01*
X1545Y320D02*
X1595Y320D01*
X2708Y320D02*
X2715Y320D01*
X0Y319D02*
X7Y319D01*
X657Y319D02*
X670Y319D01*
X682Y319D02*
X688Y319D01*
X2708Y319D02*
X2715Y319D01*
X0Y318D02*
X7Y318D01*
X659Y318D02*
X670Y318D01*
X682Y318D02*
X688Y318D01*
X2708Y318D02*
X2715Y318D01*
X0Y317D02*
X7Y317D01*
X660Y317D02*
X670Y317D01*
X682Y317D02*
X688Y317D01*
X2708Y317D02*
X2715Y317D01*
X0Y316D02*
X7Y316D01*
X662Y316D02*
X670Y316D01*
X682Y316D02*
X688Y316D01*
X2708Y316D02*
X2715Y316D01*
X0Y315D02*
X7Y315D01*
X664Y315D02*
X670Y315D01*
X682Y315D02*
X688Y315D01*
X2708Y315D02*
X2715Y315D01*
X0Y314D02*
X7Y314D01*
X664Y314D02*
X670Y314D01*
X682Y314D02*
X688Y314D01*
X2708Y314D02*
X2715Y314D01*
X0Y313D02*
X7Y313D01*
X664Y313D02*
X670Y313D01*
X682Y313D02*
X688Y313D01*
X2708Y313D02*
X2715Y313D01*
X0Y312D02*
X7Y312D01*
X664Y312D02*
X670Y312D01*
X682Y312D02*
X688Y312D01*
X2708Y312D02*
X2715Y312D01*
X0Y311D02*
X7Y311D01*
X664Y311D02*
X670Y311D01*
X682Y311D02*
X688Y311D01*
X2708Y311D02*
X2715Y311D01*
X0Y310D02*
X7Y310D01*
X638Y310D02*
X688Y310D01*
X2708Y310D02*
X2715Y310D01*
X0Y309D02*
X7Y309D01*
X636Y309D02*
X688Y309D01*
X2708Y309D02*
X2715Y309D01*
X0Y308D02*
X7Y308D01*
X635Y308D02*
X688Y308D01*
X2708Y308D02*
X2715Y308D01*
X0Y307D02*
X7Y307D01*
X635Y307D02*
X688Y307D01*
X2708Y307D02*
X2715Y307D01*
X0Y306D02*
X7Y306D01*
X635Y306D02*
X688Y306D01*
X2708Y306D02*
X2715Y306D01*
X0Y305D02*
X7Y305D01*
X635Y305D02*
X688Y305D01*
X2708Y305D02*
X2715Y305D01*
X0Y304D02*
X7Y304D01*
X636Y304D02*
X688Y304D01*
X1544Y304D02*
X1546Y304D01*
X1580Y304D02*
X1588Y304D01*
X2708Y304D02*
X2715Y304D01*
X0Y303D02*
X7Y303D01*
X1543Y303D02*
X1548Y303D01*
X1577Y303D02*
X1590Y303D01*
X2708Y303D02*
X2715Y303D01*
X0Y302D02*
X7Y302D01*
X1543Y302D02*
X1550Y302D01*
X1576Y302D02*
X1592Y302D01*
X2708Y302D02*
X2715Y302D01*
X0Y301D02*
X7Y301D01*
X1542Y301D02*
X1552Y301D01*
X1575Y301D02*
X1593Y301D01*
X2708Y301D02*
X2715Y301D01*
X0Y300D02*
X7Y300D01*
X1542Y300D02*
X1553Y300D01*
X1574Y300D02*
X1593Y300D01*
X2708Y300D02*
X2715Y300D01*
X0Y299D02*
X7Y299D01*
X1543Y299D02*
X1555Y299D01*
X1573Y299D02*
X1594Y299D01*
X2708Y299D02*
X2715Y299D01*
X0Y298D02*
X7Y298D01*
X1544Y298D02*
X1557Y298D01*
X1573Y298D02*
X1595Y298D01*
X2708Y298D02*
X2715Y298D01*
X0Y297D02*
X7Y297D01*
X1545Y297D02*
X1558Y297D01*
X1572Y297D02*
X1580Y297D01*
X1587Y297D02*
X1595Y297D01*
X2708Y297D02*
X2715Y297D01*
X0Y296D02*
X7Y296D01*
X1547Y296D02*
X1560Y296D01*
X1572Y296D02*
X1579Y296D01*
X1589Y296D02*
X1595Y296D01*
X2708Y296D02*
X2715Y296D01*
X0Y295D02*
X7Y295D01*
X1549Y295D02*
X1562Y295D01*
X1572Y295D02*
X1578Y295D01*
X1589Y295D02*
X1595Y295D01*
X2708Y295D02*
X2715Y295D01*
X0Y294D02*
X7Y294D01*
X1551Y294D02*
X1564Y294D01*
X1572Y294D02*
X1578Y294D01*
X1589Y294D02*
X1595Y294D01*
X2708Y294D02*
X2715Y294D01*
X0Y293D02*
X7Y293D01*
X1552Y293D02*
X1565Y293D01*
X1572Y293D02*
X1578Y293D01*
X1589Y293D02*
X1596Y293D01*
X2708Y293D02*
X2715Y293D01*
X0Y292D02*
X7Y292D01*
X1554Y292D02*
X1567Y292D01*
X1572Y292D02*
X1578Y292D01*
X1589Y292D02*
X1596Y292D01*
X2708Y292D02*
X2715Y292D01*
X0Y291D02*
X7Y291D01*
X1556Y291D02*
X1569Y291D01*
X1572Y291D02*
X1578Y291D01*
X1589Y291D02*
X1596Y291D01*
X2708Y291D02*
X2715Y291D01*
X0Y290D02*
X7Y290D01*
X1557Y290D02*
X1578Y290D01*
X1589Y290D02*
X1596Y290D01*
X2708Y290D02*
X2715Y290D01*
X0Y289D02*
X7Y289D01*
X1559Y289D02*
X1578Y289D01*
X1589Y289D02*
X1596Y289D01*
X2708Y289D02*
X2715Y289D01*
X0Y288D02*
X7Y288D01*
X1561Y288D02*
X1578Y288D01*
X1589Y288D02*
X1596Y288D01*
X2708Y288D02*
X2715Y288D01*
X0Y287D02*
X7Y287D01*
X636Y287D02*
X639Y287D01*
X671Y287D02*
X681Y287D01*
X1563Y287D02*
X1578Y287D01*
X1589Y287D02*
X1596Y287D01*
X2708Y287D02*
X2715Y287D01*
X0Y286D02*
X7Y286D01*
X635Y286D02*
X641Y286D01*
X669Y286D02*
X683Y286D01*
X1564Y286D02*
X1578Y286D01*
X1589Y286D02*
X1596Y286D01*
X2708Y286D02*
X2715Y286D01*
X0Y285D02*
X7Y285D01*
X635Y285D02*
X643Y285D01*
X668Y285D02*
X684Y285D01*
X1566Y285D02*
X1578Y285D01*
X1589Y285D02*
X1596Y285D01*
X2708Y285D02*
X2715Y285D01*
X0Y284D02*
X7Y284D01*
X635Y284D02*
X644Y284D01*
X667Y284D02*
X685Y284D01*
X1568Y284D02*
X1578Y284D01*
X1589Y284D02*
X1596Y284D01*
X2708Y284D02*
X2715Y284D01*
X0Y283D02*
X7Y283D01*
X635Y283D02*
X646Y283D01*
X666Y283D02*
X686Y283D01*
X1569Y283D02*
X1578Y283D01*
X1589Y283D02*
X1596Y283D01*
X2708Y283D02*
X2715Y283D01*
X0Y282D02*
X7Y282D01*
X635Y282D02*
X648Y282D01*
X665Y282D02*
X687Y282D01*
X1571Y282D02*
X1578Y282D01*
X1589Y282D02*
X1596Y282D01*
X2708Y282D02*
X2715Y282D01*
X0Y281D02*
X7Y281D01*
X637Y281D02*
X650Y281D01*
X665Y281D02*
X687Y281D01*
X1572Y281D02*
X1578Y281D01*
X1589Y281D02*
X1596Y281D01*
X2708Y281D02*
X2715Y281D01*
X0Y280D02*
X7Y280D01*
X638Y280D02*
X651Y280D01*
X664Y280D02*
X672Y280D01*
X680Y280D02*
X687Y280D01*
X1572Y280D02*
X1578Y280D01*
X1589Y280D02*
X1596Y280D01*
X2708Y280D02*
X2715Y280D01*
X0Y279D02*
X7Y279D01*
X640Y279D02*
X653Y279D01*
X664Y279D02*
X671Y279D01*
X681Y279D02*
X688Y279D01*
X1572Y279D02*
X1578Y279D01*
X1589Y279D02*
X1596Y279D01*
X2708Y279D02*
X2715Y279D01*
X0Y278D02*
X7Y278D01*
X642Y278D02*
X655Y278D01*
X664Y278D02*
X670Y278D01*
X682Y278D02*
X688Y278D01*
X1572Y278D02*
X1578Y278D01*
X1589Y278D02*
X1596Y278D01*
X2708Y278D02*
X2715Y278D01*
X0Y277D02*
X7Y277D01*
X643Y277D02*
X656Y277D01*
X664Y277D02*
X670Y277D01*
X682Y277D02*
X688Y277D01*
X1572Y277D02*
X1578Y277D01*
X1589Y277D02*
X1596Y277D01*
X2708Y277D02*
X2715Y277D01*
X0Y276D02*
X7Y276D01*
X645Y276D02*
X658Y276D01*
X664Y276D02*
X670Y276D01*
X682Y276D02*
X688Y276D01*
X1544Y276D02*
X1596Y276D01*
X2708Y276D02*
X2715Y276D01*
X0Y275D02*
X7Y275D01*
X647Y275D02*
X660Y275D01*
X664Y275D02*
X670Y275D01*
X682Y275D02*
X688Y275D01*
X1543Y275D02*
X1596Y275D01*
X2708Y275D02*
X2715Y275D01*
X0Y274D02*
X7Y274D01*
X648Y274D02*
X662Y274D01*
X664Y274D02*
X670Y274D01*
X682Y274D02*
X688Y274D01*
X1542Y274D02*
X1596Y274D01*
X2708Y274D02*
X2715Y274D01*
X0Y273D02*
X7Y273D01*
X650Y273D02*
X670Y273D01*
X682Y273D02*
X688Y273D01*
X1542Y273D02*
X1596Y273D01*
X2708Y273D02*
X2715Y273D01*
X0Y272D02*
X7Y272D01*
X652Y272D02*
X670Y272D01*
X682Y272D02*
X688Y272D01*
X1543Y272D02*
X1596Y272D01*
X2708Y272D02*
X2715Y272D01*
X0Y271D02*
X7Y271D01*
X654Y271D02*
X670Y271D01*
X682Y271D02*
X688Y271D01*
X1543Y271D02*
X1596Y271D01*
X2708Y271D02*
X2715Y271D01*
X0Y270D02*
X7Y270D01*
X655Y270D02*
X670Y270D01*
X682Y270D02*
X688Y270D01*
X1545Y270D02*
X1595Y270D01*
X2708Y270D02*
X2715Y270D01*
X0Y269D02*
X7Y269D01*
X657Y269D02*
X670Y269D01*
X682Y269D02*
X688Y269D01*
X2708Y269D02*
X2715Y269D01*
X0Y268D02*
X7Y268D01*
X659Y268D02*
X670Y268D01*
X682Y268D02*
X688Y268D01*
X2708Y268D02*
X2715Y268D01*
X0Y267D02*
X7Y267D01*
X660Y267D02*
X670Y267D01*
X682Y267D02*
X688Y267D01*
X2708Y267D02*
X2715Y267D01*
X0Y266D02*
X7Y266D01*
X662Y266D02*
X670Y266D01*
X682Y266D02*
X688Y266D01*
X2708Y266D02*
X2715Y266D01*
X0Y265D02*
X7Y265D01*
X664Y265D02*
X670Y265D01*
X682Y265D02*
X688Y265D01*
X2708Y265D02*
X2715Y265D01*
X0Y264D02*
X7Y264D01*
X664Y264D02*
X670Y264D01*
X682Y264D02*
X688Y264D01*
X2708Y264D02*
X2715Y264D01*
X0Y263D02*
X7Y263D01*
X664Y263D02*
X670Y263D01*
X682Y263D02*
X688Y263D01*
X2708Y263D02*
X2715Y263D01*
X0Y262D02*
X7Y262D01*
X664Y262D02*
X670Y262D01*
X682Y262D02*
X688Y262D01*
X2708Y262D02*
X2715Y262D01*
X0Y261D02*
X7Y261D01*
X664Y261D02*
X670Y261D01*
X682Y261D02*
X688Y261D01*
X2708Y261D02*
X2715Y261D01*
X0Y260D02*
X7Y260D01*
X637Y260D02*
X688Y260D01*
X2708Y260D02*
X2715Y260D01*
X0Y259D02*
X7Y259D01*
X636Y259D02*
X688Y259D01*
X2708Y259D02*
X2715Y259D01*
X0Y258D02*
X7Y258D01*
X635Y258D02*
X688Y258D01*
X2708Y258D02*
X2715Y258D01*
X0Y257D02*
X7Y257D01*
X635Y257D02*
X688Y257D01*
X2708Y257D02*
X2715Y257D01*
X0Y256D02*
X7Y256D01*
X635Y256D02*
X688Y256D01*
X2708Y256D02*
X2715Y256D01*
X0Y255D02*
X7Y255D01*
X635Y255D02*
X688Y255D01*
X2708Y255D02*
X2715Y255D01*
X0Y254D02*
X7Y254D01*
X636Y254D02*
X688Y254D01*
X1589Y254D02*
X1595Y254D01*
X2708Y254D02*
X2715Y254D01*
X0Y253D02*
X7Y253D01*
X1590Y253D02*
X1596Y253D01*
X2708Y253D02*
X2715Y253D01*
X0Y252D02*
X7Y252D01*
X1590Y252D02*
X1596Y252D01*
X2229Y252D02*
X2231Y252D01*
X2708Y252D02*
X2715Y252D01*
X0Y251D02*
X7Y251D01*
X1591Y251D02*
X1596Y251D01*
X2229Y251D02*
X2231Y251D01*
X2708Y251D02*
X2715Y251D01*
X0Y250D02*
X7Y250D01*
X1591Y250D02*
X1596Y250D01*
X2229Y250D02*
X2231Y250D01*
X2708Y250D02*
X2715Y250D01*
X0Y249D02*
X7Y249D01*
X1592Y249D02*
X1596Y249D01*
X2229Y249D02*
X2231Y249D01*
X2708Y249D02*
X2715Y249D01*
X0Y248D02*
X7Y248D01*
X1592Y248D02*
X1596Y248D01*
X2229Y248D02*
X2231Y248D01*
X2708Y248D02*
X2715Y248D01*
X0Y247D02*
X7Y247D01*
X1592Y247D02*
X1596Y247D01*
X2229Y247D02*
X2231Y247D01*
X2708Y247D02*
X2715Y247D01*
X0Y246D02*
X7Y246D01*
X1593Y246D02*
X1596Y246D01*
X2229Y246D02*
X2231Y246D01*
X2708Y246D02*
X2715Y246D01*
X0Y245D02*
X7Y245D01*
X1593Y245D02*
X1596Y245D01*
X2229Y245D02*
X2231Y245D01*
X2708Y245D02*
X2715Y245D01*
X0Y244D02*
X7Y244D01*
X1593Y244D02*
X1596Y244D01*
X2229Y244D02*
X2231Y244D01*
X2708Y244D02*
X2715Y244D01*
X0Y243D02*
X7Y243D01*
X1593Y243D02*
X1596Y243D01*
X2229Y243D02*
X2231Y243D01*
X2708Y243D02*
X2715Y243D01*
X0Y242D02*
X7Y242D01*
X1594Y242D02*
X1596Y242D01*
X2229Y242D02*
X2231Y242D01*
X2708Y242D02*
X2715Y242D01*
X0Y241D02*
X7Y241D01*
X1594Y241D02*
X1596Y241D01*
X2229Y241D02*
X2231Y241D01*
X2708Y241D02*
X2715Y241D01*
X0Y240D02*
X7Y240D01*
X1594Y240D02*
X1596Y240D01*
X2229Y240D02*
X2231Y240D01*
X2708Y240D02*
X2715Y240D01*
X0Y239D02*
X7Y239D01*
X1543Y239D02*
X1543Y239D01*
X1594Y239D02*
X1596Y239D01*
X2229Y239D02*
X2231Y239D01*
X2708Y239D02*
X2715Y239D01*
X0Y238D02*
X7Y238D01*
X1543Y238D02*
X1544Y238D01*
X1594Y238D02*
X1596Y238D01*
X2229Y238D02*
X2231Y238D01*
X2708Y238D02*
X2715Y238D01*
X0Y237D02*
X7Y237D01*
X677Y237D02*
X688Y237D01*
X1542Y237D02*
X1544Y237D01*
X1593Y237D02*
X1596Y237D01*
X2229Y237D02*
X2231Y237D01*
X2708Y237D02*
X2715Y237D01*
X0Y236D02*
X7Y236D01*
X676Y236D02*
X688Y236D01*
X1543Y236D02*
X1544Y236D01*
X1593Y236D02*
X1596Y236D01*
X2229Y236D02*
X2231Y236D01*
X2708Y236D02*
X2715Y236D01*
X0Y235D02*
X7Y235D01*
X676Y235D02*
X688Y235D01*
X1543Y235D02*
X1544Y235D01*
X1593Y235D02*
X1596Y235D01*
X2229Y235D02*
X2231Y235D01*
X2708Y235D02*
X2715Y235D01*
X0Y234D02*
X7Y234D01*
X676Y234D02*
X688Y234D01*
X1544Y234D02*
X1544Y234D01*
X1593Y234D02*
X1596Y234D01*
X2229Y234D02*
X2231Y234D01*
X2708Y234D02*
X2715Y234D01*
X0Y233D02*
X7Y233D01*
X676Y233D02*
X688Y233D01*
X1592Y233D02*
X1596Y233D01*
X2229Y233D02*
X2231Y233D01*
X2708Y233D02*
X2715Y233D01*
X0Y232D02*
X7Y232D01*
X677Y232D02*
X688Y232D01*
X1592Y232D02*
X1596Y232D01*
X2229Y232D02*
X2231Y232D01*
X2708Y232D02*
X2715Y232D01*
X0Y231D02*
X7Y231D01*
X678Y231D02*
X688Y231D01*
X1592Y231D02*
X1596Y231D01*
X2229Y231D02*
X2231Y231D01*
X2708Y231D02*
X2715Y231D01*
X0Y230D02*
X7Y230D01*
X682Y230D02*
X688Y230D01*
X1591Y230D02*
X1596Y230D01*
X2229Y230D02*
X2231Y230D01*
X2708Y230D02*
X2715Y230D01*
X0Y229D02*
X7Y229D01*
X682Y229D02*
X688Y229D01*
X1591Y229D02*
X1596Y229D01*
X2229Y229D02*
X2231Y229D01*
X2708Y229D02*
X2715Y229D01*
X0Y228D02*
X7Y228D01*
X682Y228D02*
X688Y228D01*
X1590Y228D02*
X1596Y228D01*
X2229Y228D02*
X2231Y228D01*
X2708Y228D02*
X2715Y228D01*
X0Y227D02*
X7Y227D01*
X682Y227D02*
X688Y227D01*
X1590Y227D02*
X1596Y227D01*
X2229Y227D02*
X2231Y227D01*
X2708Y227D02*
X2715Y227D01*
X0Y226D02*
X7Y226D01*
X682Y226D02*
X688Y226D01*
X1589Y226D02*
X1596Y226D01*
X2229Y226D02*
X2231Y226D01*
X2708Y226D02*
X2715Y226D01*
X0Y225D02*
X7Y225D01*
X682Y225D02*
X688Y225D01*
X1588Y225D02*
X1596Y225D01*
X2229Y225D02*
X2231Y225D01*
X2708Y225D02*
X2715Y225D01*
X0Y224D02*
X7Y224D01*
X681Y224D02*
X688Y224D01*
X1588Y224D02*
X1596Y224D01*
X2229Y224D02*
X2231Y224D01*
X2708Y224D02*
X2715Y224D01*
X0Y223D02*
X7Y223D01*
X636Y223D02*
X688Y223D01*
X1587Y223D02*
X1596Y223D01*
X2229Y223D02*
X2231Y223D01*
X2708Y223D02*
X2715Y223D01*
X0Y222D02*
X7Y222D01*
X635Y222D02*
X688Y222D01*
X1586Y222D02*
X1596Y222D01*
X2229Y222D02*
X2231Y222D01*
X2708Y222D02*
X2715Y222D01*
X0Y221D02*
X7Y221D01*
X635Y221D02*
X688Y221D01*
X1585Y221D02*
X1596Y221D01*
X2229Y221D02*
X2231Y221D01*
X2708Y221D02*
X2715Y221D01*
X0Y220D02*
X7Y220D01*
X635Y220D02*
X688Y220D01*
X1587Y220D02*
X1595Y220D01*
X2229Y220D02*
X2231Y220D01*
X2708Y220D02*
X2715Y220D01*
X0Y219D02*
X7Y219D01*
X21Y219D02*
X50Y219D01*
X72Y219D02*
X74Y219D01*
X635Y219D02*
X688Y219D01*
X2229Y219D02*
X2231Y219D01*
X2708Y219D02*
X2715Y219D01*
X0Y218D02*
X7Y218D01*
X21Y218D02*
X51Y218D01*
X71Y218D02*
X75Y218D01*
X636Y218D02*
X688Y218D01*
X2229Y218D02*
X2231Y218D01*
X2708Y218D02*
X2715Y218D01*
X0Y217D02*
X7Y217D01*
X21Y217D02*
X52Y217D01*
X70Y217D02*
X75Y217D01*
X638Y217D02*
X688Y217D01*
X2229Y217D02*
X2231Y217D01*
X2708Y217D02*
X2715Y217D01*
X0Y216D02*
X7Y216D01*
X21Y216D02*
X52Y216D01*
X70Y216D02*
X76Y216D01*
X682Y216D02*
X688Y216D01*
X2229Y216D02*
X2231Y216D01*
X2708Y216D02*
X2715Y216D01*
X0Y215D02*
X7Y215D01*
X21Y215D02*
X52Y215D01*
X70Y215D02*
X76Y215D01*
X682Y215D02*
X688Y215D01*
X2229Y215D02*
X2231Y215D01*
X2708Y215D02*
X2715Y215D01*
X0Y214D02*
X7Y214D01*
X21Y214D02*
X52Y214D01*
X70Y214D02*
X76Y214D01*
X682Y214D02*
X688Y214D01*
X2229Y214D02*
X2231Y214D01*
X2708Y214D02*
X2715Y214D01*
X0Y213D02*
X7Y213D01*
X21Y213D02*
X27Y213D01*
X46Y213D02*
X52Y213D01*
X70Y213D02*
X76Y213D01*
X682Y213D02*
X688Y213D01*
X2229Y213D02*
X2231Y213D01*
X2708Y213D02*
X2715Y213D01*
X0Y212D02*
X7Y212D01*
X21Y212D02*
X27Y212D01*
X47Y212D02*
X51Y212D01*
X70Y212D02*
X76Y212D01*
X682Y212D02*
X688Y212D01*
X2229Y212D02*
X2231Y212D01*
X2708Y212D02*
X2715Y212D01*
X0Y211D02*
X7Y211D01*
X21Y211D02*
X27Y211D01*
X48Y211D02*
X51Y211D01*
X70Y211D02*
X76Y211D01*
X682Y211D02*
X688Y211D01*
X2229Y211D02*
X2231Y211D01*
X2708Y211D02*
X2715Y211D01*
X0Y210D02*
X7Y210D01*
X21Y210D02*
X27Y210D01*
X70Y210D02*
X76Y210D01*
X678Y210D02*
X688Y210D01*
X2229Y210D02*
X2231Y210D01*
X2708Y210D02*
X2715Y210D01*
X0Y209D02*
X7Y209D01*
X21Y209D02*
X27Y209D01*
X70Y209D02*
X76Y209D01*
X677Y209D02*
X688Y209D01*
X2229Y209D02*
X2231Y209D01*
X2708Y209D02*
X2715Y209D01*
X0Y208D02*
X7Y208D01*
X21Y208D02*
X27Y208D01*
X70Y208D02*
X76Y208D01*
X676Y208D02*
X688Y208D01*
X2229Y208D02*
X2231Y208D01*
X2708Y208D02*
X2715Y208D01*
X0Y207D02*
X7Y207D01*
X21Y207D02*
X27Y207D01*
X70Y207D02*
X76Y207D01*
X676Y207D02*
X688Y207D01*
X2229Y207D02*
X2231Y207D01*
X2708Y207D02*
X2715Y207D01*
X0Y206D02*
X7Y206D01*
X21Y206D02*
X27Y206D01*
X70Y206D02*
X76Y206D01*
X676Y206D02*
X688Y206D01*
X2708Y206D02*
X2715Y206D01*
X0Y205D02*
X7Y205D01*
X21Y205D02*
X27Y205D01*
X70Y205D02*
X76Y205D01*
X676Y205D02*
X688Y205D01*
X2708Y205D02*
X2715Y205D01*
X0Y204D02*
X7Y204D01*
X21Y204D02*
X27Y204D01*
X70Y204D02*
X76Y204D01*
X677Y204D02*
X688Y204D01*
X2708Y204D02*
X2715Y204D01*
X0Y203D02*
X7Y203D01*
X21Y203D02*
X27Y203D01*
X70Y203D02*
X76Y203D01*
X2708Y203D02*
X2715Y203D01*
X0Y202D02*
X7Y202D01*
X21Y202D02*
X27Y202D01*
X70Y202D02*
X76Y202D01*
X2708Y202D02*
X2715Y202D01*
X0Y201D02*
X7Y201D01*
X21Y201D02*
X27Y201D01*
X70Y201D02*
X76Y201D01*
X2708Y201D02*
X2715Y201D01*
X0Y200D02*
X7Y200D01*
X21Y200D02*
X28Y200D01*
X70Y200D02*
X76Y200D01*
X2708Y200D02*
X2715Y200D01*
X0Y199D02*
X7Y199D01*
X21Y199D02*
X30Y199D01*
X70Y199D02*
X76Y199D01*
X2708Y199D02*
X2715Y199D01*
X0Y198D02*
X7Y198D01*
X22Y198D02*
X31Y198D01*
X70Y198D02*
X76Y198D01*
X2708Y198D02*
X2715Y198D01*
X0Y197D02*
X7Y197D01*
X23Y197D02*
X32Y197D01*
X70Y197D02*
X76Y197D01*
X2708Y197D02*
X2715Y197D01*
X0Y196D02*
X7Y196D01*
X24Y196D02*
X33Y196D01*
X70Y196D02*
X76Y196D01*
X2708Y196D02*
X2715Y196D01*
X0Y195D02*
X7Y195D01*
X25Y195D02*
X34Y195D01*
X70Y195D02*
X76Y195D01*
X2708Y195D02*
X2715Y195D01*
X0Y194D02*
X7Y194D01*
X27Y194D02*
X36Y194D01*
X70Y194D02*
X76Y194D01*
X2708Y194D02*
X2715Y194D01*
X0Y193D02*
X7Y193D01*
X28Y193D02*
X37Y193D01*
X70Y193D02*
X76Y193D01*
X2708Y193D02*
X2715Y193D01*
X0Y192D02*
X7Y192D01*
X29Y192D02*
X38Y192D01*
X70Y192D02*
X76Y192D01*
X91Y192D02*
X93Y192D01*
X2708Y192D02*
X2715Y192D01*
X0Y191D02*
X7Y191D01*
X30Y191D02*
X39Y191D01*
X70Y191D02*
X76Y191D01*
X90Y191D02*
X94Y191D01*
X2708Y191D02*
X2715Y191D01*
X0Y190D02*
X7Y190D01*
X31Y190D02*
X39Y190D01*
X70Y190D02*
X76Y190D01*
X89Y190D02*
X94Y190D01*
X2708Y190D02*
X2715Y190D01*
X0Y189D02*
X7Y189D01*
X32Y189D02*
X39Y189D01*
X70Y189D02*
X76Y189D01*
X89Y189D02*
X95Y189D01*
X2708Y189D02*
X2715Y189D01*
X0Y188D02*
X7Y188D01*
X34Y188D02*
X39Y188D01*
X70Y188D02*
X76Y188D01*
X89Y188D02*
X95Y188D01*
X2708Y188D02*
X2715Y188D01*
X0Y187D02*
X7Y187D01*
X34Y187D02*
X39Y187D01*
X70Y187D02*
X76Y187D01*
X89Y187D02*
X95Y187D01*
X2708Y187D02*
X2715Y187D01*
X0Y186D02*
X7Y186D01*
X34Y186D02*
X39Y186D01*
X70Y186D02*
X76Y186D01*
X89Y186D02*
X95Y186D01*
X0Y185D02*
X7Y185D01*
X34Y185D02*
X39Y185D01*
X70Y185D02*
X76Y185D01*
X89Y185D02*
X95Y185D01*
X0Y184D02*
X7Y184D01*
X34Y184D02*
X39Y184D01*
X70Y184D02*
X76Y184D01*
X89Y184D02*
X95Y184D01*
X0Y183D02*
X7Y183D01*
X34Y183D02*
X39Y183D01*
X70Y183D02*
X76Y183D01*
X89Y183D02*
X95Y183D01*
X0Y182D02*
X7Y182D01*
X34Y182D02*
X39Y182D01*
X70Y182D02*
X76Y182D01*
X89Y182D02*
X95Y182D01*
X2708Y182D02*
X2715Y182D01*
X0Y181D02*
X7Y181D01*
X34Y181D02*
X39Y181D01*
X70Y181D02*
X76Y181D01*
X89Y181D02*
X95Y181D01*
X2708Y181D02*
X2715Y181D01*
X0Y180D02*
X7Y180D01*
X34Y180D02*
X39Y180D01*
X70Y180D02*
X76Y180D01*
X89Y180D02*
X95Y180D01*
X2708Y180D02*
X2715Y180D01*
X0Y179D02*
X7Y179D01*
X34Y179D02*
X39Y179D01*
X70Y179D02*
X76Y179D01*
X89Y179D02*
X94Y179D01*
X2708Y179D02*
X2715Y179D01*
X0Y178D02*
X7Y178D01*
X34Y178D02*
X39Y178D01*
X70Y178D02*
X76Y178D01*
X89Y178D02*
X94Y178D01*
X2708Y178D02*
X2715Y178D01*
X0Y177D02*
X7Y177D01*
X34Y177D02*
X39Y177D01*
X71Y177D02*
X77Y177D01*
X88Y177D02*
X94Y177D01*
X2708Y177D02*
X2715Y177D01*
X0Y176D02*
X7Y176D01*
X34Y176D02*
X39Y176D01*
X71Y176D02*
X94Y176D01*
X2708Y176D02*
X2715Y176D01*
X0Y175D02*
X7Y175D01*
X34Y175D02*
X39Y175D01*
X71Y175D02*
X93Y175D01*
X2708Y175D02*
X2715Y175D01*
X0Y174D02*
X7Y174D01*
X34Y174D02*
X39Y174D01*
X72Y174D02*
X93Y174D01*
X2708Y174D02*
X2715Y174D01*
X0Y173D02*
X7Y173D01*
X34Y173D02*
X39Y173D01*
X73Y173D02*
X92Y173D01*
X2708Y173D02*
X2715Y173D01*
X0Y172D02*
X7Y172D01*
X34Y172D02*
X39Y172D01*
X74Y172D02*
X91Y172D01*
X2708Y172D02*
X2715Y172D01*
X0Y171D02*
X7Y171D01*
X35Y171D02*
X38Y171D01*
X75Y171D02*
X89Y171D01*
X2708Y171D02*
X2715Y171D01*
X0Y170D02*
X7Y170D01*
X79Y170D02*
X86Y170D01*
X2708Y170D02*
X2715Y170D01*
X0Y169D02*
X7Y169D01*
X2708Y169D02*
X2715Y169D01*
X0Y168D02*
X7Y168D01*
X2708Y168D02*
X2715Y168D01*
X0Y167D02*
X7Y167D01*
X2708Y167D02*
X2715Y167D01*
X0Y166D02*
X7Y166D01*
X2708Y166D02*
X2715Y166D01*
X0Y165D02*
X7Y165D01*
X2708Y165D02*
X2715Y165D01*
X0Y164D02*
X7Y164D01*
X2708Y164D02*
X2715Y164D01*
X0Y163D02*
X7Y163D01*
X2708Y163D02*
X2715Y163D01*
X0Y162D02*
X7Y162D01*
X2708Y162D02*
X2715Y162D01*
X0Y161D02*
X7Y161D01*
X2708Y161D02*
X2715Y161D01*
X0Y160D02*
X7Y160D01*
X2708Y160D02*
X2715Y160D01*
X0Y159D02*
X7Y159D01*
X2708Y159D02*
X2715Y159D01*
X0Y158D02*
X7Y158D01*
X2708Y158D02*
X2715Y158D01*
X0Y157D02*
X7Y157D01*
X2708Y157D02*
X2715Y157D01*
X0Y156D02*
X7Y156D01*
X2708Y156D02*
X2715Y156D01*
X0Y155D02*
X7Y155D01*
X2708Y155D02*
X2715Y155D01*
X0Y154D02*
X7Y154D01*
X2708Y154D02*
X2715Y154D01*
X0Y153D02*
X7Y153D01*
X2708Y153D02*
X2715Y153D01*
X0Y152D02*
X7Y152D01*
X2708Y152D02*
X2715Y152D01*
X0Y151D02*
X7Y151D01*
X2708Y151D02*
X2715Y151D01*
X0Y150D02*
X7Y150D01*
X2708Y150D02*
X2715Y150D01*
X0Y149D02*
X7Y149D01*
X2708Y149D02*
X2715Y149D01*
X0Y148D02*
X7Y148D01*
X2708Y148D02*
X2715Y148D01*
X0Y147D02*
X7Y147D01*
X2708Y147D02*
X2715Y147D01*
X0Y146D02*
X7Y146D01*
X2708Y146D02*
X2715Y146D01*
X0Y145D02*
X7Y145D01*
X2708Y145D02*
X2715Y145D01*
X0Y144D02*
X7Y144D01*
X2708Y144D02*
X2715Y144D01*
X0Y143D02*
X7Y143D01*
X2708Y143D02*
X2715Y143D01*
X0Y142D02*
X7Y142D01*
X2708Y142D02*
X2715Y142D01*
X0Y141D02*
X7Y141D01*
X2708Y141D02*
X2715Y141D01*
X0Y140D02*
X7Y140D01*
X2708Y140D02*
X2715Y140D01*
X0Y139D02*
X7Y139D01*
X2708Y139D02*
X2715Y139D01*
X0Y138D02*
X7Y138D01*
X2708Y138D02*
X2715Y138D01*
X0Y137D02*
X7Y137D01*
X2708Y137D02*
X2715Y137D01*
X0Y136D02*
X7Y136D01*
X2708Y136D02*
X2715Y136D01*
X0Y135D02*
X7Y135D01*
X2708Y135D02*
X2715Y135D01*
X0Y134D02*
X7Y134D01*
X2708Y134D02*
X2715Y134D01*
X0Y133D02*
X7Y133D01*
X2708Y133D02*
X2715Y133D01*
X0Y132D02*
X7Y132D01*
X2708Y132D02*
X2715Y132D01*
X0Y131D02*
X7Y131D01*
X2708Y131D02*
X2715Y131D01*
X0Y130D02*
X7Y130D01*
X2708Y130D02*
X2715Y130D01*
X0Y129D02*
X7Y129D01*
X2708Y129D02*
X2715Y129D01*
X0Y128D02*
X7Y128D01*
X2708Y128D02*
X2715Y128D01*
X0Y127D02*
X7Y127D01*
X2708Y127D02*
X2715Y127D01*
X0Y126D02*
X7Y126D01*
X2708Y126D02*
X2715Y126D01*
X0Y125D02*
X7Y125D01*
X2708Y125D02*
X2715Y125D01*
X0Y124D02*
X7Y124D01*
X2708Y124D02*
X2715Y124D01*
X0Y123D02*
X7Y123D01*
X2708Y123D02*
X2715Y123D01*
X0Y122D02*
X7Y122D01*
X2708Y122D02*
X2715Y122D01*
X0Y121D02*
X7Y121D01*
X2708Y121D02*
X2715Y121D01*
X0Y120D02*
X7Y120D01*
X2708Y120D02*
X2715Y120D01*
X0Y119D02*
X7Y119D01*
X2708Y119D02*
X2715Y119D01*
X0Y118D02*
X7Y118D01*
X2708Y118D02*
X2715Y118D01*
X0Y117D02*
X7Y117D01*
X2708Y117D02*
X2715Y117D01*
X0Y116D02*
X7Y116D01*
X2708Y116D02*
X2715Y116D01*
X0Y115D02*
X7Y115D01*
X2708Y115D02*
X2715Y115D01*
X0Y114D02*
X7Y114D01*
X2708Y114D02*
X2715Y114D01*
X0Y113D02*
X7Y113D01*
X2708Y113D02*
X2715Y113D01*
X0Y112D02*
X7Y112D01*
X2292Y112D02*
X2298Y112D01*
X2323Y112D02*
X2345Y112D01*
X2374Y112D02*
X2400Y112D01*
X2424Y112D02*
X2450Y112D01*
X2466Y112D02*
X2500Y112D01*
X2708Y112D02*
X2715Y112D01*
X0Y111D02*
X7Y111D01*
X2291Y111D02*
X2299Y111D01*
X2321Y111D02*
X2347Y111D01*
X2371Y111D02*
X2400Y111D01*
X2421Y111D02*
X2450Y111D01*
X2466Y111D02*
X2500Y111D01*
X2708Y111D02*
X2715Y111D01*
X0Y110D02*
X7Y110D01*
X2291Y110D02*
X2300Y110D01*
X2319Y110D02*
X2348Y110D01*
X2370Y110D02*
X2400Y110D01*
X2420Y110D02*
X2450Y110D01*
X2466Y110D02*
X2500Y110D01*
X2708Y110D02*
X2715Y110D01*
X0Y109D02*
X7Y109D01*
X2290Y109D02*
X2300Y109D01*
X2318Y109D02*
X2349Y109D01*
X2369Y109D02*
X2400Y109D01*
X2419Y109D02*
X2450Y109D01*
X2466Y109D02*
X2500Y109D01*
X2708Y109D02*
X2715Y109D01*
X0Y108D02*
X7Y108D01*
X2291Y108D02*
X2300Y108D01*
X2318Y108D02*
X2349Y108D01*
X2368Y108D02*
X2400Y108D01*
X2418Y108D02*
X2450Y108D01*
X2466Y108D02*
X2500Y108D01*
X2708Y108D02*
X2715Y108D01*
X0Y107D02*
X7Y107D01*
X2291Y107D02*
X2300Y107D01*
X2317Y107D02*
X2349Y107D01*
X2368Y107D02*
X2400Y107D01*
X2418Y107D02*
X2450Y107D01*
X2466Y107D02*
X2500Y107D01*
X2708Y107D02*
X2715Y107D01*
X0Y106D02*
X7Y106D01*
X2292Y106D02*
X2300Y106D01*
X2317Y106D02*
X2350Y106D01*
X2367Y106D02*
X2400Y106D01*
X2417Y106D02*
X2450Y106D01*
X2466Y106D02*
X2500Y106D01*
X2708Y106D02*
X2715Y106D01*
X0Y105D02*
X7Y105D01*
X2294Y105D02*
X2300Y105D01*
X2316Y105D02*
X2323Y105D01*
X2344Y105D02*
X2350Y105D01*
X2367Y105D02*
X2374Y105D01*
X2394Y105D02*
X2400Y105D01*
X2417Y105D02*
X2424Y105D01*
X2444Y105D02*
X2450Y105D01*
X2466Y105D02*
X2472Y105D01*
X2480Y105D02*
X2486Y105D01*
X2494Y105D02*
X2500Y105D01*
X2708Y105D02*
X2715Y105D01*
X0Y104D02*
X7Y104D01*
X2294Y104D02*
X2300Y104D01*
X2316Y104D02*
X2322Y104D01*
X2344Y104D02*
X2350Y104D01*
X2366Y104D02*
X2373Y104D01*
X2394Y104D02*
X2400Y104D01*
X2416Y104D02*
X2423Y104D01*
X2444Y104D02*
X2450Y104D01*
X2466Y104D02*
X2472Y104D01*
X2480Y104D02*
X2486Y104D01*
X2494Y104D02*
X2500Y104D01*
X2708Y104D02*
X2715Y104D01*
X0Y103D02*
X7Y103D01*
X2294Y103D02*
X2300Y103D01*
X2316Y103D02*
X2322Y103D01*
X2343Y103D02*
X2350Y103D01*
X2366Y103D02*
X2372Y103D01*
X2394Y103D02*
X2400Y103D01*
X2416Y103D02*
X2422Y103D01*
X2444Y103D02*
X2450Y103D01*
X2466Y103D02*
X2472Y103D01*
X2480Y103D02*
X2486Y103D01*
X2494Y103D02*
X2500Y103D01*
X2708Y103D02*
X2715Y103D01*
X0Y102D02*
X7Y102D01*
X2294Y102D02*
X2300Y102D01*
X2317Y102D02*
X2322Y102D01*
X2342Y102D02*
X2349Y102D01*
X2366Y102D02*
X2372Y102D01*
X2394Y102D02*
X2400Y102D01*
X2416Y102D02*
X2422Y102D01*
X2444Y102D02*
X2450Y102D01*
X2466Y102D02*
X2472Y102D01*
X2480Y102D02*
X2486Y102D01*
X2494Y102D02*
X2500Y102D01*
X2708Y102D02*
X2715Y102D01*
X0Y101D02*
X7Y101D01*
X2294Y101D02*
X2300Y101D01*
X2317Y101D02*
X2321Y101D01*
X2341Y101D02*
X2349Y101D01*
X2366Y101D02*
X2372Y101D01*
X2394Y101D02*
X2400Y101D01*
X2416Y101D02*
X2422Y101D01*
X2444Y101D02*
X2450Y101D01*
X2467Y101D02*
X2471Y101D01*
X2480Y101D02*
X2486Y101D01*
X2495Y101D02*
X2499Y101D01*
X2708Y101D02*
X2715Y101D01*
X0Y100D02*
X7Y100D01*
X2294Y100D02*
X2300Y100D01*
X2318Y100D02*
X2320Y100D01*
X2340Y100D02*
X2348Y100D01*
X2366Y100D02*
X2372Y100D01*
X2394Y100D02*
X2400Y100D01*
X2416Y100D02*
X2422Y100D01*
X2444Y100D02*
X2450Y100D01*
X2468Y100D02*
X2470Y100D01*
X2480Y100D02*
X2486Y100D01*
X2496Y100D02*
X2498Y100D01*
X2708Y100D02*
X2715Y100D01*
X0Y99D02*
X7Y99D01*
X2294Y99D02*
X2300Y99D01*
X2340Y99D02*
X2348Y99D01*
X2366Y99D02*
X2372Y99D01*
X2394Y99D02*
X2400Y99D01*
X2416Y99D02*
X2422Y99D01*
X2444Y99D02*
X2450Y99D01*
X2480Y99D02*
X2486Y99D01*
X2708Y99D02*
X2715Y99D01*
X0Y98D02*
X7Y98D01*
X2294Y98D02*
X2300Y98D01*
X2339Y98D02*
X2347Y98D01*
X2366Y98D02*
X2372Y98D01*
X2394Y98D02*
X2400Y98D01*
X2416Y98D02*
X2422Y98D01*
X2444Y98D02*
X2450Y98D01*
X2480Y98D02*
X2486Y98D01*
X2708Y98D02*
X2715Y98D01*
X0Y97D02*
X7Y97D01*
X2294Y97D02*
X2300Y97D01*
X2338Y97D02*
X2346Y97D01*
X2366Y97D02*
X2373Y97D01*
X2394Y97D02*
X2400Y97D01*
X2416Y97D02*
X2423Y97D01*
X2444Y97D02*
X2450Y97D01*
X2480Y97D02*
X2486Y97D01*
X2708Y97D02*
X2715Y97D01*
X0Y96D02*
X7Y96D01*
X2294Y96D02*
X2300Y96D01*
X2337Y96D02*
X2345Y96D01*
X2367Y96D02*
X2373Y96D01*
X2394Y96D02*
X2400Y96D01*
X2417Y96D02*
X2423Y96D01*
X2444Y96D02*
X2450Y96D01*
X2480Y96D02*
X2486Y96D01*
X2708Y96D02*
X2715Y96D01*
X0Y95D02*
X7Y95D01*
X2294Y95D02*
X2300Y95D01*
X2337Y95D02*
X2345Y95D01*
X2367Y95D02*
X2375Y95D01*
X2394Y95D02*
X2400Y95D01*
X2417Y95D02*
X2425Y95D01*
X2444Y95D02*
X2450Y95D01*
X2480Y95D02*
X2486Y95D01*
X2708Y95D02*
X2715Y95D01*
X0Y94D02*
X7Y94D01*
X2294Y94D02*
X2300Y94D01*
X2336Y94D02*
X2344Y94D01*
X2367Y94D02*
X2400Y94D01*
X2417Y94D02*
X2450Y94D01*
X2480Y94D02*
X2486Y94D01*
X2708Y94D02*
X2715Y94D01*
X0Y93D02*
X7Y93D01*
X2294Y93D02*
X2300Y93D01*
X2335Y93D02*
X2343Y93D01*
X2368Y93D02*
X2400Y93D01*
X2418Y93D02*
X2450Y93D01*
X2480Y93D02*
X2486Y93D01*
X2708Y93D02*
X2715Y93D01*
X0Y92D02*
X7Y92D01*
X2294Y92D02*
X2300Y92D01*
X2334Y92D02*
X2342Y92D01*
X2369Y92D02*
X2400Y92D01*
X2419Y92D02*
X2450Y92D01*
X2480Y92D02*
X2486Y92D01*
X2708Y92D02*
X2715Y92D01*
X0Y91D02*
X7Y91D01*
X2294Y91D02*
X2300Y91D01*
X2333Y91D02*
X2341Y91D01*
X2369Y91D02*
X2400Y91D01*
X2419Y91D02*
X2450Y91D01*
X2480Y91D02*
X2486Y91D01*
X2708Y91D02*
X2715Y91D01*
X0Y90D02*
X7Y90D01*
X2294Y90D02*
X2300Y90D01*
X2333Y90D02*
X2341Y90D01*
X2371Y90D02*
X2400Y90D01*
X2421Y90D02*
X2450Y90D01*
X2480Y90D02*
X2486Y90D01*
X2708Y90D02*
X2715Y90D01*
X0Y89D02*
X7Y89D01*
X2294Y89D02*
X2300Y89D01*
X2332Y89D02*
X2340Y89D01*
X2372Y89D02*
X2400Y89D01*
X2422Y89D02*
X2450Y89D01*
X2480Y89D02*
X2486Y89D01*
X2708Y89D02*
X2715Y89D01*
X0Y88D02*
X7Y88D01*
X2294Y88D02*
X2300Y88D01*
X2331Y88D02*
X2339Y88D01*
X2375Y88D02*
X2400Y88D01*
X2425Y88D02*
X2450Y88D01*
X2480Y88D02*
X2486Y88D01*
X2708Y88D02*
X2715Y88D01*
X0Y87D02*
X7Y87D01*
X2294Y87D02*
X2300Y87D01*
X2330Y87D02*
X2338Y87D01*
X2380Y87D02*
X2388Y87D01*
X2394Y87D02*
X2400Y87D01*
X2430Y87D02*
X2438Y87D01*
X2444Y87D02*
X2450Y87D01*
X2480Y87D02*
X2486Y87D01*
X2708Y87D02*
X2715Y87D01*
X0Y86D02*
X7Y86D01*
X2294Y86D02*
X2300Y86D01*
X2330Y86D02*
X2338Y86D01*
X2380Y86D02*
X2387Y86D01*
X2394Y86D02*
X2400Y86D01*
X2430Y86D02*
X2437Y86D01*
X2444Y86D02*
X2450Y86D01*
X2480Y86D02*
X2486Y86D01*
X2708Y86D02*
X2715Y86D01*
X0Y85D02*
X7Y85D01*
X2294Y85D02*
X2300Y85D01*
X2329Y85D02*
X2337Y85D01*
X2379Y85D02*
X2386Y85D01*
X2394Y85D02*
X2400Y85D01*
X2429Y85D02*
X2436Y85D01*
X2444Y85D02*
X2450Y85D01*
X2480Y85D02*
X2486Y85D01*
X2708Y85D02*
X2715Y85D01*
X0Y84D02*
X7Y84D01*
X2294Y84D02*
X2300Y84D01*
X2328Y84D02*
X2336Y84D01*
X2379Y84D02*
X2386Y84D01*
X2394Y84D02*
X2400Y84D01*
X2429Y84D02*
X2436Y84D01*
X2444Y84D02*
X2450Y84D01*
X2480Y84D02*
X2486Y84D01*
X2708Y84D02*
X2715Y84D01*
X0Y83D02*
X7Y83D01*
X2269Y83D02*
X2300Y83D01*
X2327Y83D02*
X2335Y83D01*
X2378Y83D02*
X2385Y83D01*
X2394Y83D02*
X2400Y83D01*
X2428Y83D02*
X2435Y83D01*
X2444Y83D02*
X2450Y83D01*
X2480Y83D02*
X2486Y83D01*
X2708Y83D02*
X2715Y83D01*
X0Y82D02*
X7Y82D01*
X2267Y82D02*
X2300Y82D01*
X2326Y82D02*
X2334Y82D01*
X2377Y82D02*
X2385Y82D01*
X2394Y82D02*
X2400Y82D01*
X2427Y82D02*
X2435Y82D01*
X2444Y82D02*
X2450Y82D01*
X2480Y82D02*
X2486Y82D01*
X2708Y82D02*
X2715Y82D01*
X0Y81D02*
X7Y81D01*
X2267Y81D02*
X2300Y81D01*
X2326Y81D02*
X2334Y81D01*
X2377Y81D02*
X2384Y81D01*
X2394Y81D02*
X2400Y81D01*
X2427Y81D02*
X2434Y81D01*
X2444Y81D02*
X2450Y81D01*
X2480Y81D02*
X2486Y81D01*
X2708Y81D02*
X2715Y81D01*
X0Y80D02*
X7Y80D01*
X2266Y80D02*
X2300Y80D01*
X2325Y80D02*
X2333Y80D01*
X2376Y80D02*
X2383Y80D01*
X2394Y80D02*
X2400Y80D01*
X2426Y80D02*
X2433Y80D01*
X2444Y80D02*
X2450Y80D01*
X2480Y80D02*
X2486Y80D01*
X2708Y80D02*
X2715Y80D01*
X0Y79D02*
X7Y79D01*
X2266Y79D02*
X2300Y79D01*
X2324Y79D02*
X2332Y79D01*
X2376Y79D02*
X2383Y79D01*
X2394Y79D02*
X2400Y79D01*
X2426Y79D02*
X2433Y79D01*
X2444Y79D02*
X2450Y79D01*
X2480Y79D02*
X2486Y79D01*
X2708Y79D02*
X2715Y79D01*
X0Y78D02*
X7Y78D01*
X2266Y78D02*
X2300Y78D01*
X2323Y78D02*
X2331Y78D01*
X2375Y78D02*
X2382Y78D01*
X2394Y78D02*
X2400Y78D01*
X2425Y78D02*
X2432Y78D01*
X2444Y78D02*
X2450Y78D01*
X2480Y78D02*
X2486Y78D01*
X2708Y78D02*
X2715Y78D01*
X0Y77D02*
X7Y77D01*
X2266Y77D02*
X2300Y77D01*
X2323Y77D02*
X2331Y77D01*
X2374Y77D02*
X2382Y77D01*
X2394Y77D02*
X2400Y77D01*
X2424Y77D02*
X2432Y77D01*
X2444Y77D02*
X2450Y77D01*
X2480Y77D02*
X2486Y77D01*
X2708Y77D02*
X2715Y77D01*
X0Y76D02*
X7Y76D01*
X2266Y76D02*
X2273Y76D01*
X2294Y76D02*
X2300Y76D01*
X2322Y76D02*
X2330Y76D01*
X2374Y76D02*
X2381Y76D01*
X2394Y76D02*
X2400Y76D01*
X2424Y76D02*
X2431Y76D01*
X2444Y76D02*
X2450Y76D01*
X2480Y76D02*
X2486Y76D01*
X2708Y76D02*
X2715Y76D01*
X0Y75D02*
X7Y75D01*
X2266Y75D02*
X2272Y75D01*
X2294Y75D02*
X2300Y75D01*
X2321Y75D02*
X2329Y75D01*
X2373Y75D02*
X2381Y75D01*
X2394Y75D02*
X2400Y75D01*
X2423Y75D02*
X2430Y75D01*
X2444Y75D02*
X2450Y75D01*
X2480Y75D02*
X2486Y75D01*
X2708Y75D02*
X2715Y75D01*
X0Y74D02*
X7Y74D01*
X2266Y74D02*
X2272Y74D01*
X2294Y74D02*
X2300Y74D01*
X2320Y74D02*
X2328Y74D01*
X2373Y74D02*
X2380Y74D01*
X2394Y74D02*
X2400Y74D01*
X2423Y74D02*
X2430Y74D01*
X2444Y74D02*
X2450Y74D01*
X2480Y74D02*
X2486Y74D01*
X2708Y74D02*
X2715Y74D01*
X0Y73D02*
X7Y73D01*
X2266Y73D02*
X2272Y73D01*
X2294Y73D02*
X2300Y73D01*
X2319Y73D02*
X2327Y73D01*
X2372Y73D02*
X2379Y73D01*
X2394Y73D02*
X2400Y73D01*
X2422Y73D02*
X2429Y73D01*
X2444Y73D02*
X2450Y73D01*
X2480Y73D02*
X2486Y73D01*
X2708Y73D02*
X2715Y73D01*
X0Y72D02*
X7Y72D01*
X2266Y72D02*
X2272Y72D01*
X2294Y72D02*
X2300Y72D01*
X2319Y72D02*
X2327Y72D01*
X2372Y72D02*
X2379Y72D01*
X2394Y72D02*
X2400Y72D01*
X2422Y72D02*
X2429Y72D01*
X2444Y72D02*
X2450Y72D01*
X2480Y72D02*
X2486Y72D01*
X2708Y72D02*
X2715Y72D01*
X0Y71D02*
X7Y71D01*
X2266Y71D02*
X2272Y71D01*
X2294Y71D02*
X2300Y71D01*
X2318Y71D02*
X2326Y71D01*
X2346Y71D02*
X2348Y71D01*
X2371Y71D02*
X2378Y71D01*
X2394Y71D02*
X2400Y71D01*
X2421Y71D02*
X2428Y71D01*
X2444Y71D02*
X2450Y71D01*
X2480Y71D02*
X2486Y71D01*
X2708Y71D02*
X2715Y71D01*
X0Y70D02*
X7Y70D01*
X2266Y70D02*
X2272Y70D01*
X2294Y70D02*
X2300Y70D01*
X2317Y70D02*
X2325Y70D01*
X2345Y70D02*
X2349Y70D01*
X2370Y70D02*
X2378Y70D01*
X2394Y70D02*
X2400Y70D01*
X2420Y70D02*
X2428Y70D01*
X2444Y70D02*
X2450Y70D01*
X2480Y70D02*
X2486Y70D01*
X2708Y70D02*
X2715Y70D01*
X0Y69D02*
X7Y69D01*
X2266Y69D02*
X2272Y69D01*
X2294Y69D02*
X2300Y69D01*
X2317Y69D02*
X2324Y69D01*
X2344Y69D02*
X2350Y69D01*
X2370Y69D02*
X2377Y69D01*
X2394Y69D02*
X2400Y69D01*
X2420Y69D02*
X2427Y69D01*
X2444Y69D02*
X2450Y69D01*
X2480Y69D02*
X2486Y69D01*
X2708Y69D02*
X2715Y69D01*
X0Y68D02*
X7Y68D01*
X2266Y68D02*
X2272Y68D01*
X2294Y68D02*
X2300Y68D01*
X2316Y68D02*
X2324Y68D01*
X2344Y68D02*
X2350Y68D01*
X2369Y68D02*
X2376Y68D01*
X2394Y68D02*
X2400Y68D01*
X2419Y68D02*
X2426Y68D01*
X2444Y68D02*
X2450Y68D01*
X2480Y68D02*
X2486Y68D01*
X2708Y68D02*
X2715Y68D01*
X0Y67D02*
X7Y67D01*
X2266Y67D02*
X2272Y67D01*
X2294Y67D02*
X2300Y67D01*
X2316Y67D02*
X2323Y67D01*
X2344Y67D02*
X2350Y67D01*
X2369Y67D02*
X2376Y67D01*
X2394Y67D02*
X2400Y67D01*
X2419Y67D02*
X2426Y67D01*
X2444Y67D02*
X2450Y67D01*
X2480Y67D02*
X2486Y67D01*
X2708Y67D02*
X2715Y67D01*
X0Y66D02*
X7Y66D01*
X2266Y66D02*
X2272Y66D01*
X2294Y66D02*
X2300Y66D01*
X2316Y66D02*
X2322Y66D01*
X2343Y66D02*
X2350Y66D01*
X2368Y66D02*
X2375Y66D01*
X2394Y66D02*
X2400Y66D01*
X2418Y66D02*
X2425Y66D01*
X2444Y66D02*
X2450Y66D01*
X2480Y66D02*
X2486Y66D01*
X2708Y66D02*
X2715Y66D01*
X0Y65D02*
X7Y65D01*
X2266Y65D02*
X2300Y65D01*
X2316Y65D02*
X2349Y65D01*
X2367Y65D02*
X2375Y65D01*
X2394Y65D02*
X2400Y65D01*
X2417Y65D02*
X2425Y65D01*
X2444Y65D02*
X2450Y65D01*
X2480Y65D02*
X2486Y65D01*
X2708Y65D02*
X2715Y65D01*
X0Y64D02*
X7Y64D01*
X2266Y64D02*
X2300Y64D01*
X2317Y64D02*
X2349Y64D01*
X2367Y64D02*
X2374Y64D01*
X2394Y64D02*
X2400Y64D01*
X2417Y64D02*
X2424Y64D01*
X2444Y64D02*
X2450Y64D01*
X2480Y64D02*
X2486Y64D01*
X2708Y64D02*
X2715Y64D01*
X0Y63D02*
X7Y63D01*
X2266Y63D02*
X2300Y63D01*
X2317Y63D02*
X2348Y63D01*
X2367Y63D02*
X2374Y63D01*
X2394Y63D02*
X2400Y63D01*
X2417Y63D02*
X2423Y63D01*
X2444Y63D02*
X2450Y63D01*
X2480Y63D02*
X2486Y63D01*
X2708Y63D02*
X2715Y63D01*
X0Y62D02*
X7Y62D01*
X2266Y62D02*
X2300Y62D01*
X2318Y62D02*
X2348Y62D01*
X2366Y62D02*
X2373Y62D01*
X2394Y62D02*
X2400Y62D01*
X2416Y62D02*
X2423Y62D01*
X2444Y62D02*
X2450Y62D01*
X2480Y62D02*
X2486Y62D01*
X2708Y62D02*
X2715Y62D01*
X0Y61D02*
X7Y61D01*
X2266Y61D02*
X2300Y61D01*
X2318Y61D02*
X2347Y61D01*
X2366Y61D02*
X2372Y61D01*
X2394Y61D02*
X2400Y61D01*
X2416Y61D02*
X2422Y61D01*
X2444Y61D02*
X2450Y61D01*
X2480Y61D02*
X2486Y61D01*
X2708Y61D02*
X2715Y61D01*
X0Y60D02*
X7Y60D01*
X2267Y60D02*
X2299Y60D01*
X2320Y60D02*
X2346Y60D01*
X2367Y60D02*
X2372Y60D01*
X2394Y60D02*
X2399Y60D01*
X2417Y60D02*
X2422Y60D01*
X2444Y60D02*
X2449Y60D01*
X2481Y60D02*
X2485Y60D01*
X2708Y60D02*
X2715Y60D01*
X0Y59D02*
X7Y59D01*
X2268Y59D02*
X2298Y59D01*
X2321Y59D02*
X2344Y59D01*
X2368Y59D02*
X2371Y59D01*
X2396Y59D02*
X2398Y59D01*
X2418Y59D02*
X2421Y59D01*
X2446Y59D02*
X2448Y59D01*
X2482Y59D02*
X2484Y59D01*
X2708Y59D02*
X2715Y59D01*
X0Y58D02*
X7Y58D01*
X2708Y58D02*
X2715Y58D01*
X0Y57D02*
X7Y57D01*
X2708Y57D02*
X2715Y57D01*
X0Y56D02*
X7Y56D01*
X2708Y56D02*
X2715Y56D01*
X0Y55D02*
X7Y55D01*
X2708Y55D02*
X2715Y55D01*
X0Y54D02*
X7Y54D01*
X2708Y54D02*
X2715Y54D01*
X0Y53D02*
X7Y53D01*
X2708Y53D02*
X2715Y53D01*
X0Y52D02*
X7Y52D01*
X2708Y52D02*
X2715Y52D01*
X0Y51D02*
X7Y51D01*
X2708Y51D02*
X2715Y51D01*
X0Y50D02*
X7Y50D01*
X2708Y50D02*
X2715Y50D01*
X0Y49D02*
X7Y49D01*
X2708Y49D02*
X2715Y49D01*
X0Y48D02*
X7Y48D01*
X2708Y48D02*
X2715Y48D01*
X0Y47D02*
X7Y47D01*
X2708Y47D02*
X2715Y47D01*
X0Y46D02*
X7Y46D01*
X2708Y46D02*
X2715Y46D01*
X0Y45D02*
X7Y45D01*
X2708Y45D02*
X2715Y45D01*
X0Y44D02*
X7Y44D01*
X2708Y44D02*
X2715Y44D01*
X0Y43D02*
X7Y43D01*
X2708Y43D02*
X2715Y43D01*
X0Y42D02*
X7Y42D01*
X2708Y42D02*
X2715Y42D01*
X0Y41D02*
X7Y41D01*
X2708Y41D02*
X2715Y41D01*
X0Y40D02*
X7Y40D01*
X2708Y40D02*
X2715Y40D01*
X0Y39D02*
X7Y39D01*
X2708Y39D02*
X2715Y39D01*
X0Y38D02*
X7Y38D01*
X2708Y38D02*
X2715Y38D01*
X0Y37D02*
X7Y37D01*
X2708Y37D02*
X2715Y37D01*
X0Y36D02*
X7Y36D01*
X2708Y36D02*
X2715Y36D01*
X0Y35D02*
X7Y35D01*
X2708Y35D02*
X2715Y35D01*
X0Y34D02*
X7Y34D01*
X2708Y34D02*
X2715Y34D01*
X0Y33D02*
X7Y33D01*
X2708Y33D02*
X2715Y33D01*
X0Y32D02*
X7Y32D01*
X2708Y32D02*
X2715Y32D01*
X0Y31D02*
X7Y31D01*
X2708Y31D02*
X2715Y31D01*
X0Y30D02*
X7Y30D01*
X2708Y30D02*
X2715Y30D01*
X0Y29D02*
X7Y29D01*
X2708Y29D02*
X2715Y29D01*
X0Y28D02*
X7Y28D01*
X2708Y28D02*
X2715Y28D01*
X0Y27D02*
X7Y27D01*
X2708Y27D02*
X2715Y27D01*
X0Y26D02*
X7Y26D01*
X2708Y26D02*
X2715Y26D01*
X0Y25D02*
X7Y25D01*
X2708Y25D02*
X2715Y25D01*
X0Y24D02*
X7Y24D01*
X2708Y24D02*
X2715Y24D01*
X0Y23D02*
X7Y23D01*
X2708Y23D02*
X2715Y23D01*
X0Y22D02*
X7Y22D01*
X2708Y22D02*
X2715Y22D01*
X0Y21D02*
X7Y21D01*
X2708Y21D02*
X2715Y21D01*
X0Y20D02*
X7Y20D01*
X2708Y20D02*
X2715Y20D01*
X0Y19D02*
X7Y19D01*
X2708Y19D02*
X2715Y19D01*
X0Y18D02*
X7Y18D01*
X2708Y18D02*
X2715Y18D01*
X0Y17D02*
X7Y17D01*
X2708Y17D02*
X2715Y17D01*
X0Y16D02*
X7Y16D01*
X2708Y16D02*
X2715Y16D01*
X0Y15D02*
X7Y15D01*
X2708Y15D02*
X2715Y15D01*
X0Y14D02*
X7Y14D01*
X2708Y14D02*
X2715Y14D01*
X0Y13D02*
X7Y13D01*
X2708Y13D02*
X2715Y13D01*
X0Y12D02*
X7Y12D01*
X2708Y12D02*
X2715Y12D01*
X0Y11D02*
X7Y11D01*
X2708Y11D02*
X2715Y11D01*
X0Y10D02*
X7Y10D01*
X346Y10D02*
X348Y10D01*
X579Y10D02*
X581Y10D01*
X1245Y10D02*
X1247Y10D01*
X1479Y10D02*
X1481Y10D01*
X2708Y10D02*
X2715Y10D01*
X0Y9D02*
X2715Y9D01*
X0Y8D02*
X2715Y8D01*
X0Y7D02*
X2715Y7D01*
X0Y6D02*
X2715Y6D01*
X0Y5D02*
X2715Y5D01*
X0Y4D02*
X2715Y4D01*
X0Y3D02*
X2715Y3D01*
X0Y2D02*
X2715Y2D01*
X345Y1D02*
X348Y1D01*
X579Y1D02*
X581Y1D01*
X1245Y1D02*
X1248Y1D01*
X1478Y1D02*
X1481Y1D01*
X345Y0D02*
X348Y0D01*
X579Y0D02*
X581Y0D01*
X1245Y0D02*
X1248Y0D01*
X1478Y0D02*
X1481Y0D01*
D02*
G04 End of Silk0*
M02*