G04 MADE WITH FRITZING*
G04 WWW.FRITZING.ORG*
G04 DOUBLE SIDED*
G04 HOLES PLATED*
G04 CONTOUR ON CENTER OF CONTOUR VECTOR*
%ASAXBY*%
%FSLAX23Y23*%
%MOIN*%
%OFA0B0*%
%SFA1.0B1.0*%
%ADD10C,0.078000*%
%ADD11C,0.039370*%
%ADD12R,0.088792X0.078736*%
%ADD13R,0.078750X0.098417*%
%ADD14R,0.088778X0.078736*%
%ADD15R,0.078208X0.098417*%
%ADD16R,0.078736X0.088792*%
%ADD17R,0.098417X0.078750*%
%ADD18R,0.078736X0.088778*%
%ADD19R,0.098417X0.078208*%
%ADD20C,0.024000*%
%ADD21R,0.001000X0.001000*%
%LNCOPPER1*%
G90*
G70*
G54D10*
X869Y439D03*
X869Y339D03*
X869Y239D03*
X869Y139D03*
X1069Y439D03*
X1069Y339D03*
X1069Y239D03*
X1069Y139D03*
X1969Y439D03*
X1969Y339D03*
X1969Y239D03*
X1969Y139D03*
X869Y589D03*
X969Y589D03*
X1069Y589D03*
X1869Y589D03*
X1969Y589D03*
X2069Y589D03*
X2169Y589D03*
G54D11*
X569Y239D03*
X469Y389D03*
X369Y389D03*
X769Y89D03*
X1369Y289D03*
X1569Y239D03*
X1269Y389D03*
X1419Y389D03*
X2469Y439D03*
X2069Y89D03*
X2419Y289D03*
X2319Y339D03*
G54D10*
X69Y389D03*
X169Y389D03*
X269Y389D03*
X69Y289D03*
X169Y289D03*
X269Y289D03*
G54D12*
X1592Y139D03*
G54D13*
X1435Y521D03*
G54D14*
X1274Y139D03*
G54D13*
X1570Y521D03*
G54D15*
X1301Y521D03*
G54D16*
X2569Y389D03*
G54D17*
X2187Y232D03*
G54D18*
X2569Y71D03*
G54D17*
X2187Y367D03*
G54D19*
X2187Y98D03*
G54D12*
X692Y139D03*
G54D13*
X535Y521D03*
G54D14*
X374Y139D03*
G54D13*
X670Y521D03*
G54D15*
X401Y521D03*
G54D20*
X939Y589D02*
X900Y589D01*
D02*
X1039Y589D02*
X1000Y589D01*
D02*
X1953Y464D02*
X1886Y564D01*
D02*
X819Y39D02*
X783Y75D01*
D02*
X969Y339D02*
X969Y89D01*
D02*
X969Y89D02*
X919Y39D01*
D02*
X753Y99D02*
X737Y109D01*
D02*
X891Y418D02*
X969Y339D01*
D02*
X919Y39D02*
X819Y39D01*
D02*
X847Y359D02*
X710Y484D01*
D02*
X469Y389D02*
X510Y471D01*
D02*
X848Y160D02*
X769Y239D01*
D02*
X769Y239D02*
X588Y239D01*
D02*
X374Y407D02*
X389Y471D01*
D02*
X419Y289D02*
X378Y372D01*
D02*
X819Y289D02*
X419Y289D01*
D02*
X848Y260D02*
X819Y289D01*
D02*
X1319Y239D02*
X1219Y239D01*
D02*
X1219Y239D02*
X1095Y156D01*
D02*
X1356Y275D02*
X1319Y239D01*
D02*
X1319Y339D02*
X1519Y339D01*
D02*
X1519Y339D02*
X1569Y389D01*
D02*
X1569Y389D02*
X1570Y471D01*
D02*
X1100Y339D02*
X1319Y339D01*
D02*
X1274Y407D02*
X1289Y471D01*
D02*
X1422Y408D02*
X1429Y471D01*
D02*
X1969Y139D02*
X2136Y210D01*
D02*
X1999Y343D02*
X2136Y360D01*
D02*
X2486Y430D02*
X2529Y409D01*
D02*
X2269Y439D02*
X2450Y439D01*
D02*
X2219Y489D02*
X2269Y439D01*
D02*
X1969Y439D02*
X2119Y489D01*
D02*
X2119Y489D02*
X2219Y489D01*
D02*
X2088Y90D02*
X2136Y94D01*
D02*
X2238Y114D02*
X2319Y139D01*
D02*
X2319Y139D02*
X2319Y320D01*
D02*
X1574Y220D02*
X1583Y180D01*
D02*
X1670Y589D02*
X1670Y338D01*
D02*
X1570Y639D02*
X1670Y589D01*
D02*
X1670Y338D02*
X1583Y252D01*
D02*
X1219Y639D02*
X1570Y639D01*
D02*
X1169Y589D02*
X1219Y639D01*
D02*
X1169Y539D02*
X1169Y589D01*
D02*
X1091Y460D02*
X1169Y539D01*
D02*
X139Y289D02*
X100Y289D01*
D02*
X239Y289D02*
X200Y289D01*
D02*
X200Y389D02*
X239Y389D01*
D02*
X100Y389D02*
X139Y389D01*
G54D21*
D02*
G04 End of Copper1*
M02*