; NON-PLATED HOLES START AT T1
; THROUGH (PLATED) HOLES START AT T100
M48
INCH
T1C0.039361
T2C0.149000
T100C0.015748
T101C0.038000
%
T1
X004636Y000878
X005307Y000878
X012917Y000878
X006027Y000878
X026204Y002278
X026204Y001608
X013636Y000878
X003917Y000878
X026204Y003668
X026204Y002999
X015027Y000878
X014307Y000878
T2
X017694Y001388
X001694Y005388
X023694Y005388
X001694Y001388
X017694Y004388
T100
X007694Y000888
X004694Y003888
X003694Y003888
X013694Y002888
X024194Y002888
X012694Y003888
X015694Y002388
X020694Y000888
X014194Y003888
X023194Y003388
X005694Y002388
X024694Y004388
T101
X019694Y002388
X018694Y005888
X008694Y001388
X008694Y003388
X021694Y005888
X019694Y004388
X010694Y001388
X002694Y002888
X020694Y005888
X001694Y003888
X009694Y005888
X000694Y003888
X010694Y002388
X019694Y003388
X010694Y003388
X000694Y002888
X019694Y001388
X008694Y002388
X019694Y005888
X010694Y005888
X002694Y003888
X010694Y004388
X001694Y002888
X008694Y005888
X008694Y004388
T00
M30
