G04 MADE WITH FRITZING*
G04 WWW.FRITZING.ORG*
G04 DOUBLE SIDED*
G04 HOLES PLATED*
G04 CONTOUR ON CENTER OF CONTOUR VECTOR*
%ASAXBY*%
%FSLAX23Y23*%
%MOIN*%
%OFA0B0*%
%SFA1.0B1.0*%
%ADD10C,0.078000*%
%ADD11C,0.039370*%
%ADD12R,0.078736X0.088792*%
%ADD13R,0.098417X0.078750*%
%ADD14R,0.078736X0.088778*%
%ADD15R,0.098417X0.078208*%
%ADD16R,0.088792X0.078736*%
%ADD17R,0.078750X0.098417*%
%ADD18R,0.088778X0.078736*%
%ADD19R,0.078208X0.098417*%
%ADD20C,0.024000*%
%ADD21R,0.001000X0.001000*%
%LNCOPPER0*%
G90*
G70*
G54D10*
X69Y289D03*
X169Y289D03*
X269Y289D03*
X69Y389D03*
X169Y389D03*
X269Y389D03*
X869Y589D03*
X969Y589D03*
X1069Y589D03*
X1869Y589D03*
X1969Y589D03*
X2069Y589D03*
X2169Y589D03*
X1069Y439D03*
X1069Y339D03*
X1069Y239D03*
X1069Y139D03*
X869Y439D03*
X869Y339D03*
X869Y239D03*
X869Y139D03*
X1969Y439D03*
X1969Y339D03*
X1969Y239D03*
X1969Y139D03*
G54D11*
X569Y239D03*
X469Y389D03*
X369Y389D03*
X769Y89D03*
X1369Y289D03*
X1569Y239D03*
X1269Y389D03*
X1419Y389D03*
X2469Y439D03*
X2069Y89D03*
X2419Y289D03*
X2319Y339D03*
G54D12*
X2569Y139D03*
G54D13*
X2187Y296D03*
G54D14*
X2569Y456D03*
G54D13*
X2187Y161D03*
G54D15*
X2187Y429D03*
G54D16*
X1203Y139D03*
G54D17*
X1360Y521D03*
G54D18*
X1520Y139D03*
G54D17*
X1225Y521D03*
G54D19*
X1493Y521D03*
G54D16*
X303Y139D03*
G54D17*
X460Y521D03*
G54D18*
X620Y139D03*
G54D17*
X325Y521D03*
G54D19*
X593Y521D03*
G54D20*
X464Y471D02*
X468Y408D01*
D02*
X559Y255D02*
X480Y373D01*
D02*
X719Y289D02*
X619Y389D01*
D02*
X619Y389D02*
X603Y471D01*
D02*
X841Y248D02*
X719Y289D01*
D02*
X848Y360D02*
X769Y439D01*
D02*
X769Y439D02*
X769Y589D01*
D02*
X769Y589D02*
X719Y639D01*
D02*
X369Y639D02*
X344Y572D01*
D02*
X719Y639D02*
X369Y639D01*
D02*
X751Y95D02*
X666Y124D01*
D02*
X1169Y439D02*
X1191Y471D01*
D02*
X1169Y389D02*
X1169Y439D01*
D02*
X1096Y352D02*
X1169Y389D01*
D02*
X1419Y189D02*
X1469Y239D01*
D02*
X1319Y189D02*
X1419Y189D01*
D02*
X1219Y239D02*
X1319Y189D01*
D02*
X1519Y339D02*
X1519Y439D01*
D02*
X1519Y439D02*
X1509Y471D01*
D02*
X1469Y239D02*
X1519Y339D01*
D02*
X1100Y239D02*
X1219Y239D01*
D02*
X1561Y222D02*
X1540Y180D01*
D02*
X1219Y239D02*
X1263Y371D01*
D02*
X1383Y471D02*
X1412Y406D01*
D02*
X1378Y306D02*
X1411Y372D01*
D02*
X2488Y442D02*
X2529Y449D01*
D02*
X1869Y189D02*
X1869Y89D01*
D02*
X1869Y89D02*
X1969Y39D01*
D02*
X1969Y39D02*
X2052Y80D01*
D02*
X1969Y239D02*
X1869Y189D01*
D02*
X2369Y439D02*
X2419Y389D01*
D02*
X2400Y289D02*
X2238Y294D01*
D02*
X2419Y389D02*
X2419Y308D01*
D02*
X2319Y439D02*
X2369Y439D01*
D02*
X2191Y568D02*
X2319Y439D01*
D02*
X2069Y239D02*
X2136Y195D01*
D02*
X2069Y289D02*
X2069Y239D01*
D02*
X1996Y325D02*
X2069Y289D01*
D02*
X2069Y589D02*
X2157Y470D01*
D02*
X2304Y350D02*
X2238Y395D01*
D02*
X2069Y389D02*
X1996Y352D01*
D02*
X2069Y489D02*
X2069Y389D01*
D02*
X1969Y589D02*
X2069Y489D01*
G54D21*
D02*
G04 End of Copper0*
M02*