G04 MADE WITH FRITZING*
G04 WWW.FRITZING.ORG*
G04 DOUBLE SIDED*
G04 HOLES PLATED*
G04 CONTOUR ON CENTER OF CONTOUR VECTOR*
%ASAXBY*%
%FSLAX23Y23*%
%MOIN*%
%OFA0B0*%
%SFA1.0B1.0*%
%ADD10C,0.003528*%
%ADD11C,0.010000*%
%ADD12C,0.005000*%
%ADD13R,0.001000X0.001000*%
%LNSILK1*%
G90*
G70*
G54D10*
X447Y477D02*
X487Y477D01*
D02*
X670Y188D02*
X670Y462D01*
G54D11*
D02*
X819Y489D02*
X819Y89D01*
D02*
X819Y89D02*
X919Y89D01*
D02*
X919Y89D02*
X919Y489D01*
D02*
X919Y489D02*
X819Y489D01*
G54D10*
D02*
X1347Y477D02*
X1387Y477D01*
D02*
X1481Y477D02*
X1524Y477D01*
G54D11*
D02*
X1019Y489D02*
X1019Y89D01*
D02*
X1019Y89D02*
X1119Y89D01*
D02*
X1119Y89D02*
X1119Y489D01*
D02*
X1119Y489D02*
X1019Y489D01*
G54D10*
D02*
X2520Y91D02*
X2247Y91D01*
D02*
X2231Y144D02*
X2231Y184D01*
D02*
X2520Y367D02*
X2247Y367D01*
G54D11*
D02*
X1919Y489D02*
X1919Y89D01*
D02*
X1919Y89D02*
X2019Y89D01*
D02*
X2019Y89D02*
X2019Y489D01*
D02*
X2019Y489D02*
X1919Y489D01*
D02*
X819Y539D02*
X1119Y539D01*
D02*
X1119Y539D02*
X1119Y639D01*
D02*
X1119Y639D02*
X819Y639D01*
D02*
X819Y639D02*
X819Y539D01*
D02*
X1819Y539D02*
X2219Y539D01*
D02*
X2219Y539D02*
X2219Y639D01*
D02*
X2219Y639D02*
X1819Y639D01*
D02*
X1819Y639D02*
X1819Y539D01*
G54D12*
D02*
X1854Y539D02*
X1819Y574D01*
G54D11*
D02*
X19Y339D02*
X319Y339D01*
D02*
X319Y339D02*
X319Y439D01*
D02*
X319Y439D02*
X19Y439D01*
D02*
X19Y439D02*
X19Y339D01*
D02*
X19Y239D02*
X319Y239D01*
D02*
X319Y239D02*
X319Y339D01*
D02*
X319Y339D02*
X19Y339D01*
D02*
X19Y339D02*
X19Y239D01*
G54D10*
X394Y88D02*
X394Y8D01*
X670Y8D01*
X670Y88D01*
D02*
X1294Y88D02*
X1294Y8D01*
X1570Y8D01*
X1570Y88D01*
D02*
X2620Y91D02*
X2701Y91D01*
X2701Y367D01*
X2620Y367D01*
D02*
G54D13*
X0Y678D02*
X2715Y678D01*
X0Y677D02*
X2715Y677D01*
X0Y676D02*
X2715Y676D01*
X0Y675D02*
X2715Y675D01*
X0Y674D02*
X2715Y674D01*
X0Y673D02*
X2715Y673D01*
X0Y672D02*
X2715Y672D01*
X0Y671D02*
X2715Y671D01*
X0Y670D02*
X7Y670D01*
X2708Y670D02*
X2715Y670D01*
X0Y669D02*
X7Y669D01*
X2708Y669D02*
X2715Y669D01*
X0Y668D02*
X7Y668D01*
X2708Y668D02*
X2715Y668D01*
X0Y667D02*
X7Y667D01*
X2708Y667D02*
X2715Y667D01*
X0Y666D02*
X7Y666D01*
X2708Y666D02*
X2715Y666D01*
X0Y665D02*
X7Y665D01*
X2708Y665D02*
X2715Y665D01*
X0Y664D02*
X7Y664D01*
X2708Y664D02*
X2715Y664D01*
X0Y663D02*
X7Y663D01*
X2708Y663D02*
X2715Y663D01*
X0Y662D02*
X7Y662D01*
X2708Y662D02*
X2715Y662D01*
X0Y661D02*
X7Y661D01*
X2708Y661D02*
X2715Y661D01*
X0Y660D02*
X7Y660D01*
X2708Y660D02*
X2715Y660D01*
X0Y659D02*
X7Y659D01*
X2708Y659D02*
X2715Y659D01*
X0Y658D02*
X7Y658D01*
X2708Y658D02*
X2715Y658D01*
X0Y657D02*
X7Y657D01*
X2708Y657D02*
X2715Y657D01*
X0Y656D02*
X7Y656D01*
X2708Y656D02*
X2715Y656D01*
X0Y655D02*
X7Y655D01*
X2708Y655D02*
X2715Y655D01*
X0Y654D02*
X7Y654D01*
X2708Y654D02*
X2715Y654D01*
X0Y653D02*
X7Y653D01*
X2708Y653D02*
X2715Y653D01*
X0Y652D02*
X7Y652D01*
X2708Y652D02*
X2715Y652D01*
X0Y651D02*
X7Y651D01*
X2708Y651D02*
X2715Y651D01*
X0Y650D02*
X7Y650D01*
X733Y650D02*
X736Y650D01*
X760Y650D02*
X763Y650D01*
X2708Y650D02*
X2715Y650D01*
X0Y649D02*
X7Y649D01*
X732Y649D02*
X737Y649D01*
X759Y649D02*
X764Y649D01*
X2708Y649D02*
X2715Y649D01*
X0Y648D02*
X7Y648D01*
X731Y648D02*
X737Y648D01*
X759Y648D02*
X765Y648D01*
X2708Y648D02*
X2715Y648D01*
X0Y647D02*
X7Y647D01*
X731Y647D02*
X737Y647D01*
X759Y647D02*
X765Y647D01*
X2708Y647D02*
X2715Y647D01*
X0Y646D02*
X7Y646D01*
X731Y646D02*
X737Y646D01*
X759Y646D02*
X765Y646D01*
X2563Y646D02*
X2594Y646D01*
X2627Y646D02*
X2649Y646D01*
X2708Y646D02*
X2715Y646D01*
X0Y645D02*
X7Y645D01*
X731Y645D02*
X737Y645D01*
X759Y645D02*
X765Y645D01*
X2563Y645D02*
X2597Y645D01*
X2626Y645D02*
X2649Y645D01*
X2708Y645D02*
X2715Y645D01*
X0Y644D02*
X7Y644D01*
X731Y644D02*
X737Y644D01*
X759Y644D02*
X765Y644D01*
X781Y644D02*
X784Y644D01*
X2563Y644D02*
X2599Y644D01*
X2625Y644D02*
X2649Y644D01*
X2708Y644D02*
X2715Y644D01*
X0Y643D02*
X7Y643D01*
X731Y643D02*
X737Y643D01*
X759Y643D02*
X765Y643D01*
X780Y643D02*
X785Y643D01*
X2563Y643D02*
X2600Y643D01*
X2624Y643D02*
X2649Y643D01*
X2708Y643D02*
X2715Y643D01*
X0Y642D02*
X7Y642D01*
X731Y642D02*
X737Y642D01*
X759Y642D02*
X765Y642D01*
X780Y642D02*
X785Y642D01*
X2563Y642D02*
X2601Y642D01*
X2624Y642D02*
X2649Y642D01*
X2708Y642D02*
X2715Y642D01*
X0Y641D02*
X7Y641D01*
X731Y641D02*
X737Y641D01*
X759Y641D02*
X765Y641D01*
X779Y641D02*
X785Y641D01*
X2563Y641D02*
X2602Y641D01*
X2624Y641D02*
X2649Y641D01*
X2708Y641D02*
X2715Y641D01*
X0Y640D02*
X7Y640D01*
X731Y640D02*
X737Y640D01*
X759Y640D02*
X765Y640D01*
X779Y640D02*
X785Y640D01*
X2563Y640D02*
X2603Y640D01*
X2625Y640D02*
X2649Y640D01*
X2708Y640D02*
X2715Y640D01*
X0Y639D02*
X7Y639D01*
X731Y639D02*
X737Y639D01*
X759Y639D02*
X765Y639D01*
X779Y639D02*
X785Y639D01*
X2563Y639D02*
X2603Y639D01*
X2626Y639D02*
X2649Y639D01*
X2708Y639D02*
X2715Y639D01*
X0Y638D02*
X7Y638D01*
X731Y638D02*
X737Y638D01*
X759Y638D02*
X765Y638D01*
X779Y638D02*
X785Y638D01*
X2563Y638D02*
X2604Y638D01*
X2627Y638D02*
X2649Y638D01*
X2708Y638D02*
X2715Y638D01*
X0Y637D02*
X7Y637D01*
X731Y637D02*
X737Y637D01*
X759Y637D02*
X765Y637D01*
X779Y637D02*
X785Y637D01*
X2563Y637D02*
X2571Y637D01*
X2595Y637D02*
X2604Y637D01*
X2641Y637D02*
X2649Y637D01*
X2708Y637D02*
X2715Y637D01*
X0Y636D02*
X7Y636D01*
X731Y636D02*
X737Y636D01*
X759Y636D02*
X765Y636D01*
X779Y636D02*
X785Y636D01*
X1722Y636D02*
X1726Y636D01*
X1754Y636D02*
X1779Y636D01*
X2563Y636D02*
X2571Y636D01*
X2596Y636D02*
X2604Y636D01*
X2641Y636D02*
X2649Y636D01*
X2708Y636D02*
X2715Y636D01*
X0Y635D02*
X7Y635D01*
X731Y635D02*
X737Y635D01*
X759Y635D02*
X765Y635D01*
X779Y635D02*
X785Y635D01*
X1721Y635D02*
X1726Y635D01*
X1754Y635D02*
X1780Y635D01*
X2563Y635D02*
X2571Y635D01*
X2597Y635D02*
X2604Y635D01*
X2641Y635D02*
X2649Y635D01*
X2708Y635D02*
X2715Y635D01*
X0Y634D02*
X7Y634D01*
X731Y634D02*
X737Y634D01*
X759Y634D02*
X765Y634D01*
X779Y634D02*
X785Y634D01*
X1721Y634D02*
X1727Y634D01*
X1754Y634D02*
X1780Y634D01*
X2563Y634D02*
X2571Y634D01*
X2597Y634D02*
X2604Y634D01*
X2641Y634D02*
X2649Y634D01*
X2708Y634D02*
X2715Y634D01*
X0Y633D02*
X7Y633D01*
X731Y633D02*
X737Y633D01*
X759Y633D02*
X765Y633D01*
X779Y633D02*
X785Y633D01*
X1721Y633D02*
X1727Y633D01*
X1754Y633D02*
X1780Y633D01*
X2563Y633D02*
X2571Y633D01*
X2597Y633D02*
X2604Y633D01*
X2641Y633D02*
X2649Y633D01*
X2708Y633D02*
X2715Y633D01*
X0Y632D02*
X7Y632D01*
X731Y632D02*
X737Y632D01*
X759Y632D02*
X765Y632D01*
X779Y632D02*
X785Y632D01*
X1721Y632D02*
X1727Y632D01*
X1754Y632D02*
X1780Y632D01*
X2563Y632D02*
X2571Y632D01*
X2597Y632D02*
X2604Y632D01*
X2641Y632D02*
X2649Y632D01*
X2708Y632D02*
X2715Y632D01*
X0Y631D02*
X7Y631D01*
X731Y631D02*
X737Y631D01*
X759Y631D02*
X765Y631D01*
X779Y631D02*
X785Y631D01*
X1721Y631D02*
X1727Y631D01*
X1754Y631D02*
X1780Y631D01*
X2563Y631D02*
X2571Y631D01*
X2597Y631D02*
X2604Y631D01*
X2641Y631D02*
X2649Y631D01*
X2708Y631D02*
X2715Y631D01*
X0Y630D02*
X7Y630D01*
X731Y630D02*
X737Y630D01*
X759Y630D02*
X765Y630D01*
X779Y630D02*
X785Y630D01*
X1721Y630D02*
X1727Y630D01*
X1754Y630D02*
X1778Y630D01*
X2563Y630D02*
X2571Y630D01*
X2597Y630D02*
X2604Y630D01*
X2641Y630D02*
X2649Y630D01*
X2708Y630D02*
X2715Y630D01*
X0Y629D02*
X7Y629D01*
X731Y629D02*
X737Y629D01*
X759Y629D02*
X765Y629D01*
X779Y629D02*
X785Y629D01*
X1721Y629D02*
X1727Y629D01*
X1754Y629D02*
X1760Y629D01*
X2563Y629D02*
X2571Y629D01*
X2597Y629D02*
X2604Y629D01*
X2641Y629D02*
X2649Y629D01*
X2708Y629D02*
X2715Y629D01*
X0Y628D02*
X7Y628D01*
X731Y628D02*
X737Y628D01*
X759Y628D02*
X765Y628D01*
X779Y628D02*
X785Y628D01*
X1721Y628D02*
X1727Y628D01*
X1754Y628D02*
X1760Y628D01*
X2563Y628D02*
X2571Y628D01*
X2597Y628D02*
X2604Y628D01*
X2641Y628D02*
X2649Y628D01*
X2708Y628D02*
X2715Y628D01*
X0Y627D02*
X7Y627D01*
X731Y627D02*
X737Y627D01*
X759Y627D02*
X765Y627D01*
X779Y627D02*
X785Y627D01*
X1721Y627D02*
X1727Y627D01*
X1754Y627D02*
X1760Y627D01*
X2563Y627D02*
X2571Y627D01*
X2596Y627D02*
X2604Y627D01*
X2641Y627D02*
X2649Y627D01*
X2708Y627D02*
X2715Y627D01*
X0Y626D02*
X7Y626D01*
X731Y626D02*
X737Y626D01*
X759Y626D02*
X765Y626D01*
X779Y626D02*
X785Y626D01*
X1721Y626D02*
X1727Y626D01*
X1754Y626D02*
X1760Y626D01*
X2563Y626D02*
X2571Y626D01*
X2595Y626D02*
X2604Y626D01*
X2641Y626D02*
X2649Y626D01*
X2708Y626D02*
X2715Y626D01*
X0Y625D02*
X7Y625D01*
X731Y625D02*
X737Y625D01*
X759Y625D02*
X765Y625D01*
X779Y625D02*
X785Y625D01*
X1721Y625D02*
X1727Y625D01*
X1754Y625D02*
X1760Y625D01*
X2563Y625D02*
X2571Y625D01*
X2594Y625D02*
X2604Y625D01*
X2641Y625D02*
X2649Y625D01*
X2708Y625D02*
X2715Y625D01*
X0Y624D02*
X7Y624D01*
X731Y624D02*
X737Y624D01*
X759Y624D02*
X765Y624D01*
X779Y624D02*
X785Y624D01*
X1721Y624D02*
X1727Y624D01*
X1754Y624D02*
X1760Y624D01*
X2563Y624D02*
X2603Y624D01*
X2641Y624D02*
X2649Y624D01*
X2708Y624D02*
X2715Y624D01*
X0Y623D02*
X7Y623D01*
X731Y623D02*
X737Y623D01*
X759Y623D02*
X765Y623D01*
X779Y623D02*
X785Y623D01*
X1721Y623D02*
X1727Y623D01*
X1754Y623D02*
X1760Y623D01*
X2563Y623D02*
X2603Y623D01*
X2641Y623D02*
X2649Y623D01*
X2708Y623D02*
X2715Y623D01*
X0Y622D02*
X7Y622D01*
X731Y622D02*
X737Y622D01*
X759Y622D02*
X765Y622D01*
X779Y622D02*
X785Y622D01*
X1721Y622D02*
X1727Y622D01*
X1754Y622D02*
X1760Y622D01*
X2563Y622D02*
X2602Y622D01*
X2641Y622D02*
X2649Y622D01*
X2708Y622D02*
X2715Y622D01*
X0Y621D02*
X7Y621D01*
X713Y621D02*
X714Y621D01*
X731Y621D02*
X737Y621D01*
X759Y621D02*
X786Y621D01*
X1721Y621D02*
X1727Y621D01*
X1754Y621D02*
X1760Y621D01*
X2563Y621D02*
X2601Y621D01*
X2641Y621D02*
X2649Y621D01*
X2708Y621D02*
X2715Y621D01*
X0Y620D02*
X7Y620D01*
X711Y620D02*
X716Y620D01*
X731Y620D02*
X737Y620D01*
X759Y620D02*
X788Y620D01*
X1721Y620D02*
X1727Y620D01*
X1754Y620D02*
X1760Y620D01*
X2563Y620D02*
X2601Y620D01*
X2641Y620D02*
X2649Y620D01*
X2708Y620D02*
X2715Y620D01*
X0Y619D02*
X7Y619D01*
X711Y619D02*
X716Y619D01*
X731Y619D02*
X737Y619D01*
X759Y619D02*
X789Y619D01*
X1721Y619D02*
X1727Y619D01*
X1754Y619D02*
X1760Y619D01*
X2563Y619D02*
X2599Y619D01*
X2641Y619D02*
X2649Y619D01*
X2708Y619D02*
X2715Y619D01*
X0Y618D02*
X7Y618D01*
X711Y618D02*
X716Y618D01*
X731Y618D02*
X737Y618D01*
X759Y618D02*
X789Y618D01*
X1721Y618D02*
X1727Y618D01*
X1754Y618D02*
X1760Y618D01*
X2563Y618D02*
X2598Y618D01*
X2641Y618D02*
X2649Y618D01*
X2708Y618D02*
X2715Y618D01*
X0Y617D02*
X7Y617D01*
X711Y617D02*
X717Y617D01*
X731Y617D02*
X737Y617D01*
X759Y617D02*
X789Y617D01*
X1721Y617D02*
X1727Y617D01*
X1754Y617D02*
X1760Y617D01*
X2563Y617D02*
X2596Y617D01*
X2641Y617D02*
X2649Y617D01*
X2708Y617D02*
X2715Y617D01*
X0Y616D02*
X7Y616D01*
X711Y616D02*
X717Y616D01*
X731Y616D02*
X737Y616D01*
X759Y616D02*
X788Y616D01*
X1721Y616D02*
X1727Y616D01*
X1754Y616D02*
X1760Y616D01*
X2563Y616D02*
X2571Y616D01*
X2578Y616D02*
X2587Y616D01*
X2641Y616D02*
X2649Y616D01*
X2708Y616D02*
X2715Y616D01*
X0Y615D02*
X7Y615D01*
X711Y615D02*
X717Y615D01*
X731Y615D02*
X737Y615D01*
X759Y615D02*
X788Y615D01*
X1721Y615D02*
X1727Y615D01*
X1754Y615D02*
X1760Y615D01*
X2563Y615D02*
X2571Y615D01*
X2578Y615D02*
X2587Y615D01*
X2641Y615D02*
X2649Y615D01*
X2708Y615D02*
X2715Y615D01*
X0Y614D02*
X7Y614D01*
X711Y614D02*
X717Y614D01*
X731Y614D02*
X737Y614D01*
X779Y614D02*
X786Y614D01*
X1721Y614D02*
X1727Y614D01*
X1754Y614D02*
X1760Y614D01*
X2563Y614D02*
X2571Y614D01*
X2579Y614D02*
X2588Y614D01*
X2641Y614D02*
X2649Y614D01*
X2708Y614D02*
X2715Y614D01*
X0Y613D02*
X7Y613D01*
X711Y613D02*
X717Y613D01*
X731Y613D02*
X737Y613D01*
X779Y613D02*
X785Y613D01*
X1721Y613D02*
X1727Y613D01*
X1754Y613D02*
X1775Y613D01*
X2563Y613D02*
X2571Y613D01*
X2580Y613D02*
X2589Y613D01*
X2641Y613D02*
X2649Y613D01*
X2708Y613D02*
X2715Y613D01*
X0Y612D02*
X7Y612D01*
X711Y612D02*
X717Y612D01*
X731Y612D02*
X737Y612D01*
X779Y612D02*
X785Y612D01*
X1721Y612D02*
X1727Y612D01*
X1754Y612D02*
X1777Y612D01*
X2563Y612D02*
X2571Y612D01*
X2580Y612D02*
X2589Y612D01*
X2641Y612D02*
X2649Y612D01*
X2708Y612D02*
X2715Y612D01*
X0Y611D02*
X7Y611D01*
X711Y611D02*
X717Y611D01*
X731Y611D02*
X737Y611D01*
X779Y611D02*
X785Y611D01*
X1721Y611D02*
X1727Y611D01*
X1754Y611D02*
X1778Y611D01*
X2563Y611D02*
X2571Y611D01*
X2581Y611D02*
X2590Y611D01*
X2641Y611D02*
X2649Y611D01*
X2708Y611D02*
X2715Y611D01*
X0Y610D02*
X7Y610D01*
X711Y610D02*
X717Y610D01*
X731Y610D02*
X737Y610D01*
X779Y610D02*
X785Y610D01*
X1721Y610D02*
X1727Y610D01*
X1754Y610D02*
X1779Y610D01*
X2563Y610D02*
X2571Y610D01*
X2581Y610D02*
X2590Y610D01*
X2641Y610D02*
X2649Y610D01*
X2660Y610D02*
X2663Y610D01*
X2708Y610D02*
X2715Y610D01*
X0Y609D02*
X7Y609D01*
X711Y609D02*
X717Y609D01*
X731Y609D02*
X737Y609D01*
X779Y609D02*
X785Y609D01*
X1721Y609D02*
X1727Y609D01*
X1754Y609D02*
X1780Y609D01*
X2563Y609D02*
X2571Y609D01*
X2582Y609D02*
X2591Y609D01*
X2641Y609D02*
X2649Y609D01*
X2659Y609D02*
X2664Y609D01*
X2708Y609D02*
X2715Y609D01*
X0Y608D02*
X7Y608D01*
X711Y608D02*
X717Y608D01*
X731Y608D02*
X737Y608D01*
X779Y608D02*
X785Y608D01*
X1721Y608D02*
X1727Y608D01*
X1754Y608D02*
X1780Y608D01*
X2563Y608D02*
X2571Y608D01*
X2582Y608D02*
X2591Y608D01*
X2641Y608D02*
X2649Y608D01*
X2658Y608D02*
X2665Y608D01*
X2708Y608D02*
X2715Y608D01*
X0Y607D02*
X7Y607D01*
X711Y607D02*
X717Y607D01*
X731Y607D02*
X737Y607D01*
X779Y607D02*
X785Y607D01*
X1702Y607D02*
X1704Y607D01*
X1721Y607D02*
X1727Y607D01*
X1754Y607D02*
X1780Y607D01*
X2563Y607D02*
X2571Y607D01*
X2583Y607D02*
X2592Y607D01*
X2641Y607D02*
X2649Y607D01*
X2658Y607D02*
X2665Y607D01*
X2708Y607D02*
X2715Y607D01*
X0Y606D02*
X7Y606D01*
X711Y606D02*
X717Y606D01*
X731Y606D02*
X737Y606D01*
X779Y606D02*
X785Y606D01*
X1701Y606D02*
X1705Y606D01*
X1721Y606D02*
X1727Y606D01*
X1774Y606D02*
X1780Y606D01*
X2563Y606D02*
X2571Y606D01*
X2584Y606D02*
X2593Y606D01*
X2641Y606D02*
X2649Y606D01*
X2658Y606D02*
X2666Y606D01*
X2708Y606D02*
X2715Y606D01*
X0Y605D02*
X7Y605D01*
X711Y605D02*
X717Y605D01*
X730Y605D02*
X737Y605D01*
X779Y605D02*
X785Y605D01*
X1701Y605D02*
X1706Y605D01*
X1721Y605D02*
X1727Y605D01*
X1774Y605D02*
X1780Y605D01*
X2563Y605D02*
X2571Y605D01*
X2584Y605D02*
X2593Y605D01*
X2641Y605D02*
X2649Y605D01*
X2658Y605D02*
X2666Y605D01*
X2708Y605D02*
X2715Y605D01*
X0Y604D02*
X7Y604D01*
X711Y604D02*
X718Y604D01*
X729Y604D02*
X737Y604D01*
X779Y604D02*
X785Y604D01*
X1700Y604D02*
X1706Y604D01*
X1721Y604D02*
X1727Y604D01*
X1774Y604D02*
X1780Y604D01*
X2563Y604D02*
X2571Y604D01*
X2585Y604D02*
X2594Y604D01*
X2641Y604D02*
X2649Y604D01*
X2658Y604D02*
X2666Y604D01*
X2708Y604D02*
X2715Y604D01*
X0Y603D02*
X7Y603D01*
X711Y603D02*
X736Y603D01*
X779Y603D02*
X785Y603D01*
X1700Y603D02*
X1706Y603D01*
X1721Y603D02*
X1727Y603D01*
X1774Y603D02*
X1780Y603D01*
X2563Y603D02*
X2571Y603D01*
X2585Y603D02*
X2594Y603D01*
X2641Y603D02*
X2649Y603D01*
X2658Y603D02*
X2666Y603D01*
X2708Y603D02*
X2715Y603D01*
X0Y602D02*
X7Y602D01*
X712Y602D02*
X736Y602D01*
X779Y602D02*
X785Y602D01*
X1700Y602D02*
X1706Y602D01*
X1721Y602D02*
X1727Y602D01*
X1774Y602D02*
X1780Y602D01*
X2563Y602D02*
X2571Y602D01*
X2586Y602D02*
X2595Y602D01*
X2641Y602D02*
X2649Y602D01*
X2658Y602D02*
X2666Y602D01*
X2708Y602D02*
X2715Y602D01*
X0Y601D02*
X7Y601D01*
X712Y601D02*
X735Y601D01*
X779Y601D02*
X785Y601D01*
X1700Y601D02*
X1706Y601D01*
X1721Y601D02*
X1727Y601D01*
X1774Y601D02*
X1780Y601D01*
X2563Y601D02*
X2571Y601D01*
X2587Y601D02*
X2596Y601D01*
X2641Y601D02*
X2649Y601D01*
X2658Y601D02*
X2666Y601D01*
X2708Y601D02*
X2715Y601D01*
X0Y600D02*
X7Y600D01*
X713Y600D02*
X734Y600D01*
X779Y600D02*
X785Y600D01*
X1700Y600D02*
X1706Y600D01*
X1721Y600D02*
X1727Y600D01*
X1774Y600D02*
X1780Y600D01*
X2563Y600D02*
X2571Y600D01*
X2587Y600D02*
X2596Y600D01*
X2641Y600D02*
X2649Y600D01*
X2658Y600D02*
X2666Y600D01*
X2708Y600D02*
X2715Y600D01*
X0Y599D02*
X7Y599D01*
X714Y599D02*
X733Y599D01*
X780Y599D02*
X785Y599D01*
X1700Y599D02*
X1706Y599D01*
X1721Y599D02*
X1727Y599D01*
X1774Y599D02*
X1780Y599D01*
X2563Y599D02*
X2571Y599D01*
X2588Y599D02*
X2597Y599D01*
X2641Y599D02*
X2649Y599D01*
X2658Y599D02*
X2666Y599D01*
X2708Y599D02*
X2715Y599D01*
X0Y598D02*
X7Y598D01*
X716Y598D02*
X732Y598D01*
X780Y598D02*
X785Y598D01*
X1700Y598D02*
X1706Y598D01*
X1721Y598D02*
X1727Y598D01*
X1774Y598D02*
X1780Y598D01*
X2563Y598D02*
X2571Y598D01*
X2588Y598D02*
X2597Y598D01*
X2641Y598D02*
X2649Y598D01*
X2658Y598D02*
X2666Y598D01*
X2708Y598D02*
X2715Y598D01*
X0Y597D02*
X7Y597D01*
X718Y597D02*
X730Y597D01*
X781Y597D02*
X784Y597D01*
X1700Y597D02*
X1706Y597D01*
X1721Y597D02*
X1727Y597D01*
X1774Y597D02*
X1780Y597D01*
X2563Y597D02*
X2571Y597D01*
X2589Y597D02*
X2598Y597D01*
X2641Y597D02*
X2649Y597D01*
X2658Y597D02*
X2666Y597D01*
X2708Y597D02*
X2715Y597D01*
X0Y596D02*
X7Y596D01*
X1700Y596D02*
X1706Y596D01*
X1721Y596D02*
X1727Y596D01*
X1774Y596D02*
X1780Y596D01*
X2563Y596D02*
X2571Y596D01*
X2589Y596D02*
X2598Y596D01*
X2641Y596D02*
X2649Y596D01*
X2658Y596D02*
X2666Y596D01*
X2708Y596D02*
X2715Y596D01*
X0Y595D02*
X7Y595D01*
X1700Y595D02*
X1706Y595D01*
X1721Y595D02*
X1727Y595D01*
X1774Y595D02*
X1780Y595D01*
X2563Y595D02*
X2571Y595D01*
X2590Y595D02*
X2599Y595D01*
X2641Y595D02*
X2649Y595D01*
X2658Y595D02*
X2666Y595D01*
X2708Y595D02*
X2715Y595D01*
X0Y594D02*
X7Y594D01*
X1700Y594D02*
X1706Y594D01*
X1721Y594D02*
X1727Y594D01*
X1774Y594D02*
X1780Y594D01*
X2563Y594D02*
X2571Y594D01*
X2591Y594D02*
X2600Y594D01*
X2641Y594D02*
X2649Y594D01*
X2658Y594D02*
X2666Y594D01*
X2708Y594D02*
X2715Y594D01*
X0Y593D02*
X7Y593D01*
X1700Y593D02*
X1706Y593D01*
X1721Y593D02*
X1727Y593D01*
X1774Y593D02*
X1780Y593D01*
X2563Y593D02*
X2571Y593D01*
X2591Y593D02*
X2600Y593D01*
X2641Y593D02*
X2649Y593D01*
X2658Y593D02*
X2666Y593D01*
X2708Y593D02*
X2715Y593D01*
X0Y592D02*
X7Y592D01*
X1700Y592D02*
X1707Y592D01*
X1721Y592D02*
X1727Y592D01*
X1749Y592D02*
X1751Y592D01*
X1774Y592D02*
X1780Y592D01*
X2563Y592D02*
X2571Y592D01*
X2592Y592D02*
X2601Y592D01*
X2641Y592D02*
X2649Y592D01*
X2658Y592D02*
X2666Y592D01*
X2708Y592D02*
X2715Y592D01*
X0Y591D02*
X7Y591D01*
X1700Y591D02*
X1707Y591D01*
X1720Y591D02*
X1727Y591D01*
X1747Y591D02*
X1754Y591D01*
X1774Y591D02*
X1780Y591D01*
X2563Y591D02*
X2571Y591D01*
X2592Y591D02*
X2601Y591D01*
X2641Y591D02*
X2649Y591D01*
X2658Y591D02*
X2666Y591D01*
X2708Y591D02*
X2715Y591D01*
X0Y590D02*
X7Y590D01*
X1701Y590D02*
X1708Y590D01*
X1719Y590D02*
X1726Y590D01*
X1747Y590D02*
X1756Y590D01*
X1774Y590D02*
X1780Y590D01*
X2563Y590D02*
X2571Y590D01*
X2593Y590D02*
X2602Y590D01*
X2641Y590D02*
X2649Y590D01*
X2658Y590D02*
X2666Y590D01*
X2708Y590D02*
X2715Y590D01*
X0Y589D02*
X7Y589D01*
X1701Y589D02*
X1726Y589D01*
X1747Y589D02*
X1780Y589D01*
X2563Y589D02*
X2571Y589D01*
X2594Y589D02*
X2603Y589D01*
X2641Y589D02*
X2649Y589D01*
X2658Y589D02*
X2666Y589D01*
X2708Y589D02*
X2715Y589D01*
X0Y588D02*
X7Y588D01*
X1702Y588D02*
X1726Y588D01*
X1747Y588D02*
X1780Y588D01*
X2563Y588D02*
X2571Y588D01*
X2594Y588D02*
X2603Y588D01*
X2626Y588D02*
X2666Y588D01*
X2708Y588D02*
X2715Y588D01*
X0Y587D02*
X7Y587D01*
X1702Y587D02*
X1725Y587D01*
X1747Y587D02*
X1780Y587D01*
X2563Y587D02*
X2571Y587D01*
X2595Y587D02*
X2604Y587D01*
X2625Y587D02*
X2666Y587D01*
X2708Y587D02*
X2715Y587D01*
X0Y586D02*
X7Y586D01*
X1703Y586D02*
X1724Y586D01*
X1749Y586D02*
X1779Y586D01*
X2563Y586D02*
X2571Y586D01*
X2595Y586D02*
X2604Y586D01*
X2625Y586D02*
X2666Y586D01*
X2708Y586D02*
X2715Y586D01*
X0Y585D02*
X7Y585D01*
X1704Y585D02*
X1723Y585D01*
X1751Y585D02*
X1779Y585D01*
X2563Y585D02*
X2571Y585D01*
X2596Y585D02*
X2604Y585D01*
X2624Y585D02*
X2666Y585D01*
X2708Y585D02*
X2715Y585D01*
X0Y584D02*
X7Y584D01*
X1706Y584D02*
X1722Y584D01*
X1753Y584D02*
X1777Y584D01*
X2563Y584D02*
X2571Y584D01*
X2596Y584D02*
X2604Y584D01*
X2624Y584D02*
X2665Y584D01*
X2708Y584D02*
X2715Y584D01*
X0Y583D02*
X7Y583D01*
X1708Y583D02*
X1719Y583D01*
X1756Y583D02*
X1776Y583D01*
X2564Y583D02*
X2570Y583D01*
X2597Y583D02*
X2604Y583D01*
X2625Y583D02*
X2665Y583D01*
X2708Y583D02*
X2715Y583D01*
X0Y582D02*
X7Y582D01*
X2564Y582D02*
X2570Y582D01*
X2598Y582D02*
X2604Y582D01*
X2625Y582D02*
X2665Y582D01*
X2708Y582D02*
X2715Y582D01*
X0Y581D02*
X7Y581D01*
X2565Y581D02*
X2569Y581D01*
X2599Y581D02*
X2602Y581D01*
X2626Y581D02*
X2663Y581D01*
X2708Y581D02*
X2715Y581D01*
X0Y580D02*
X7Y580D01*
X2708Y580D02*
X2715Y580D01*
X0Y579D02*
X7Y579D01*
X2708Y579D02*
X2715Y579D01*
X0Y578D02*
X7Y578D01*
X2708Y578D02*
X2715Y578D01*
X0Y577D02*
X7Y577D01*
X2708Y577D02*
X2715Y577D01*
X0Y576D02*
X7Y576D01*
X821Y576D02*
X821Y576D01*
X2708Y576D02*
X2715Y576D01*
X0Y575D02*
X7Y575D01*
X819Y575D02*
X822Y575D01*
X2708Y575D02*
X2715Y575D01*
X0Y574D02*
X7Y574D01*
X818Y574D02*
X823Y574D01*
X2708Y574D02*
X2715Y574D01*
X0Y573D02*
X7Y573D01*
X818Y573D02*
X824Y573D01*
X2708Y573D02*
X2715Y573D01*
X0Y572D02*
X7Y572D01*
X818Y572D02*
X825Y572D01*
X2708Y572D02*
X2715Y572D01*
X0Y571D02*
X7Y571D01*
X819Y571D02*
X826Y571D01*
X2708Y571D02*
X2715Y571D01*
X0Y570D02*
X7Y570D01*
X820Y570D02*
X827Y570D01*
X2708Y570D02*
X2715Y570D01*
X0Y569D02*
X7Y569D01*
X821Y569D02*
X828Y569D01*
X2708Y569D02*
X2715Y569D01*
X0Y568D02*
X7Y568D01*
X822Y568D02*
X829Y568D01*
X2708Y568D02*
X2715Y568D01*
X0Y567D02*
X7Y567D01*
X823Y567D02*
X830Y567D01*
X2708Y567D02*
X2715Y567D01*
X0Y566D02*
X7Y566D01*
X824Y566D02*
X831Y566D01*
X2708Y566D02*
X2715Y566D01*
X0Y565D02*
X7Y565D01*
X825Y565D02*
X832Y565D01*
X2708Y565D02*
X2715Y565D01*
X0Y564D02*
X7Y564D01*
X826Y564D02*
X833Y564D01*
X2708Y564D02*
X2715Y564D01*
X0Y563D02*
X7Y563D01*
X827Y563D02*
X833Y563D01*
X2708Y563D02*
X2715Y563D01*
X0Y562D02*
X7Y562D01*
X828Y562D02*
X834Y562D01*
X2708Y562D02*
X2715Y562D01*
X0Y561D02*
X7Y561D01*
X829Y561D02*
X835Y561D01*
X2708Y561D02*
X2715Y561D01*
X0Y560D02*
X7Y560D01*
X830Y560D02*
X836Y560D01*
X2708Y560D02*
X2715Y560D01*
X0Y559D02*
X7Y559D01*
X831Y559D02*
X837Y559D01*
X2708Y559D02*
X2715Y559D01*
X0Y558D02*
X7Y558D01*
X832Y558D02*
X838Y558D01*
X2708Y558D02*
X2715Y558D01*
X0Y557D02*
X7Y557D01*
X833Y557D02*
X839Y557D01*
X2708Y557D02*
X2715Y557D01*
X0Y556D02*
X7Y556D01*
X834Y556D02*
X840Y556D01*
X2708Y556D02*
X2715Y556D01*
X0Y555D02*
X7Y555D01*
X835Y555D02*
X841Y555D01*
X2708Y555D02*
X2715Y555D01*
X0Y554D02*
X7Y554D01*
X836Y554D02*
X843Y554D01*
X2708Y554D02*
X2715Y554D01*
X0Y553D02*
X7Y553D01*
X837Y553D02*
X844Y553D01*
X2708Y553D02*
X2715Y553D01*
X0Y552D02*
X7Y552D01*
X838Y552D02*
X845Y552D01*
X2708Y552D02*
X2715Y552D01*
X0Y551D02*
X7Y551D01*
X839Y551D02*
X846Y551D01*
X2708Y551D02*
X2715Y551D01*
X0Y550D02*
X7Y550D01*
X840Y550D02*
X847Y550D01*
X2708Y550D02*
X2715Y550D01*
X0Y549D02*
X7Y549D01*
X841Y549D02*
X848Y549D01*
X2708Y549D02*
X2715Y549D01*
X0Y548D02*
X7Y548D01*
X842Y548D02*
X849Y548D01*
X2708Y548D02*
X2715Y548D01*
X0Y547D02*
X7Y547D01*
X843Y547D02*
X850Y547D01*
X2708Y547D02*
X2715Y547D01*
X0Y546D02*
X7Y546D01*
X844Y546D02*
X851Y546D01*
X2708Y546D02*
X2715Y546D01*
X0Y545D02*
X7Y545D01*
X845Y545D02*
X852Y545D01*
X2708Y545D02*
X2715Y545D01*
X0Y544D02*
X7Y544D01*
X846Y544D02*
X853Y544D01*
X2708Y544D02*
X2715Y544D01*
X0Y543D02*
X7Y543D01*
X847Y543D02*
X854Y543D01*
X2708Y543D02*
X2715Y543D01*
X0Y542D02*
X7Y542D01*
X848Y542D02*
X855Y542D01*
X2708Y542D02*
X2715Y542D01*
X0Y541D02*
X7Y541D01*
X849Y541D02*
X854Y541D01*
X2708Y541D02*
X2715Y541D01*
X0Y540D02*
X7Y540D01*
X850Y540D02*
X853Y540D01*
X2708Y540D02*
X2715Y540D01*
X0Y539D02*
X7Y539D01*
X851Y539D02*
X852Y539D01*
X2708Y539D02*
X2715Y539D01*
X0Y538D02*
X7Y538D01*
X2708Y538D02*
X2715Y538D01*
X0Y537D02*
X7Y537D01*
X2708Y537D02*
X2715Y537D01*
X0Y536D02*
X7Y536D01*
X2708Y536D02*
X2715Y536D01*
X0Y535D02*
X7Y535D01*
X2708Y535D02*
X2715Y535D01*
X0Y534D02*
X7Y534D01*
X2708Y534D02*
X2715Y534D01*
X0Y533D02*
X7Y533D01*
X2708Y533D02*
X2715Y533D01*
X0Y532D02*
X7Y532D01*
X2708Y532D02*
X2715Y532D01*
X0Y531D02*
X7Y531D01*
X2708Y531D02*
X2715Y531D01*
X0Y530D02*
X7Y530D01*
X2708Y530D02*
X2715Y530D01*
X0Y529D02*
X7Y529D01*
X2708Y529D02*
X2715Y529D01*
X0Y528D02*
X7Y528D01*
X2708Y528D02*
X2715Y528D01*
X0Y527D02*
X7Y527D01*
X751Y527D02*
X753Y527D01*
X776Y527D02*
X795Y527D01*
X2708Y527D02*
X2715Y527D01*
X0Y526D02*
X7Y526D01*
X750Y526D02*
X754Y526D01*
X775Y526D02*
X795Y526D01*
X2708Y526D02*
X2715Y526D01*
X0Y525D02*
X7Y525D01*
X749Y525D02*
X755Y525D01*
X775Y525D02*
X795Y525D01*
X2708Y525D02*
X2715Y525D01*
X0Y524D02*
X7Y524D01*
X749Y524D02*
X755Y524D01*
X775Y524D02*
X795Y524D01*
X2708Y524D02*
X2715Y524D01*
X0Y523D02*
X7Y523D01*
X749Y523D02*
X755Y523D01*
X775Y523D02*
X795Y523D01*
X1154Y523D02*
X1157Y523D01*
X1180Y523D02*
X1208Y523D01*
X2708Y523D02*
X2715Y523D01*
X0Y522D02*
X7Y522D01*
X749Y522D02*
X755Y522D01*
X776Y522D02*
X795Y522D01*
X1153Y522D02*
X1158Y522D01*
X1179Y522D02*
X1209Y522D01*
X2708Y522D02*
X2715Y522D01*
X0Y521D02*
X7Y521D01*
X749Y521D02*
X755Y521D01*
X777Y521D02*
X795Y521D01*
X1153Y521D02*
X1158Y521D01*
X1179Y521D02*
X1210Y521D01*
X2708Y521D02*
X2715Y521D01*
X0Y520D02*
X7Y520D01*
X749Y520D02*
X755Y520D01*
X789Y520D02*
X795Y520D01*
X1153Y520D02*
X1159Y520D01*
X1179Y520D02*
X1211Y520D01*
X2708Y520D02*
X2715Y520D01*
X0Y519D02*
X7Y519D01*
X749Y519D02*
X755Y519D01*
X789Y519D02*
X795Y519D01*
X1153Y519D02*
X1159Y519D01*
X1179Y519D02*
X1212Y519D01*
X2708Y519D02*
X2715Y519D01*
X0Y518D02*
X7Y518D01*
X749Y518D02*
X755Y518D01*
X789Y518D02*
X795Y518D01*
X1153Y518D02*
X1159Y518D01*
X1179Y518D02*
X1212Y518D01*
X2065Y518D02*
X2067Y518D01*
X2091Y518D02*
X2118Y518D01*
X2708Y518D02*
X2715Y518D01*
X0Y517D02*
X7Y517D01*
X749Y517D02*
X755Y517D01*
X789Y517D02*
X795Y517D01*
X1153Y517D02*
X1159Y517D01*
X1180Y517D02*
X1212Y517D01*
X2064Y517D02*
X2068Y517D01*
X2090Y517D02*
X2120Y517D01*
X2708Y517D02*
X2715Y517D01*
X0Y516D02*
X7Y516D01*
X749Y516D02*
X755Y516D01*
X789Y516D02*
X795Y516D01*
X1153Y516D02*
X1159Y516D01*
X1206Y516D02*
X1212Y516D01*
X2063Y516D02*
X2069Y516D01*
X2089Y516D02*
X2121Y516D01*
X2708Y516D02*
X2715Y516D01*
X0Y515D02*
X7Y515D01*
X749Y515D02*
X755Y515D01*
X789Y515D02*
X795Y515D01*
X1153Y515D02*
X1159Y515D01*
X1206Y515D02*
X1212Y515D01*
X2063Y515D02*
X2069Y515D01*
X2089Y515D02*
X2121Y515D01*
X2708Y515D02*
X2715Y515D01*
X0Y514D02*
X7Y514D01*
X749Y514D02*
X755Y514D01*
X789Y514D02*
X795Y514D01*
X1153Y514D02*
X1159Y514D01*
X1206Y514D02*
X1212Y514D01*
X2063Y514D02*
X2069Y514D01*
X2089Y514D02*
X2122Y514D01*
X2708Y514D02*
X2715Y514D01*
X0Y513D02*
X7Y513D01*
X749Y513D02*
X755Y513D01*
X789Y513D02*
X795Y513D01*
X1153Y513D02*
X1159Y513D01*
X1206Y513D02*
X1212Y513D01*
X2063Y513D02*
X2069Y513D01*
X2090Y513D02*
X2122Y513D01*
X2708Y513D02*
X2715Y513D01*
X0Y512D02*
X7Y512D01*
X749Y512D02*
X755Y512D01*
X789Y512D02*
X795Y512D01*
X1153Y512D02*
X1159Y512D01*
X1206Y512D02*
X1212Y512D01*
X2063Y512D02*
X2069Y512D01*
X2091Y512D02*
X2122Y512D01*
X2708Y512D02*
X2715Y512D01*
X0Y511D02*
X7Y511D01*
X50Y511D02*
X53Y511D01*
X76Y511D02*
X82Y511D01*
X749Y511D02*
X755Y511D01*
X789Y511D02*
X795Y511D01*
X1153Y511D02*
X1159Y511D01*
X1206Y511D02*
X1212Y511D01*
X2063Y511D02*
X2069Y511D01*
X2116Y511D02*
X2123Y511D01*
X2708Y511D02*
X2715Y511D01*
X0Y510D02*
X7Y510D01*
X49Y510D02*
X54Y510D01*
X75Y510D02*
X83Y510D01*
X749Y510D02*
X755Y510D01*
X789Y510D02*
X795Y510D01*
X1153Y510D02*
X1159Y510D01*
X1206Y510D02*
X1212Y510D01*
X2063Y510D02*
X2069Y510D01*
X2117Y510D02*
X2123Y510D01*
X2708Y510D02*
X2715Y510D01*
X0Y509D02*
X7Y509D01*
X49Y509D02*
X54Y509D01*
X74Y509D02*
X83Y509D01*
X749Y509D02*
X755Y509D01*
X789Y509D02*
X795Y509D01*
X1153Y509D02*
X1159Y509D01*
X1206Y509D02*
X1212Y509D01*
X2063Y509D02*
X2069Y509D01*
X2117Y509D02*
X2123Y509D01*
X2708Y509D02*
X2715Y509D01*
X0Y508D02*
X7Y508D01*
X48Y508D02*
X54Y508D01*
X74Y508D02*
X84Y508D01*
X749Y508D02*
X755Y508D01*
X789Y508D02*
X795Y508D01*
X1153Y508D02*
X1159Y508D01*
X1206Y508D02*
X1212Y508D01*
X2063Y508D02*
X2069Y508D01*
X2117Y508D02*
X2123Y508D01*
X2708Y508D02*
X2715Y508D01*
X0Y507D02*
X7Y507D01*
X48Y507D02*
X54Y507D01*
X74Y507D02*
X83Y507D01*
X749Y507D02*
X755Y507D01*
X789Y507D02*
X795Y507D01*
X1153Y507D02*
X1159Y507D01*
X1206Y507D02*
X1212Y507D01*
X2063Y507D02*
X2069Y507D01*
X2117Y507D02*
X2123Y507D01*
X2708Y507D02*
X2715Y507D01*
X0Y506D02*
X7Y506D01*
X48Y506D02*
X54Y506D01*
X74Y506D02*
X83Y506D01*
X749Y506D02*
X755Y506D01*
X789Y506D02*
X795Y506D01*
X1153Y506D02*
X1159Y506D01*
X1206Y506D02*
X1212Y506D01*
X2063Y506D02*
X2069Y506D01*
X2117Y506D02*
X2123Y506D01*
X2708Y506D02*
X2715Y506D01*
X0Y505D02*
X7Y505D01*
X48Y505D02*
X54Y505D01*
X74Y505D02*
X82Y505D01*
X749Y505D02*
X755Y505D01*
X789Y505D02*
X795Y505D01*
X1153Y505D02*
X1159Y505D01*
X1206Y505D02*
X1212Y505D01*
X2063Y505D02*
X2069Y505D01*
X2117Y505D02*
X2123Y505D01*
X2708Y505D02*
X2715Y505D01*
X0Y504D02*
X7Y504D01*
X48Y504D02*
X54Y504D01*
X74Y504D02*
X80Y504D01*
X749Y504D02*
X755Y504D01*
X789Y504D02*
X795Y504D01*
X1153Y504D02*
X1159Y504D01*
X1206Y504D02*
X1212Y504D01*
X2063Y504D02*
X2069Y504D01*
X2117Y504D02*
X2123Y504D01*
X2708Y504D02*
X2715Y504D01*
X0Y503D02*
X7Y503D01*
X48Y503D02*
X54Y503D01*
X74Y503D02*
X80Y503D01*
X749Y503D02*
X755Y503D01*
X789Y503D02*
X795Y503D01*
X1153Y503D02*
X1159Y503D01*
X1206Y503D02*
X1212Y503D01*
X2063Y503D02*
X2069Y503D01*
X2117Y503D02*
X2123Y503D01*
X2708Y503D02*
X2715Y503D01*
X0Y502D02*
X7Y502D01*
X48Y502D02*
X54Y502D01*
X74Y502D02*
X80Y502D01*
X749Y502D02*
X755Y502D01*
X789Y502D02*
X795Y502D01*
X1153Y502D02*
X1159Y502D01*
X1206Y502D02*
X1212Y502D01*
X2063Y502D02*
X2069Y502D01*
X2117Y502D02*
X2123Y502D01*
X2708Y502D02*
X2715Y502D01*
X0Y501D02*
X7Y501D01*
X48Y501D02*
X54Y501D01*
X74Y501D02*
X80Y501D01*
X749Y501D02*
X755Y501D01*
X789Y501D02*
X795Y501D01*
X1153Y501D02*
X1159Y501D01*
X1206Y501D02*
X1212Y501D01*
X2063Y501D02*
X2069Y501D01*
X2117Y501D02*
X2123Y501D01*
X2708Y501D02*
X2715Y501D01*
X0Y500D02*
X7Y500D01*
X48Y500D02*
X54Y500D01*
X74Y500D02*
X80Y500D01*
X749Y500D02*
X755Y500D01*
X789Y500D02*
X795Y500D01*
X1153Y500D02*
X1159Y500D01*
X1206Y500D02*
X1212Y500D01*
X2063Y500D02*
X2069Y500D01*
X2117Y500D02*
X2123Y500D01*
X2708Y500D02*
X2715Y500D01*
X0Y499D02*
X7Y499D01*
X48Y499D02*
X54Y499D01*
X74Y499D02*
X80Y499D01*
X749Y499D02*
X755Y499D01*
X789Y499D02*
X795Y499D01*
X1153Y499D02*
X1159Y499D01*
X1182Y499D02*
X1212Y499D01*
X2063Y499D02*
X2069Y499D01*
X2117Y499D02*
X2123Y499D01*
X2708Y499D02*
X2715Y499D01*
X0Y498D02*
X7Y498D01*
X48Y498D02*
X54Y498D01*
X74Y498D02*
X80Y498D01*
X731Y498D02*
X732Y498D01*
X749Y498D02*
X755Y498D01*
X789Y498D02*
X795Y498D01*
X805Y498D02*
X806Y498D01*
X1153Y498D02*
X1159Y498D01*
X1181Y498D02*
X1212Y498D01*
X2063Y498D02*
X2069Y498D01*
X2116Y498D02*
X2122Y498D01*
X2708Y498D02*
X2715Y498D01*
X0Y497D02*
X7Y497D01*
X48Y497D02*
X54Y497D01*
X74Y497D02*
X80Y497D01*
X729Y497D02*
X733Y497D01*
X749Y497D02*
X755Y497D01*
X789Y497D02*
X795Y497D01*
X803Y497D02*
X808Y497D01*
X1153Y497D02*
X1159Y497D01*
X1180Y497D02*
X1211Y497D01*
X2063Y497D02*
X2069Y497D01*
X2116Y497D02*
X2122Y497D01*
X2708Y497D02*
X2715Y497D01*
X0Y496D02*
X7Y496D01*
X48Y496D02*
X54Y496D01*
X74Y496D02*
X80Y496D01*
X729Y496D02*
X734Y496D01*
X749Y496D02*
X755Y496D01*
X789Y496D02*
X795Y496D01*
X803Y496D02*
X808Y496D01*
X1153Y496D02*
X1159Y496D01*
X1179Y496D02*
X1211Y496D01*
X2063Y496D02*
X2069Y496D01*
X2115Y496D02*
X2122Y496D01*
X2708Y496D02*
X2715Y496D01*
X0Y495D02*
X7Y495D01*
X48Y495D02*
X54Y495D01*
X74Y495D02*
X80Y495D01*
X728Y495D02*
X734Y495D01*
X749Y495D02*
X755Y495D01*
X789Y495D02*
X795Y495D01*
X802Y495D02*
X808Y495D01*
X1153Y495D02*
X1159Y495D01*
X1179Y495D02*
X1210Y495D01*
X2063Y495D02*
X2069Y495D01*
X2113Y495D02*
X2122Y495D01*
X2708Y495D02*
X2715Y495D01*
X0Y494D02*
X7Y494D01*
X48Y494D02*
X54Y494D01*
X74Y494D02*
X80Y494D01*
X728Y494D02*
X734Y494D01*
X749Y494D02*
X755Y494D01*
X789Y494D02*
X795Y494D01*
X802Y494D02*
X808Y494D01*
X1135Y494D02*
X1135Y494D01*
X1153Y494D02*
X1159Y494D01*
X1179Y494D02*
X1209Y494D01*
X2063Y494D02*
X2069Y494D01*
X2097Y494D02*
X2122Y494D01*
X2708Y494D02*
X2715Y494D01*
X0Y493D02*
X7Y493D01*
X48Y493D02*
X54Y493D01*
X74Y493D02*
X80Y493D01*
X728Y493D02*
X734Y493D01*
X749Y493D02*
X755Y493D01*
X789Y493D02*
X795Y493D01*
X802Y493D02*
X808Y493D01*
X1133Y493D02*
X1137Y493D01*
X1153Y493D02*
X1159Y493D01*
X1178Y493D02*
X1205Y493D01*
X2063Y493D02*
X2069Y493D01*
X2096Y493D02*
X2121Y493D01*
X2708Y493D02*
X2715Y493D01*
X0Y492D02*
X7Y492D01*
X48Y492D02*
X54Y492D01*
X74Y492D02*
X80Y492D01*
X728Y492D02*
X734Y492D01*
X749Y492D02*
X755Y492D01*
X789Y492D02*
X795Y492D01*
X802Y492D02*
X808Y492D01*
X1132Y492D02*
X1138Y492D01*
X1153Y492D02*
X1159Y492D01*
X1178Y492D02*
X1185Y492D01*
X2063Y492D02*
X2069Y492D01*
X2096Y492D02*
X2120Y492D01*
X2708Y492D02*
X2715Y492D01*
X0Y491D02*
X7Y491D01*
X48Y491D02*
X54Y491D01*
X74Y491D02*
X80Y491D01*
X728Y491D02*
X734Y491D01*
X749Y491D02*
X755Y491D01*
X789Y491D02*
X795Y491D01*
X802Y491D02*
X808Y491D01*
X852Y491D02*
X852Y491D01*
X1052Y491D02*
X1052Y491D01*
X1132Y491D02*
X1138Y491D01*
X1153Y491D02*
X1159Y491D01*
X1178Y491D02*
X1185Y491D01*
X1952Y491D02*
X1952Y491D01*
X2063Y491D02*
X2069Y491D01*
X2096Y491D02*
X2120Y491D01*
X2708Y491D02*
X2715Y491D01*
X0Y490D02*
X7Y490D01*
X48Y490D02*
X54Y490D01*
X74Y490D02*
X80Y490D01*
X728Y490D02*
X734Y490D01*
X749Y490D02*
X755Y490D01*
X789Y490D02*
X795Y490D01*
X802Y490D02*
X808Y490D01*
X851Y490D02*
X853Y490D01*
X1051Y490D02*
X1053Y490D01*
X1132Y490D02*
X1138Y490D01*
X1153Y490D02*
X1159Y490D01*
X1178Y490D02*
X1185Y490D01*
X1951Y490D02*
X1953Y490D01*
X2063Y490D02*
X2069Y490D01*
X2096Y490D02*
X2121Y490D01*
X2708Y490D02*
X2715Y490D01*
X0Y489D02*
X7Y489D01*
X48Y489D02*
X54Y489D01*
X74Y489D02*
X80Y489D01*
X728Y489D02*
X734Y489D01*
X749Y489D02*
X755Y489D01*
X789Y489D02*
X795Y489D01*
X802Y489D02*
X808Y489D01*
X850Y489D02*
X854Y489D01*
X1050Y489D02*
X1054Y489D01*
X1132Y489D02*
X1138Y489D01*
X1153Y489D02*
X1159Y489D01*
X1178Y489D02*
X1185Y489D01*
X1950Y489D02*
X1954Y489D01*
X2063Y489D02*
X2069Y489D01*
X2097Y489D02*
X2121Y489D01*
X2708Y489D02*
X2715Y489D01*
X0Y488D02*
X7Y488D01*
X48Y488D02*
X54Y488D01*
X74Y488D02*
X80Y488D01*
X728Y488D02*
X734Y488D01*
X749Y488D02*
X755Y488D01*
X789Y488D02*
X795Y488D01*
X802Y488D02*
X808Y488D01*
X849Y488D02*
X855Y488D01*
X1049Y488D02*
X1055Y488D01*
X1132Y488D02*
X1138Y488D01*
X1153Y488D02*
X1159Y488D01*
X1178Y488D02*
X1185Y488D01*
X1949Y488D02*
X1954Y488D01*
X2044Y488D02*
X2047Y488D01*
X2063Y488D02*
X2069Y488D01*
X2099Y488D02*
X2122Y488D01*
X2708Y488D02*
X2715Y488D01*
X0Y487D02*
X7Y487D01*
X48Y487D02*
X54Y487D01*
X74Y487D02*
X80Y487D01*
X728Y487D02*
X734Y487D01*
X749Y487D02*
X755Y487D01*
X789Y487D02*
X795Y487D01*
X802Y487D02*
X808Y487D01*
X848Y487D02*
X854Y487D01*
X1048Y487D02*
X1054Y487D01*
X1132Y487D02*
X1138Y487D01*
X1153Y487D02*
X1159Y487D01*
X1178Y487D02*
X1185Y487D01*
X1948Y487D02*
X1954Y487D01*
X2043Y487D02*
X2048Y487D01*
X2063Y487D02*
X2069Y487D01*
X2115Y487D02*
X2122Y487D01*
X2708Y487D02*
X2715Y487D01*
X0Y486D02*
X7Y486D01*
X48Y486D02*
X54Y486D01*
X74Y486D02*
X80Y486D01*
X728Y486D02*
X734Y486D01*
X749Y486D02*
X755Y486D01*
X789Y486D02*
X795Y486D01*
X802Y486D02*
X808Y486D01*
X847Y486D02*
X853Y486D01*
X1047Y486D02*
X1053Y486D01*
X1132Y486D02*
X1138Y486D01*
X1153Y486D02*
X1159Y486D01*
X1178Y486D02*
X1185Y486D01*
X1947Y486D02*
X1953Y486D01*
X2042Y486D02*
X2048Y486D01*
X2063Y486D02*
X2069Y486D01*
X2116Y486D02*
X2122Y486D01*
X2708Y486D02*
X2715Y486D01*
X0Y485D02*
X7Y485D01*
X48Y485D02*
X54Y485D01*
X74Y485D02*
X80Y485D01*
X728Y485D02*
X734Y485D01*
X749Y485D02*
X755Y485D01*
X789Y485D02*
X795Y485D01*
X802Y485D02*
X808Y485D01*
X846Y485D02*
X852Y485D01*
X1046Y485D02*
X1052Y485D01*
X1132Y485D02*
X1138Y485D01*
X1153Y485D02*
X1159Y485D01*
X1178Y485D02*
X1185Y485D01*
X1946Y485D02*
X1952Y485D01*
X2042Y485D02*
X2048Y485D01*
X2063Y485D02*
X2069Y485D01*
X2116Y485D02*
X2122Y485D01*
X2708Y485D02*
X2715Y485D01*
X0Y484D02*
X7Y484D01*
X48Y484D02*
X54Y484D01*
X74Y484D02*
X80Y484D01*
X728Y484D02*
X734Y484D01*
X749Y484D02*
X755Y484D01*
X789Y484D02*
X795Y484D01*
X802Y484D02*
X808Y484D01*
X845Y484D02*
X851Y484D01*
X1045Y484D02*
X1051Y484D01*
X1132Y484D02*
X1138Y484D01*
X1153Y484D02*
X1159Y484D01*
X1178Y484D02*
X1185Y484D01*
X1945Y484D02*
X1951Y484D01*
X2042Y484D02*
X2048Y484D01*
X2063Y484D02*
X2069Y484D01*
X2117Y484D02*
X2123Y484D01*
X2708Y484D02*
X2715Y484D01*
X0Y483D02*
X7Y483D01*
X48Y483D02*
X54Y483D01*
X74Y483D02*
X80Y483D01*
X728Y483D02*
X735Y483D01*
X749Y483D02*
X755Y483D01*
X789Y483D02*
X795Y483D01*
X802Y483D02*
X808Y483D01*
X844Y483D02*
X850Y483D01*
X1044Y483D02*
X1050Y483D01*
X1132Y483D02*
X1138Y483D01*
X1153Y483D02*
X1159Y483D01*
X1178Y483D02*
X1185Y483D01*
X1944Y483D02*
X1950Y483D01*
X2042Y483D02*
X2048Y483D01*
X2063Y483D02*
X2069Y483D01*
X2117Y483D02*
X2123Y483D01*
X2708Y483D02*
X2715Y483D01*
X0Y482D02*
X7Y482D01*
X30Y482D02*
X31Y482D01*
X48Y482D02*
X54Y482D01*
X74Y482D02*
X105Y482D01*
X728Y482D02*
X735Y482D01*
X748Y482D02*
X755Y482D01*
X789Y482D02*
X795Y482D01*
X802Y482D02*
X808Y482D01*
X843Y482D02*
X849Y482D01*
X1043Y482D02*
X1049Y482D01*
X1132Y482D02*
X1138Y482D01*
X1153Y482D02*
X1159Y482D01*
X1178Y482D02*
X1185Y482D01*
X1943Y482D02*
X1949Y482D01*
X2042Y482D02*
X2048Y482D01*
X2063Y482D02*
X2069Y482D01*
X2117Y482D02*
X2123Y482D01*
X2708Y482D02*
X2715Y482D01*
X0Y481D02*
X7Y481D01*
X29Y481D02*
X33Y481D01*
X48Y481D02*
X54Y481D01*
X74Y481D02*
X107Y481D01*
X729Y481D02*
X736Y481D01*
X747Y481D02*
X755Y481D01*
X789Y481D02*
X795Y481D01*
X802Y481D02*
X808Y481D01*
X842Y481D02*
X848Y481D01*
X1042Y481D02*
X1048Y481D01*
X1132Y481D02*
X1138Y481D01*
X1153Y481D02*
X1159Y481D01*
X1178Y481D02*
X1185Y481D01*
X1942Y481D02*
X1948Y481D01*
X2042Y481D02*
X2048Y481D01*
X2063Y481D02*
X2069Y481D01*
X2117Y481D02*
X2123Y481D01*
X2708Y481D02*
X2715Y481D01*
X0Y480D02*
X7Y480D01*
X28Y480D02*
X33Y480D01*
X48Y480D02*
X54Y480D01*
X74Y480D02*
X107Y480D01*
X580Y480D02*
X623Y480D01*
X729Y480D02*
X754Y480D01*
X777Y480D02*
X808Y480D01*
X841Y480D02*
X847Y480D01*
X1041Y480D02*
X1047Y480D01*
X1132Y480D02*
X1138Y480D01*
X1153Y480D02*
X1159Y480D01*
X1178Y480D02*
X1185Y480D01*
X1941Y480D02*
X1947Y480D01*
X2042Y480D02*
X2048Y480D01*
X2063Y480D02*
X2069Y480D01*
X2117Y480D02*
X2123Y480D01*
X2708Y480D02*
X2715Y480D01*
X0Y479D02*
X7Y479D01*
X28Y479D02*
X34Y479D01*
X48Y479D02*
X54Y479D01*
X74Y479D02*
X108Y479D01*
X579Y479D02*
X624Y479D01*
X730Y479D02*
X754Y479D01*
X776Y479D02*
X808Y479D01*
X840Y479D02*
X846Y479D01*
X1040Y479D02*
X1046Y479D01*
X1132Y479D02*
X1138Y479D01*
X1152Y479D02*
X1159Y479D01*
X1178Y479D02*
X1185Y479D01*
X1940Y479D02*
X1946Y479D01*
X2042Y479D02*
X2048Y479D01*
X2063Y479D02*
X2069Y479D01*
X2117Y479D02*
X2123Y479D01*
X2708Y479D02*
X2715Y479D01*
X0Y478D02*
X7Y478D01*
X28Y478D02*
X34Y478D01*
X48Y478D02*
X54Y478D01*
X74Y478D02*
X108Y478D01*
X579Y478D02*
X624Y478D01*
X730Y478D02*
X753Y478D01*
X775Y478D02*
X808Y478D01*
X839Y478D02*
X845Y478D01*
X1039Y478D02*
X1045Y478D01*
X1132Y478D02*
X1139Y478D01*
X1152Y478D02*
X1158Y478D01*
X1178Y478D02*
X1185Y478D01*
X1939Y478D02*
X1945Y478D01*
X2042Y478D02*
X2048Y478D01*
X2063Y478D02*
X2069Y478D01*
X2117Y478D02*
X2123Y478D01*
X2708Y478D02*
X2715Y478D01*
X0Y477D02*
X7Y477D01*
X28Y477D02*
X34Y477D01*
X48Y477D02*
X54Y477D01*
X74Y477D02*
X108Y477D01*
X579Y477D02*
X624Y477D01*
X731Y477D02*
X752Y477D01*
X775Y477D02*
X808Y477D01*
X838Y477D02*
X844Y477D01*
X1038Y477D02*
X1044Y477D01*
X1132Y477D02*
X1140Y477D01*
X1151Y477D02*
X1158Y477D01*
X1178Y477D02*
X1185Y477D01*
X1938Y477D02*
X1944Y477D01*
X2042Y477D02*
X2048Y477D01*
X2063Y477D02*
X2069Y477D01*
X2117Y477D02*
X2123Y477D01*
X2708Y477D02*
X2715Y477D01*
X0Y476D02*
X7Y476D01*
X28Y476D02*
X34Y476D01*
X48Y476D02*
X54Y476D01*
X74Y476D02*
X108Y476D01*
X732Y476D02*
X751Y476D01*
X775Y476D02*
X808Y476D01*
X837Y476D02*
X843Y476D01*
X1037Y476D02*
X1043Y476D01*
X1133Y476D02*
X1158Y476D01*
X1178Y476D02*
X1210Y476D01*
X1937Y476D02*
X1943Y476D01*
X2042Y476D02*
X2048Y476D01*
X2063Y476D02*
X2069Y476D01*
X2117Y476D02*
X2123Y476D01*
X2708Y476D02*
X2715Y476D01*
X0Y475D02*
X7Y475D01*
X28Y475D02*
X34Y475D01*
X48Y475D02*
X54Y475D01*
X74Y475D02*
X80Y475D01*
X102Y475D02*
X108Y475D01*
X734Y475D02*
X750Y475D01*
X776Y475D02*
X808Y475D01*
X836Y475D02*
X842Y475D01*
X1036Y475D02*
X1042Y475D01*
X1133Y475D02*
X1157Y475D01*
X1178Y475D02*
X1211Y475D01*
X1936Y475D02*
X1942Y475D01*
X2042Y475D02*
X2048Y475D01*
X2063Y475D02*
X2069Y475D01*
X2117Y475D02*
X2123Y475D01*
X2708Y475D02*
X2715Y475D01*
X0Y474D02*
X7Y474D01*
X28Y474D02*
X34Y474D01*
X48Y474D02*
X54Y474D01*
X74Y474D02*
X80Y474D01*
X102Y474D02*
X108Y474D01*
X736Y474D02*
X747Y474D01*
X777Y474D02*
X807Y474D01*
X835Y474D02*
X841Y474D01*
X1035Y474D02*
X1041Y474D01*
X1134Y474D02*
X1157Y474D01*
X1178Y474D02*
X1212Y474D01*
X1935Y474D02*
X1940Y474D01*
X2042Y474D02*
X2049Y474D01*
X2063Y474D02*
X2069Y474D01*
X2117Y474D02*
X2123Y474D01*
X2708Y474D02*
X2715Y474D01*
X0Y473D02*
X7Y473D01*
X28Y473D02*
X34Y473D01*
X48Y473D02*
X54Y473D01*
X74Y473D02*
X80Y473D01*
X102Y473D02*
X108Y473D01*
X834Y473D02*
X839Y473D01*
X1034Y473D02*
X1039Y473D01*
X1135Y473D02*
X1156Y473D01*
X1178Y473D02*
X1212Y473D01*
X1934Y473D02*
X1939Y473D01*
X2043Y473D02*
X2049Y473D01*
X2062Y473D02*
X2069Y473D01*
X2117Y473D02*
X2123Y473D01*
X2708Y473D02*
X2715Y473D01*
X0Y472D02*
X7Y472D01*
X28Y472D02*
X34Y472D01*
X48Y472D02*
X54Y472D01*
X74Y472D02*
X80Y472D01*
X102Y472D02*
X108Y472D01*
X833Y472D02*
X838Y472D01*
X1033Y472D02*
X1038Y472D01*
X1136Y472D02*
X1155Y472D01*
X1178Y472D02*
X1212Y472D01*
X1933Y472D02*
X1938Y472D01*
X2043Y472D02*
X2050Y472D01*
X2061Y472D02*
X2069Y472D01*
X2117Y472D02*
X2123Y472D01*
X2708Y472D02*
X2715Y472D01*
X0Y471D02*
X7Y471D01*
X28Y471D02*
X34Y471D01*
X48Y471D02*
X54Y471D01*
X74Y471D02*
X80Y471D01*
X102Y471D02*
X108Y471D01*
X832Y471D02*
X837Y471D01*
X1032Y471D02*
X1037Y471D01*
X1137Y471D02*
X1154Y471D01*
X1178Y471D02*
X1211Y471D01*
X1932Y471D02*
X1937Y471D01*
X2043Y471D02*
X2068Y471D01*
X2091Y471D02*
X2122Y471D01*
X2708Y471D02*
X2715Y471D01*
X0Y470D02*
X7Y470D01*
X28Y470D02*
X34Y470D01*
X48Y470D02*
X54Y470D01*
X74Y470D02*
X80Y470D01*
X102Y470D02*
X108Y470D01*
X831Y470D02*
X836Y470D01*
X1031Y470D02*
X1036Y470D01*
X1139Y470D02*
X1151Y470D01*
X1178Y470D02*
X1210Y470D01*
X1931Y470D02*
X1936Y470D01*
X2044Y470D02*
X2068Y470D01*
X2090Y470D02*
X2122Y470D01*
X2708Y470D02*
X2715Y470D01*
X0Y469D02*
X7Y469D01*
X28Y469D02*
X34Y469D01*
X48Y469D02*
X54Y469D01*
X74Y469D02*
X80Y469D01*
X102Y469D02*
X108Y469D01*
X830Y469D02*
X835Y469D01*
X1030Y469D02*
X1035Y469D01*
X1930Y469D02*
X1935Y469D01*
X2044Y469D02*
X2067Y469D01*
X2089Y469D02*
X2122Y469D01*
X2708Y469D02*
X2715Y469D01*
X0Y468D02*
X7Y468D01*
X28Y468D02*
X34Y468D01*
X48Y468D02*
X54Y468D01*
X74Y468D02*
X80Y468D01*
X102Y468D02*
X108Y468D01*
X829Y468D02*
X834Y468D01*
X1029Y468D02*
X1034Y468D01*
X1929Y468D02*
X1934Y468D01*
X2045Y468D02*
X2066Y468D01*
X2089Y468D02*
X2122Y468D01*
X2708Y468D02*
X2715Y468D01*
X0Y467D02*
X7Y467D01*
X28Y467D02*
X34Y467D01*
X48Y467D02*
X54Y467D01*
X74Y467D02*
X80Y467D01*
X102Y467D02*
X108Y467D01*
X828Y467D02*
X834Y467D01*
X1028Y467D02*
X1034Y467D01*
X1928Y467D02*
X1933Y467D01*
X2046Y467D02*
X2065Y467D01*
X2089Y467D02*
X2121Y467D01*
X2708Y467D02*
X2715Y467D01*
X0Y466D02*
X7Y466D01*
X28Y466D02*
X34Y466D01*
X48Y466D02*
X54Y466D01*
X74Y466D02*
X80Y466D01*
X102Y466D02*
X108Y466D01*
X827Y466D02*
X833Y466D01*
X1027Y466D02*
X1033Y466D01*
X1927Y466D02*
X1933Y466D01*
X2047Y466D02*
X2064Y466D01*
X2090Y466D02*
X2120Y466D01*
X2708Y466D02*
X2715Y466D01*
X0Y465D02*
X7Y465D01*
X28Y465D02*
X35Y465D01*
X47Y465D02*
X54Y465D01*
X74Y465D02*
X80Y465D01*
X102Y465D02*
X108Y465D01*
X826Y465D02*
X832Y465D01*
X1026Y465D02*
X1032Y465D01*
X1926Y465D02*
X1932Y465D01*
X2049Y465D02*
X2062Y465D01*
X2090Y465D02*
X2118Y465D01*
X2708Y465D02*
X2715Y465D01*
X0Y464D02*
X7Y464D01*
X28Y464D02*
X54Y464D01*
X74Y464D02*
X108Y464D01*
X393Y464D02*
X394Y464D01*
X825Y464D02*
X831Y464D01*
X1025Y464D02*
X1031Y464D01*
X1293Y464D02*
X1294Y464D01*
X1568Y464D02*
X1569Y464D01*
X1925Y464D02*
X1931Y464D01*
X2708Y464D02*
X2715Y464D01*
X0Y463D02*
X7Y463D01*
X29Y463D02*
X53Y463D01*
X74Y463D02*
X108Y463D01*
X392Y463D02*
X395Y463D01*
X824Y463D02*
X830Y463D01*
X1024Y463D02*
X1030Y463D01*
X1292Y463D02*
X1294Y463D01*
X1567Y463D02*
X1570Y463D01*
X1924Y463D02*
X1930Y463D01*
X2708Y463D02*
X2715Y463D01*
X0Y462D02*
X7Y462D01*
X30Y462D02*
X52Y462D01*
X74Y462D02*
X108Y462D01*
X392Y462D02*
X395Y462D01*
X823Y462D02*
X829Y462D01*
X1023Y462D02*
X1029Y462D01*
X1292Y462D02*
X1294Y462D01*
X1567Y462D02*
X1570Y462D01*
X1923Y462D02*
X1929Y462D01*
X2708Y462D02*
X2715Y462D01*
X0Y461D02*
X7Y461D01*
X30Y461D02*
X52Y461D01*
X74Y461D02*
X108Y461D01*
X392Y461D02*
X395Y461D01*
X822Y461D02*
X828Y461D01*
X1022Y461D02*
X1028Y461D01*
X1292Y461D02*
X1294Y461D01*
X1567Y461D02*
X1570Y461D01*
X1922Y461D02*
X1928Y461D01*
X2708Y461D02*
X2715Y461D01*
X0Y460D02*
X7Y460D01*
X31Y460D02*
X51Y460D01*
X74Y460D02*
X108Y460D01*
X392Y460D02*
X395Y460D01*
X821Y460D02*
X827Y460D01*
X1021Y460D02*
X1027Y460D01*
X1292Y460D02*
X1294Y460D01*
X1567Y460D02*
X1570Y460D01*
X1921Y460D02*
X1927Y460D01*
X2708Y460D02*
X2715Y460D01*
X0Y459D02*
X7Y459D01*
X33Y459D02*
X49Y459D01*
X75Y459D02*
X107Y459D01*
X392Y459D02*
X395Y459D01*
X820Y459D02*
X826Y459D01*
X1020Y459D02*
X1026Y459D01*
X1292Y459D02*
X1294Y459D01*
X1567Y459D02*
X1570Y459D01*
X1920Y459D02*
X1926Y459D01*
X2708Y459D02*
X2715Y459D01*
X0Y458D02*
X7Y458D01*
X35Y458D02*
X47Y458D01*
X76Y458D02*
X106Y458D01*
X392Y458D02*
X395Y458D01*
X819Y458D02*
X825Y458D01*
X1019Y458D02*
X1025Y458D01*
X1292Y458D02*
X1294Y458D01*
X1567Y458D02*
X1570Y458D01*
X1919Y458D02*
X1925Y458D01*
X2708Y458D02*
X2715Y458D01*
X0Y457D02*
X7Y457D01*
X392Y457D02*
X395Y457D01*
X818Y457D02*
X824Y457D01*
X1018Y457D02*
X1024Y457D01*
X1292Y457D02*
X1294Y457D01*
X1567Y457D02*
X1570Y457D01*
X1918Y457D02*
X1924Y457D01*
X2708Y457D02*
X2715Y457D01*
X0Y456D02*
X7Y456D01*
X392Y456D02*
X395Y456D01*
X818Y456D02*
X823Y456D01*
X1018Y456D02*
X1023Y456D01*
X1292Y456D02*
X1294Y456D01*
X1567Y456D02*
X1570Y456D01*
X1918Y456D02*
X1923Y456D01*
X2708Y456D02*
X2715Y456D01*
X0Y455D02*
X7Y455D01*
X392Y455D02*
X395Y455D01*
X819Y455D02*
X822Y455D01*
X1019Y455D02*
X1022Y455D01*
X1292Y455D02*
X1294Y455D01*
X1567Y455D02*
X1570Y455D01*
X1919Y455D02*
X1922Y455D01*
X2708Y455D02*
X2715Y455D01*
X0Y454D02*
X7Y454D01*
X392Y454D02*
X395Y454D01*
X820Y454D02*
X821Y454D01*
X1020Y454D02*
X1021Y454D01*
X1292Y454D02*
X1294Y454D01*
X1567Y454D02*
X1570Y454D01*
X1920Y454D02*
X1921Y454D01*
X2708Y454D02*
X2715Y454D01*
X0Y453D02*
X7Y453D01*
X392Y453D02*
X395Y453D01*
X1292Y453D02*
X1294Y453D01*
X1567Y453D02*
X1570Y453D01*
X2708Y453D02*
X2715Y453D01*
X0Y452D02*
X7Y452D01*
X392Y452D02*
X395Y452D01*
X1292Y452D02*
X1294Y452D01*
X1567Y452D02*
X1570Y452D01*
X2708Y452D02*
X2715Y452D01*
X0Y451D02*
X7Y451D01*
X392Y451D02*
X395Y451D01*
X1292Y451D02*
X1294Y451D01*
X1567Y451D02*
X1570Y451D01*
X2708Y451D02*
X2715Y451D01*
X0Y450D02*
X7Y450D01*
X392Y450D02*
X395Y450D01*
X1292Y450D02*
X1294Y450D01*
X1567Y450D02*
X1570Y450D01*
X2708Y450D02*
X2715Y450D01*
X0Y449D02*
X7Y449D01*
X392Y449D02*
X395Y449D01*
X1292Y449D02*
X1294Y449D01*
X1567Y449D02*
X1570Y449D01*
X2708Y449D02*
X2715Y449D01*
X0Y448D02*
X7Y448D01*
X392Y448D02*
X395Y448D01*
X1292Y448D02*
X1294Y448D01*
X1567Y448D02*
X1570Y448D01*
X1600Y448D02*
X1618Y448D01*
X1627Y448D02*
X1644Y448D01*
X2708Y448D02*
X2715Y448D01*
X0Y447D02*
X7Y447D01*
X392Y447D02*
X395Y447D01*
X1292Y447D02*
X1294Y447D01*
X1567Y447D02*
X1570Y447D01*
X1599Y447D02*
X1620Y447D01*
X1625Y447D02*
X1646Y447D01*
X2708Y447D02*
X2715Y447D01*
X0Y446D02*
X7Y446D01*
X392Y446D02*
X395Y446D01*
X1292Y446D02*
X1294Y446D01*
X1567Y446D02*
X1570Y446D01*
X1597Y446D02*
X1621Y446D01*
X1623Y446D02*
X1647Y446D01*
X2708Y446D02*
X2715Y446D01*
X0Y445D02*
X7Y445D01*
X392Y445D02*
X395Y445D01*
X1292Y445D02*
X1294Y445D01*
X1567Y445D02*
X1570Y445D01*
X1597Y445D02*
X1648Y445D01*
X2708Y445D02*
X2715Y445D01*
X0Y444D02*
X7Y444D01*
X392Y444D02*
X395Y444D01*
X1292Y444D02*
X1294Y444D01*
X1567Y444D02*
X1570Y444D01*
X1596Y444D02*
X1648Y444D01*
X2708Y444D02*
X2715Y444D01*
X0Y443D02*
X7Y443D01*
X392Y443D02*
X395Y443D01*
X1292Y443D02*
X1294Y443D01*
X1567Y443D02*
X1570Y443D01*
X1596Y443D02*
X1649Y443D01*
X2708Y443D02*
X2715Y443D01*
X0Y442D02*
X7Y442D01*
X392Y442D02*
X395Y442D01*
X1292Y442D02*
X1294Y442D01*
X1567Y442D02*
X1570Y442D01*
X1596Y442D02*
X1649Y442D01*
X2708Y442D02*
X2715Y442D01*
X0Y441D02*
X7Y441D01*
X392Y441D02*
X395Y441D01*
X710Y441D02*
X730Y441D01*
X1292Y441D02*
X1294Y441D01*
X1567Y441D02*
X1570Y441D01*
X1596Y441D02*
X1602Y441D01*
X1617Y441D02*
X1627Y441D01*
X1643Y441D02*
X1649Y441D01*
X2708Y441D02*
X2715Y441D01*
X0Y440D02*
X7Y440D01*
X392Y440D02*
X395Y440D01*
X709Y440D02*
X731Y440D01*
X1292Y440D02*
X1294Y440D01*
X1567Y440D02*
X1570Y440D01*
X1596Y440D02*
X1602Y440D01*
X1618Y440D02*
X1626Y440D01*
X1643Y440D02*
X1649Y440D01*
X2708Y440D02*
X2715Y440D01*
X0Y439D02*
X7Y439D01*
X392Y439D02*
X395Y439D01*
X708Y439D02*
X732Y439D01*
X1292Y439D02*
X1294Y439D01*
X1567Y439D02*
X1570Y439D01*
X1596Y439D02*
X1602Y439D01*
X1619Y439D02*
X1625Y439D01*
X1643Y439D02*
X1649Y439D01*
X2708Y439D02*
X2715Y439D01*
X0Y438D02*
X7Y438D01*
X392Y438D02*
X395Y438D01*
X708Y438D02*
X732Y438D01*
X1292Y438D02*
X1294Y438D01*
X1567Y438D02*
X1570Y438D01*
X1596Y438D02*
X1602Y438D01*
X1619Y438D02*
X1625Y438D01*
X1643Y438D02*
X1649Y438D01*
X2708Y438D02*
X2715Y438D01*
X0Y437D02*
X7Y437D01*
X392Y437D02*
X395Y437D01*
X708Y437D02*
X732Y437D01*
X1292Y437D02*
X1294Y437D01*
X1567Y437D02*
X1570Y437D01*
X1596Y437D02*
X1602Y437D01*
X1619Y437D02*
X1625Y437D01*
X1643Y437D02*
X1649Y437D01*
X2708Y437D02*
X2715Y437D01*
X0Y436D02*
X7Y436D01*
X392Y436D02*
X395Y436D01*
X709Y436D02*
X732Y436D01*
X1292Y436D02*
X1294Y436D01*
X1567Y436D02*
X1570Y436D01*
X1596Y436D02*
X1602Y436D01*
X1619Y436D02*
X1625Y436D01*
X1643Y436D02*
X1649Y436D01*
X2708Y436D02*
X2715Y436D01*
X0Y435D02*
X7Y435D01*
X392Y435D02*
X395Y435D01*
X710Y435D02*
X732Y435D01*
X1292Y435D02*
X1294Y435D01*
X1567Y435D02*
X1570Y435D01*
X1596Y435D02*
X1602Y435D01*
X1619Y435D02*
X1625Y435D01*
X1643Y435D02*
X1649Y435D01*
X2708Y435D02*
X2715Y435D01*
X0Y434D02*
X7Y434D01*
X392Y434D02*
X395Y434D01*
X726Y434D02*
X732Y434D01*
X1292Y434D02*
X1294Y434D01*
X1567Y434D02*
X1570Y434D01*
X1596Y434D02*
X1602Y434D01*
X1619Y434D02*
X1625Y434D01*
X1643Y434D02*
X1649Y434D01*
X2708Y434D02*
X2715Y434D01*
X0Y433D02*
X7Y433D01*
X392Y433D02*
X395Y433D01*
X726Y433D02*
X732Y433D01*
X1292Y433D02*
X1294Y433D01*
X1567Y433D02*
X1570Y433D01*
X1596Y433D02*
X1602Y433D01*
X1619Y433D02*
X1625Y433D01*
X1643Y433D02*
X1649Y433D01*
X2708Y433D02*
X2715Y433D01*
X0Y432D02*
X7Y432D01*
X392Y432D02*
X395Y432D01*
X726Y432D02*
X732Y432D01*
X1292Y432D02*
X1294Y432D01*
X1567Y432D02*
X1570Y432D01*
X1596Y432D02*
X1602Y432D01*
X1619Y432D02*
X1625Y432D01*
X1643Y432D02*
X1649Y432D01*
X2708Y432D02*
X2715Y432D01*
X0Y431D02*
X7Y431D01*
X392Y431D02*
X395Y431D01*
X726Y431D02*
X732Y431D01*
X1292Y431D02*
X1294Y431D01*
X1567Y431D02*
X1570Y431D01*
X1596Y431D02*
X1602Y431D01*
X1619Y431D02*
X1625Y431D01*
X1643Y431D02*
X1649Y431D01*
X2708Y431D02*
X2715Y431D01*
X0Y430D02*
X7Y430D01*
X392Y430D02*
X395Y430D01*
X726Y430D02*
X732Y430D01*
X1292Y430D02*
X1294Y430D01*
X1567Y430D02*
X1570Y430D01*
X1596Y430D02*
X1602Y430D01*
X1619Y430D02*
X1625Y430D01*
X1643Y430D02*
X1649Y430D01*
X2708Y430D02*
X2715Y430D01*
X0Y429D02*
X7Y429D01*
X392Y429D02*
X395Y429D01*
X726Y429D02*
X732Y429D01*
X1292Y429D02*
X1294Y429D01*
X1567Y429D02*
X1570Y429D01*
X1596Y429D02*
X1602Y429D01*
X1619Y429D02*
X1625Y429D01*
X1643Y429D02*
X1649Y429D01*
X2708Y429D02*
X2715Y429D01*
X0Y428D02*
X7Y428D01*
X392Y428D02*
X395Y428D01*
X726Y428D02*
X732Y428D01*
X1292Y428D02*
X1294Y428D01*
X1567Y428D02*
X1570Y428D01*
X1596Y428D02*
X1602Y428D01*
X1619Y428D02*
X1625Y428D01*
X1643Y428D02*
X1649Y428D01*
X2708Y428D02*
X2715Y428D01*
X0Y427D02*
X7Y427D01*
X392Y427D02*
X395Y427D01*
X679Y427D02*
X732Y427D01*
X1292Y427D02*
X1294Y427D01*
X1567Y427D02*
X1570Y427D01*
X1596Y427D02*
X1602Y427D01*
X1619Y427D02*
X1625Y427D01*
X1643Y427D02*
X1649Y427D01*
X2708Y427D02*
X2715Y427D01*
X0Y426D02*
X7Y426D01*
X392Y426D02*
X395Y426D01*
X679Y426D02*
X732Y426D01*
X1292Y426D02*
X1294Y426D01*
X1567Y426D02*
X1570Y426D01*
X1596Y426D02*
X1602Y426D01*
X1619Y426D02*
X1625Y426D01*
X1643Y426D02*
X1649Y426D01*
X2708Y426D02*
X2715Y426D01*
X0Y425D02*
X7Y425D01*
X392Y425D02*
X395Y425D01*
X679Y425D02*
X732Y425D01*
X1292Y425D02*
X1294Y425D01*
X1567Y425D02*
X1570Y425D01*
X1596Y425D02*
X1602Y425D01*
X1619Y425D02*
X1625Y425D01*
X1643Y425D02*
X1649Y425D01*
X2708Y425D02*
X2715Y425D01*
X0Y424D02*
X7Y424D01*
X392Y424D02*
X395Y424D01*
X679Y424D02*
X732Y424D01*
X1292Y424D02*
X1294Y424D01*
X1567Y424D02*
X1570Y424D01*
X1596Y424D02*
X1602Y424D01*
X1619Y424D02*
X1625Y424D01*
X1643Y424D02*
X1649Y424D01*
X2708Y424D02*
X2715Y424D01*
X0Y423D02*
X7Y423D01*
X392Y423D02*
X395Y423D01*
X679Y423D02*
X732Y423D01*
X1292Y423D02*
X1294Y423D01*
X1567Y423D02*
X1570Y423D01*
X1596Y423D02*
X1602Y423D01*
X1619Y423D02*
X1625Y423D01*
X1643Y423D02*
X1649Y423D01*
X2708Y423D02*
X2715Y423D01*
X0Y422D02*
X7Y422D01*
X392Y422D02*
X395Y422D01*
X679Y422D02*
X732Y422D01*
X1292Y422D02*
X1294Y422D01*
X1567Y422D02*
X1570Y422D01*
X1596Y422D02*
X1602Y422D01*
X1620Y422D02*
X1624Y422D01*
X1643Y422D02*
X1649Y422D01*
X2708Y422D02*
X2715Y422D01*
X0Y421D02*
X7Y421D01*
X392Y421D02*
X395Y421D01*
X679Y421D02*
X732Y421D01*
X1292Y421D02*
X1294Y421D01*
X1567Y421D02*
X1570Y421D01*
X1596Y421D02*
X1602Y421D01*
X1622Y421D02*
X1623Y421D01*
X1643Y421D02*
X1649Y421D01*
X2708Y421D02*
X2715Y421D01*
X0Y420D02*
X7Y420D01*
X392Y420D02*
X395Y420D01*
X679Y420D02*
X685Y420D01*
X726Y420D02*
X732Y420D01*
X1292Y420D02*
X1294Y420D01*
X1567Y420D02*
X1570Y420D01*
X1596Y420D02*
X1602Y420D01*
X1643Y420D02*
X1649Y420D01*
X2708Y420D02*
X2715Y420D01*
X0Y419D02*
X7Y419D01*
X392Y419D02*
X395Y419D01*
X679Y419D02*
X685Y419D01*
X726Y419D02*
X732Y419D01*
X1292Y419D02*
X1294Y419D01*
X1567Y419D02*
X1570Y419D01*
X1596Y419D02*
X1602Y419D01*
X1643Y419D02*
X1649Y419D01*
X2708Y419D02*
X2715Y419D01*
X0Y418D02*
X7Y418D01*
X392Y418D02*
X395Y418D01*
X679Y418D02*
X685Y418D01*
X726Y418D02*
X732Y418D01*
X1292Y418D02*
X1294Y418D01*
X1567Y418D02*
X1570Y418D01*
X1596Y418D02*
X1602Y418D01*
X1643Y418D02*
X1649Y418D01*
X2708Y418D02*
X2715Y418D01*
X0Y417D02*
X7Y417D01*
X392Y417D02*
X395Y417D01*
X679Y417D02*
X685Y417D01*
X726Y417D02*
X732Y417D01*
X1292Y417D02*
X1294Y417D01*
X1567Y417D02*
X1570Y417D01*
X1596Y417D02*
X1602Y417D01*
X1643Y417D02*
X1649Y417D01*
X2708Y417D02*
X2715Y417D01*
X0Y416D02*
X7Y416D01*
X392Y416D02*
X395Y416D01*
X679Y416D02*
X685Y416D01*
X726Y416D02*
X732Y416D01*
X1292Y416D02*
X1294Y416D01*
X1567Y416D02*
X1570Y416D01*
X1596Y416D02*
X1601Y416D01*
X1643Y416D02*
X1648Y416D01*
X2708Y416D02*
X2715Y416D01*
X0Y415D02*
X7Y415D01*
X392Y415D02*
X395Y415D01*
X679Y415D02*
X685Y415D01*
X726Y415D02*
X732Y415D01*
X1292Y415D02*
X1294Y415D01*
X1567Y415D02*
X1570Y415D01*
X1597Y415D02*
X1601Y415D01*
X1644Y415D02*
X1648Y415D01*
X2708Y415D02*
X2715Y415D01*
X0Y414D02*
X7Y414D01*
X392Y414D02*
X395Y414D01*
X679Y414D02*
X685Y414D01*
X726Y414D02*
X732Y414D01*
X1292Y414D02*
X1294Y414D01*
X1567Y414D02*
X1570Y414D01*
X1599Y414D02*
X1599Y414D01*
X1646Y414D02*
X1646Y414D01*
X2708Y414D02*
X2715Y414D01*
X0Y413D02*
X7Y413D01*
X392Y413D02*
X395Y413D01*
X679Y413D02*
X685Y413D01*
X726Y413D02*
X732Y413D01*
X1292Y413D02*
X1294Y413D01*
X1567Y413D02*
X1570Y413D01*
X2708Y413D02*
X2715Y413D01*
X0Y412D02*
X7Y412D01*
X392Y412D02*
X395Y412D01*
X679Y412D02*
X685Y412D01*
X726Y412D02*
X732Y412D01*
X1292Y412D02*
X1294Y412D01*
X1567Y412D02*
X1570Y412D01*
X2708Y412D02*
X2715Y412D01*
X0Y411D02*
X7Y411D01*
X392Y411D02*
X395Y411D01*
X679Y411D02*
X685Y411D01*
X726Y411D02*
X732Y411D01*
X1292Y411D02*
X1294Y411D01*
X1567Y411D02*
X1570Y411D01*
X2708Y411D02*
X2715Y411D01*
X0Y410D02*
X7Y410D01*
X392Y410D02*
X395Y410D01*
X679Y410D02*
X685Y410D01*
X726Y410D02*
X732Y410D01*
X1292Y410D02*
X1294Y410D01*
X1567Y410D02*
X1570Y410D01*
X2708Y410D02*
X2715Y410D01*
X0Y409D02*
X7Y409D01*
X392Y409D02*
X395Y409D01*
X679Y409D02*
X684Y409D01*
X726Y409D02*
X732Y409D01*
X1292Y409D02*
X1294Y409D01*
X1567Y409D02*
X1570Y409D01*
X2708Y409D02*
X2715Y409D01*
X0Y408D02*
X7Y408D01*
X392Y408D02*
X395Y408D01*
X680Y408D02*
X684Y408D01*
X727Y408D02*
X731Y408D01*
X1292Y408D02*
X1294Y408D01*
X1567Y408D02*
X1570Y408D01*
X2708Y408D02*
X2715Y408D01*
X0Y407D02*
X7Y407D01*
X392Y407D02*
X395Y407D01*
X681Y407D02*
X682Y407D01*
X728Y407D02*
X730Y407D01*
X1292Y407D02*
X1294Y407D01*
X1567Y407D02*
X1570Y407D01*
X2708Y407D02*
X2715Y407D01*
X0Y406D02*
X7Y406D01*
X392Y406D02*
X395Y406D01*
X1292Y406D02*
X1294Y406D01*
X1567Y406D02*
X1570Y406D01*
X2708Y406D02*
X2715Y406D01*
X0Y405D02*
X7Y405D01*
X392Y405D02*
X395Y405D01*
X1292Y405D02*
X1294Y405D01*
X1567Y405D02*
X1570Y405D01*
X2708Y405D02*
X2715Y405D01*
X0Y404D02*
X7Y404D01*
X392Y404D02*
X395Y404D01*
X1292Y404D02*
X1294Y404D01*
X1567Y404D02*
X1570Y404D01*
X2708Y404D02*
X2715Y404D01*
X0Y403D02*
X7Y403D01*
X392Y403D02*
X395Y403D01*
X1292Y403D02*
X1294Y403D01*
X1567Y403D02*
X1570Y403D01*
X2708Y403D02*
X2715Y403D01*
X0Y402D02*
X7Y402D01*
X392Y402D02*
X395Y402D01*
X1292Y402D02*
X1294Y402D01*
X1567Y402D02*
X1570Y402D01*
X2708Y402D02*
X2715Y402D01*
X0Y401D02*
X7Y401D01*
X392Y401D02*
X395Y401D01*
X1292Y401D02*
X1294Y401D01*
X1567Y401D02*
X1570Y401D01*
X2708Y401D02*
X2715Y401D01*
X0Y400D02*
X7Y400D01*
X392Y400D02*
X395Y400D01*
X1292Y400D02*
X1294Y400D01*
X1567Y400D02*
X1570Y400D01*
X2708Y400D02*
X2715Y400D01*
X0Y399D02*
X7Y399D01*
X392Y399D02*
X395Y399D01*
X1292Y399D02*
X1294Y399D01*
X1567Y399D02*
X1570Y399D01*
X2708Y399D02*
X2715Y399D01*
X0Y398D02*
X7Y398D01*
X392Y398D02*
X395Y398D01*
X1292Y398D02*
X1294Y398D01*
X1567Y398D02*
X1570Y398D01*
X1602Y398D02*
X1606Y398D01*
X1639Y398D02*
X1643Y398D01*
X2708Y398D02*
X2715Y398D01*
X0Y397D02*
X7Y397D01*
X393Y397D02*
X395Y397D01*
X1292Y397D02*
X1294Y397D01*
X1567Y397D02*
X1570Y397D01*
X1600Y397D02*
X1607Y397D01*
X1637Y397D02*
X1645Y397D01*
X2708Y397D02*
X2715Y397D01*
X0Y396D02*
X7Y396D01*
X393Y396D02*
X395Y396D01*
X1293Y396D02*
X1294Y396D01*
X1567Y396D02*
X1570Y396D01*
X1599Y396D02*
X1607Y396D01*
X1636Y396D02*
X1647Y396D01*
X2708Y396D02*
X2715Y396D01*
X0Y395D02*
X7Y395D01*
X393Y395D02*
X395Y395D01*
X1293Y395D02*
X1294Y395D01*
X1567Y395D02*
X1570Y395D01*
X1598Y395D02*
X1608Y395D01*
X1635Y395D02*
X1647Y395D01*
X2708Y395D02*
X2715Y395D01*
X0Y394D02*
X7Y394D01*
X394Y394D02*
X395Y394D01*
X1293Y394D02*
X1294Y394D01*
X1567Y394D02*
X1570Y394D01*
X1597Y394D02*
X1607Y394D01*
X1633Y394D02*
X1648Y394D01*
X2708Y394D02*
X2715Y394D01*
X0Y393D02*
X7Y393D01*
X394Y393D02*
X395Y393D01*
X1294Y393D02*
X1294Y393D01*
X1567Y393D02*
X1570Y393D01*
X1597Y393D02*
X1607Y393D01*
X1632Y393D02*
X1648Y393D01*
X2708Y393D02*
X2715Y393D01*
X0Y392D02*
X7Y392D01*
X394Y392D02*
X395Y392D01*
X1294Y392D02*
X1294Y392D01*
X1567Y392D02*
X1570Y392D01*
X1596Y392D02*
X1606Y392D01*
X1631Y392D02*
X1649Y392D01*
X2708Y392D02*
X2715Y392D01*
X0Y391D02*
X7Y391D01*
X394Y391D02*
X395Y391D01*
X686Y391D02*
X689Y391D01*
X723Y391D02*
X726Y391D01*
X1294Y391D02*
X1294Y391D01*
X1567Y391D02*
X1570Y391D01*
X1596Y391D02*
X1603Y391D01*
X1630Y391D02*
X1640Y391D01*
X1643Y391D02*
X1649Y391D01*
X2708Y391D02*
X2715Y391D01*
X0Y390D02*
X7Y390D01*
X394Y390D02*
X395Y390D01*
X683Y390D02*
X690Y390D01*
X721Y390D02*
X728Y390D01*
X1294Y390D02*
X1294Y390D01*
X1567Y390D02*
X1570Y390D01*
X1596Y390D02*
X1602Y390D01*
X1628Y390D02*
X1639Y390D01*
X1643Y390D02*
X1649Y390D01*
X2708Y390D02*
X2715Y390D01*
X0Y389D02*
X7Y389D01*
X394Y389D02*
X395Y389D01*
X682Y389D02*
X690Y389D01*
X719Y389D02*
X729Y389D01*
X1294Y389D02*
X1294Y389D01*
X1567Y389D02*
X1570Y389D01*
X1596Y389D02*
X1602Y389D01*
X1627Y389D02*
X1638Y389D01*
X1643Y389D02*
X1649Y389D01*
X2708Y389D02*
X2715Y389D01*
X0Y388D02*
X7Y388D01*
X394Y388D02*
X395Y388D01*
X681Y388D02*
X691Y388D01*
X718Y388D02*
X730Y388D01*
X1294Y388D02*
X1294Y388D01*
X1567Y388D02*
X1570Y388D01*
X1596Y388D02*
X1602Y388D01*
X1626Y388D02*
X1636Y388D01*
X1643Y388D02*
X1649Y388D01*
X2708Y388D02*
X2715Y388D01*
X0Y387D02*
X7Y387D01*
X394Y387D02*
X395Y387D01*
X680Y387D02*
X691Y387D01*
X717Y387D02*
X731Y387D01*
X1294Y387D02*
X1294Y387D01*
X1567Y387D02*
X1570Y387D01*
X1596Y387D02*
X1602Y387D01*
X1624Y387D02*
X1635Y387D01*
X1643Y387D02*
X1649Y387D01*
X2708Y387D02*
X2715Y387D01*
X0Y386D02*
X7Y386D01*
X394Y386D02*
X395Y386D01*
X680Y386D02*
X690Y386D01*
X715Y386D02*
X731Y386D01*
X1293Y386D02*
X1294Y386D01*
X1567Y386D02*
X1570Y386D01*
X1596Y386D02*
X1602Y386D01*
X1623Y386D02*
X1634Y386D01*
X1643Y386D02*
X1649Y386D01*
X2708Y386D02*
X2715Y386D01*
X0Y385D02*
X7Y385D01*
X393Y385D02*
X395Y385D01*
X679Y385D02*
X689Y385D01*
X714Y385D02*
X732Y385D01*
X1293Y385D02*
X1294Y385D01*
X1567Y385D02*
X1570Y385D01*
X1596Y385D02*
X1602Y385D01*
X1622Y385D02*
X1633Y385D01*
X1643Y385D02*
X1649Y385D01*
X2708Y385D02*
X2715Y385D01*
X0Y384D02*
X7Y384D01*
X393Y384D02*
X395Y384D01*
X679Y384D02*
X686Y384D01*
X713Y384D02*
X724Y384D01*
X726Y384D02*
X732Y384D01*
X1293Y384D02*
X1294Y384D01*
X1567Y384D02*
X1570Y384D01*
X1596Y384D02*
X1602Y384D01*
X1621Y384D02*
X1631Y384D01*
X1643Y384D02*
X1649Y384D01*
X2708Y384D02*
X2715Y384D01*
X0Y383D02*
X7Y383D01*
X393Y383D02*
X395Y383D01*
X679Y383D02*
X685Y383D01*
X712Y383D02*
X722Y383D01*
X726Y383D02*
X732Y383D01*
X1293Y383D02*
X1294Y383D01*
X1567Y383D02*
X1570Y383D01*
X1596Y383D02*
X1602Y383D01*
X1619Y383D02*
X1630Y383D01*
X1643Y383D02*
X1649Y383D01*
X2708Y383D02*
X2715Y383D01*
X0Y382D02*
X7Y382D01*
X392Y382D02*
X395Y382D01*
X679Y382D02*
X685Y382D01*
X710Y382D02*
X721Y382D01*
X726Y382D02*
X732Y382D01*
X1292Y382D02*
X1294Y382D01*
X1567Y382D02*
X1570Y382D01*
X1596Y382D02*
X1602Y382D01*
X1618Y382D02*
X1629Y382D01*
X1643Y382D02*
X1649Y382D01*
X2708Y382D02*
X2715Y382D01*
X0Y381D02*
X7Y381D01*
X392Y381D02*
X395Y381D01*
X679Y381D02*
X685Y381D01*
X709Y381D02*
X720Y381D01*
X726Y381D02*
X732Y381D01*
X1292Y381D02*
X1294Y381D01*
X1567Y381D02*
X1570Y381D01*
X1596Y381D02*
X1602Y381D01*
X1617Y381D02*
X1627Y381D01*
X1643Y381D02*
X1649Y381D01*
X2708Y381D02*
X2715Y381D01*
X0Y380D02*
X7Y380D01*
X392Y380D02*
X395Y380D01*
X679Y380D02*
X685Y380D01*
X708Y380D02*
X718Y380D01*
X726Y380D02*
X732Y380D01*
X1292Y380D02*
X1294Y380D01*
X1567Y380D02*
X1570Y380D01*
X1596Y380D02*
X1602Y380D01*
X1615Y380D02*
X1626Y380D01*
X1643Y380D02*
X1649Y380D01*
X2708Y380D02*
X2715Y380D01*
X0Y379D02*
X7Y379D01*
X392Y379D02*
X395Y379D01*
X679Y379D02*
X685Y379D01*
X706Y379D02*
X717Y379D01*
X726Y379D02*
X732Y379D01*
X1292Y379D02*
X1294Y379D01*
X1567Y379D02*
X1570Y379D01*
X1596Y379D02*
X1602Y379D01*
X1614Y379D02*
X1625Y379D01*
X1643Y379D02*
X1649Y379D01*
X2708Y379D02*
X2715Y379D01*
X0Y378D02*
X7Y378D01*
X392Y378D02*
X395Y378D01*
X679Y378D02*
X685Y378D01*
X705Y378D02*
X716Y378D01*
X726Y378D02*
X732Y378D01*
X1292Y378D02*
X1294Y378D01*
X1567Y378D02*
X1570Y378D01*
X1596Y378D02*
X1602Y378D01*
X1613Y378D02*
X1624Y378D01*
X1643Y378D02*
X1649Y378D01*
X2708Y378D02*
X2715Y378D01*
X0Y377D02*
X7Y377D01*
X392Y377D02*
X395Y377D01*
X679Y377D02*
X685Y377D01*
X704Y377D02*
X715Y377D01*
X726Y377D02*
X732Y377D01*
X1292Y377D02*
X1294Y377D01*
X1567Y377D02*
X1570Y377D01*
X1596Y377D02*
X1602Y377D01*
X1612Y377D02*
X1622Y377D01*
X1643Y377D02*
X1649Y377D01*
X2708Y377D02*
X2715Y377D01*
X0Y376D02*
X7Y376D01*
X20Y376D02*
X21Y376D01*
X392Y376D02*
X395Y376D01*
X679Y376D02*
X685Y376D01*
X703Y376D02*
X713Y376D01*
X726Y376D02*
X732Y376D01*
X1292Y376D02*
X1294Y376D01*
X1567Y376D02*
X1570Y376D01*
X1596Y376D02*
X1602Y376D01*
X1610Y376D02*
X1621Y376D01*
X1643Y376D02*
X1649Y376D01*
X2708Y376D02*
X2715Y376D01*
X0Y375D02*
X7Y375D01*
X19Y375D02*
X22Y375D01*
X392Y375D02*
X395Y375D01*
X679Y375D02*
X685Y375D01*
X701Y375D02*
X712Y375D01*
X726Y375D02*
X732Y375D01*
X1292Y375D02*
X1294Y375D01*
X1567Y375D02*
X1570Y375D01*
X1596Y375D02*
X1602Y375D01*
X1609Y375D02*
X1620Y375D01*
X1643Y375D02*
X1649Y375D01*
X2708Y375D02*
X2715Y375D01*
X0Y374D02*
X7Y374D01*
X18Y374D02*
X23Y374D01*
X392Y374D02*
X395Y374D01*
X679Y374D02*
X685Y374D01*
X700Y374D02*
X711Y374D01*
X726Y374D02*
X732Y374D01*
X1292Y374D02*
X1294Y374D01*
X1567Y374D02*
X1570Y374D01*
X1596Y374D02*
X1602Y374D01*
X1608Y374D02*
X1618Y374D01*
X1643Y374D02*
X1649Y374D01*
X2708Y374D02*
X2715Y374D01*
X0Y373D02*
X7Y373D01*
X18Y373D02*
X24Y373D01*
X392Y373D02*
X395Y373D01*
X679Y373D02*
X685Y373D01*
X699Y373D02*
X709Y373D01*
X726Y373D02*
X732Y373D01*
X1292Y373D02*
X1294Y373D01*
X1567Y373D02*
X1570Y373D01*
X1596Y373D02*
X1602Y373D01*
X1606Y373D02*
X1617Y373D01*
X1643Y373D02*
X1649Y373D01*
X2708Y373D02*
X2715Y373D01*
X0Y372D02*
X7Y372D01*
X19Y372D02*
X25Y372D01*
X392Y372D02*
X395Y372D01*
X679Y372D02*
X685Y372D01*
X697Y372D02*
X708Y372D01*
X726Y372D02*
X732Y372D01*
X1292Y372D02*
X1294Y372D01*
X1567Y372D02*
X1570Y372D01*
X1596Y372D02*
X1602Y372D01*
X1605Y372D02*
X1616Y372D01*
X1642Y372D02*
X1649Y372D01*
X2708Y372D02*
X2715Y372D01*
X0Y371D02*
X7Y371D01*
X20Y371D02*
X26Y371D01*
X392Y371D02*
X395Y371D01*
X679Y371D02*
X685Y371D01*
X696Y371D02*
X707Y371D01*
X726Y371D02*
X732Y371D01*
X1292Y371D02*
X1294Y371D01*
X1567Y371D02*
X1570Y371D01*
X1596Y371D02*
X1602Y371D01*
X1604Y371D02*
X1614Y371D01*
X1641Y371D02*
X1649Y371D01*
X2708Y371D02*
X2715Y371D01*
X0Y370D02*
X7Y370D01*
X21Y370D02*
X27Y370D01*
X392Y370D02*
X395Y370D01*
X679Y370D02*
X685Y370D01*
X695Y370D02*
X705Y370D01*
X726Y370D02*
X732Y370D01*
X1292Y370D02*
X1294Y370D01*
X1567Y370D02*
X1570Y370D01*
X1596Y370D02*
X1613Y370D01*
X1638Y370D02*
X1648Y370D01*
X2708Y370D02*
X2715Y370D01*
X0Y369D02*
X7Y369D01*
X22Y369D02*
X28Y369D01*
X392Y369D02*
X395Y369D01*
X679Y369D02*
X685Y369D01*
X694Y369D02*
X704Y369D01*
X726Y369D02*
X732Y369D01*
X1292Y369D02*
X1294Y369D01*
X1567Y369D02*
X1570Y369D01*
X1596Y369D02*
X1612Y369D01*
X1637Y369D02*
X1648Y369D01*
X2708Y369D02*
X2715Y369D01*
X0Y368D02*
X7Y368D01*
X23Y368D02*
X29Y368D01*
X392Y368D02*
X395Y368D01*
X679Y368D02*
X685Y368D01*
X692Y368D02*
X703Y368D01*
X726Y368D02*
X732Y368D01*
X1292Y368D02*
X1294Y368D01*
X1567Y368D02*
X1570Y368D01*
X1597Y368D02*
X1611Y368D01*
X1637Y368D02*
X1647Y368D01*
X2708Y368D02*
X2715Y368D01*
X0Y367D02*
X7Y367D01*
X24Y367D02*
X30Y367D01*
X392Y367D02*
X395Y367D01*
X679Y367D02*
X685Y367D01*
X691Y367D02*
X702Y367D01*
X726Y367D02*
X732Y367D01*
X1292Y367D02*
X1294Y367D01*
X1567Y367D02*
X1570Y367D01*
X1597Y367D02*
X1609Y367D01*
X1637Y367D02*
X1646Y367D01*
X2708Y367D02*
X2715Y367D01*
X0Y366D02*
X7Y366D01*
X25Y366D02*
X31Y366D01*
X392Y366D02*
X395Y366D01*
X679Y366D02*
X685Y366D01*
X690Y366D02*
X700Y366D01*
X726Y366D02*
X732Y366D01*
X1292Y366D02*
X1294Y366D01*
X1567Y366D02*
X1570Y366D01*
X1598Y366D02*
X1608Y366D01*
X1637Y366D02*
X1645Y366D01*
X2708Y366D02*
X2715Y366D01*
X0Y365D02*
X7Y365D01*
X26Y365D02*
X32Y365D01*
X392Y365D02*
X395Y365D01*
X679Y365D02*
X685Y365D01*
X688Y365D02*
X699Y365D01*
X726Y365D02*
X732Y365D01*
X1292Y365D02*
X1294Y365D01*
X1567Y365D02*
X1570Y365D01*
X1600Y365D02*
X1606Y365D01*
X1638Y365D02*
X1644Y365D01*
X2708Y365D02*
X2715Y365D01*
X0Y364D02*
X7Y364D01*
X27Y364D02*
X33Y364D01*
X392Y364D02*
X395Y364D01*
X679Y364D02*
X685Y364D01*
X687Y364D02*
X698Y364D01*
X724Y364D02*
X732Y364D01*
X1292Y364D02*
X1294Y364D01*
X1567Y364D02*
X1570Y364D01*
X1603Y364D02*
X1603Y364D01*
X1640Y364D02*
X1640Y364D01*
X2708Y364D02*
X2715Y364D01*
X0Y363D02*
X7Y363D01*
X28Y363D02*
X34Y363D01*
X392Y363D02*
X395Y363D01*
X679Y363D02*
X696Y363D01*
X721Y363D02*
X731Y363D01*
X1292Y363D02*
X1294Y363D01*
X1567Y363D02*
X1570Y363D01*
X2708Y363D02*
X2715Y363D01*
X0Y362D02*
X7Y362D01*
X29Y362D02*
X35Y362D01*
X392Y362D02*
X395Y362D01*
X679Y362D02*
X695Y362D01*
X721Y362D02*
X731Y362D01*
X1292Y362D02*
X1294Y362D01*
X1567Y362D02*
X1570Y362D01*
X2708Y362D02*
X2715Y362D01*
X0Y361D02*
X7Y361D01*
X30Y361D02*
X35Y361D01*
X392Y361D02*
X395Y361D01*
X680Y361D02*
X694Y361D01*
X720Y361D02*
X730Y361D01*
X1292Y361D02*
X1294Y361D01*
X1567Y361D02*
X1570Y361D01*
X2708Y361D02*
X2715Y361D01*
X0Y360D02*
X7Y360D01*
X31Y360D02*
X36Y360D01*
X392Y360D02*
X395Y360D01*
X680Y360D02*
X693Y360D01*
X720Y360D02*
X729Y360D01*
X1292Y360D02*
X1294Y360D01*
X1567Y360D02*
X1570Y360D01*
X2708Y360D02*
X2715Y360D01*
X0Y359D02*
X7Y359D01*
X32Y359D02*
X37Y359D01*
X392Y359D02*
X395Y359D01*
X681Y359D02*
X691Y359D01*
X720Y359D02*
X728Y359D01*
X1292Y359D02*
X1294Y359D01*
X1567Y359D02*
X1570Y359D01*
X2708Y359D02*
X2715Y359D01*
X0Y358D02*
X7Y358D01*
X33Y358D02*
X38Y358D01*
X392Y358D02*
X395Y358D01*
X682Y358D02*
X690Y358D01*
X721Y358D02*
X727Y358D01*
X1292Y358D02*
X1294Y358D01*
X1567Y358D02*
X1570Y358D01*
X2708Y358D02*
X2715Y358D01*
X0Y357D02*
X7Y357D01*
X34Y357D02*
X39Y357D01*
X392Y357D02*
X395Y357D01*
X685Y357D02*
X687Y357D01*
X723Y357D02*
X724Y357D01*
X1292Y357D02*
X1294Y357D01*
X1567Y357D02*
X1570Y357D01*
X2708Y357D02*
X2715Y357D01*
X0Y356D02*
X7Y356D01*
X35Y356D02*
X41Y356D01*
X392Y356D02*
X395Y356D01*
X1292Y356D02*
X1294Y356D01*
X1567Y356D02*
X1570Y356D01*
X2708Y356D02*
X2715Y356D01*
X0Y355D02*
X7Y355D01*
X36Y355D02*
X42Y355D01*
X392Y355D02*
X395Y355D01*
X1292Y355D02*
X1294Y355D01*
X1567Y355D02*
X1570Y355D01*
X2708Y355D02*
X2715Y355D01*
X0Y354D02*
X7Y354D01*
X37Y354D02*
X43Y354D01*
X392Y354D02*
X395Y354D01*
X1292Y354D02*
X1294Y354D01*
X1567Y354D02*
X1570Y354D01*
X2708Y354D02*
X2715Y354D01*
X0Y353D02*
X7Y353D01*
X38Y353D02*
X44Y353D01*
X392Y353D02*
X395Y353D01*
X1292Y353D02*
X1294Y353D01*
X1567Y353D02*
X1570Y353D01*
X2708Y353D02*
X2715Y353D01*
X0Y352D02*
X7Y352D01*
X39Y352D02*
X45Y352D01*
X392Y352D02*
X395Y352D01*
X1292Y352D02*
X1294Y352D01*
X1567Y352D02*
X1570Y352D01*
X2708Y352D02*
X2715Y352D01*
X0Y351D02*
X7Y351D01*
X40Y351D02*
X46Y351D01*
X392Y351D02*
X395Y351D01*
X1292Y351D02*
X1294Y351D01*
X1567Y351D02*
X1570Y351D01*
X2708Y351D02*
X2715Y351D01*
X0Y350D02*
X7Y350D01*
X41Y350D02*
X47Y350D01*
X392Y350D02*
X395Y350D01*
X1292Y350D02*
X1294Y350D01*
X1567Y350D02*
X1570Y350D01*
X2708Y350D02*
X2715Y350D01*
X0Y349D02*
X7Y349D01*
X42Y349D02*
X48Y349D01*
X392Y349D02*
X395Y349D01*
X1292Y349D02*
X1294Y349D01*
X1567Y349D02*
X1570Y349D01*
X2708Y349D02*
X2715Y349D01*
X0Y348D02*
X7Y348D01*
X43Y348D02*
X49Y348D01*
X392Y348D02*
X395Y348D01*
X1292Y348D02*
X1294Y348D01*
X1567Y348D02*
X1570Y348D01*
X1603Y348D02*
X1612Y348D01*
X1644Y348D02*
X1647Y348D01*
X2708Y348D02*
X2715Y348D01*
X0Y347D02*
X7Y347D01*
X44Y347D02*
X50Y347D01*
X392Y347D02*
X395Y347D01*
X1292Y347D02*
X1294Y347D01*
X1567Y347D02*
X1570Y347D01*
X1601Y347D02*
X1614Y347D01*
X1643Y347D02*
X1648Y347D01*
X0Y346D02*
X7Y346D01*
X45Y346D02*
X51Y346D01*
X392Y346D02*
X395Y346D01*
X1292Y346D02*
X1294Y346D01*
X1567Y346D02*
X1570Y346D01*
X1599Y346D02*
X1616Y346D01*
X1641Y346D02*
X1649Y346D01*
X0Y345D02*
X7Y345D01*
X46Y345D02*
X52Y345D01*
X392Y345D02*
X395Y345D01*
X1292Y345D02*
X1294Y345D01*
X1567Y345D02*
X1570Y345D01*
X1598Y345D02*
X1617Y345D01*
X1639Y345D02*
X1649Y345D01*
X0Y344D02*
X7Y344D01*
X47Y344D02*
X53Y344D01*
X392Y344D02*
X395Y344D01*
X1292Y344D02*
X1294Y344D01*
X1567Y344D02*
X1570Y344D01*
X1598Y344D02*
X1617Y344D01*
X1638Y344D02*
X1649Y344D01*
X0Y343D02*
X7Y343D01*
X48Y343D02*
X54Y343D01*
X392Y343D02*
X395Y343D01*
X1292Y343D02*
X1294Y343D01*
X1567Y343D02*
X1570Y343D01*
X1597Y343D02*
X1618Y343D01*
X1636Y343D02*
X1648Y343D01*
X2708Y343D02*
X2715Y343D01*
X0Y342D02*
X7Y342D01*
X49Y342D02*
X55Y342D01*
X392Y342D02*
X395Y342D01*
X1292Y342D02*
X1294Y342D01*
X1567Y342D02*
X1570Y342D01*
X1596Y342D02*
X1619Y342D01*
X1634Y342D02*
X1647Y342D01*
X2708Y342D02*
X2715Y342D01*
X0Y341D02*
X7Y341D01*
X50Y341D02*
X54Y341D01*
X392Y341D02*
X395Y341D01*
X686Y341D02*
X695Y341D01*
X728Y341D02*
X730Y341D01*
X1292Y341D02*
X1294Y341D01*
X1567Y341D02*
X1570Y341D01*
X1596Y341D02*
X1604Y341D01*
X1612Y341D02*
X1619Y341D01*
X1632Y341D02*
X1645Y341D01*
X2708Y341D02*
X2715Y341D01*
X0Y340D02*
X7Y340D01*
X51Y340D02*
X53Y340D01*
X392Y340D02*
X395Y340D01*
X684Y340D02*
X697Y340D01*
X726Y340D02*
X731Y340D01*
X1292Y340D02*
X1294Y340D01*
X1567Y340D02*
X1570Y340D01*
X1596Y340D02*
X1602Y340D01*
X1613Y340D02*
X1619Y340D01*
X1631Y340D02*
X1644Y340D01*
X2708Y340D02*
X2715Y340D01*
X0Y339D02*
X7Y339D01*
X52Y339D02*
X52Y339D01*
X392Y339D02*
X395Y339D01*
X683Y339D02*
X698Y339D01*
X724Y339D02*
X732Y339D01*
X1292Y339D02*
X1294Y339D01*
X1567Y339D02*
X1570Y339D01*
X1596Y339D02*
X1602Y339D01*
X1613Y339D02*
X1619Y339D01*
X1629Y339D02*
X1642Y339D01*
X2708Y339D02*
X2715Y339D01*
X0Y338D02*
X7Y338D01*
X392Y338D02*
X395Y338D01*
X682Y338D02*
X700Y338D01*
X723Y338D02*
X732Y338D01*
X1292Y338D02*
X1294Y338D01*
X1567Y338D02*
X1570Y338D01*
X1596Y338D02*
X1602Y338D01*
X1613Y338D02*
X1619Y338D01*
X1627Y338D02*
X1640Y338D01*
X2708Y338D02*
X2715Y338D01*
X0Y337D02*
X7Y337D01*
X392Y337D02*
X395Y337D01*
X681Y337D02*
X700Y337D01*
X721Y337D02*
X732Y337D01*
X1292Y337D02*
X1294Y337D01*
X1567Y337D02*
X1570Y337D01*
X1596Y337D02*
X1602Y337D01*
X1613Y337D02*
X1619Y337D01*
X1626Y337D02*
X1639Y337D01*
X2708Y337D02*
X2715Y337D01*
X0Y336D02*
X7Y336D01*
X392Y336D02*
X395Y336D01*
X680Y336D02*
X701Y336D01*
X719Y336D02*
X731Y336D01*
X1292Y336D02*
X1294Y336D01*
X1567Y336D02*
X1570Y336D01*
X1596Y336D02*
X1602Y336D01*
X1613Y336D02*
X1619Y336D01*
X1624Y336D02*
X1637Y336D01*
X2708Y336D02*
X2715Y336D01*
X0Y335D02*
X7Y335D01*
X392Y335D02*
X395Y335D01*
X680Y335D02*
X702Y335D01*
X717Y335D02*
X730Y335D01*
X1292Y335D02*
X1294Y335D01*
X1567Y335D02*
X1570Y335D01*
X1596Y335D02*
X1602Y335D01*
X1613Y335D02*
X1619Y335D01*
X1622Y335D02*
X1635Y335D01*
X2708Y335D02*
X2715Y335D01*
X0Y334D02*
X7Y334D01*
X392Y334D02*
X395Y334D01*
X679Y334D02*
X687Y334D01*
X694Y334D02*
X702Y334D01*
X716Y334D02*
X729Y334D01*
X1292Y334D02*
X1294Y334D01*
X1567Y334D02*
X1570Y334D01*
X1596Y334D02*
X1602Y334D01*
X1613Y334D02*
X1633Y334D01*
X2708Y334D02*
X2715Y334D01*
X0Y333D02*
X7Y333D01*
X392Y333D02*
X395Y333D01*
X679Y333D02*
X686Y333D01*
X696Y333D02*
X702Y333D01*
X714Y333D02*
X727Y333D01*
X1292Y333D02*
X1294Y333D01*
X1567Y333D02*
X1570Y333D01*
X1596Y333D02*
X1602Y333D01*
X1613Y333D02*
X1632Y333D01*
X2708Y333D02*
X2715Y333D01*
X0Y332D02*
X7Y332D01*
X392Y332D02*
X395Y332D01*
X679Y332D02*
X685Y332D01*
X696Y332D02*
X702Y332D01*
X712Y332D02*
X725Y332D01*
X1292Y332D02*
X1294Y332D01*
X1567Y332D02*
X1570Y332D01*
X1596Y332D02*
X1602Y332D01*
X1613Y332D02*
X1630Y332D01*
X2708Y332D02*
X2715Y332D01*
X0Y331D02*
X7Y331D01*
X392Y331D02*
X395Y331D01*
X679Y331D02*
X685Y331D01*
X696Y331D02*
X702Y331D01*
X711Y331D02*
X724Y331D01*
X1292Y331D02*
X1294Y331D01*
X1567Y331D02*
X1570Y331D01*
X1596Y331D02*
X1602Y331D01*
X1613Y331D02*
X1628Y331D01*
X2708Y331D02*
X2715Y331D01*
X0Y330D02*
X7Y330D01*
X392Y330D02*
X395Y330D01*
X679Y330D02*
X685Y330D01*
X696Y330D02*
X702Y330D01*
X709Y330D02*
X722Y330D01*
X1292Y330D02*
X1294Y330D01*
X1567Y330D02*
X1570Y330D01*
X1596Y330D02*
X1602Y330D01*
X1613Y330D02*
X1627Y330D01*
X2708Y330D02*
X2715Y330D01*
X0Y329D02*
X7Y329D01*
X392Y329D02*
X395Y329D01*
X679Y329D02*
X685Y329D01*
X696Y329D02*
X702Y329D01*
X707Y329D02*
X720Y329D01*
X1292Y329D02*
X1294Y329D01*
X1567Y329D02*
X1570Y329D01*
X1596Y329D02*
X1602Y329D01*
X1613Y329D02*
X1625Y329D01*
X2708Y329D02*
X2715Y329D01*
X0Y328D02*
X7Y328D01*
X392Y328D02*
X395Y328D01*
X679Y328D02*
X685Y328D01*
X696Y328D02*
X702Y328D01*
X705Y328D02*
X718Y328D01*
X1292Y328D02*
X1294Y328D01*
X1567Y328D02*
X1570Y328D01*
X1596Y328D02*
X1602Y328D01*
X1613Y328D02*
X1623Y328D01*
X2708Y328D02*
X2715Y328D01*
X0Y327D02*
X7Y327D01*
X392Y327D02*
X395Y327D01*
X679Y327D02*
X685Y327D01*
X696Y327D02*
X717Y327D01*
X1292Y327D02*
X1294Y327D01*
X1567Y327D02*
X1570Y327D01*
X1596Y327D02*
X1602Y327D01*
X1613Y327D02*
X1621Y327D01*
X2708Y327D02*
X2715Y327D01*
X0Y326D02*
X7Y326D01*
X392Y326D02*
X395Y326D01*
X679Y326D02*
X685Y326D01*
X696Y326D02*
X715Y326D01*
X1292Y326D02*
X1294Y326D01*
X1567Y326D02*
X1570Y326D01*
X1596Y326D02*
X1602Y326D01*
X1613Y326D02*
X1620Y326D01*
X2708Y326D02*
X2715Y326D01*
X0Y325D02*
X7Y325D01*
X392Y325D02*
X395Y325D01*
X679Y325D02*
X685Y325D01*
X696Y325D02*
X713Y325D01*
X1292Y325D02*
X1294Y325D01*
X1567Y325D02*
X1570Y325D01*
X1596Y325D02*
X1602Y325D01*
X1613Y325D02*
X1619Y325D01*
X2708Y325D02*
X2715Y325D01*
X0Y324D02*
X7Y324D01*
X392Y324D02*
X395Y324D01*
X679Y324D02*
X685Y324D01*
X696Y324D02*
X712Y324D01*
X1292Y324D02*
X1294Y324D01*
X1567Y324D02*
X1570Y324D01*
X1596Y324D02*
X1602Y324D01*
X1613Y324D02*
X1619Y324D01*
X2708Y324D02*
X2715Y324D01*
X0Y323D02*
X7Y323D01*
X392Y323D02*
X395Y323D01*
X679Y323D02*
X685Y323D01*
X696Y323D02*
X710Y323D01*
X1292Y323D02*
X1294Y323D01*
X1567Y323D02*
X1570Y323D01*
X1596Y323D02*
X1602Y323D01*
X1613Y323D02*
X1619Y323D01*
X2229Y323D02*
X2231Y323D01*
X2708Y323D02*
X2715Y323D01*
X0Y322D02*
X7Y322D01*
X392Y322D02*
X395Y322D01*
X679Y322D02*
X685Y322D01*
X696Y322D02*
X708Y322D01*
X1292Y322D02*
X1294Y322D01*
X1567Y322D02*
X1570Y322D01*
X1596Y322D02*
X1602Y322D01*
X1613Y322D02*
X1619Y322D01*
X2229Y322D02*
X2231Y322D01*
X2708Y322D02*
X2715Y322D01*
X0Y321D02*
X7Y321D01*
X392Y321D02*
X395Y321D01*
X679Y321D02*
X685Y321D01*
X696Y321D02*
X706Y321D01*
X1292Y321D02*
X1294Y321D01*
X1567Y321D02*
X1570Y321D01*
X1596Y321D02*
X1645Y321D01*
X2229Y321D02*
X2231Y321D01*
X2708Y321D02*
X2715Y321D01*
X0Y320D02*
X7Y320D01*
X392Y320D02*
X395Y320D01*
X679Y320D02*
X685Y320D01*
X696Y320D02*
X705Y320D01*
X1292Y320D02*
X1294Y320D01*
X1567Y320D02*
X1570Y320D01*
X1596Y320D02*
X1648Y320D01*
X2229Y320D02*
X2231Y320D01*
X2708Y320D02*
X2715Y320D01*
X0Y319D02*
X7Y319D01*
X392Y319D02*
X395Y319D01*
X679Y319D02*
X685Y319D01*
X696Y319D02*
X703Y319D01*
X1292Y319D02*
X1294Y319D01*
X1567Y319D02*
X1570Y319D01*
X1596Y319D02*
X1648Y319D01*
X2229Y319D02*
X2231Y319D01*
X2708Y319D02*
X2715Y319D01*
X0Y318D02*
X7Y318D01*
X392Y318D02*
X395Y318D01*
X679Y318D02*
X685Y318D01*
X696Y318D02*
X702Y318D01*
X1292Y318D02*
X1294Y318D01*
X1567Y318D02*
X1570Y318D01*
X1596Y318D02*
X1649Y318D01*
X2229Y318D02*
X2231Y318D01*
X2708Y318D02*
X2715Y318D01*
X0Y317D02*
X7Y317D01*
X392Y317D02*
X395Y317D01*
X679Y317D02*
X685Y317D01*
X696Y317D02*
X702Y317D01*
X1292Y317D02*
X1294Y317D01*
X1567Y317D02*
X1570Y317D01*
X1596Y317D02*
X1649Y317D01*
X2229Y317D02*
X2231Y317D01*
X2708Y317D02*
X2715Y317D01*
X0Y316D02*
X7Y316D01*
X392Y316D02*
X395Y316D01*
X679Y316D02*
X685Y316D01*
X696Y316D02*
X702Y316D01*
X1292Y316D02*
X1294Y316D01*
X1567Y316D02*
X1570Y316D01*
X1596Y316D02*
X1648Y316D01*
X2229Y316D02*
X2231Y316D01*
X2708Y316D02*
X2715Y316D01*
X0Y315D02*
X7Y315D01*
X392Y315D02*
X395Y315D01*
X679Y315D02*
X685Y315D01*
X696Y315D02*
X702Y315D01*
X1292Y315D02*
X1294Y315D01*
X1567Y315D02*
X1570Y315D01*
X1596Y315D02*
X1648Y315D01*
X2229Y315D02*
X2231Y315D01*
X2708Y315D02*
X2715Y315D01*
X0Y314D02*
X7Y314D01*
X392Y314D02*
X395Y314D01*
X679Y314D02*
X685Y314D01*
X696Y314D02*
X703Y314D01*
X1292Y314D02*
X1294Y314D01*
X1567Y314D02*
X1570Y314D01*
X1596Y314D02*
X1645Y314D01*
X2229Y314D02*
X2231Y314D01*
X2708Y314D02*
X2715Y314D01*
X0Y313D02*
X7Y313D01*
X392Y313D02*
X395Y313D01*
X679Y313D02*
X731Y313D01*
X1292Y313D02*
X1294Y313D01*
X1567Y313D02*
X1570Y313D01*
X2229Y313D02*
X2231Y313D01*
X2708Y313D02*
X2715Y313D01*
X0Y312D02*
X7Y312D01*
X392Y312D02*
X395Y312D01*
X679Y312D02*
X731Y312D01*
X1292Y312D02*
X1294Y312D01*
X1567Y312D02*
X1570Y312D01*
X2229Y312D02*
X2231Y312D01*
X2708Y312D02*
X2715Y312D01*
X0Y311D02*
X7Y311D01*
X392Y311D02*
X395Y311D01*
X679Y311D02*
X732Y311D01*
X1292Y311D02*
X1294Y311D01*
X1567Y311D02*
X1570Y311D01*
X2229Y311D02*
X2231Y311D01*
X2708Y311D02*
X2715Y311D01*
X0Y310D02*
X7Y310D01*
X392Y310D02*
X395Y310D01*
X679Y310D02*
X732Y310D01*
X1292Y310D02*
X1294Y310D01*
X1567Y310D02*
X1570Y310D01*
X2229Y310D02*
X2231Y310D01*
X2708Y310D02*
X2715Y310D01*
X0Y309D02*
X7Y309D01*
X392Y309D02*
X395Y309D01*
X679Y309D02*
X732Y309D01*
X1292Y309D02*
X1294Y309D01*
X1567Y309D02*
X1570Y309D01*
X2229Y309D02*
X2231Y309D01*
X2708Y309D02*
X2715Y309D01*
X0Y308D02*
X7Y308D01*
X392Y308D02*
X395Y308D01*
X679Y308D02*
X731Y308D01*
X1292Y308D02*
X1294Y308D01*
X1567Y308D02*
X1570Y308D01*
X2229Y308D02*
X2231Y308D01*
X2708Y308D02*
X2715Y308D01*
X0Y307D02*
X7Y307D01*
X392Y307D02*
X395Y307D01*
X679Y307D02*
X729Y307D01*
X1292Y307D02*
X1294Y307D01*
X1567Y307D02*
X1570Y307D01*
X2229Y307D02*
X2231Y307D01*
X2708Y307D02*
X2715Y307D01*
X0Y306D02*
X7Y306D01*
X392Y306D02*
X395Y306D01*
X1292Y306D02*
X1294Y306D01*
X1567Y306D02*
X1570Y306D01*
X2229Y306D02*
X2231Y306D01*
X2708Y306D02*
X2715Y306D01*
X0Y305D02*
X7Y305D01*
X392Y305D02*
X395Y305D01*
X1292Y305D02*
X1294Y305D01*
X1567Y305D02*
X1570Y305D01*
X2229Y305D02*
X2231Y305D01*
X2708Y305D02*
X2715Y305D01*
X0Y304D02*
X7Y304D01*
X392Y304D02*
X395Y304D01*
X1292Y304D02*
X1294Y304D01*
X1567Y304D02*
X1570Y304D01*
X2229Y304D02*
X2231Y304D01*
X2708Y304D02*
X2715Y304D01*
X0Y303D02*
X7Y303D01*
X392Y303D02*
X395Y303D01*
X1292Y303D02*
X1294Y303D01*
X1567Y303D02*
X1570Y303D01*
X2229Y303D02*
X2231Y303D01*
X2708Y303D02*
X2715Y303D01*
X0Y302D02*
X7Y302D01*
X392Y302D02*
X395Y302D01*
X1292Y302D02*
X1294Y302D01*
X1567Y302D02*
X1570Y302D01*
X2229Y302D02*
X2231Y302D01*
X2708Y302D02*
X2715Y302D01*
X0Y301D02*
X7Y301D01*
X392Y301D02*
X395Y301D01*
X1292Y301D02*
X1294Y301D01*
X1567Y301D02*
X1570Y301D01*
X2229Y301D02*
X2231Y301D01*
X2708Y301D02*
X2715Y301D01*
X0Y300D02*
X7Y300D01*
X392Y300D02*
X395Y300D01*
X1292Y300D02*
X1294Y300D01*
X1567Y300D02*
X1570Y300D01*
X2229Y300D02*
X2231Y300D01*
X2708Y300D02*
X2715Y300D01*
X0Y299D02*
X7Y299D01*
X392Y299D02*
X395Y299D01*
X1292Y299D02*
X1294Y299D01*
X1567Y299D02*
X1570Y299D01*
X2229Y299D02*
X2231Y299D01*
X2708Y299D02*
X2715Y299D01*
X0Y298D02*
X7Y298D01*
X392Y298D02*
X395Y298D01*
X1292Y298D02*
X1294Y298D01*
X1567Y298D02*
X1570Y298D01*
X1603Y298D02*
X1612Y298D01*
X1644Y298D02*
X1647Y298D01*
X2229Y298D02*
X2231Y298D01*
X2708Y298D02*
X2715Y298D01*
X0Y297D02*
X7Y297D01*
X392Y297D02*
X395Y297D01*
X1292Y297D02*
X1294Y297D01*
X1567Y297D02*
X1570Y297D01*
X1601Y297D02*
X1614Y297D01*
X1643Y297D02*
X1648Y297D01*
X2229Y297D02*
X2231Y297D01*
X2708Y297D02*
X2715Y297D01*
X0Y296D02*
X7Y296D01*
X392Y296D02*
X395Y296D01*
X1292Y296D02*
X1294Y296D01*
X1567Y296D02*
X1570Y296D01*
X1599Y296D02*
X1616Y296D01*
X1641Y296D02*
X1649Y296D01*
X2229Y296D02*
X2231Y296D01*
X2708Y296D02*
X2715Y296D01*
X0Y295D02*
X7Y295D01*
X392Y295D02*
X395Y295D01*
X1292Y295D02*
X1294Y295D01*
X1567Y295D02*
X1570Y295D01*
X1598Y295D02*
X1617Y295D01*
X1639Y295D02*
X1649Y295D01*
X2229Y295D02*
X2231Y295D01*
X2708Y295D02*
X2715Y295D01*
X0Y294D02*
X7Y294D01*
X392Y294D02*
X395Y294D01*
X1292Y294D02*
X1294Y294D01*
X1567Y294D02*
X1570Y294D01*
X1598Y294D02*
X1617Y294D01*
X1637Y294D02*
X1649Y294D01*
X2229Y294D02*
X2231Y294D01*
X2708Y294D02*
X2715Y294D01*
X0Y293D02*
X7Y293D01*
X392Y293D02*
X395Y293D01*
X1292Y293D02*
X1294Y293D01*
X1567Y293D02*
X1570Y293D01*
X1597Y293D02*
X1618Y293D01*
X1636Y293D02*
X1648Y293D01*
X2229Y293D02*
X2231Y293D01*
X2708Y293D02*
X2715Y293D01*
X0Y292D02*
X7Y292D01*
X392Y292D02*
X395Y292D01*
X1292Y292D02*
X1294Y292D01*
X1567Y292D02*
X1570Y292D01*
X1596Y292D02*
X1619Y292D01*
X1634Y292D02*
X1647Y292D01*
X2229Y292D02*
X2231Y292D01*
X2708Y292D02*
X2715Y292D01*
X0Y291D02*
X7Y291D01*
X392Y291D02*
X395Y291D01*
X686Y291D02*
X695Y291D01*
X728Y291D02*
X730Y291D01*
X1292Y291D02*
X1294Y291D01*
X1567Y291D02*
X1570Y291D01*
X1596Y291D02*
X1603Y291D01*
X1612Y291D02*
X1619Y291D01*
X1632Y291D02*
X1645Y291D01*
X2229Y291D02*
X2231Y291D01*
X2708Y291D02*
X2715Y291D01*
X0Y290D02*
X7Y290D01*
X392Y290D02*
X395Y290D01*
X684Y290D02*
X697Y290D01*
X726Y290D02*
X731Y290D01*
X1292Y290D02*
X1294Y290D01*
X1567Y290D02*
X1570Y290D01*
X1596Y290D02*
X1602Y290D01*
X1613Y290D02*
X1619Y290D01*
X1631Y290D02*
X1644Y290D01*
X2229Y290D02*
X2231Y290D01*
X2708Y290D02*
X2715Y290D01*
X0Y289D02*
X7Y289D01*
X392Y289D02*
X395Y289D01*
X683Y289D02*
X699Y289D01*
X724Y289D02*
X732Y289D01*
X1292Y289D02*
X1294Y289D01*
X1567Y289D02*
X1570Y289D01*
X1596Y289D02*
X1602Y289D01*
X1613Y289D02*
X1619Y289D01*
X1629Y289D02*
X1642Y289D01*
X2229Y289D02*
X2231Y289D01*
X2708Y289D02*
X2715Y289D01*
X0Y288D02*
X7Y288D01*
X392Y288D02*
X395Y288D01*
X682Y288D02*
X700Y288D01*
X722Y288D02*
X732Y288D01*
X1292Y288D02*
X1294Y288D01*
X1567Y288D02*
X1570Y288D01*
X1596Y288D02*
X1602Y288D01*
X1613Y288D02*
X1619Y288D01*
X1627Y288D02*
X1640Y288D01*
X2229Y288D02*
X2231Y288D01*
X2708Y288D02*
X2715Y288D01*
X0Y287D02*
X7Y287D01*
X392Y287D02*
X395Y287D01*
X681Y287D02*
X700Y287D01*
X721Y287D02*
X732Y287D01*
X1292Y287D02*
X1294Y287D01*
X1567Y287D02*
X1570Y287D01*
X1596Y287D02*
X1602Y287D01*
X1613Y287D02*
X1619Y287D01*
X1625Y287D02*
X1638Y287D01*
X2229Y287D02*
X2231Y287D01*
X2708Y287D02*
X2715Y287D01*
X0Y286D02*
X7Y286D01*
X392Y286D02*
X395Y286D01*
X680Y286D02*
X701Y286D01*
X719Y286D02*
X731Y286D01*
X1292Y286D02*
X1294Y286D01*
X1567Y286D02*
X1570Y286D01*
X1596Y286D02*
X1602Y286D01*
X1613Y286D02*
X1619Y286D01*
X1624Y286D02*
X1637Y286D01*
X2229Y286D02*
X2231Y286D01*
X2708Y286D02*
X2715Y286D01*
X0Y285D02*
X7Y285D01*
X392Y285D02*
X395Y285D01*
X680Y285D02*
X702Y285D01*
X717Y285D02*
X730Y285D01*
X1292Y285D02*
X1294Y285D01*
X1567Y285D02*
X1570Y285D01*
X1596Y285D02*
X1602Y285D01*
X1613Y285D02*
X1619Y285D01*
X1622Y285D02*
X1635Y285D01*
X2229Y285D02*
X2231Y285D01*
X2708Y285D02*
X2715Y285D01*
X0Y284D02*
X7Y284D01*
X392Y284D02*
X395Y284D01*
X679Y284D02*
X687Y284D01*
X694Y284D02*
X702Y284D01*
X716Y284D02*
X729Y284D01*
X1292Y284D02*
X1294Y284D01*
X1567Y284D02*
X1570Y284D01*
X1596Y284D02*
X1602Y284D01*
X1613Y284D02*
X1633Y284D01*
X2229Y284D02*
X2231Y284D01*
X2708Y284D02*
X2715Y284D01*
X0Y283D02*
X7Y283D01*
X392Y283D02*
X395Y283D01*
X679Y283D02*
X686Y283D01*
X696Y283D02*
X702Y283D01*
X714Y283D02*
X727Y283D01*
X1292Y283D02*
X1294Y283D01*
X1567Y283D02*
X1570Y283D01*
X1596Y283D02*
X1602Y283D01*
X1613Y283D02*
X1632Y283D01*
X2229Y283D02*
X2231Y283D01*
X2708Y283D02*
X2715Y283D01*
X0Y282D02*
X7Y282D01*
X392Y282D02*
X395Y282D01*
X679Y282D02*
X685Y282D01*
X696Y282D02*
X702Y282D01*
X712Y282D02*
X725Y282D01*
X1292Y282D02*
X1294Y282D01*
X1567Y282D02*
X1570Y282D01*
X1596Y282D02*
X1602Y282D01*
X1613Y282D02*
X1630Y282D01*
X2229Y282D02*
X2231Y282D01*
X2708Y282D02*
X2715Y282D01*
X0Y281D02*
X7Y281D01*
X392Y281D02*
X395Y281D01*
X679Y281D02*
X685Y281D01*
X696Y281D02*
X702Y281D01*
X711Y281D02*
X724Y281D01*
X1292Y281D02*
X1294Y281D01*
X1567Y281D02*
X1570Y281D01*
X1596Y281D02*
X1602Y281D01*
X1613Y281D02*
X1628Y281D01*
X2229Y281D02*
X2231Y281D01*
X2708Y281D02*
X2715Y281D01*
X0Y280D02*
X7Y280D01*
X392Y280D02*
X395Y280D01*
X679Y280D02*
X685Y280D01*
X696Y280D02*
X702Y280D01*
X709Y280D02*
X722Y280D01*
X1292Y280D02*
X1294Y280D01*
X1567Y280D02*
X1570Y280D01*
X1596Y280D02*
X1602Y280D01*
X1613Y280D02*
X1626Y280D01*
X2229Y280D02*
X2231Y280D01*
X2708Y280D02*
X2715Y280D01*
X0Y279D02*
X7Y279D01*
X392Y279D02*
X395Y279D01*
X679Y279D02*
X685Y279D01*
X696Y279D02*
X702Y279D01*
X707Y279D02*
X720Y279D01*
X1292Y279D02*
X1294Y279D01*
X1567Y279D02*
X1570Y279D01*
X1596Y279D02*
X1602Y279D01*
X1613Y279D02*
X1625Y279D01*
X2229Y279D02*
X2231Y279D01*
X2708Y279D02*
X2715Y279D01*
X0Y278D02*
X7Y278D01*
X392Y278D02*
X395Y278D01*
X679Y278D02*
X685Y278D01*
X696Y278D02*
X702Y278D01*
X705Y278D02*
X718Y278D01*
X1292Y278D02*
X1294Y278D01*
X1567Y278D02*
X1570Y278D01*
X1596Y278D02*
X1602Y278D01*
X1613Y278D02*
X1623Y278D01*
X2229Y278D02*
X2231Y278D01*
X2708Y278D02*
X2715Y278D01*
X0Y277D02*
X7Y277D01*
X392Y277D02*
X395Y277D01*
X679Y277D02*
X685Y277D01*
X696Y277D02*
X717Y277D01*
X1292Y277D02*
X1294Y277D01*
X1567Y277D02*
X1570Y277D01*
X1596Y277D02*
X1602Y277D01*
X1613Y277D02*
X1621Y277D01*
X2708Y277D02*
X2715Y277D01*
X0Y276D02*
X7Y276D01*
X20Y276D02*
X21Y276D01*
X392Y276D02*
X395Y276D01*
X679Y276D02*
X685Y276D01*
X696Y276D02*
X715Y276D01*
X1292Y276D02*
X1294Y276D01*
X1567Y276D02*
X1570Y276D01*
X1596Y276D02*
X1602Y276D01*
X1613Y276D02*
X1620Y276D01*
X2708Y276D02*
X2715Y276D01*
X0Y275D02*
X7Y275D01*
X19Y275D02*
X22Y275D01*
X392Y275D02*
X395Y275D01*
X679Y275D02*
X685Y275D01*
X696Y275D02*
X713Y275D01*
X1292Y275D02*
X1294Y275D01*
X1567Y275D02*
X1570Y275D01*
X1596Y275D02*
X1602Y275D01*
X1613Y275D02*
X1619Y275D01*
X2708Y275D02*
X2715Y275D01*
X0Y274D02*
X7Y274D01*
X18Y274D02*
X23Y274D01*
X392Y274D02*
X395Y274D01*
X679Y274D02*
X685Y274D01*
X696Y274D02*
X712Y274D01*
X1292Y274D02*
X1294Y274D01*
X1567Y274D02*
X1570Y274D01*
X1596Y274D02*
X1602Y274D01*
X1613Y274D02*
X1619Y274D01*
X2708Y274D02*
X2715Y274D01*
X0Y273D02*
X7Y273D01*
X18Y273D02*
X24Y273D01*
X392Y273D02*
X395Y273D01*
X679Y273D02*
X685Y273D01*
X696Y273D02*
X710Y273D01*
X1292Y273D02*
X1294Y273D01*
X1567Y273D02*
X1570Y273D01*
X1596Y273D02*
X1602Y273D01*
X1613Y273D02*
X1619Y273D01*
X2708Y273D02*
X2715Y273D01*
X0Y272D02*
X7Y272D01*
X19Y272D02*
X25Y272D01*
X392Y272D02*
X395Y272D01*
X679Y272D02*
X685Y272D01*
X696Y272D02*
X708Y272D01*
X1292Y272D02*
X1294Y272D01*
X1567Y272D02*
X1570Y272D01*
X1596Y272D02*
X1602Y272D01*
X1613Y272D02*
X1619Y272D01*
X2708Y272D02*
X2715Y272D01*
X0Y271D02*
X7Y271D01*
X20Y271D02*
X26Y271D01*
X392Y271D02*
X395Y271D01*
X679Y271D02*
X685Y271D01*
X696Y271D02*
X706Y271D01*
X1292Y271D02*
X1294Y271D01*
X1567Y271D02*
X1570Y271D01*
X1596Y271D02*
X1646Y271D01*
X2708Y271D02*
X2715Y271D01*
X0Y270D02*
X7Y270D01*
X21Y270D02*
X27Y270D01*
X392Y270D02*
X395Y270D01*
X679Y270D02*
X685Y270D01*
X696Y270D02*
X705Y270D01*
X1292Y270D02*
X1294Y270D01*
X1567Y270D02*
X1570Y270D01*
X1596Y270D02*
X1648Y270D01*
X2708Y270D02*
X2715Y270D01*
X0Y269D02*
X7Y269D01*
X22Y269D02*
X28Y269D01*
X392Y269D02*
X395Y269D01*
X679Y269D02*
X685Y269D01*
X696Y269D02*
X703Y269D01*
X1292Y269D02*
X1294Y269D01*
X1567Y269D02*
X1570Y269D01*
X1596Y269D02*
X1648Y269D01*
X2708Y269D02*
X2715Y269D01*
X0Y268D02*
X7Y268D01*
X23Y268D02*
X29Y268D01*
X392Y268D02*
X395Y268D01*
X679Y268D02*
X685Y268D01*
X696Y268D02*
X702Y268D01*
X1292Y268D02*
X1294Y268D01*
X1567Y268D02*
X1570Y268D01*
X1596Y268D02*
X1649Y268D01*
X2708Y268D02*
X2715Y268D01*
X0Y267D02*
X7Y267D01*
X24Y267D02*
X30Y267D01*
X392Y267D02*
X395Y267D01*
X679Y267D02*
X685Y267D01*
X696Y267D02*
X702Y267D01*
X1292Y267D02*
X1294Y267D01*
X1567Y267D02*
X1570Y267D01*
X1596Y267D02*
X1649Y267D01*
X2708Y267D02*
X2715Y267D01*
X0Y266D02*
X7Y266D01*
X25Y266D02*
X31Y266D01*
X392Y266D02*
X395Y266D01*
X679Y266D02*
X685Y266D01*
X696Y266D02*
X702Y266D01*
X1292Y266D02*
X1294Y266D01*
X1567Y266D02*
X1570Y266D01*
X1596Y266D02*
X1648Y266D01*
X2708Y266D02*
X2715Y266D01*
X0Y265D02*
X7Y265D01*
X26Y265D02*
X32Y265D01*
X392Y265D02*
X395Y265D01*
X679Y265D02*
X685Y265D01*
X696Y265D02*
X702Y265D01*
X1292Y265D02*
X1294Y265D01*
X1567Y265D02*
X1570Y265D01*
X1596Y265D02*
X1648Y265D01*
X2708Y265D02*
X2715Y265D01*
X0Y264D02*
X7Y264D01*
X27Y264D02*
X33Y264D01*
X392Y264D02*
X395Y264D01*
X679Y264D02*
X685Y264D01*
X696Y264D02*
X703Y264D01*
X1292Y264D02*
X1294Y264D01*
X2708Y264D02*
X2715Y264D01*
X0Y263D02*
X7Y263D01*
X28Y263D02*
X34Y263D01*
X392Y263D02*
X395Y263D01*
X679Y263D02*
X731Y263D01*
X1292Y263D02*
X1294Y263D01*
X2708Y263D02*
X2715Y263D01*
X0Y262D02*
X7Y262D01*
X29Y262D02*
X35Y262D01*
X392Y262D02*
X395Y262D01*
X679Y262D02*
X731Y262D01*
X1292Y262D02*
X1294Y262D01*
X2708Y262D02*
X2715Y262D01*
X0Y261D02*
X7Y261D01*
X30Y261D02*
X36Y261D01*
X392Y261D02*
X395Y261D01*
X679Y261D02*
X732Y261D01*
X1292Y261D02*
X1294Y261D01*
X2708Y261D02*
X2715Y261D01*
X0Y260D02*
X7Y260D01*
X31Y260D02*
X36Y260D01*
X392Y260D02*
X395Y260D01*
X679Y260D02*
X732Y260D01*
X1292Y260D02*
X1294Y260D01*
X2708Y260D02*
X2715Y260D01*
X0Y259D02*
X7Y259D01*
X32Y259D02*
X37Y259D01*
X392Y259D02*
X395Y259D01*
X679Y259D02*
X732Y259D01*
X1292Y259D02*
X1294Y259D01*
X2708Y259D02*
X2715Y259D01*
X0Y258D02*
X7Y258D01*
X33Y258D02*
X38Y258D01*
X392Y258D02*
X395Y258D01*
X679Y258D02*
X731Y258D01*
X1292Y258D02*
X1294Y258D01*
X2708Y258D02*
X2715Y258D01*
X0Y257D02*
X7Y257D01*
X34Y257D02*
X40Y257D01*
X392Y257D02*
X395Y257D01*
X679Y257D02*
X729Y257D01*
X1292Y257D02*
X1294Y257D01*
X2708Y257D02*
X2715Y257D01*
X0Y256D02*
X7Y256D01*
X35Y256D02*
X41Y256D01*
X392Y256D02*
X395Y256D01*
X1292Y256D02*
X1294Y256D01*
X2708Y256D02*
X2715Y256D01*
X0Y255D02*
X7Y255D01*
X36Y255D02*
X42Y255D01*
X392Y255D02*
X395Y255D01*
X1292Y255D02*
X1294Y255D01*
X2708Y255D02*
X2715Y255D01*
X0Y254D02*
X7Y254D01*
X37Y254D02*
X43Y254D01*
X392Y254D02*
X395Y254D01*
X1292Y254D02*
X1294Y254D01*
X2708Y254D02*
X2715Y254D01*
X0Y253D02*
X7Y253D01*
X38Y253D02*
X44Y253D01*
X392Y253D02*
X395Y253D01*
X1292Y253D02*
X1294Y253D01*
X2708Y253D02*
X2715Y253D01*
X0Y252D02*
X7Y252D01*
X39Y252D02*
X45Y252D01*
X392Y252D02*
X395Y252D01*
X1292Y252D02*
X1294Y252D01*
X2708Y252D02*
X2715Y252D01*
X0Y251D02*
X7Y251D01*
X40Y251D02*
X46Y251D01*
X392Y251D02*
X395Y251D01*
X1292Y251D02*
X1294Y251D01*
X2708Y251D02*
X2715Y251D01*
X0Y250D02*
X7Y250D01*
X41Y250D02*
X47Y250D01*
X392Y250D02*
X395Y250D01*
X1292Y250D02*
X1294Y250D01*
X2708Y250D02*
X2715Y250D01*
X0Y249D02*
X7Y249D01*
X42Y249D02*
X48Y249D01*
X392Y249D02*
X395Y249D01*
X1292Y249D02*
X1294Y249D01*
X2708Y249D02*
X2715Y249D01*
X0Y248D02*
X7Y248D01*
X43Y248D02*
X49Y248D01*
X392Y248D02*
X395Y248D01*
X1292Y248D02*
X1294Y248D01*
X1596Y248D02*
X1606Y248D01*
X2708Y248D02*
X2715Y248D01*
X0Y247D02*
X7Y247D01*
X44Y247D02*
X50Y247D01*
X392Y247D02*
X395Y247D01*
X1292Y247D02*
X1294Y247D01*
X1596Y247D02*
X1607Y247D01*
X2708Y247D02*
X2715Y247D01*
X0Y246D02*
X7Y246D01*
X45Y246D02*
X51Y246D01*
X392Y246D02*
X395Y246D01*
X1292Y246D02*
X1294Y246D01*
X1596Y246D02*
X1607Y246D01*
X2708Y246D02*
X2715Y246D01*
X0Y245D02*
X7Y245D01*
X46Y245D02*
X52Y245D01*
X392Y245D02*
X395Y245D01*
X1292Y245D02*
X1294Y245D01*
X1596Y245D02*
X1608Y245D01*
X2708Y245D02*
X2715Y245D01*
X0Y244D02*
X7Y244D01*
X47Y244D02*
X53Y244D01*
X392Y244D02*
X395Y244D01*
X1292Y244D02*
X1294Y244D01*
X1596Y244D02*
X1607Y244D01*
X2708Y244D02*
X2715Y244D01*
X0Y243D02*
X7Y243D01*
X48Y243D02*
X54Y243D01*
X392Y243D02*
X395Y243D01*
X1292Y243D02*
X1294Y243D01*
X1596Y243D02*
X1607Y243D01*
X2708Y243D02*
X2715Y243D01*
X0Y242D02*
X7Y242D01*
X49Y242D02*
X55Y242D01*
X392Y242D02*
X395Y242D01*
X1292Y242D02*
X1294Y242D01*
X1596Y242D02*
X1605Y242D01*
X2708Y242D02*
X2715Y242D01*
X0Y241D02*
X7Y241D01*
X50Y241D02*
X54Y241D01*
X392Y241D02*
X395Y241D01*
X679Y241D02*
X689Y241D01*
X1292Y241D02*
X1294Y241D01*
X1596Y241D02*
X1602Y241D01*
X2708Y241D02*
X2715Y241D01*
X0Y240D02*
X7Y240D01*
X51Y240D02*
X53Y240D01*
X392Y240D02*
X395Y240D01*
X679Y240D02*
X690Y240D01*
X1292Y240D02*
X1294Y240D01*
X1596Y240D02*
X1602Y240D01*
X2708Y240D02*
X2715Y240D01*
X0Y239D02*
X7Y239D01*
X52Y239D02*
X52Y239D01*
X392Y239D02*
X395Y239D01*
X679Y239D02*
X690Y239D01*
X1292Y239D02*
X1294Y239D01*
X1596Y239D02*
X1602Y239D01*
X2708Y239D02*
X2715Y239D01*
X0Y238D02*
X7Y238D01*
X392Y238D02*
X395Y238D01*
X679Y238D02*
X691Y238D01*
X1292Y238D02*
X1294Y238D01*
X1596Y238D02*
X1602Y238D01*
X2708Y238D02*
X2715Y238D01*
X0Y237D02*
X7Y237D01*
X392Y237D02*
X395Y237D01*
X679Y237D02*
X690Y237D01*
X1292Y237D02*
X1294Y237D01*
X1596Y237D02*
X1602Y237D01*
X2708Y237D02*
X2715Y237D01*
X0Y236D02*
X7Y236D01*
X392Y236D02*
X395Y236D01*
X679Y236D02*
X690Y236D01*
X1292Y236D02*
X1294Y236D01*
X1596Y236D02*
X1602Y236D01*
X2708Y236D02*
X2715Y236D01*
X0Y235D02*
X7Y235D01*
X392Y235D02*
X395Y235D01*
X679Y235D02*
X689Y235D01*
X1292Y235D02*
X1294Y235D01*
X1596Y235D02*
X1602Y235D01*
X2708Y235D02*
X2715Y235D01*
X0Y234D02*
X7Y234D01*
X392Y234D02*
X395Y234D01*
X679Y234D02*
X685Y234D01*
X1292Y234D02*
X1294Y234D01*
X1596Y234D02*
X1647Y234D01*
X2708Y234D02*
X2715Y234D01*
X0Y233D02*
X7Y233D01*
X392Y233D02*
X395Y233D01*
X679Y233D02*
X685Y233D01*
X1292Y233D02*
X1294Y233D01*
X1596Y233D02*
X1648Y233D01*
X2708Y233D02*
X2715Y233D01*
X0Y232D02*
X7Y232D01*
X392Y232D02*
X395Y232D01*
X679Y232D02*
X685Y232D01*
X1292Y232D02*
X1294Y232D01*
X1596Y232D02*
X1649Y232D01*
X2708Y232D02*
X2715Y232D01*
X0Y231D02*
X7Y231D01*
X392Y231D02*
X395Y231D01*
X679Y231D02*
X685Y231D01*
X1292Y231D02*
X1294Y231D01*
X1596Y231D02*
X1649Y231D01*
X2708Y231D02*
X2715Y231D01*
X0Y230D02*
X7Y230D01*
X392Y230D02*
X395Y230D01*
X679Y230D02*
X685Y230D01*
X1292Y230D02*
X1294Y230D01*
X1596Y230D02*
X1648Y230D01*
X2708Y230D02*
X2715Y230D01*
X0Y229D02*
X7Y229D01*
X392Y229D02*
X395Y229D01*
X679Y229D02*
X685Y229D01*
X1292Y229D02*
X1294Y229D01*
X1596Y229D02*
X1648Y229D01*
X2708Y229D02*
X2715Y229D01*
X0Y228D02*
X7Y228D01*
X392Y228D02*
X395Y228D01*
X679Y228D02*
X685Y228D01*
X1292Y228D02*
X1294Y228D01*
X1596Y228D02*
X1646Y228D01*
X2708Y228D02*
X2715Y228D01*
X0Y227D02*
X7Y227D01*
X392Y227D02*
X395Y227D01*
X679Y227D02*
X730Y227D01*
X1292Y227D02*
X1294Y227D01*
X1596Y227D02*
X1602Y227D01*
X2708Y227D02*
X2715Y227D01*
X0Y226D02*
X7Y226D01*
X392Y226D02*
X395Y226D01*
X679Y226D02*
X731Y226D01*
X1292Y226D02*
X1294Y226D01*
X1596Y226D02*
X1602Y226D01*
X2708Y226D02*
X2715Y226D01*
X0Y225D02*
X7Y225D01*
X392Y225D02*
X395Y225D01*
X679Y225D02*
X732Y225D01*
X1292Y225D02*
X1294Y225D01*
X1596Y225D02*
X1602Y225D01*
X2708Y225D02*
X2715Y225D01*
X0Y224D02*
X7Y224D01*
X392Y224D02*
X395Y224D01*
X679Y224D02*
X732Y224D01*
X1292Y224D02*
X1294Y224D01*
X1596Y224D02*
X1602Y224D01*
X2708Y224D02*
X2715Y224D01*
X0Y223D02*
X7Y223D01*
X392Y223D02*
X395Y223D01*
X679Y223D02*
X732Y223D01*
X1292Y223D02*
X1294Y223D01*
X1596Y223D02*
X1602Y223D01*
X2708Y223D02*
X2715Y223D01*
X0Y222D02*
X7Y222D01*
X46Y222D02*
X48Y222D01*
X71Y222D02*
X103Y222D01*
X392Y222D02*
X395Y222D01*
X679Y222D02*
X731Y222D01*
X1292Y222D02*
X1294Y222D01*
X1596Y222D02*
X1602Y222D01*
X2708Y222D02*
X2715Y222D01*
X0Y221D02*
X7Y221D01*
X44Y221D02*
X49Y221D01*
X70Y221D02*
X103Y221D01*
X392Y221D02*
X395Y221D01*
X679Y221D02*
X730Y221D01*
X1292Y221D02*
X1294Y221D01*
X1596Y221D02*
X1605Y221D01*
X2708Y221D02*
X2715Y221D01*
X0Y220D02*
X7Y220D01*
X44Y220D02*
X49Y220D01*
X70Y220D02*
X103Y220D01*
X392Y220D02*
X395Y220D01*
X679Y220D02*
X685Y220D01*
X1292Y220D02*
X1294Y220D01*
X1596Y220D02*
X1607Y220D01*
X2708Y220D02*
X2715Y220D01*
X0Y219D02*
X7Y219D01*
X44Y219D02*
X50Y219D01*
X70Y219D02*
X103Y219D01*
X392Y219D02*
X395Y219D01*
X679Y219D02*
X685Y219D01*
X1292Y219D02*
X1294Y219D01*
X1596Y219D02*
X1607Y219D01*
X2708Y219D02*
X2715Y219D01*
X0Y218D02*
X7Y218D01*
X44Y218D02*
X50Y218D01*
X70Y218D02*
X103Y218D01*
X392Y218D02*
X395Y218D01*
X679Y218D02*
X685Y218D01*
X1292Y218D02*
X1294Y218D01*
X1596Y218D02*
X1608Y218D01*
X2708Y218D02*
X2715Y218D01*
X0Y217D02*
X7Y217D01*
X44Y217D02*
X50Y217D01*
X70Y217D02*
X103Y217D01*
X392Y217D02*
X395Y217D01*
X679Y217D02*
X685Y217D01*
X1292Y217D02*
X1294Y217D01*
X1596Y217D02*
X1607Y217D01*
X2708Y217D02*
X2715Y217D01*
X0Y216D02*
X7Y216D01*
X44Y216D02*
X50Y216D01*
X70Y216D02*
X103Y216D01*
X392Y216D02*
X395Y216D01*
X679Y216D02*
X685Y216D01*
X1292Y216D02*
X1294Y216D01*
X1596Y216D02*
X1607Y216D01*
X2708Y216D02*
X2715Y216D01*
X0Y215D02*
X7Y215D01*
X44Y215D02*
X50Y215D01*
X70Y215D02*
X75Y215D01*
X97Y215D02*
X103Y215D01*
X392Y215D02*
X395Y215D01*
X679Y215D02*
X685Y215D01*
X1292Y215D02*
X1294Y215D01*
X1567Y215D02*
X1570Y215D01*
X1596Y215D02*
X1606Y215D01*
X2708Y215D02*
X2715Y215D01*
X0Y214D02*
X7Y214D01*
X44Y214D02*
X50Y214D01*
X70Y214D02*
X75Y214D01*
X97Y214D02*
X103Y214D01*
X392Y214D02*
X395Y214D01*
X679Y214D02*
X685Y214D01*
X1292Y214D02*
X1294Y214D01*
X1567Y214D02*
X1570Y214D01*
X2708Y214D02*
X2715Y214D01*
X0Y213D02*
X7Y213D01*
X44Y213D02*
X50Y213D01*
X71Y213D02*
X74Y213D01*
X97Y213D02*
X103Y213D01*
X392Y213D02*
X395Y213D01*
X679Y213D02*
X689Y213D01*
X1292Y213D02*
X1294Y213D01*
X1567Y213D02*
X1570Y213D01*
X2708Y213D02*
X2715Y213D01*
X0Y212D02*
X7Y212D01*
X44Y212D02*
X50Y212D01*
X97Y212D02*
X103Y212D01*
X392Y212D02*
X395Y212D01*
X679Y212D02*
X690Y212D01*
X1292Y212D02*
X1294Y212D01*
X1567Y212D02*
X1570Y212D01*
X2708Y212D02*
X2715Y212D01*
X0Y211D02*
X7Y211D01*
X44Y211D02*
X50Y211D01*
X97Y211D02*
X103Y211D01*
X392Y211D02*
X395Y211D01*
X679Y211D02*
X691Y211D01*
X1292Y211D02*
X1294Y211D01*
X1567Y211D02*
X1570Y211D01*
X2708Y211D02*
X2715Y211D01*
X0Y210D02*
X7Y210D01*
X44Y210D02*
X50Y210D01*
X97Y210D02*
X103Y210D01*
X392Y210D02*
X395Y210D01*
X679Y210D02*
X691Y210D01*
X1292Y210D02*
X1294Y210D01*
X1567Y210D02*
X1570Y210D01*
X2708Y210D02*
X2715Y210D01*
X0Y209D02*
X7Y209D01*
X44Y209D02*
X50Y209D01*
X97Y209D02*
X103Y209D01*
X392Y209D02*
X395Y209D01*
X679Y209D02*
X690Y209D01*
X1292Y209D02*
X1294Y209D01*
X1567Y209D02*
X1570Y209D01*
X2708Y209D02*
X2715Y209D01*
X0Y208D02*
X7Y208D01*
X44Y208D02*
X50Y208D01*
X97Y208D02*
X103Y208D01*
X392Y208D02*
X395Y208D01*
X679Y208D02*
X690Y208D01*
X1292Y208D02*
X1294Y208D01*
X1567Y208D02*
X1570Y208D01*
X2708Y208D02*
X2715Y208D01*
X0Y207D02*
X7Y207D01*
X44Y207D02*
X50Y207D01*
X97Y207D02*
X103Y207D01*
X392Y207D02*
X395Y207D01*
X679Y207D02*
X687Y207D01*
X1292Y207D02*
X1294Y207D01*
X1567Y207D02*
X1570Y207D01*
X2708Y207D02*
X2715Y207D01*
X0Y206D02*
X7Y206D01*
X44Y206D02*
X50Y206D01*
X97Y206D02*
X103Y206D01*
X392Y206D02*
X395Y206D01*
X1292Y206D02*
X1294Y206D01*
X1567Y206D02*
X1570Y206D01*
X2708Y206D02*
X2715Y206D01*
X0Y205D02*
X7Y205D01*
X44Y205D02*
X50Y205D01*
X97Y205D02*
X103Y205D01*
X392Y205D02*
X395Y205D01*
X1292Y205D02*
X1294Y205D01*
X1567Y205D02*
X1570Y205D01*
X2708Y205D02*
X2715Y205D01*
X0Y204D02*
X7Y204D01*
X44Y204D02*
X50Y204D01*
X97Y204D02*
X103Y204D01*
X392Y204D02*
X395Y204D01*
X1292Y204D02*
X1294Y204D01*
X1567Y204D02*
X1570Y204D01*
X2708Y204D02*
X2715Y204D01*
X0Y203D02*
X7Y203D01*
X44Y203D02*
X50Y203D01*
X97Y203D02*
X103Y203D01*
X392Y203D02*
X395Y203D01*
X1292Y203D02*
X1294Y203D01*
X1567Y203D02*
X1570Y203D01*
X2708Y203D02*
X2715Y203D01*
X0Y202D02*
X7Y202D01*
X44Y202D02*
X50Y202D01*
X96Y202D02*
X103Y202D01*
X392Y202D02*
X395Y202D01*
X1292Y202D02*
X1294Y202D01*
X1567Y202D02*
X1570Y202D01*
X2708Y202D02*
X2715Y202D01*
X0Y201D02*
X7Y201D01*
X44Y201D02*
X50Y201D01*
X95Y201D02*
X103Y201D01*
X392Y201D02*
X395Y201D01*
X1292Y201D02*
X1294Y201D01*
X1567Y201D02*
X1570Y201D01*
X2708Y201D02*
X2715Y201D01*
X0Y200D02*
X7Y200D01*
X44Y200D02*
X50Y200D01*
X94Y200D02*
X103Y200D01*
X392Y200D02*
X395Y200D01*
X1292Y200D02*
X1294Y200D01*
X1567Y200D02*
X1570Y200D01*
X2708Y200D02*
X2715Y200D01*
X0Y199D02*
X7Y199D01*
X44Y199D02*
X50Y199D01*
X93Y199D02*
X102Y199D01*
X392Y199D02*
X395Y199D01*
X1292Y199D02*
X1294Y199D01*
X1567Y199D02*
X1570Y199D01*
X2708Y199D02*
X2715Y199D01*
X0Y198D02*
X7Y198D01*
X44Y198D02*
X50Y198D01*
X91Y198D02*
X101Y198D01*
X392Y198D02*
X395Y198D01*
X1292Y198D02*
X1294Y198D01*
X1567Y198D02*
X1570Y198D01*
X2708Y198D02*
X2715Y198D01*
X0Y197D02*
X7Y197D01*
X44Y197D02*
X50Y197D01*
X90Y197D02*
X100Y197D01*
X392Y197D02*
X395Y197D01*
X1292Y197D02*
X1294Y197D01*
X1567Y197D02*
X1570Y197D01*
X2708Y197D02*
X2715Y197D01*
X0Y196D02*
X7Y196D01*
X44Y196D02*
X50Y196D01*
X89Y196D02*
X99Y196D01*
X392Y196D02*
X395Y196D01*
X1292Y196D02*
X1294Y196D01*
X1567Y196D02*
X1570Y196D01*
X2708Y196D02*
X2715Y196D01*
X0Y195D02*
X7Y195D01*
X44Y195D02*
X50Y195D01*
X88Y195D02*
X98Y195D01*
X392Y195D02*
X395Y195D01*
X1292Y195D02*
X1294Y195D01*
X1567Y195D02*
X1570Y195D01*
X2708Y195D02*
X2715Y195D01*
X0Y194D02*
X7Y194D01*
X44Y194D02*
X50Y194D01*
X87Y194D02*
X96Y194D01*
X392Y194D02*
X395Y194D01*
X1292Y194D02*
X1294Y194D01*
X1567Y194D02*
X1570Y194D01*
X2708Y194D02*
X2715Y194D01*
X0Y193D02*
X7Y193D01*
X26Y193D02*
X26Y193D01*
X44Y193D02*
X50Y193D01*
X85Y193D02*
X95Y193D01*
X392Y193D02*
X395Y193D01*
X1292Y193D02*
X1294Y193D01*
X1567Y193D02*
X1570Y193D01*
X2708Y193D02*
X2715Y193D01*
X0Y192D02*
X7Y192D01*
X24Y192D02*
X28Y192D01*
X44Y192D02*
X50Y192D01*
X84Y192D02*
X94Y192D01*
X392Y192D02*
X395Y192D01*
X1292Y192D02*
X1294Y192D01*
X1567Y192D02*
X1570Y192D01*
X2708Y192D02*
X2715Y192D01*
X0Y191D02*
X7Y191D01*
X23Y191D02*
X29Y191D01*
X44Y191D02*
X50Y191D01*
X84Y191D02*
X93Y191D01*
X392Y191D02*
X395Y191D01*
X1292Y191D02*
X1294Y191D01*
X1567Y191D02*
X1570Y191D01*
X2708Y191D02*
X2715Y191D01*
X0Y190D02*
X7Y190D01*
X23Y190D02*
X29Y190D01*
X44Y190D02*
X50Y190D01*
X83Y190D02*
X92Y190D01*
X392Y190D02*
X395Y190D01*
X1292Y190D02*
X1294Y190D01*
X1567Y190D02*
X1570Y190D01*
X2708Y190D02*
X2715Y190D01*
X0Y189D02*
X7Y189D01*
X23Y189D02*
X29Y189D01*
X44Y189D02*
X50Y189D01*
X83Y189D02*
X91Y189D01*
X392Y189D02*
X395Y189D01*
X1292Y189D02*
X1294Y189D01*
X1567Y189D02*
X1570Y189D01*
X2708Y189D02*
X2715Y189D01*
X0Y188D02*
X7Y188D01*
X23Y188D02*
X29Y188D01*
X44Y188D02*
X50Y188D01*
X83Y188D02*
X90Y188D01*
X393Y188D02*
X394Y188D01*
X1293Y188D02*
X1294Y188D01*
X1568Y188D02*
X1569Y188D01*
X2708Y188D02*
X2715Y188D01*
X0Y187D02*
X7Y187D01*
X23Y187D02*
X29Y187D01*
X44Y187D02*
X50Y187D01*
X83Y187D02*
X89Y187D01*
X2708Y187D02*
X2715Y187D01*
X0Y186D02*
X7Y186D01*
X23Y186D02*
X29Y186D01*
X44Y186D02*
X50Y186D01*
X83Y186D02*
X89Y186D01*
X2708Y186D02*
X2715Y186D01*
X0Y185D02*
X7Y185D01*
X23Y185D02*
X29Y185D01*
X44Y185D02*
X50Y185D01*
X83Y185D02*
X89Y185D01*
X2708Y185D02*
X2715Y185D01*
X0Y184D02*
X7Y184D01*
X23Y184D02*
X29Y184D01*
X44Y184D02*
X50Y184D01*
X83Y184D02*
X89Y184D01*
X2708Y184D02*
X2715Y184D01*
X0Y183D02*
X7Y183D01*
X23Y183D02*
X29Y183D01*
X44Y183D02*
X50Y183D01*
X83Y183D02*
X89Y183D01*
X2708Y183D02*
X2715Y183D01*
X0Y182D02*
X7Y182D01*
X23Y182D02*
X29Y182D01*
X44Y182D02*
X50Y182D01*
X83Y182D02*
X89Y182D01*
X2708Y182D02*
X2715Y182D01*
X0Y181D02*
X7Y181D01*
X23Y181D02*
X29Y181D01*
X44Y181D02*
X50Y181D01*
X83Y181D02*
X89Y181D01*
X2708Y181D02*
X2715Y181D01*
X0Y180D02*
X7Y180D01*
X23Y180D02*
X29Y180D01*
X44Y180D02*
X50Y180D01*
X83Y180D02*
X89Y180D01*
X2708Y180D02*
X2715Y180D01*
X0Y179D02*
X7Y179D01*
X23Y179D02*
X29Y179D01*
X44Y179D02*
X50Y179D01*
X83Y179D02*
X89Y179D01*
X2708Y179D02*
X2715Y179D01*
X0Y178D02*
X7Y178D01*
X23Y178D02*
X29Y178D01*
X43Y178D02*
X50Y178D01*
X83Y178D02*
X89Y178D01*
X2708Y178D02*
X2715Y178D01*
X0Y177D02*
X7Y177D01*
X23Y177D02*
X30Y177D01*
X43Y177D02*
X49Y177D01*
X83Y177D02*
X89Y177D01*
X2708Y177D02*
X2715Y177D01*
X0Y176D02*
X7Y176D01*
X23Y176D02*
X31Y176D01*
X42Y176D02*
X49Y176D01*
X83Y176D02*
X89Y176D01*
X2708Y176D02*
X2715Y176D01*
X0Y175D02*
X7Y175D01*
X24Y175D02*
X49Y175D01*
X83Y175D02*
X89Y175D01*
X2708Y175D02*
X2715Y175D01*
X0Y174D02*
X7Y174D01*
X24Y174D02*
X48Y174D01*
X83Y174D02*
X89Y174D01*
X2708Y174D02*
X2715Y174D01*
X0Y173D02*
X7Y173D01*
X25Y173D02*
X48Y173D01*
X83Y173D02*
X89Y173D01*
X2708Y173D02*
X2715Y173D01*
X0Y172D02*
X7Y172D01*
X26Y172D02*
X47Y172D01*
X83Y172D02*
X89Y172D01*
X2708Y172D02*
X2715Y172D01*
X0Y171D02*
X7Y171D01*
X27Y171D02*
X46Y171D01*
X83Y171D02*
X89Y171D01*
X2708Y171D02*
X2715Y171D01*
X0Y170D02*
X7Y170D01*
X28Y170D02*
X45Y170D01*
X84Y170D02*
X89Y170D01*
X2708Y170D02*
X2715Y170D01*
X0Y169D02*
X7Y169D01*
X30Y169D02*
X43Y169D01*
X85Y169D02*
X88Y169D01*
X2708Y169D02*
X2715Y169D01*
X0Y168D02*
X7Y168D01*
X2708Y168D02*
X2715Y168D01*
X0Y167D02*
X7Y167D01*
X2708Y167D02*
X2715Y167D01*
X0Y166D02*
X7Y166D01*
X2708Y166D02*
X2715Y166D01*
X0Y165D02*
X7Y165D01*
X2708Y165D02*
X2715Y165D01*
X0Y164D02*
X7Y164D01*
X2708Y164D02*
X2715Y164D01*
X0Y163D02*
X7Y163D01*
X2708Y163D02*
X2715Y163D01*
X0Y162D02*
X7Y162D01*
X2708Y162D02*
X2715Y162D01*
X0Y161D02*
X7Y161D01*
X2708Y161D02*
X2715Y161D01*
X0Y160D02*
X7Y160D01*
X2708Y160D02*
X2715Y160D01*
X0Y159D02*
X7Y159D01*
X2708Y159D02*
X2715Y159D01*
X0Y158D02*
X7Y158D01*
X2708Y158D02*
X2715Y158D01*
X0Y157D02*
X7Y157D01*
X2708Y157D02*
X2715Y157D01*
X0Y156D02*
X7Y156D01*
X2708Y156D02*
X2715Y156D01*
X0Y155D02*
X7Y155D01*
X2708Y155D02*
X2715Y155D01*
X0Y154D02*
X7Y154D01*
X2708Y154D02*
X2715Y154D01*
X0Y153D02*
X7Y153D01*
X2708Y153D02*
X2715Y153D01*
X0Y152D02*
X7Y152D01*
X2708Y152D02*
X2715Y152D01*
X0Y151D02*
X7Y151D01*
X2708Y151D02*
X2715Y151D01*
X0Y150D02*
X7Y150D01*
X2708Y150D02*
X2715Y150D01*
X0Y149D02*
X7Y149D01*
X2708Y149D02*
X2715Y149D01*
X0Y148D02*
X7Y148D01*
X2708Y148D02*
X2715Y148D01*
X0Y147D02*
X7Y147D01*
X2708Y147D02*
X2715Y147D01*
X0Y146D02*
X7Y146D01*
X2708Y146D02*
X2715Y146D01*
X0Y145D02*
X7Y145D01*
X2708Y145D02*
X2715Y145D01*
X0Y144D02*
X7Y144D01*
X2708Y144D02*
X2715Y144D01*
X0Y143D02*
X7Y143D01*
X2708Y143D02*
X2715Y143D01*
X0Y142D02*
X7Y142D01*
X2708Y142D02*
X2715Y142D01*
X0Y141D02*
X7Y141D01*
X2708Y141D02*
X2715Y141D01*
X0Y140D02*
X7Y140D01*
X2708Y140D02*
X2715Y140D01*
X0Y139D02*
X7Y139D01*
X2708Y139D02*
X2715Y139D01*
X0Y138D02*
X7Y138D01*
X2708Y138D02*
X2715Y138D01*
X0Y137D02*
X7Y137D01*
X2708Y137D02*
X2715Y137D01*
X0Y136D02*
X7Y136D01*
X2708Y136D02*
X2715Y136D01*
X0Y135D02*
X7Y135D01*
X2708Y135D02*
X2715Y135D01*
X0Y134D02*
X7Y134D01*
X2708Y134D02*
X2715Y134D01*
X0Y133D02*
X7Y133D01*
X2708Y133D02*
X2715Y133D01*
X0Y132D02*
X7Y132D01*
X2708Y132D02*
X2715Y132D01*
X0Y131D02*
X7Y131D01*
X2708Y131D02*
X2715Y131D01*
X0Y130D02*
X7Y130D01*
X2708Y130D02*
X2715Y130D01*
X0Y129D02*
X7Y129D01*
X2708Y129D02*
X2715Y129D01*
X0Y128D02*
X7Y128D01*
X2708Y128D02*
X2715Y128D01*
X0Y127D02*
X7Y127D01*
X2708Y127D02*
X2715Y127D01*
X0Y126D02*
X7Y126D01*
X2708Y126D02*
X2715Y126D01*
X0Y125D02*
X7Y125D01*
X2708Y125D02*
X2715Y125D01*
X0Y124D02*
X7Y124D01*
X2708Y124D02*
X2715Y124D01*
X0Y123D02*
X7Y123D01*
X2708Y123D02*
X2715Y123D01*
X0Y122D02*
X7Y122D01*
X2708Y122D02*
X2715Y122D01*
X0Y121D02*
X7Y121D01*
X2708Y121D02*
X2715Y121D01*
X0Y120D02*
X7Y120D01*
X2708Y120D02*
X2715Y120D01*
X0Y119D02*
X7Y119D01*
X2708Y119D02*
X2715Y119D01*
X0Y118D02*
X7Y118D01*
X2708Y118D02*
X2715Y118D01*
X0Y117D02*
X7Y117D01*
X2708Y117D02*
X2715Y117D01*
X0Y116D02*
X7Y116D01*
X2708Y116D02*
X2715Y116D01*
X0Y115D02*
X7Y115D01*
X2708Y115D02*
X2715Y115D01*
X0Y114D02*
X7Y114D01*
X0Y113D02*
X7Y113D01*
X0Y112D02*
X7Y112D01*
X0Y111D02*
X7Y111D01*
X0Y110D02*
X7Y110D01*
X2708Y110D02*
X2715Y110D01*
X0Y109D02*
X7Y109D01*
X2708Y109D02*
X2715Y109D01*
X0Y108D02*
X7Y108D01*
X2708Y108D02*
X2715Y108D01*
X0Y107D02*
X7Y107D01*
X2708Y107D02*
X2715Y107D01*
X0Y106D02*
X7Y106D01*
X2708Y106D02*
X2715Y106D01*
X0Y105D02*
X7Y105D01*
X2708Y105D02*
X2715Y105D01*
X0Y104D02*
X7Y104D01*
X2708Y104D02*
X2715Y104D01*
X0Y103D02*
X7Y103D01*
X2708Y103D02*
X2715Y103D01*
X0Y102D02*
X7Y102D01*
X2708Y102D02*
X2715Y102D01*
X0Y101D02*
X7Y101D01*
X2708Y101D02*
X2715Y101D01*
X0Y100D02*
X7Y100D01*
X2708Y100D02*
X2715Y100D01*
X0Y99D02*
X7Y99D01*
X2708Y99D02*
X2715Y99D01*
X0Y98D02*
X7Y98D01*
X2708Y98D02*
X2715Y98D01*
X0Y97D02*
X7Y97D01*
X2708Y97D02*
X2715Y97D01*
X0Y96D02*
X7Y96D01*
X2708Y96D02*
X2715Y96D01*
X0Y95D02*
X7Y95D01*
X2708Y95D02*
X2715Y95D01*
X0Y94D02*
X7Y94D01*
X2708Y94D02*
X2715Y94D01*
X0Y93D02*
X7Y93D01*
X2708Y93D02*
X2715Y93D01*
X0Y92D02*
X7Y92D01*
X2708Y92D02*
X2715Y92D01*
X0Y91D02*
X7Y91D01*
X2708Y91D02*
X2715Y91D01*
X0Y90D02*
X7Y90D01*
X2708Y90D02*
X2715Y90D01*
X0Y89D02*
X7Y89D01*
X2708Y89D02*
X2715Y89D01*
X0Y88D02*
X7Y88D01*
X2708Y88D02*
X2715Y88D01*
X0Y87D02*
X7Y87D01*
X2708Y87D02*
X2715Y87D01*
X0Y86D02*
X7Y86D01*
X2708Y86D02*
X2715Y86D01*
X0Y85D02*
X7Y85D01*
X2708Y85D02*
X2715Y85D01*
X0Y84D02*
X7Y84D01*
X2267Y84D02*
X2300Y84D01*
X2317Y84D02*
X2342Y84D01*
X2367Y84D02*
X2392Y84D01*
X2423Y84D02*
X2443Y84D01*
X2474Y84D02*
X2498Y84D01*
X2708Y84D02*
X2715Y84D01*
X0Y83D02*
X7Y83D01*
X2267Y83D02*
X2300Y83D01*
X2317Y83D02*
X2344Y83D01*
X2367Y83D02*
X2394Y83D01*
X2420Y83D02*
X2445Y83D01*
X2473Y83D02*
X2499Y83D01*
X2708Y83D02*
X2715Y83D01*
X0Y82D02*
X7Y82D01*
X2267Y82D02*
X2300Y82D01*
X2317Y82D02*
X2346Y82D01*
X2367Y82D02*
X2396Y82D01*
X2419Y82D02*
X2447Y82D01*
X2473Y82D02*
X2500Y82D01*
X2708Y82D02*
X2715Y82D01*
X0Y81D02*
X7Y81D01*
X2267Y81D02*
X2300Y81D01*
X2317Y81D02*
X2347Y81D01*
X2367Y81D02*
X2397Y81D01*
X2418Y81D02*
X2448Y81D01*
X2473Y81D02*
X2500Y81D01*
X2708Y81D02*
X2715Y81D01*
X0Y80D02*
X7Y80D01*
X2267Y80D02*
X2300Y80D01*
X2317Y80D02*
X2348Y80D01*
X2367Y80D02*
X2398Y80D01*
X2417Y80D02*
X2448Y80D01*
X2473Y80D02*
X2500Y80D01*
X2708Y80D02*
X2715Y80D01*
X0Y79D02*
X7Y79D01*
X2267Y79D02*
X2300Y79D01*
X2317Y79D02*
X2349Y79D01*
X2367Y79D02*
X2399Y79D01*
X2417Y79D02*
X2449Y79D01*
X2473Y79D02*
X2500Y79D01*
X2708Y79D02*
X2715Y79D01*
X0Y78D02*
X7Y78D01*
X2267Y78D02*
X2300Y78D01*
X2317Y78D02*
X2349Y78D01*
X2367Y78D02*
X2399Y78D01*
X2417Y78D02*
X2450Y78D01*
X2473Y78D02*
X2499Y78D01*
X2708Y78D02*
X2715Y78D01*
X0Y77D02*
X7Y77D01*
X2267Y77D02*
X2273Y77D01*
X2280Y77D02*
X2287Y77D01*
X2294Y77D02*
X2300Y77D01*
X2317Y77D02*
X2323Y77D01*
X2342Y77D02*
X2350Y77D01*
X2367Y77D02*
X2373Y77D01*
X2392Y77D02*
X2400Y77D01*
X2417Y77D02*
X2423Y77D01*
X2442Y77D02*
X2450Y77D01*
X2473Y77D02*
X2480Y77D01*
X2708Y77D02*
X2715Y77D01*
X0Y76D02*
X7Y76D01*
X2267Y76D02*
X2273Y76D01*
X2280Y76D02*
X2286Y76D01*
X2294Y76D02*
X2300Y76D01*
X2317Y76D02*
X2323Y76D01*
X2343Y76D02*
X2350Y76D01*
X2367Y76D02*
X2373Y76D01*
X2393Y76D02*
X2400Y76D01*
X2417Y76D02*
X2423Y76D01*
X2444Y76D02*
X2450Y76D01*
X2473Y76D02*
X2479Y76D01*
X2708Y76D02*
X2715Y76D01*
X0Y75D02*
X7Y75D01*
X2267Y75D02*
X2273Y75D01*
X2280Y75D02*
X2286Y75D01*
X2294Y75D02*
X2300Y75D01*
X2317Y75D02*
X2323Y75D01*
X2344Y75D02*
X2350Y75D01*
X2367Y75D02*
X2373Y75D01*
X2394Y75D02*
X2400Y75D01*
X2417Y75D02*
X2423Y75D01*
X2444Y75D02*
X2450Y75D01*
X2473Y75D02*
X2479Y75D01*
X2708Y75D02*
X2715Y75D01*
X0Y74D02*
X7Y74D01*
X2267Y74D02*
X2272Y74D01*
X2280Y74D02*
X2286Y74D01*
X2294Y74D02*
X2300Y74D01*
X2317Y74D02*
X2323Y74D01*
X2344Y74D02*
X2350Y74D01*
X2367Y74D02*
X2373Y74D01*
X2394Y74D02*
X2400Y74D01*
X2417Y74D02*
X2424Y74D01*
X2444Y74D02*
X2450Y74D01*
X2473Y74D02*
X2479Y74D01*
X2708Y74D02*
X2715Y74D01*
X0Y73D02*
X7Y73D01*
X2267Y73D02*
X2272Y73D01*
X2280Y73D02*
X2286Y73D01*
X2295Y73D02*
X2300Y73D01*
X2317Y73D02*
X2323Y73D01*
X2344Y73D02*
X2350Y73D01*
X2367Y73D02*
X2373Y73D01*
X2394Y73D02*
X2400Y73D01*
X2417Y73D02*
X2425Y73D01*
X2445Y73D02*
X2449Y73D01*
X2473Y73D02*
X2479Y73D01*
X2708Y73D02*
X2715Y73D01*
X0Y72D02*
X7Y72D01*
X2268Y72D02*
X2271Y72D01*
X2280Y72D02*
X2286Y72D01*
X2296Y72D02*
X2299Y72D01*
X2317Y72D02*
X2323Y72D01*
X2344Y72D02*
X2350Y72D01*
X2367Y72D02*
X2373Y72D01*
X2394Y72D02*
X2400Y72D01*
X2418Y72D02*
X2426Y72D01*
X2446Y72D02*
X2449Y72D01*
X2473Y72D02*
X2479Y72D01*
X2708Y72D02*
X2715Y72D01*
X0Y71D02*
X7Y71D01*
X2280Y71D02*
X2286Y71D01*
X2317Y71D02*
X2323Y71D01*
X2344Y71D02*
X2350Y71D01*
X2367Y71D02*
X2373Y71D01*
X2394Y71D02*
X2400Y71D01*
X2418Y71D02*
X2426Y71D01*
X2473Y71D02*
X2479Y71D01*
X2708Y71D02*
X2715Y71D01*
X0Y70D02*
X7Y70D01*
X2280Y70D02*
X2286Y70D01*
X2317Y70D02*
X2323Y70D01*
X2344Y70D02*
X2350Y70D01*
X2367Y70D02*
X2373Y70D01*
X2394Y70D02*
X2400Y70D01*
X2419Y70D02*
X2427Y70D01*
X2473Y70D02*
X2479Y70D01*
X2708Y70D02*
X2715Y70D01*
X0Y69D02*
X7Y69D01*
X2280Y69D02*
X2286Y69D01*
X2317Y69D02*
X2323Y69D01*
X2344Y69D02*
X2350Y69D01*
X2367Y69D02*
X2373Y69D01*
X2394Y69D02*
X2400Y69D01*
X2420Y69D02*
X2428Y69D01*
X2473Y69D02*
X2479Y69D01*
X2708Y69D02*
X2715Y69D01*
X0Y68D02*
X7Y68D01*
X2280Y68D02*
X2286Y68D01*
X2317Y68D02*
X2323Y68D01*
X2343Y68D02*
X2350Y68D01*
X2367Y68D02*
X2373Y68D01*
X2393Y68D02*
X2400Y68D01*
X2421Y68D02*
X2429Y68D01*
X2473Y68D02*
X2479Y68D01*
X2708Y68D02*
X2715Y68D01*
X0Y67D02*
X7Y67D01*
X2280Y67D02*
X2286Y67D01*
X2317Y67D02*
X2323Y67D01*
X2342Y67D02*
X2350Y67D01*
X2367Y67D02*
X2373Y67D01*
X2392Y67D02*
X2400Y67D01*
X2422Y67D02*
X2430Y67D01*
X2473Y67D02*
X2479Y67D01*
X2708Y67D02*
X2715Y67D01*
X0Y66D02*
X7Y66D01*
X2280Y66D02*
X2286Y66D01*
X2317Y66D02*
X2349Y66D01*
X2367Y66D02*
X2399Y66D01*
X2422Y66D02*
X2430Y66D01*
X2473Y66D02*
X2479Y66D01*
X2708Y66D02*
X2715Y66D01*
X0Y65D02*
X7Y65D01*
X2280Y65D02*
X2286Y65D01*
X2317Y65D02*
X2349Y65D01*
X2367Y65D02*
X2399Y65D01*
X2423Y65D02*
X2431Y65D01*
X2473Y65D02*
X2479Y65D01*
X2708Y65D02*
X2715Y65D01*
X0Y64D02*
X7Y64D01*
X2280Y64D02*
X2286Y64D01*
X2317Y64D02*
X2348Y64D01*
X2367Y64D02*
X2398Y64D01*
X2424Y64D02*
X2432Y64D01*
X2473Y64D02*
X2479Y64D01*
X2708Y64D02*
X2715Y64D01*
X0Y63D02*
X7Y63D01*
X2280Y63D02*
X2286Y63D01*
X2317Y63D02*
X2347Y63D01*
X2367Y63D02*
X2397Y63D01*
X2425Y63D02*
X2433Y63D01*
X2473Y63D02*
X2479Y63D01*
X2708Y63D02*
X2715Y63D01*
X0Y62D02*
X7Y62D01*
X2280Y62D02*
X2286Y62D01*
X2317Y62D02*
X2346Y62D01*
X2367Y62D02*
X2396Y62D01*
X2425Y62D02*
X2433Y62D01*
X2473Y62D02*
X2479Y62D01*
X2708Y62D02*
X2715Y62D01*
X0Y61D02*
X7Y61D01*
X2280Y61D02*
X2286Y61D01*
X2317Y61D02*
X2345Y61D01*
X2367Y61D02*
X2395Y61D01*
X2426Y61D02*
X2434Y61D01*
X2473Y61D02*
X2480Y61D01*
X2708Y61D02*
X2715Y61D01*
X0Y60D02*
X7Y60D01*
X2280Y60D02*
X2286Y60D01*
X2317Y60D02*
X2342Y60D01*
X2367Y60D02*
X2392Y60D01*
X2427Y60D02*
X2435Y60D01*
X2473Y60D02*
X2496Y60D01*
X2708Y60D02*
X2715Y60D01*
X0Y59D02*
X7Y59D01*
X2280Y59D02*
X2286Y59D01*
X2317Y59D02*
X2323Y59D01*
X2329Y59D02*
X2336Y59D01*
X2367Y59D02*
X2373Y59D01*
X2379Y59D02*
X2386Y59D01*
X2428Y59D02*
X2436Y59D01*
X2473Y59D02*
X2497Y59D01*
X2708Y59D02*
X2715Y59D01*
X0Y58D02*
X7Y58D01*
X2280Y58D02*
X2286Y58D01*
X2317Y58D02*
X2323Y58D01*
X2329Y58D02*
X2336Y58D01*
X2367Y58D02*
X2373Y58D01*
X2379Y58D02*
X2386Y58D01*
X2429Y58D02*
X2437Y58D01*
X2473Y58D02*
X2498Y58D01*
X2708Y58D02*
X2715Y58D01*
X0Y57D02*
X7Y57D01*
X2280Y57D02*
X2286Y57D01*
X2317Y57D02*
X2323Y57D01*
X2330Y57D02*
X2337Y57D01*
X2367Y57D02*
X2373Y57D01*
X2380Y57D02*
X2387Y57D01*
X2429Y57D02*
X2437Y57D01*
X2473Y57D02*
X2499Y57D01*
X2708Y57D02*
X2715Y57D01*
X0Y56D02*
X7Y56D01*
X2280Y56D02*
X2286Y56D01*
X2317Y56D02*
X2323Y56D01*
X2330Y56D02*
X2338Y56D01*
X2367Y56D02*
X2373Y56D01*
X2380Y56D02*
X2388Y56D01*
X2430Y56D02*
X2438Y56D01*
X2473Y56D02*
X2500Y56D01*
X2708Y56D02*
X2715Y56D01*
X0Y55D02*
X7Y55D01*
X2280Y55D02*
X2286Y55D01*
X2317Y55D02*
X2323Y55D01*
X2331Y55D02*
X2338Y55D01*
X2367Y55D02*
X2373Y55D01*
X2381Y55D02*
X2388Y55D01*
X2431Y55D02*
X2439Y55D01*
X2473Y55D02*
X2500Y55D01*
X2708Y55D02*
X2715Y55D01*
X0Y54D02*
X7Y54D01*
X2280Y54D02*
X2286Y54D01*
X2317Y54D02*
X2323Y54D01*
X2332Y54D02*
X2339Y54D01*
X2367Y54D02*
X2373Y54D01*
X2382Y54D02*
X2389Y54D01*
X2432Y54D02*
X2440Y54D01*
X2473Y54D02*
X2500Y54D01*
X2708Y54D02*
X2715Y54D01*
X0Y53D02*
X7Y53D01*
X2280Y53D02*
X2286Y53D01*
X2317Y53D02*
X2323Y53D01*
X2332Y53D02*
X2339Y53D01*
X2367Y53D02*
X2373Y53D01*
X2382Y53D02*
X2389Y53D01*
X2432Y53D02*
X2440Y53D01*
X2494Y53D02*
X2500Y53D01*
X2708Y53D02*
X2715Y53D01*
X0Y52D02*
X7Y52D01*
X2280Y52D02*
X2286Y52D01*
X2317Y52D02*
X2323Y52D01*
X2333Y52D02*
X2340Y52D01*
X2367Y52D02*
X2373Y52D01*
X2383Y52D02*
X2390Y52D01*
X2433Y52D02*
X2441Y52D01*
X2494Y52D02*
X2500Y52D01*
X2708Y52D02*
X2715Y52D01*
X0Y51D02*
X7Y51D01*
X2280Y51D02*
X2286Y51D01*
X2317Y51D02*
X2323Y51D01*
X2333Y51D02*
X2341Y51D01*
X2367Y51D02*
X2373Y51D01*
X2383Y51D02*
X2390Y51D01*
X2434Y51D02*
X2442Y51D01*
X2494Y51D02*
X2500Y51D01*
X2708Y51D02*
X2715Y51D01*
X0Y50D02*
X7Y50D01*
X2280Y50D02*
X2286Y50D01*
X2317Y50D02*
X2323Y50D01*
X2334Y50D02*
X2341Y50D01*
X2367Y50D02*
X2373Y50D01*
X2384Y50D02*
X2391Y50D01*
X2435Y50D02*
X2443Y50D01*
X2494Y50D02*
X2500Y50D01*
X2708Y50D02*
X2715Y50D01*
X0Y49D02*
X7Y49D01*
X2280Y49D02*
X2286Y49D01*
X2317Y49D02*
X2323Y49D01*
X2334Y49D02*
X2342Y49D01*
X2367Y49D02*
X2373Y49D01*
X2384Y49D02*
X2392Y49D01*
X2436Y49D02*
X2444Y49D01*
X2494Y49D02*
X2500Y49D01*
X2708Y49D02*
X2715Y49D01*
X0Y48D02*
X7Y48D01*
X2280Y48D02*
X2286Y48D01*
X2317Y48D02*
X2323Y48D01*
X2335Y48D02*
X2342Y48D01*
X2367Y48D02*
X2373Y48D01*
X2385Y48D02*
X2392Y48D01*
X2436Y48D02*
X2444Y48D01*
X2494Y48D02*
X2500Y48D01*
X2708Y48D02*
X2715Y48D01*
X0Y47D02*
X7Y47D01*
X2280Y47D02*
X2286Y47D01*
X2317Y47D02*
X2323Y47D01*
X2336Y47D02*
X2343Y47D01*
X2367Y47D02*
X2373Y47D01*
X2386Y47D02*
X2393Y47D01*
X2437Y47D02*
X2445Y47D01*
X2494Y47D02*
X2500Y47D01*
X2708Y47D02*
X2715Y47D01*
X0Y46D02*
X7Y46D01*
X2280Y46D02*
X2286Y46D01*
X2317Y46D02*
X2323Y46D01*
X2336Y46D02*
X2343Y46D01*
X2367Y46D02*
X2373Y46D01*
X2386Y46D02*
X2393Y46D01*
X2438Y46D02*
X2446Y46D01*
X2494Y46D02*
X2500Y46D01*
X2708Y46D02*
X2715Y46D01*
X0Y45D02*
X7Y45D01*
X2280Y45D02*
X2286Y45D01*
X2317Y45D02*
X2323Y45D01*
X2337Y45D02*
X2344Y45D01*
X2367Y45D02*
X2373Y45D01*
X2387Y45D02*
X2394Y45D01*
X2439Y45D02*
X2447Y45D01*
X2494Y45D02*
X2500Y45D01*
X2708Y45D02*
X2715Y45D01*
X0Y44D02*
X7Y44D01*
X2280Y44D02*
X2286Y44D01*
X2317Y44D02*
X2323Y44D01*
X2337Y44D02*
X2345Y44D01*
X2367Y44D02*
X2373Y44D01*
X2387Y44D02*
X2395Y44D01*
X2439Y44D02*
X2447Y44D01*
X2494Y44D02*
X2500Y44D01*
X2708Y44D02*
X2715Y44D01*
X0Y43D02*
X7Y43D01*
X2280Y43D02*
X2286Y43D01*
X2317Y43D02*
X2323Y43D01*
X2338Y43D02*
X2345Y43D01*
X2367Y43D02*
X2373Y43D01*
X2388Y43D02*
X2395Y43D01*
X2440Y43D02*
X2448Y43D01*
X2494Y43D02*
X2500Y43D01*
X2708Y43D02*
X2715Y43D01*
X0Y42D02*
X7Y42D01*
X2280Y42D02*
X2286Y42D01*
X2317Y42D02*
X2323Y42D01*
X2339Y42D02*
X2346Y42D01*
X2367Y42D02*
X2373Y42D01*
X2389Y42D02*
X2396Y42D01*
X2418Y42D02*
X2421Y42D01*
X2441Y42D02*
X2449Y42D01*
X2494Y42D02*
X2500Y42D01*
X2708Y42D02*
X2715Y42D01*
X0Y41D02*
X7Y41D01*
X2280Y41D02*
X2286Y41D01*
X2317Y41D02*
X2323Y41D01*
X2339Y41D02*
X2346Y41D01*
X2367Y41D02*
X2373Y41D01*
X2389Y41D02*
X2396Y41D01*
X2417Y41D02*
X2422Y41D01*
X2442Y41D02*
X2449Y41D01*
X2494Y41D02*
X2500Y41D01*
X2708Y41D02*
X2715Y41D01*
X0Y40D02*
X7Y40D01*
X2280Y40D02*
X2286Y40D01*
X2317Y40D02*
X2323Y40D01*
X2340Y40D02*
X2347Y40D01*
X2367Y40D02*
X2373Y40D01*
X2390Y40D02*
X2397Y40D01*
X2417Y40D02*
X2422Y40D01*
X2443Y40D02*
X2450Y40D01*
X2494Y40D02*
X2500Y40D01*
X2708Y40D02*
X2715Y40D01*
X0Y39D02*
X7Y39D01*
X2280Y39D02*
X2286Y39D01*
X2317Y39D02*
X2323Y39D01*
X2340Y39D02*
X2348Y39D01*
X2367Y39D02*
X2373Y39D01*
X2390Y39D02*
X2398Y39D01*
X2417Y39D02*
X2423Y39D01*
X2443Y39D02*
X2450Y39D01*
X2468Y39D02*
X2472Y39D01*
X2494Y39D02*
X2500Y39D01*
X2708Y39D02*
X2715Y39D01*
X0Y38D02*
X7Y38D01*
X2280Y38D02*
X2286Y38D01*
X2317Y38D02*
X2323Y38D01*
X2341Y38D02*
X2348Y38D01*
X2367Y38D02*
X2373Y38D01*
X2391Y38D02*
X2398Y38D01*
X2417Y38D02*
X2423Y38D01*
X2444Y38D02*
X2450Y38D01*
X2467Y38D02*
X2475Y38D01*
X2494Y38D02*
X2500Y38D01*
X2708Y38D02*
X2715Y38D01*
X0Y37D02*
X7Y37D01*
X2280Y37D02*
X2286Y37D01*
X2317Y37D02*
X2323Y37D01*
X2342Y37D02*
X2349Y37D01*
X2367Y37D02*
X2373Y37D01*
X2391Y37D02*
X2399Y37D01*
X2417Y37D02*
X2450Y37D01*
X2467Y37D02*
X2500Y37D01*
X2708Y37D02*
X2715Y37D01*
X0Y36D02*
X7Y36D01*
X2280Y36D02*
X2286Y36D01*
X2317Y36D02*
X2323Y36D01*
X2342Y36D02*
X2349Y36D01*
X2367Y36D02*
X2373Y36D01*
X2392Y36D02*
X2399Y36D01*
X2417Y36D02*
X2450Y36D01*
X2467Y36D02*
X2500Y36D01*
X2708Y36D02*
X2715Y36D01*
X0Y35D02*
X7Y35D01*
X2280Y35D02*
X2286Y35D01*
X2317Y35D02*
X2323Y35D01*
X2343Y35D02*
X2350Y35D01*
X2367Y35D02*
X2373Y35D01*
X2393Y35D02*
X2400Y35D01*
X2418Y35D02*
X2449Y35D01*
X2467Y35D02*
X2500Y35D01*
X2708Y35D02*
X2715Y35D01*
X0Y34D02*
X7Y34D01*
X2280Y34D02*
X2286Y34D01*
X2317Y34D02*
X2323Y34D01*
X2343Y34D02*
X2350Y34D01*
X2367Y34D02*
X2373Y34D01*
X2393Y34D02*
X2400Y34D01*
X2418Y34D02*
X2449Y34D01*
X2468Y34D02*
X2499Y34D01*
X2708Y34D02*
X2715Y34D01*
X0Y33D02*
X7Y33D01*
X2280Y33D02*
X2286Y33D01*
X2317Y33D02*
X2322Y33D01*
X2344Y33D02*
X2350Y33D01*
X2367Y33D02*
X2372Y33D01*
X2394Y33D02*
X2400Y33D01*
X2419Y33D02*
X2448Y33D01*
X2469Y33D02*
X2499Y33D01*
X2708Y33D02*
X2715Y33D01*
X0Y32D02*
X7Y32D01*
X2281Y32D02*
X2286Y32D01*
X2317Y32D02*
X2322Y32D01*
X2344Y32D02*
X2350Y32D01*
X2367Y32D02*
X2372Y32D01*
X2394Y32D02*
X2400Y32D01*
X2420Y32D02*
X2447Y32D01*
X2471Y32D02*
X2498Y32D01*
X2708Y32D02*
X2715Y32D01*
X0Y31D02*
X7Y31D01*
X2282Y31D02*
X2285Y31D01*
X2318Y31D02*
X2321Y31D01*
X2345Y31D02*
X2349Y31D01*
X2368Y31D02*
X2371Y31D01*
X2395Y31D02*
X2399Y31D01*
X2422Y31D02*
X2446Y31D01*
X2474Y31D02*
X2496Y31D01*
X2708Y31D02*
X2715Y31D01*
X0Y30D02*
X7Y30D01*
X2708Y30D02*
X2715Y30D01*
X0Y29D02*
X7Y29D01*
X2708Y29D02*
X2715Y29D01*
X0Y28D02*
X7Y28D01*
X2708Y28D02*
X2715Y28D01*
X0Y27D02*
X7Y27D01*
X2708Y27D02*
X2715Y27D01*
X0Y26D02*
X7Y26D01*
X2708Y26D02*
X2715Y26D01*
X0Y25D02*
X7Y25D01*
X2708Y25D02*
X2715Y25D01*
X0Y24D02*
X7Y24D01*
X2708Y24D02*
X2715Y24D01*
X0Y23D02*
X7Y23D01*
X2708Y23D02*
X2715Y23D01*
X0Y22D02*
X7Y22D01*
X2708Y22D02*
X2715Y22D01*
X0Y21D02*
X7Y21D01*
X2708Y21D02*
X2715Y21D01*
X0Y20D02*
X7Y20D01*
X2708Y20D02*
X2715Y20D01*
X0Y19D02*
X7Y19D01*
X2708Y19D02*
X2715Y19D01*
X0Y18D02*
X7Y18D01*
X2708Y18D02*
X2715Y18D01*
X0Y17D02*
X7Y17D01*
X2708Y17D02*
X2715Y17D01*
X0Y16D02*
X7Y16D01*
X2708Y16D02*
X2715Y16D01*
X0Y15D02*
X7Y15D01*
X2708Y15D02*
X2715Y15D01*
X0Y14D02*
X7Y14D01*
X2708Y14D02*
X2715Y14D01*
X0Y13D02*
X7Y13D01*
X2708Y13D02*
X2715Y13D01*
X0Y12D02*
X7Y12D01*
X2708Y12D02*
X2715Y12D01*
X0Y11D02*
X7Y11D01*
X2708Y11D02*
X2715Y11D01*
X0Y10D02*
X7Y10D01*
X412Y10D02*
X414Y10D01*
X646Y10D02*
X648Y10D01*
X1312Y10D02*
X1314Y10D01*
X1545Y10D02*
X1547Y10D01*
X2708Y10D02*
X2715Y10D01*
X0Y9D02*
X2715Y9D01*
X0Y8D02*
X2715Y8D01*
X0Y7D02*
X2715Y7D01*
X0Y6D02*
X2715Y6D01*
X0Y5D02*
X2715Y5D01*
X0Y4D02*
X2715Y4D01*
X0Y3D02*
X2715Y3D01*
X0Y2D02*
X2715Y2D01*
X412Y1D02*
X415Y1D01*
X645Y1D02*
X648Y1D01*
X1312Y1D02*
X1314Y1D01*
X1545Y1D02*
X1548Y1D01*
X412Y0D02*
X415Y0D01*
X645Y0D02*
X648Y0D01*
X1312Y0D02*
X1314Y0D01*
X1545Y0D02*
X1548Y0D01*
D02*
G04 End of Silk1*
M02*